<?xml version="1.0" encoding="utf-8" ?>
<svg xmlns="http://www.w3.org/2000/svg" xmlns:xlink="http://www.w3.org/1999/xlink" width="1844" height="1844">
	<path fill="white" transform="scale(1.80081 1.80081)" d="M-0 -0L1024 0L1024 1024L-0 1024L0 -0Z"/>
	<path fill="#011205" transform="scale(1.80081 1.80081)" d="M220.499 415.999C213.02 412.241 205.105 406.711 198.461 401.616C163.245 374.61 135.411 337.608 118.039 296.89C113.016 285.117 108.468 272.596 106.834 259.861C122.025 254.942 138.193 253.562 154.075 253.01C188.793 251.804 222.193 256.703 255.014 268.116C270.442 273.482 285.462 280.466 300.111 287.662L279.506 311C272.289 319.761 266.048 329.009 259.813 338.467C254.847 346 249.848 353.382 245.576 361.352L226.627 401.351C224.897 405.422 223.567 413.082 220.499 415.999Z"/>
	<path fill="#011205" transform="scale(1.80081 1.80081)" d="M724.419 285.978L725.059 285.828C731.195 284.3 736.709 280.587 742.52 278.141L776.672 265.55C803.791 256.916 830.376 253.101 858.8 252.971C873.341 252.905 887.73 253.592 902.079 256.133L913.202 258.214C915.171 258.612 917.5 258.875 919.267 259.864C916.702 283.91 906.039 307.385 894.049 328.156C889.029 336.851 883.602 345.712 877.484 353.691C866.349 368.211 853.082 381.471 838.857 392.957L804.368 416.839C802.09 407.001 798.314 398.347 794.291 389.157C783.348 364.159 769.188 340.065 752.305 318.576L724.419 285.978Z"/>
	<path fill="#011205" transform="scale(1.80081 1.80081)" d="M220.511 598.286C223.178 607.029 227.137 615.701 230.799 624.052L242.151 648.308C244.489 652.727 247.371 656.909 249.956 661.192C257.115 673.048 264.487 684.604 272.888 695.648L283.016 707.731C290.025 716.289 297.246 725.095 305.426 732.589C302.485 735.189 298.426 736.645 294.909 738.348C285.895 742.714 276.871 746.898 267.441 750.312C243.573 758.952 217.627 764.802 192.204 765.814C173.562 766.556 155.345 764.787 137 761.553L121.141 758.367C117.11 757.483 113.222 756.797 109.458 755.039C110.711 744.205 113.493 734.451 116.699 724.058C118.52 718.153 121.122 712.575 123.577 706.918C135.724 678.936 153.043 654.463 174.675 632.971C188.266 619.469 203.513 607.253 220.511 598.286Z"/>
	<path fill="#011205" transform="scale(1.80081 1.80081)" d="M595.613 200.928C602.299 191.065 610.069 181.96 618.052 173.132C651.481 136.166 695.553 106.792 744.982 97.2002C753.143 95.6167 761.477 95.0056 769.778 94.882C773.782 127.75 773.298 161.347 765.302 193.645C760.59 212.676 753.42 230.386 744.775 247.908L730.375 273.818C728.069 277.655 725.138 280.859 723.582 285.126C721.521 284.543 713.103 274.791 710.862 272.639C698.533 260.8 685.431 249.296 671.524 239.363C655.771 228.111 638.708 218.794 621 211.021L604.219 204.272C601.382 203.22 598.07 202.692 595.613 200.928Z"/>
	<path fill="#011205" transform="scale(1.80081 1.80081)" d="M805.042 598.482C820.547 606.492 835.179 617.811 847.826 629.77C876.252 656.649 898.888 690.174 910.737 727.638C913.641 736.817 916.162 745.997 916.648 755.645C861.77 770.976 801.262 770.94 748.068 749.177C741.586 746.525 734.592 743.999 728.513 740.556L718.521 734.453L717.618 733.25L729.875 721.3L746.986 702.397C764.519 681.595 778.676 657.925 790.635 633.584C796.28 622.093 801.487 610.808 805.042 598.482Z"/>
	<path fill="#011205" transform="scale(1.80081 1.80081)" d="M301.779 286.581C299.159 281.25 295.476 276.214 292.328 271.158C286.689 262.1 281.137 252.773 276.31 243.264C258.655 208.482 251.047 169.259 251.547 130.451C251.697 118.844 252.339 106.665 254.285 95.2157C257.58 93.2704 277.071 96.6995 281.182 97.5481C323.996 106.385 360.858 129.391 392.25 159.217C405.824 172.114 418.641 186.147 428.967 201.815C422.195 203.081 415.42 206.274 409.085 208.925C368.16 226.051 332.079 254.464 301.779 286.581Z"/>
	<path fill="#011205" transform="scale(1.80081 1.80081)" d="M434.139 811.082L435 809.979C439.748 810.679 444.349 812.239 449.03 813.292L471.25 817.503C487.582 820.258 505.472 821.094 522 820.381L550.657 817.84C560.339 816.874 570.444 814.239 579.931 812.106C582.414 811.548 586.412 809.845 588.75 809.896C589.176 809.905 589.514 810.272 589.897 810.461L588.533 839.062C583.208 886.513 565.015 932.719 534.601 969.686C527.845 977.897 520.648 986.073 512.319 992.729C504.488 987.507 497.664 980.378 491.369 973.429C482.532 963.674 474.83 952.758 468.031 941.5C444.222 902.076 431.958 857.145 434.139 811.082Z"/>
	<path fill="#011205" transform="scale(1.80081 1.80081)" d="M306.263 734.18L333.5 756.996C339.349 761.528 345.407 765.205 351.552 769.25C368.153 780.176 384.987 790.63 403.522 798.024L414.514 802.85L427.902 807.621C429.587 808.199 432.344 808.707 433.569 810.023C424.412 828.09 411.335 843.293 396.855 857.352C390.452 863.57 383.267 869.099 376.143 874.454C341.946 900.158 298.527 919.136 255.153 918.421C254.615 907.751 253.165 897.223 253.109 886.5C252.88 843.146 265.194 800.338 287.002 763C292.888 752.924 300.073 744.011 306.263 734.18Z"/>
	<path fill="#011205" transform="scale(1.80081 1.80081)" d="M433.473 199.043C432.699 187.434 433.441 176.03 434.689 164.476C439.61 118.946 457.973 75.813 487.932 41.11L511.433 18.3775C519.053 23.732 525.89 30.9479 532.182 37.7978C561.36 69.5607 580.148 110.288 587.518 152.641C590.216 168.144 591.153 184.044 590.484 199.769C584.148 198.614 577.781 196.424 571.414 195.09C549.867 190.578 527.331 187.528 505.264 188.483C488.359 189.216 471.668 190.869 455.15 194.639L440.829 197.899C438.681 198.412 435.636 199.616 433.473 199.043Z"/>
	<path fill="#011205" transform="scale(1.80081 1.80081)" d="M591.007 810.046C595.884 807.14 602.229 805.643 607.56 803.655L628.304 795.252C633.969 792.848 639.434 789.715 644.879 786.855C666.842 775.321 687.069 761.616 705.56 745.047C709.242 741.748 713.234 738.661 716.294 734.757L716.763 734.151L717.953 734.52C728.935 746.349 736.814 758.917 744.344 773.114C763.8 809.793 773.39 848.847 771.879 890.453L769.424 918.771C710.336 916.95 655.798 888.388 615.668 845.75C606.45 835.956 594.707 823.179 591.007 810.046Z"/>
	<path fill="#011205" transform="scale(1.80081 1.80081)" d="M217.975 591.933C154.445 592.952 90.5791 571.451 42.926 528.918C40.2353 526.516 26.386 513.781 26.2359 511.171L36.409 499.734C75.9358 457.619 130.766 433.513 187.623 427.087C197.334 425.989 207.312 426.029 217.082 425.732C217.265 426.154 217.561 426.545 217.63 427C217.741 427.731 217.007 429.808 216.83 430.594L214.576 440.144C211.992 451.188 209.758 462.209 208.459 473.491C207.181 484.594 206.078 496.659 206.186 507.836C206.348 524.62 208.247 541.586 211.268 558.069L215.82 579.1C216.716 583.261 217.849 587.666 217.975 591.933Z"/>
	<path fill="#011205" transform="scale(1.80081 1.80081)" d="M807.548 426.118C836.365 425.266 863.315 429.815 890.75 438.503C904.211 442.765 917.917 448.125 930.382 454.825C949.852 465.29 967.352 478.248 983.411 493.385L999.999 511.846C996.52 518.38 990.141 524.374 984.755 529.406C958.28 554.145 926.187 570.191 891.787 580.734C879.303 584.56 865.812 587.691 852.876 589.387C837.774 591.367 822.746 591.707 807.542 592.017L807.603 591.87L810.297 579.453C812.66 569.365 815.136 559.064 816.738 548.819C821.892 515.85 821.691 481.775 814.129 449.175L810.304 435.146C809.469 432.098 808.89 428.994 807.548 426.118Z"/>
	<path fill="#007900" transform="scale(1.80081 1.80081)" d="M433.473 199.043C435.636 199.616 438.681 198.412 440.829 197.899L455.15 194.639C471.668 190.869 488.359 189.216 505.264 188.483C527.331 187.528 549.867 190.578 571.414 195.09C577.781 196.424 584.148 198.614 590.484 199.769L594.75 201.402L595.613 200.928C598.07 202.692 601.382 203.22 604.219 204.272L621 211.021C638.708 218.794 655.771 228.111 671.524 239.363C685.431 249.296 698.533 260.8 710.862 272.639C713.103 274.791 721.521 284.543 723.582 285.126L724.419 285.978L752.305 318.576C769.188 340.065 783.348 364.159 794.291 389.157C798.314 398.347 802.09 407.001 804.368 416.839C804.999 419.43 805.578 424.286 807.548 426.118C808.89 428.994 809.469 432.098 810.304 435.146L814.129 449.175C821.691 481.775 821.892 515.85 816.738 548.819C815.136 559.064 812.66 569.365 810.297 579.453L807.603 591.87L807.542 592.017L806.25 592.78L805.042 598.482C801.487 610.808 796.28 622.093 790.635 633.584C778.676 657.925 764.519 681.595 746.986 702.397L729.875 721.3L717.618 733.25L718.521 734.453L717.953 734.52L716.763 734.151L716.294 734.757C713.234 738.661 709.242 741.748 705.56 745.047C687.069 761.616 666.842 775.321 644.879 786.855C639.434 789.715 633.969 792.848 628.304 795.252L607.56 803.655C602.229 805.643 595.884 807.14 591.007 810.046L590.04 809.886L589.897 810.461C589.514 810.272 589.176 809.905 588.75 809.896C586.412 809.845 582.414 811.548 579.931 812.106C570.444 814.239 560.339 816.874 550.657 817.84L522 820.381C505.472 821.094 487.582 820.258 471.25 817.503L449.03 813.292C444.349 812.239 439.748 810.679 435 809.979L434.139 811.082L433.569 810.023C432.344 808.707 429.587 808.199 427.902 807.621L414.514 802.85L403.522 798.024C384.987 790.63 368.153 780.176 351.552 769.25C345.407 765.205 339.349 761.528 333.5 756.996L306.263 734.18L305.426 732.589C297.246 725.095 290.025 716.289 283.016 707.731L272.888 695.648C264.487 684.604 257.115 673.048 249.956 661.192C247.371 656.909 244.489 652.727 242.151 648.308L230.799 624.052C227.137 615.701 223.178 607.029 220.511 598.286C220.774 596.33 218.861 593.701 217.975 591.933C217.849 587.666 216.716 583.261 215.82 579.1L211.268 558.069C208.247 541.586 206.348 524.62 206.186 507.836C206.078 496.659 207.181 484.594 208.459 473.491C209.758 462.209 211.992 451.188 214.576 440.144L216.83 430.594C217.007 429.808 217.741 427.731 217.63 427C217.561 426.545 217.265 426.154 217.082 425.732L218 425.577C219.69 424.021 220.141 418.326 220.499 415.999C223.567 413.082 224.897 405.422 226.627 401.351L245.576 361.352C249.848 353.382 254.847 346 259.813 338.467C266.048 329.009 272.289 319.761 279.506 311L300.111 287.662L301.779 286.581C332.079 254.464 368.16 226.051 409.085 208.925C415.42 206.274 422.195 203.081 428.967 201.815L430.25 201.942C431.836 201.071 432.469 200.548 433.473 199.043Z"/>
	<path fill="white" transform="scale(1.80081 1.80081)" d="M474.157 307.25L475.506 307.058C486.049 313.568 497.19 319.333 505.188 329.111C508.148 332.73 510.052 336.838 512.04 341.031C520.551 324.603 534.104 315.312 549.712 306.362C552.55 307.96 554.788 310.435 557.107 312.687C564.922 320.277 570.124 326.741 574.543 336.808C579.217 334.607 583.685 332.51 588.714 331.234C596.923 329.151 605.812 328.987 614.246 328.552C618.425 342.331 622.31 355.407 621.982 370C621.856 375.593 620.784 381.115 619.765 386.599C632.024 383.4 645.565 382.26 658.144 384.213C665.267 385.32 672.411 387.54 679.302 389.642C683.705 390.985 688.249 392.182 692.522 393.886L692.927 416.25C692.617 432.133 687.471 446.731 680.458 460.778C684.658 462.847 688.95 464.757 692.953 467.197C704.323 474.126 714.778 483.777 723.024 494.228C725.987 497.983 728.32 502.139 731.373 505.848C729.663 509.617 726.274 513.73 723.804 517.09C714.948 529.144 705.024 540.182 692.288 548.236C688.65 550.536 684.606 552.277 680.706 554.089C683.2 559.231 686.024 564.385 687.947 569.77C693.639 585.712 692.628 603.246 692.638 619.9L691.882 620.426C688.135 622.686 682.747 624.081 678.557 625.471C658.733 632.048 640.203 634.323 620.121 627.525C621.612 633.562 622.821 639.852 622.917 646.093C623.139 660.536 618.222 675.019 613.797 688.593C601.056 688.575 588.684 688.882 576.713 683.852C571.332 697.332 563.161 707.722 552.359 717.329C551.45 717.831 550.627 718.582 549.579 718.391C546.302 717.796 542.882 715.32 540.12 713.58C533.744 709.563 527.667 705.519 522.393 700.058C518.485 696.01 515.356 691.341 512.198 686.707C503.133 701.716 489.992 711.292 474.243 718.621C462.451 711.786 452.095 696.704 447.99 683.833C445.151 683.99 441.901 686.256 438.908 686.802C429.911 688.443 420.772 688.335 411.665 688.494C409.118 680.516 406.113 672.293 404.446 664.084C401.905 651.575 402.95 639.472 405.935 627.184C401.409 629.254 395.804 630.074 390.889 630.652C385.536 631.281 380.08 631.757 374.688 631.419C360.973 630.559 347.34 625.835 334.469 621.256C333.187 603.967 333.225 587.37 338.674 570.734C340.536 565.05 343.138 559.74 345.726 554.364C333.969 547.834 322.78 540.738 313.657 530.719C310.678 527.448 295.362 508.777 295.499 505.861C306.209 490.645 318.317 476.854 334.457 467.167C337.134 465.559 339.95 464.039 342.817 462.798C344.479 462.078 346.382 461.654 347.885 460.66C344.675 454.026 341.409 447.524 339.191 440.466C334.275 424.829 334.873 409.336 335.872 393.244C354.009 387.647 371.816 381.386 391.156 383.746C396.067 384.346 400.744 385.76 405.467 387.166C405.726 385.617 405.22 383.877 404.987 382.326C404.526 379.255 404.095 376.291 404.026 373.177C403.668 356.875 406.944 343.861 412.135 328.521C425.975 329.173 437.934 329.921 450.412 336.465C455.716 325.323 463.443 313.9 474.157 307.25Z"/>
	<path fill="#ADD903" transform="scale(1.80081 1.80081)" d="M509.484 449.202C526.79 448.927 541.865 454.712 554.615 466.442C564.284 475.338 572.094 491.274 572.508 504.5C572.648 508.959 572.831 513.876 572.212 518.292C570.437 530.939 563.647 542.044 554.898 551.091C544.627 561.71 529.822 569.43 514.875 569.603C499.166 570.224 484.848 564.972 472.871 554.868C462.373 546.011 453.313 529.381 452.199 515.63C450.788 498.219 456.172 482.566 467.564 469.402C478.484 456.784 493.007 450.405 509.484 449.202Z"/>
</svg>
