<?xml version="1.0" encoding="utf-8" ?>
<svg xmlns="http://www.w3.org/2000/svg" xmlns:xlink="http://www.w3.org/1999/xlink" width="1844" height="1844">
	<path fill="white" transform="scale(1.80081 1.80081)" d="M-0 -0L1024 0L1024 1024L-0 1024L0 -0Z"/>
	<path fill="#2E0010" transform="scale(1.80081 1.80081)" d="M598.399 862.02C598.446 859.647 600.379 856.717 601.43 854.602L608.403 840.101C618.482 816.22 624.771 788.912 625.585 762.984C625.776 756.926 626.029 750.495 624.819 744.528L624.674 743.868C630.138 747.4 635.144 751.298 640.925 754.415C651.143 759.923 662.211 763.71 673.25 767.183C688.755 772.063 704.54 776.099 720.588 778.707L738.055 781.193C741.961 781.636 746.669 781.247 750.296 782.745L750.113 783.496L751.878 784.415C753.065 791.371 752.804 798.921 752.93 805.983C753.28 825.501 752.221 845.475 749.25 864.782L742.294 901.919C698.189 900.394 650.402 893.555 611.812 870.697C607.278 868.011 602.496 865.347 598.399 862.02Z"/>
	<path fill="#380015" transform="scale(1.80081 1.80081)" d="M425.788 140.516C427.404 137.355 428.155 133.449 429.341 130.077C431.633 123.561 434.181 117.148 437.127 110.898C443.135 98.1505 451.056 85.0527 459.992 74.159C473.269 57.9737 488.736 44.343 504.334 30.4925C506.616 31.4319 508.741 33.5076 510.687 35.0516L519.72 42.1036C540.714 59.4611 559.172 81.6966 572.642 105.383C579.026 116.609 584.22 128.292 589.515 140.032C589.081 142.203 588.512 143.408 586.873 144.921C582.157 149.274 576.65 152.854 571.657 156.878C565.684 161.692 559.124 166.778 553.624 172.087C549.261 176.298 545.209 180.934 541.138 185.429C537.673 189.256 534.074 193.011 531.025 197.183L515.18 220.782L510.605 215.104C509.232 217.629 507.971 220.235 506.118 222.446C505.443 222.145 504.716 221.857 504.173 221.33C503.161 220.347 502.335 218.478 501.522 217.268L493.716 204.949C491.08 200.952 487.877 196.917 484.884 193.172C477.852 184.374 469.594 176.921 461.323 169.348C449.979 158.961 438.648 149.001 425.788 140.516Z"/>
	<path fill="#380015" transform="scale(1.80081 1.80081)" d="M510.119 756.272C511.527 756.984 511.951 756.999 512.558 758.5C513.385 760.544 513.596 762.943 514.385 765.059C516.476 770.666 519.345 776.554 522.341 781.731C527.805 791.175 534.737 800.129 541.689 808.526C545.613 813.266 549.327 818.256 553.529 822.75C562.178 831.998 571.681 840.446 581.202 848.776C586.125 853.084 591.351 858.247 596.902 861.723L597.316 861.895L585.927 890.178C571.408 921.838 550.615 951.437 524.25 974.399C519.017 978.957 513.308 983.087 507.757 987.249C503.979 984.371 499.972 981.761 496.333 978.713C467.469 954.538 444.439 923.896 431.137 888.566C428.096 880.49 424.68 872.093 423.585 863.486L423.498 862.58L424.249 862.551L424.889 862.541C427.326 862.171 430.865 858.854 432.88 857.287C443.947 848.679 454.042 838.85 463.688 828.699C472.138 819.806 480.448 810.498 487.56 800.485C495.112 789.853 502.394 777.543 507.25 765.419C508.232 762.967 509.882 759.983 509.434 757.311L510.119 756.272Z"/>
	<path fill="#380015" transform="scale(1.80081 1.80081)" d="M864.283 613.881C877.465 630.445 889.267 651.607 895.948 671.733C901.49 688.428 904.522 706.408 906.069 723.908L907.624 755.488L907.024 755.685L881.808 765.287C849.009 776.367 815.39 783.002 780.7 783.06C771.31 783.075 761.205 783.545 752.041 781.25C751.75 782.386 751.823 783.261 751.878 784.415L750.113 783.496L750.296 782.745C751.281 768.603 749.664 754.079 747.9 740.062C746.402 728.169 744.741 715.689 741.99 704L738.391 691.376C734.9 678.444 730.434 665.041 723.411 653.55L723.123 653.088C740.932 653.014 758.973 652.01 776.509 648.776C807.885 642.99 837.304 630.672 864.283 613.881Z"/>
	<path fill="#380015" transform="scale(1.80081 1.80081)" d="M750.678 228.599L773.66 225.211C803.116 222.042 833.325 223.236 862.25 229.759L884.839 235.552C890.846 237.396 896.879 239.824 903.004 241.179C905.034 268.227 903.379 296.219 897.56 322.726C896.018 329.751 894.542 336.942 892.25 343.769C887.311 358.479 880.532 372.235 872.332 385.385C868.814 391.027 865.379 396.689 861.213 401.892C861.169 401.019 861.397 400.113 861.536 399.25C858.468 395.561 853.816 393.278 849.744 390.848C840.013 385.041 830.284 380.057 819.826 375.677C804.962 369.453 787.346 364.659 771.201 363.602C760.644 362.911 749.831 363.721 739.343 364.901C732.794 365.638 725.933 365.999 719.788 368.518L713.214 369.02C716.903 365.029 718.807 360.676 721.286 355.936C730.943 337.468 737.278 317.456 742.009 297.25C744.326 287.355 746.158 277.933 747.181 267.78C747.877 260.873 748.626 253.945 748.813 247C748.95 241.896 748.215 235.498 749.133 230.601C749.362 229.376 749.716 229.302 750.678 228.599Z"/>
	<path fill="#2E0010" transform="scale(1.80081 1.80081)" d="M857.591 407.254C868.587 409.742 879.847 411.573 890.482 415.476C917.864 425.524 940.041 442.717 959.829 463.788C966.763 471.171 973.718 478.976 979.644 487.202C971.266 503.023 962.434 518.489 951.513 532.75C934.99 554.327 914.986 573.573 891.5 587.414C883.795 591.955 875.855 595.489 867.646 598.982C864.328 600.394 861.099 602.072 857.705 603.29C855.627 602.333 843.174 581.937 840.644 578.528C832.165 567.103 822.661 556.178 812.463 546.25C808.012 541.918 803.05 538.189 798.622 533.77C799.71 532.957 800.966 532.225 801.615 531C799.434 528.239 796.049 526.497 793.25 524.391L779.905 514.131C770.204 507.392 760.179 501.668 749.949 495.82C753.701 493.877 757.809 492.72 761.586 490.792L782.444 478.916C786.877 476.277 791.529 473.886 795.828 471.042C808.634 462.571 821.632 451.639 831.781 440.128L845.852 423.082L853.124 413.092C854.417 411.195 855.652 408.53 857.591 407.254Z"/>
	<path fill="#380015" transform="scale(1.80081 1.80081)" d="M165.48 406.309L166.019 406.262C172.879 414.745 178.854 423.776 186.054 432.031C202.728 451.147 225.327 466.394 247.512 478.368L266.597 488.545C270.872 490.662 277.298 491.901 280.653 495.276C272.176 499.761 263.294 503.862 255.087 508.805C252.196 510.546 249.608 512.753 246.755 514.541C245.048 515.61 243.093 516.281 241.404 517.359C234.208 521.95 227.455 527.607 220.391 532.481L224.71 534.493L224.226 535.036C221.843 537.679 219.075 539.602 216.328 541.826L206.031 550.9C194.649 561.381 184.62 574.134 175.988 586.914C172.275 592.412 168.694 597.598 165.972 603.678C160.817 599.997 154.233 597.651 148.5 594.978C142.151 592.018 135.719 588.56 129.75 584.877C91.3453 561.172 64.031 525.453 42.7876 486.275C64.8504 456.196 95.2748 430.409 130.259 416.823C141.676 412.389 153.721 409.668 165.48 406.309Z"/>
	<path fill="#380015" transform="scale(1.80081 1.80081)" d="M160.947 611.574L161.81 612.5L161.682 613.221C161.526 614.262 161.536 613.849 161.75 614.891C164.331 617.289 167.556 618.434 170.697 619.908L184 626.048C212.812 638.094 242.366 646.837 273.667 649.167C281.826 649.774 290.126 649.507 298.306 649.464C279.783 680.636 273.409 715.479 271.672 751.277L271.284 768.75C271.304 772.745 271.635 776.535 271.107 780.5L271.116 781.571C290.28 780.44 310.007 778.395 328.744 774.089C350.618 769.062 373.049 760.392 392.447 749.084C392.465 755.541 393.293 761.695 394.019 768.088C395.813 783.872 398.881 799.693 403.773 814.839C407.525 826.454 412.292 837.321 417.106 848.5C418.723 852.253 419.828 858.119 422.435 861.079L422.465 861.914C419.681 863.258 417.257 865.595 414.645 867.272C409.947 870.288 404.624 872.853 399.574 875.251C362.141 893.024 320.394 900.848 279.148 901.639C277.665 895.296 275.777 889.083 274.589 882.663C268.435 849.404 268.177 815.409 270.296 781.756C229.857 785.839 190.548 778.239 151.93 766.981C141.306 763.884 129.727 760.677 119.868 755.647C119.253 749.918 119.466 744.067 119.491 738.31C119.578 717.936 122.307 697.695 127.49 678C130.386 666.996 133.884 656.014 138.949 645.789C143.135 637.34 147.966 629.247 153.392 621.537L160.947 611.574Z"/>
	<defs>
		<linearGradient id="gradient_0" gradientUnits="userSpaceOnUse" x1="621.36743" y1="611.89465" x2="758.77686" y2="772.19043">
			<stop offset="0" stop-color="#9C2D52"/>
			<stop offset="1" stop-color="#E0557F"/>
		</linearGradient>
	</defs>
	<path fill="url(#gradient_0)" transform="scale(1.80081 1.80081)" d="M510.119 756.272L512.985 753.722C520.968 746.558 527.372 738.68 533.755 730.109C549.433 709.059 561.69 685.199 563.129 658.6L570.665 668.009C574.805 673.13 580.204 677.756 585.396 681.776C603.01 695.414 622.177 702.266 643.264 708.648L665.208 714.512C668.142 715.253 671.037 716.301 674 716.9C677.868 717.682 682.149 717.747 686.09 718.174C685.437 690.518 689.553 660.616 680.329 633.895C679.471 631.411 678.176 629.086 677.234 626.63C671.823 612.511 664.761 600.851 654.902 589.398C661.286 590.46 667.928 590.162 674.351 589.614C691.767 588.129 707.579 582.882 723.614 576.182C740.316 569.203 756.113 561.031 771.564 551.628L798.622 533.77C803.05 538.189 808.012 541.918 812.463 546.25C822.661 556.178 832.165 567.103 840.644 578.528C843.174 581.937 855.627 602.333 857.705 603.29C859.156 606.931 862.127 610.579 864.283 613.881C837.304 630.672 807.885 642.99 776.509 648.776C758.973 652.01 740.932 653.014 723.123 653.088L723.411 653.55C730.434 665.041 734.9 678.444 738.391 691.376L741.99 704C744.741 715.689 746.402 728.169 747.9 740.062C749.664 754.079 751.281 768.603 750.296 782.745C746.669 781.247 741.961 781.636 738.055 781.193L720.588 778.707C704.54 776.099 688.755 772.063 673.25 767.183C662.211 763.71 651.143 759.923 640.925 754.415C635.144 751.298 630.138 747.4 624.674 743.868L624.819 744.528C626.029 750.495 625.776 756.926 625.585 762.984C624.771 788.912 618.482 816.22 608.403 840.101L601.43 854.602C600.379 856.717 598.446 859.647 598.399 862.02L597.316 861.895L596.902 861.723C591.351 858.247 586.125 853.084 581.202 848.776C571.681 840.446 562.178 831.998 553.529 822.75C549.327 818.256 545.613 813.266 541.689 808.526C534.737 800.129 527.805 791.175 522.341 781.731C519.345 776.554 516.476 770.666 514.385 765.059C513.596 762.943 513.385 760.544 512.558 758.5C511.951 756.999 511.527 756.984 510.119 756.272Z"/>
	<defs>
		<linearGradient id="gradient_1" gradientUnits="userSpaceOnUse" x1="401.12573" y1="611.41327" x2="263.31406" y2="772.57239">
			<stop offset="0" stop-color="#9C2C51"/>
			<stop offset="1" stop-color="#DF5681"/>
		</linearGradient>
	</defs>
	<path fill="url(#gradient_1)" transform="scale(1.80081 1.80081)" d="M224.71 534.493C229.907 537.301 234.537 540.791 239.598 543.767L285.384 568.754C293.349 572.684 301.448 576.793 309.836 579.739C322.298 584.114 334.728 586.795 347.846 588.192C357.571 589.228 368.167 589.933 377.868 588.406C378.737 588.269 378.357 588.292 379.281 588.386C378.074 589.696 376.712 591.513 375.25 592.503C373.662 593.578 371.777 594.22 370.198 595.356C366.772 597.821 363.125 602.356 360.486 605.663C338.843 632.79 337.09 674.477 338.449 707.742L338.699 718.693C361.276 714.772 385.118 709.969 406.337 701.159C416.305 697.021 425.606 691.604 434.54 685.593C437.097 683.872 439.849 682.349 442.28 680.46C449.404 674.927 456.101 667.874 461.987 661.063C463.084 689.769 478.134 717.238 494.677 739.992L508.261 757.371L509.434 757.311C509.882 759.983 508.232 762.967 507.25 765.419C502.394 777.543 495.112 789.853 487.56 800.485C480.448 810.498 472.138 819.806 463.688 828.699C454.042 838.85 443.947 848.679 432.88 857.287C430.865 858.854 427.326 862.171 424.889 862.541L424.249 862.551L423.498 862.58L422.465 861.914L422.435 861.079C419.828 858.119 418.723 852.253 417.106 848.5C412.292 837.321 407.525 826.454 403.773 814.839C398.881 799.693 395.813 783.872 394.019 768.088C393.293 761.695 392.465 755.541 392.447 749.084C373.049 760.392 350.618 769.062 328.744 774.089C310.007 778.395 290.28 780.44 271.116 781.571L271.107 780.5C271.635 776.535 271.304 772.745 271.284 768.75L271.672 751.277C273.409 715.479 279.783 680.636 298.306 649.464C290.126 649.507 281.826 649.774 273.667 649.167C242.366 646.837 212.812 638.094 184 626.048L170.697 619.908C167.556 618.434 164.331 617.289 161.75 614.891C161.536 613.849 161.526 614.262 161.682 613.221L161.81 612.5L160.947 611.574C161.087 610.869 162.21 609.653 162.67 609.01C163.898 607.294 164.946 605.518 165.972 603.678C168.694 597.598 172.275 592.412 175.988 586.914C184.62 574.134 194.649 561.381 206.031 550.9L216.328 541.826C219.075 539.602 221.843 537.679 224.226 535.036L224.71 534.493Z"/>
	<path fill="#380015" transform="scale(1.80081 1.80081)" d="M157.799 396.669C155.735 394.262 154.337 391.373 152.758 388.642L145.345 375.106C141.108 366.604 136.795 357.924 133.664 348.94C121.784 314.854 118.562 277.259 116.9 241.413C154.616 226.456 198.59 220.522 239.01 224.403C250.729 225.528 261.848 228.031 273.383 230.069C272.639 223.315 272.93 216.243 272.879 209.446C272.635 176.934 275.606 144.663 281.172 112.662C282.485 105.115 283.433 97.691 285.81 90.3788L306.068 92.0967C339.551 96.1306 373.124 104.881 401.867 123.067C409.757 128.06 417.74 133.543 424.502 140.024L424.323 140.882C423.788 143.157 422.1 145.414 421.053 147.5L414.025 162.5C406.104 180.294 400.338 199.441 397.488 218.703C395.235 233.932 394.181 250.042 395.917 265.359L397.461 277.2C397.873 279.698 399.393 284.575 398.492 286.844L388.652 282.236C373.364 276.038 356.904 271.942 340.542 270.045C339.037 296.45 339.43 323.678 348.188 348.983L354.75 366.363C356.559 370.65 358.744 374.788 360.377 379.148C348.882 374.982 337.517 372.433 325.303 371.355C320.643 370.943 315.711 371.26 311.114 370.627L307.434 370.44C302.631 368.685 297.871 367.873 292.962 366.595C288.432 365.417 284.111 364.043 279.46 363.345C255.548 359.755 231.566 363.233 208.911 371.25C201.874 373.74 194.62 377.18 187.848 380.319C183.672 382.255 179.946 384.704 175.89 386.777C173.36 388.071 170.679 389.042 168.209 390.451C164.738 392.43 161.572 395.371 157.799 396.669Z"/>
	<defs>
		<linearGradient id="gradient_2" gradientUnits="userSpaceOnUse" x1="378.84744" y1="358.1915" x2="268.49133" y2="235.8721">
			<stop offset="0" stop-color="#9E2D50"/>
			<stop offset="1" stop-color="#DD5383"/>
		</linearGradient>
	</defs>
	<path fill="url(#gradient_2)" transform="scale(1.80081 1.80081)" d="M311.114 370.627C306.429 365.007 303.157 356.147 300.005 349.5C293.924 336.677 288.365 323.37 284.44 309.71C277.021 283.891 274.376 255.725 273.98 228.931C309.745 232.991 345.071 244.605 373.691 266.975C378.341 270.61 381.934 275.343 386.386 279.135C387.759 280.304 387.987 280.552 388.652 282.236C373.364 276.038 356.904 271.942 340.542 270.045C339.037 296.45 339.43 323.678 348.188 348.983L354.75 366.363C356.559 370.65 358.744 374.788 360.377 379.148C348.882 374.982 337.517 372.433 325.303 371.355C320.643 370.943 315.711 371.26 311.114 370.627Z"/>
	<path fill="white" transform="scale(1.80081 1.80081)" d="M591.664 141.392C596.969 137.063 601.741 132.322 607.319 128.326C627.528 113.85 650.327 103.934 674.601 98.5514C695.02 94.0235 715.94 92.6223 736.755 91.2507L745.891 134.045C749.589 155.315 751.02 176.622 751.138 198.18C751.192 208.011 751.401 218.573 749.96 228.303L750.678 228.599C749.716 229.302 749.362 229.376 749.133 230.601C748.215 235.498 748.95 241.896 748.813 247C748.626 253.945 747.877 260.873 747.181 267.78C746.158 277.933 744.326 287.355 742.009 297.25C737.278 317.456 730.943 337.468 721.286 355.936C718.807 360.676 716.903 365.029 713.214 369.02L719.788 368.518C725.933 365.999 732.794 365.638 739.343 364.901C749.831 363.721 760.644 362.911 771.201 363.602C787.346 364.659 804.962 369.453 819.826 375.677C830.284 380.057 840.013 385.041 849.744 390.848C853.816 393.278 858.468 395.561 861.536 399.25C861.397 400.113 861.169 401.019 861.213 401.892L858.038 406.477C857.651 406.961 857.775 406.737 857.591 407.254C855.652 408.53 854.417 411.195 853.124 413.092L845.852 423.082L831.781 440.128C821.632 451.639 808.634 462.571 795.828 471.042C791.529 473.886 786.877 476.277 782.444 478.916L761.586 490.792C757.809 492.72 753.701 493.877 749.949 495.82C760.179 501.668 770.204 507.392 779.905 514.131L793.25 524.391C796.049 526.497 799.434 528.239 801.615 531C800.966 532.225 799.71 532.957 798.622 533.77L771.564 551.628C756.113 561.031 740.316 569.203 723.614 576.182C707.579 582.882 691.767 588.129 674.351 589.614C667.928 590.162 661.286 590.46 654.902 589.398C664.761 600.851 671.823 612.511 677.234 626.63C678.176 629.086 679.471 631.411 680.329 633.895C689.553 660.616 685.437 690.518 686.09 718.174C682.149 717.747 677.868 717.682 674 716.9C671.037 716.301 668.142 715.253 665.208 714.512L643.264 708.648C622.177 702.266 603.01 695.414 585.396 681.776C580.204 677.756 574.805 673.13 570.665 668.009L563.129 658.6C561.69 685.199 549.433 709.059 533.755 730.109C527.372 738.68 520.968 746.558 512.985 753.722L510.119 756.272L509.434 757.311L508.261 757.371L494.677 739.992C478.134 717.238 463.084 689.769 461.987 661.063C456.101 667.874 449.404 674.927 442.28 680.46C439.849 682.349 437.097 683.872 434.54 685.593C425.606 691.604 416.305 697.021 406.337 701.159C385.118 709.969 361.276 714.772 338.699 718.693L338.449 707.742C337.09 674.477 338.843 632.79 360.486 605.663C363.125 602.356 366.772 597.821 370.198 595.356C371.777 594.22 373.662 593.578 375.25 592.503C376.712 591.513 378.074 589.696 379.281 588.386C378.357 588.292 378.737 588.269 377.868 588.406C368.167 589.933 357.571 589.228 347.846 588.192C334.728 586.795 322.298 584.114 309.836 579.739C301.448 576.793 293.349 572.684 285.384 568.754L239.598 543.767C234.537 540.791 229.907 537.301 224.71 534.493L220.391 532.481C227.455 527.607 234.208 521.95 241.404 517.359C243.093 516.281 245.048 515.61 246.755 514.541C249.608 512.753 252.196 510.546 255.087 508.805C263.294 503.862 272.176 499.761 280.653 495.276C277.298 491.901 270.872 490.662 266.597 488.545L247.512 478.368C225.327 466.394 202.728 451.147 186.054 432.031C178.854 423.776 172.879 414.745 166.019 406.262L165.48 406.309L157.799 396.669C161.572 395.371 164.738 392.43 168.209 390.451C170.679 389.042 173.36 388.071 175.89 386.777C179.946 384.704 183.672 382.255 187.848 380.319C194.62 377.18 201.874 373.74 208.911 371.25C231.566 363.233 255.548 359.755 279.46 363.345C284.111 364.043 288.432 365.417 292.962 366.595C297.871 367.873 302.631 368.685 307.434 370.44L311.114 370.627C315.711 371.26 320.643 370.943 325.303 371.355C337.517 372.433 348.882 374.982 360.377 379.148C358.744 374.788 356.559 370.65 354.75 366.363L348.188 348.983C339.43 323.678 339.037 296.45 340.542 270.045C356.904 271.942 373.364 276.038 388.652 282.236L398.492 286.844C399.393 284.575 397.873 279.698 397.461 277.2L395.917 265.359C394.181 250.042 395.235 233.932 397.488 218.703C400.338 199.441 406.104 180.294 414.025 162.5L421.053 147.5C422.1 145.414 423.788 143.157 424.323 140.882L424.502 140.024L425.788 140.516C438.648 149.001 449.979 158.961 461.323 169.348C469.594 176.921 477.852 184.374 484.884 193.172C487.877 196.917 491.08 200.952 493.716 204.949L501.522 217.268C502.335 218.478 503.161 220.347 504.173 221.33C504.716 221.857 505.443 222.145 506.118 222.446C507.971 220.235 509.232 217.629 510.605 215.104L515.18 220.782L531.025 197.183C534.074 193.011 537.673 189.256 541.138 185.429C545.209 180.934 549.261 176.298 553.624 172.087C559.124 166.778 565.684 161.692 571.657 156.878C576.65 152.854 582.157 149.274 586.873 144.921C588.512 143.408 589.081 142.203 589.515 140.032C590.179 140.497 590.897 141.139 591.664 141.392Z"/>
	<defs>
		<linearGradient id="gradient_3" gradientUnits="userSpaceOnUse" x1="660.00555" y1="371.44006" x2="720.66461" y2="218.18082">
			<stop offset="0" stop-color="#992E53"/>
			<stop offset="1" stop-color="#D9537C"/>
		</linearGradient>
	</defs>
	<path fill="url(#gradient_3)" transform="scale(1.80081 1.80081)" d="M749.96 228.303L750.678 228.599C749.716 229.302 749.362 229.376 749.133 230.601C748.215 235.498 748.95 241.896 748.813 247C748.626 253.945 747.877 260.873 747.181 267.78C746.158 277.933 744.326 287.355 742.009 297.25C737.278 317.456 730.943 337.468 721.286 355.936C718.807 360.676 716.903 365.029 713.214 369.02C697.942 370.213 680.78 370.55 666.908 377.475C670.472 368.589 674.052 360.239 676.664 350.946C681.538 333.605 683.482 315.738 684.11 297.797C684.452 288.017 684.59 277.948 682.7 268.308C677.308 270.134 672.032 271.024 666.534 272.307C656.898 274.556 647.218 276.906 637.956 280.406C641.696 276.596 645.326 272.563 649.355 269.061C667.79 253.036 688.166 242.943 711.488 236.115C724.274 232.371 736.678 229.575 749.96 228.303Z"/>
	<defs>
		<linearGradient id="gradient_4" gradientUnits="userSpaceOnUse" x1="694.30145" y1="467.4707" x2="834.63147" y2="364.44562">
			<stop offset="0" stop-color="#A02E58"/>
			<stop offset="1" stop-color="#D9547C"/>
		</linearGradient>
	</defs>
	<path fill="url(#gradient_4)" transform="scale(1.80081 1.80081)" d="M719.788 368.518C725.933 365.999 732.794 365.638 739.343 364.901C749.831 363.721 760.644 362.911 771.201 363.602C787.346 364.659 804.962 369.453 819.826 375.677C830.284 380.057 840.013 385.041 849.744 390.848C853.816 393.278 858.468 395.561 861.536 399.25C861.397 400.113 861.169 401.019 861.213 401.892L858.038 406.477C857.651 406.961 857.775 406.737 857.591 407.254C855.652 408.53 854.417 411.195 853.124 413.092L845.852 423.082L831.781 440.128C821.632 451.639 808.634 462.571 795.828 471.042C791.529 473.886 786.877 476.277 782.444 478.916L761.586 490.792C757.809 492.72 753.701 493.877 749.949 495.82C733.706 488.025 716.205 484.197 698.803 479.904C709.947 472.047 720.145 463.266 728.7 452.588C738.451 440.416 745.86 426.288 753.005 412.5C759.715 399.55 766.721 386.57 771.412 372.701L719.788 368.518Z"/>
	<defs>
		<linearGradient id="gradient_5" gradientUnits="userSpaceOnUse" x1="340.07141" y1="456.63342" x2="172.28838" y2="371.72852">
			<stop offset="0" stop-color="#9C2B53"/>
			<stop offset="1" stop-color="#DA547D"/>
		</linearGradient>
	</defs>
	<path fill="url(#gradient_5)" transform="scale(1.80081 1.80081)" d="M157.799 396.669C161.572 395.371 164.738 392.43 168.209 390.451C170.679 389.042 173.36 388.071 175.89 386.777C179.946 384.704 183.672 382.255 187.848 380.319C194.62 377.18 201.874 373.74 208.911 371.25C231.566 363.233 255.548 359.755 279.46 363.345C284.111 364.043 288.432 365.417 292.962 366.595C297.871 367.873 302.631 368.685 307.434 370.44L256.417 374.745C260.283 385.752 265.236 396.234 270.558 406.606C282.777 430.418 297.741 452.275 317.971 470.079C322.611 474.162 327.863 477.332 332.749 481.07C324.415 481.871 316.12 482.766 307.985 484.828C298.526 487.227 289.419 491.021 280.653 495.276C277.298 491.901 270.872 490.662 266.597 488.545L247.512 478.368C225.327 466.394 202.728 451.147 186.054 432.031C178.854 423.776 172.879 414.745 166.019 406.262L165.48 406.309L157.799 396.669Z"/>
	<defs>
		<linearGradient id="gradient_6" gradientUnits="userSpaceOnUse" x1="491.73074" y1="320.01025" x2="394.19772" y2="160.31195">
			<stop offset="0" stop-color="#95254A"/>
			<stop offset="1" stop-color="#DD5781"/>
		</linearGradient>
	</defs>
	<path fill="url(#gradient_6)" transform="scale(1.80081 1.80081)" d="M424.502 140.024L425.788 140.516C438.648 149.001 449.979 158.961 461.323 169.348C469.594 176.921 477.852 184.374 484.884 193.172C487.877 196.917 491.08 200.952 493.716 204.949L501.522 217.268C502.335 218.478 503.161 220.347 504.173 221.33C504.716 221.857 505.443 222.145 506.118 222.446C480.669 252.452 463.614 289.112 460.614 328.574C460.2 334.028 460.479 339.6 460.401 345.071L458.486 341.687C455.673 336.675 451.78 332.247 448.133 327.825C440.53 318.608 432.622 309.468 423.121 302.117C417.397 297.688 410.551 293.921 404.304 290.295C403.455 289.802 398.724 287.391 398.492 286.844C399.393 284.575 397.873 279.698 397.461 277.2L395.917 265.359C394.181 250.042 395.235 233.932 397.488 218.703C400.338 199.441 406.104 180.294 414.025 162.5L421.053 147.5C422.1 145.414 423.788 143.157 424.323 140.882L424.502 140.024Z"/>
	<defs>
		<linearGradient id="gradient_7" gradientUnits="userSpaceOnUse" x1="547.37842" y1="347.26276" x2="596.55908" y2="141.68878">
			<stop offset="0" stop-color="#95264E"/>
			<stop offset="1" stop-color="#DE567F"/>
		</linearGradient>
	</defs>
	<path fill="url(#gradient_7)" transform="scale(1.80081 1.80081)" d="M589.515 140.032C590.179 140.497 590.897 141.139 591.664 141.392L591.87 141.847C593.286 144.816 595.51 147.221 597.426 149.867L605.533 162.244C607.719 165.848 609.33 169.979 611.103 173.803C619.284 191.447 624.372 210.156 625.736 229.602C627.247 243.216 627.626 256.494 626.509 270.156C626.044 275.84 624.758 281.699 624.534 287.334C622.435 289.231 618.979 290.545 616.5 292.033C612.665 294.335 608.947 297.04 605.364 299.718C586.981 313.459 573.89 332.831 562.872 352.638C562.227 346.079 563.309 339.311 562.872 332.679C560.778 300.92 549.17 271.542 532.98 244.476C527.991 236.136 522.521 227.236 515.18 220.782L531.025 197.183C534.074 193.011 537.673 189.256 541.138 185.429C545.209 180.934 549.261 176.298 553.624 172.087C559.124 166.778 565.684 161.692 571.657 156.878C576.65 152.854 582.157 149.274 586.873 144.921C588.512 143.408 589.081 142.203 589.515 140.032Z"/>
	<path fill="#380015" transform="scale(1.80081 1.80081)" d="M591.664 141.392C596.969 137.063 601.741 132.322 607.319 128.326C627.528 113.85 650.327 103.934 674.601 98.5514C695.02 94.0235 715.94 92.6223 736.755 91.2507L745.891 134.045C749.589 155.315 751.02 176.622 751.138 198.18C751.192 208.011 751.401 218.573 749.96 228.303C736.678 229.575 724.274 232.371 711.488 236.115C688.166 242.943 667.79 253.036 649.355 269.061C645.326 272.563 641.696 276.596 637.956 280.406L624.534 287.334C624.758 281.699 626.044 275.84 626.509 270.156C627.626 256.494 627.247 243.216 625.736 229.602C624.372 210.156 619.284 191.447 611.103 173.803C609.33 169.979 607.719 165.848 605.533 162.244L597.426 149.867C595.51 147.221 593.286 144.816 591.87 141.847L591.664 141.392Z"/>
	<path fill="#DF4156" transform="scale(1.80081 1.80081)" d="M512.815 390.75C514.06 390.555 514.32 390.548 515.5 390.975C520.41 396.425 526.296 402.949 529.413 409.605C531.03 413.058 531.868 416.878 532.725 420.576C535.033 418.743 536.959 415.539 539.245 413.421C542.7 410.22 546.662 407.571 550.501 404.856C556.98 400.273 562.877 396.159 570.427 393.501C573.428 403.994 576.484 413.533 577.348 424.516C582.575 423.331 588.002 423.438 593.329 423.443C597.478 423.446 601.672 423.337 605.796 423.829C607.039 423.977 608.745 422.85 609.912 422.296C603.498 432.699 602.601 444.949 596.251 455.51C601.932 459.226 608.493 461.492 614.637 464.335C619.476 466.574 624.305 469.621 629.453 471.094C631.731 471.745 634.421 471.771 636.783 471.948C629.41 477.657 624.013 485.654 616.189 490.697C613.886 492.182 611.182 493.027 608.604 493.916C612.456 497.267 617.006 499.763 620.75 503.15C625.723 507.649 630.199 513.057 635.034 517.772L630.865 520.177C626.36 522.242 622.571 526.502 618.178 529.08C612.767 532.254 606.037 534.96 599.862 536.143C597.385 536.618 594.715 536.585 592.318 537.332C594.782 541.72 597.425 546.153 598.842 551.018C601.678 560.763 600.132 571.554 599.973 581.566C589.328 580.976 579.643 580.018 570.407 574.187C570.699 578.362 571.001 582.579 570.488 586.75C569.616 593.843 567.048 601.074 565.225 607.99C558.835 606.324 554.048 603.399 548.5 599.923C542.056 595.886 536.429 591.823 531.542 585.925C527.607 594.326 520.764 602.779 512.38 606.989C505.315 601.512 499.111 594.334 496.192 585.737L496.042 585.264C494.352 587.453 492.729 589.865 490.753 591.804C483.854 598.574 472.891 604.629 463.585 607.026C460.045 600.817 456.735 592.317 455.505 585.315L455.372 584.5C454.872 581.614 455.274 578.892 455.612 576.01C446.174 580.38 436.681 581.296 426.414 581.524C426.924 571.938 425.853 562.744 427.939 553.25L432.702 537.56C419.756 537.318 407.856 532.542 397.611 524.85C394.856 522.781 392.614 520.129 389.722 518.253L389.342 518.015C398.623 509.231 406.458 499.914 419.599 497.305C417.112 496.726 414.299 496.715 411.921 495.821C410.214 495.178 408.697 493.805 407.213 492.744C403.054 489.772 398.619 486.561 395.57 482.402C393.268 479.262 391.761 476.222 388.841 473.518L388.237 472.964C396.298 471.453 403.767 467.424 411.366 464.454C419.203 461.392 427.016 458.994 434.581 455.228C427.915 444.77 424.216 433.849 419.543 422.455C426.274 422.911 433.026 422.015 439.75 422.601C442.905 422.876 446.053 423.649 449.148 424.288C450.585 424.585 452.192 425.186 453.635 424.75L453.348 424.201C452.227 421.517 452.601 418.555 452.907 415.75C453.736 408.148 456.065 401.821 458.347 394.579C466.483 397.702 473.312 401.992 480.39 407.007C485.84 410.869 491.097 414.912 495.224 420.238L495.572 420.7L495.937 418.35C497.642 406.249 504.98 399.379 512.815 390.75Z"/>
	<path fill="#CE3442" transform="scale(1.80081 1.80081)" d="M547.919 446.821C553.792 447.58 559.834 446.346 565.514 447.338L567.873 447.716L567.529 454.203C574.155 456.973 583.187 456.448 589.043 460.577C586.532 463.384 583.224 466.181 581.373 469.481C579.515 472.796 578.418 476.46 576.483 479.752C569.085 470.795 558.975 469.327 548.171 467.852C549.937 460.912 549.926 454.545 548.117 447.57L547.919 446.821Z"/>
	<path fill="#CE3442" transform="scale(1.80081 1.80081)" d="M453.616 478.929C450.593 474.967 447.193 471.57 443.72 468.008C441.124 465.345 438.375 462.758 436.954 459.25C440.014 460.431 444.233 458.269 447.312 457.561C449.967 456.95 452.675 456.632 455.379 456.33C456.099 453.771 455.403 449.657 455.289 446.924C459.09 446.456 462.998 445.896 466.836 446.076C470.989 446.27 475.369 447.457 479.449 448.255L479.252 448.798C477.083 455.1 478.161 462.404 480.912 468.329C476.315 468.894 471.855 469.322 467.456 470.848C463.156 472.339 456.284 474.02 453.947 478.215L453.616 478.929Z"/>
	<path fill="#8F0224" transform="scale(1.80081 1.80081)" d="M479.449 448.255C482.282 441.8 485.046 435.625 490 430.497C491.943 430.235 493.534 429.252 495.239 428.347C498.749 430.862 502.572 433.281 505.659 436.308C508.266 438.863 510.225 441.837 512.376 444.766C513.145 444.156 512.93 444.409 513.468 443.704C516.946 439.144 520.268 435.971 524.596 432.234C526.184 430.863 527.932 429.13 529.836 428.238C531.192 427.603 532.885 427.403 534.301 427.939C540.142 430.15 545.802 441.356 547.919 446.821L548.117 447.57C549.926 454.545 549.937 460.912 548.171 467.852C558.975 469.327 569.085 470.795 576.483 479.752C577.232 480.471 577.834 481.122 578.766 481.603C580.852 481.977 582.267 482.848 584.06 483.946L583.902 484.92C583.328 488.628 583.408 492.317 582.671 496.028C581.996 499.427 581.529 501.539 579.205 504.22L578.855 504.694L578.551 504.977C573.553 509.54 567.386 513.129 561.174 515.698C558.514 516.799 555.686 518.197 552.81 518.615C550.022 519.02 546.907 518.641 544.097 518.502C545.045 522.877 545.988 527.15 545.973 531.655C545.924 545.828 538.218 553.879 528.735 563.251C524.73 560.697 518.884 555.862 515.958 552.15C514.784 550.661 513.992 548.563 513.195 546.843C510.469 550.825 506.83 553.603 503.25 556.745C500.705 558.978 498.352 561.226 495.625 563.254C493.183 559.759 490.102 556.573 487.961 552.91C484.691 547.312 481.723 539.228 481.758 532.687C481.78 528.494 482.817 524.282 483.828 520.232C480.794 520.571 477.063 520.504 474.197 519.364C465.428 515.875 455.129 511.751 448.308 505.079C455.649 498.819 463.517 495.686 472.184 491.76C470.131 491.5 467.811 491.42 465.843 490.796C460.456 489.09 456.149 483.706 453.616 478.929L453.947 478.215C456.284 474.02 463.156 472.339 467.456 470.848C471.855 469.322 476.315 468.894 480.912 468.329C478.161 462.404 477.083 455.1 479.252 448.798L479.449 448.255Z"/>
	<path fill="#CE3442" transform="scale(1.80081 1.80081)" d="M578.766 481.603C580.852 481.977 582.267 482.848 584.06 483.946L583.902 484.92C583.328 488.628 583.408 492.317 582.671 496.028C581.996 499.427 581.529 501.539 579.205 504.22L578.855 504.694C575.967 500.425 570.877 494.357 566.279 492.036L565.807 491.816C566.509 491.268 566.164 491.479 567.029 491.067C572.064 488.677 575.141 485.771 578.766 481.603Z"/>
</svg>
