<?xml version="1.0" encoding="utf-8" ?>
<svg xmlns="http://www.w3.org/2000/svg" xmlns:xlink="http://www.w3.org/1999/xlink" width="1844" height="1844">
	<path fill="white" transform="scale(1.80081 1.80081)" d="M-0 -0L1024 0L1024 1024L-0 1024L0 -0Z"/>
	<path fill="#1A1E24" transform="scale(1.80081 1.80081)" d="M129.781 360.487C135.175 369.82 140.73 379.166 147.127 387.858C170.488 419.602 200.462 444.289 233.588 465.183C243.391 471.366 254.758 479.356 266 482.444C268.173 483.041 270.348 483.39 272.447 484.25C267.72 484.666 263.459 486.193 258.912 487.478C258.049 487.659 257.823 487.78 257.153 488.374C255.464 489.872 252.008 490.616 249.863 491.332L230.815 497.423L218.508 502.417C214.615 497.689 208.828 494.191 204.193 490.106C172.095 461.818 149.26 424.179 135.99 383.698L131.733 369.184C130.932 366.239 129.97 363.57 129.781 360.487Z"/>
	<path fill="#1A1E24" transform="scale(1.80081 1.80081)" d="M505.571 495.347L505.472 494.758C503.951 486.289 500.715 477.486 498.25 469.228L490.528 442.179C484.208 420.425 479.048 400.134 483.293 377.262C484.655 369.923 487.226 362.758 489.604 355.701C492.778 346.284 497.418 337.504 501.533 328.5C506.349 317.964 510.813 307.112 513.556 295.846C516.107 304.839 518.14 313.528 521.502 322.303L535.043 354C541.235 369.857 544.323 386.682 543.964 403.719C543.778 412.576 541.495 421.511 539.181 430.038C536.895 438.457 517.99 492.318 519.395 496.348C519.002 496.56 517.333 496.428 516.806 496.426C513.109 496.406 509.18 496.184 505.571 495.347Z"/>
	<path fill="#1A1E24" transform="scale(1.80081 1.80081)" d="M537.308 504.98L538.07 501.001C538.492 498.523 539.763 495.98 540.55 493.583L546.25 477.147C556.894 450.303 573.337 428.426 594.092 408.601C596.02 406.76 598.217 405.227 600.186 403.423L636.96 368.761C643.484 361.992 649.305 354.373 654.754 346.721C656.781 343.876 658.347 340.778 660.603 338.09C655.466 351.362 652.089 365.276 647.203 378.676C635.746 410.097 616.527 439.581 594.61 464.701C580.138 481.288 563.095 495.782 550.289 513.75L550.878 513.75C554.177 509.708 557.607 506.766 561.417 503.25C566.803 498.281 572.249 493.035 578.268 488.801C583.785 484.919 589.621 482.439 595.477 479.25L627.755 460.678L696.892 414.201L715.035 404.13C718.518 402.258 721.742 400.167 725.392 398.601C723.425 403.109 720.124 407.057 717.25 411.022L705.672 427.367C691.005 448.29 673.117 467.531 652.515 482.709C640.632 491.464 627.259 498.972 614.028 505.489L590.235 516.619C583.366 520.121 576.872 524.092 570.397 528.25C565.016 531.706 560.516 534.307 556.266 539.172C555.002 536.57 554.546 533.523 553.501 530.786C552.022 526.912 549.142 522.583 548.386 518.601L548.25 517.774C544.339 513.985 540.826 509.181 537.308 504.98Z"/>
	<path fill="#1A1E24" transform="scale(1.80081 1.80081)" d="M465.539 540.451C453.885 528.16 437.32 520.89 422.54 513.156L392.32 496.713C385.262 492.672 377.949 488.015 371.704 482.8C366.86 478.755 362.426 473.999 357.847 469.635C345.328 457.703 333.962 445.275 323.383 431.587L310.923 414.03C307.414 409.246 303.372 404.935 300.024 400.04C303.713 401.253 307.159 403.039 310.768 404.461C323.777 409.588 336.272 415.074 348.358 422.228C359.772 428.985 369.912 436.893 380.517 444.75L408.424 464.94C420.314 473.354 433.084 480.455 444.5 489.556C448.194 492.501 452.248 495.517 455.628 498.797C459.105 502.17 462.18 506.061 465.409 509.676C466.582 510.99 468.064 513.201 469.75 513.804L442.02 478.754L427.012 461C405.551 433.167 388.175 401.295 375.926 368.381C374.065 363.38 372.86 358.155 371.306 353.056L366.375 338.506C368.636 340.746 370.486 343.934 372.392 346.512C376.717 352.36 381.192 358.223 386.295 363.42C397.126 374.452 409.105 384.208 420.389 394.739C439.842 412.895 459.089 435.639 470.646 459.774C475.494 469.898 479.807 480.633 482.715 491.475C483.305 493.671 483.948 495.934 484.27 498.188C484.525 499.97 484.327 502.313 485.003 503.96L485.217 504.369L484.934 504.869C484.231 505.935 482.694 506.629 481.746 507.621C478.701 510.807 474.843 515.983 472.925 519.897C470.787 524.261 469.18 529.566 467.687 534.213C467.041 536.223 466.717 538.705 465.539 540.451Z"/>
	<path fill="#040406" transform="scale(1.80081 1.80081)" d="M188.034 183.716C202.762 182.869 218.415 183.699 232.969 186.167C239.559 187.285 245.998 189.146 252.607 190.035L251.058 216.128C250.362 241.956 251.812 267.072 256.506 292.5C258.324 302.346 260.497 312.846 263.874 322.293L204.42 313.885C196.242 313.16 187.837 313.474 179.641 313.759C162.952 314.34 145.8 315.96 129.412 319.289C127.037 309.104 125.808 298.161 124.874 287.75C121.999 255.699 124.133 223.164 130.73 191.662C142.289 188.935 153.876 186.585 165.687 185.21L188.034 183.716Z"/>
	<path fill="#040406" transform="scale(1.80081 1.80081)" d="M822.415 183.725C847.164 182.985 871.624 186.399 895.615 192.265C898.334 210.539 900.956 228.734 901.516 247.228C902.002 263.283 900.841 278.878 898.642 294.759C897.388 303.813 895.952 313.109 893.544 321.929C892.15 322.457 887.964 321.247 886.405 320.92L867.599 317.299C857.024 315.64 846.12 315.12 835.439 314.505C826.191 314.457 816.919 314.324 807.686 314.931C790.642 316.05 773.739 318.754 756.972 321.932C764.418 303.55 768.764 283.808 771.52 264.25C773.271 251.827 774.627 239.599 774.592 227.032C774.559 215.102 773.373 203.318 772.279 191.452C788.586 186.728 805.48 184.387 822.415 183.725Z"/>
	<path fill="#040406" transform="scale(1.80081 1.80081)" d="M124.973 560.065C122.478 559.528 119.805 558.045 117.5 556.95C111.426 554.065 105.645 549.977 100.25 546C95.3845 542.413 90.6908 539.067 86.2799 534.887C77.6273 526.686 70.2099 516.901 63.5624 507.041C49.7072 486.491 39.1999 463.912 30.4254 440.773L21.4012 414.998L42.9189 397.208C62.9113 381.439 85.0553 366.513 108.914 357.354C114.432 355.236 121.62 352.559 127.5 352.526C128.838 353.438 129.31 358.556 129.781 360.487C129.97 363.57 130.932 366.239 131.733 369.184L135.99 383.698C149.26 424.179 172.095 461.818 204.193 490.106C208.828 494.191 214.615 497.689 218.508 502.417L210.649 506.223C204.672 508.056 198.706 511.333 193.144 514.179C183.031 519.354 172.697 524.68 163.314 531.14C154.084 537.495 144.867 544.275 136.456 551.678C133.843 553.978 131.405 556.634 128.668 558.765C128.412 558.965 127.329 559.924 127 559.996C126.34 560.141 125.649 560.042 124.973 560.065Z"/>
	<path fill="#040406" transform="scale(1.80081 1.80081)" d="M513.022 18.9579C518.474 22.1632 523.282 25.9427 528.373 29.6541C554.528 48.7204 578.814 73.9268 594.736 102.214L591.617 90.7763C595.371 85.687 599.906 82.9408 605.033 79.3947C624.335 66.0451 647.002 56.7478 669.537 50.4952L694.034 44.764C699.542 52.3966 704.331 60.4562 709.313 68.4266C723.047 90.3985 735.193 113.62 742.993 138.414C748.743 156.689 751.859 175.215 752.88 194.31C745.52 198.637 737.044 201.209 729.511 205.272C716.066 212.523 703.099 221.57 691.636 231.668L674.424 248.282C673.64 249.032 674.052 248.88 673.312 249.004C674.256 216.516 672.763 183.771 663.273 152.454L647.91 108.878C645.55 101.287 644.362 93.2578 642.662 85.4927C639.734 88.2658 637.121 91.4934 634.018 94.0459C622.336 103.658 608.223 110.157 595.524 118.289C570.683 134.197 549.034 156.85 533.556 181.932C527.624 191.544 522.833 201.605 518.172 211.874C515.682 217.037 514.161 222.429 511.34 227.471C510.032 224.202 509.188 220.805 508.006 217.5C505.968 211.806 503.441 206.096 500.874 200.62C488.205 173.6 469.953 151.597 447.25 132.448C441.41 127.522 435.859 122.743 429.448 118.535C423.318 114.512 416.801 111.215 410.5 107.489C400.384 101.507 391.181 95.1162 381.919 87.8943C380.213 91.2099 380.041 96.636 379.176 100.388C378.312 104.14 377.128 107.787 375.932 111.443L364.238 144.394C359.864 157.927 355.931 171.638 353.37 185.639C349.769 205.322 348.439 226.703 349.172 246.692C346.291 243.55 343.648 240.182 340.6 237.201C321.877 218.893 297.378 202.795 272.544 194.253C272.676 185.777 274.675 176.765 276.305 168.456C279.781 150.742 284.885 132.628 292.006 116C302.565 91.3448 316.951 68.1439 333.301 46.9217L334.533 46.9209C339.707 47.2657 345.467 49.0376 350.54 50.2449C373.232 55.6464 394.021 63.4237 413.989 75.4911C421.351 79.9401 428.021 84.1868 433.834 90.6253C439.487 84.4249 444.005 77.1274 449.538 70.7548C460.107 58.5815 472.014 48.0097 484.622 38.0324C493.649 30.8894 502.659 24.0511 513.022 18.9579Z"/>
	<path fill="#1A1E24" transform="scale(1.80081 1.80081)" d="M218.508 502.417L230.815 497.423L249.863 491.332C252.008 490.616 255.464 489.872 257.153 488.374C257.823 487.78 258.049 487.659 258.912 487.478C265.296 489.173 271.28 491.755 277.428 494.131L309.54 506.505C314.427 508.284 319.528 510.682 324.655 511.52C326.831 511.363 327.194 511.451 329.136 512.451C347.098 510.941 366.073 515.934 383.5 519.848L447.065 536.475L456.885 539.287C458.339 539.71 458.012 538.461 459.515 539.363C461.034 540.275 462.829 540.764 464.504 541.315L465.417 540.952C465.219 544.512 465.807 547.476 466.102 550.978C466.722 558.347 467.272 565.741 469.142 572.919C469.637 573.999 473.391 582.934 473.179 583.559C467.66 588.754 460.783 594.627 454.396 598.646C442.996 605.816 430.101 610.66 417.25 614.493C413.193 615.703 409.076 617.364 404.839 617.757C399.08 627.99 394.742 638.079 390.369 648.962L389.094 648.623C385.451 650.956 382.038 653.89 378.305 656.019C373.196 658.931 367.882 660.836 362.529 663.171C360.276 664.153 358.231 665.573 356.01 666.626C351.931 668.562 347.327 670.141 343.023 671.539C329.328 675.989 314.884 677.744 300.684 679.577C294.649 680.356 288.749 681.905 282.667 682.525C274.892 683.318 267.051 683.297 259.25 683.602L232.087 684.266C217.853 683.978 203.949 682.604 189.868 680.665C183.607 679.803 177.437 679.09 171.25 677.739C168.389 677.114 165.618 676.547 162.708 676.192C161.028 675.987 158.737 676.092 157.302 675.215C155.797 674.139 151.71 673.938 149.75 673.545L137.711 670.544C119.113 665.203 101.347 657.849 84.2267 648.899C78.6648 645.991 73.3783 643.603 68.6319 639.413C81.8956 622.424 92.5295 603.207 105.183 585.701C109.368 579.91 114.16 574.469 118.876 569.106C121.225 566.435 124.083 563.729 126.004 560.767L124.973 560.065C125.649 560.042 126.34 560.141 127 559.996C127.329 559.924 128.412 558.965 128.668 558.765C131.405 556.634 133.843 553.978 136.456 551.678C144.867 544.275 154.084 537.495 163.314 531.14C172.697 524.68 183.031 519.354 193.144 514.179C198.706 511.333 204.672 508.056 210.649 506.223L218.508 502.417Z"/>
	<path fill="#B6B6B6" transform="scale(1.80081 1.80081)" d="M340.44 577.647L341.063 577.694L349.907 578.865C355.88 579.445 361.968 579.301 367.961 579.178C371.947 579.095 375.963 579.194 379.895 578.477C380.961 578.283 381.8 578.453 382.841 578.655C380.275 580.77 376.335 582.137 373.42 583.803L357.25 592.637C355.099 593.876 353.171 595.456 351.029 596.705C347.853 598.556 344.538 600.15 341.477 602.195C332.972 607.876 324.973 614.189 317.067 620.665C311.918 624.883 307.609 629.113 301.893 632.651C306.032 626.972 309.299 620.342 312.947 614.312C318.984 604.332 325.654 594.624 332.898 585.482C334.521 583.434 337.131 579.503 339.562 578.572L340.226 578.351L340.44 577.647Z"/>
	<path fill="#EEE" transform="scale(1.80081 1.80081)" d="M218.508 502.417L230.815 497.423L249.863 491.332C252.008 490.616 255.464 489.872 257.153 488.374C257.823 487.78 258.049 487.659 258.912 487.478C265.296 489.173 271.28 491.755 277.428 494.131L309.54 506.505C314.427 508.284 319.528 510.682 324.655 511.52C326.831 511.363 327.194 511.451 329.136 512.451C321.339 514.357 313.434 516.653 306.034 519.792C293.307 525.192 281.534 532.121 267.978 535.427L279.943 540.753C285.454 543.432 291.088 546.564 296.781 548.785C310.518 554.146 323.652 557.825 338.25 560.018C343.41 560.794 348.635 561.71 353.859 561.906C374.302 562.673 395.488 559.143 415.405 554.795L451.188 547.786C455.34 547.04 459.729 545.626 463.94 545.595L444.434 553.701C441.725 554.834 438.536 555.747 436.004 557.19C422.824 561.315 409.95 567.087 397.25 572.5C392.495 574.526 387.36 576.165 382.841 578.655C381.8 578.453 380.961 578.283 379.895 578.477C375.963 579.194 371.947 579.095 367.961 579.178C361.968 579.301 355.88 579.445 349.907 578.865L341.063 577.694L340.44 577.647C331.873 576.788 322.997 574.012 314.75 571.527C296.543 566.039 279.725 559.062 263.629 548.854C252.962 542.088 243.327 534.149 233.574 526.164L210.649 506.223L218.508 502.417Z"/>
	<path fill="#6B6D71" transform="scale(1.80081 1.80081)" d="M218.508 502.417L230.815 497.423L249.863 491.332C252.008 490.616 255.464 489.872 257.153 488.374C257.823 487.78 258.049 487.659 258.912 487.478C265.296 489.173 271.28 491.755 277.428 494.131L309.54 506.505C314.427 508.284 319.528 510.682 324.655 511.52C321.252 512.079 317.921 511.374 314.495 511.602C302.235 512.418 289.884 513.047 277.741 515.042C263.163 517.437 249.436 524.424 234.719 525.832C233.925 525.909 234.241 525.822 233.574 526.164L210.649 506.223L218.508 502.417Z"/>
	<path fill="#040406" transform="scale(1.80081 1.80081)" d="M661.014 508.92C669.062 504.697 677.524 501.418 686.082 498.399C720.562 486.235 757.225 483.147 792.502 494.169C794.468 494.784 799.889 497.377 801.532 497.167C802.132 497.09 803.657 496.14 804.255 495.83C811.808 491.909 819.037 484.694 825.089 478.755C858.642 445.824 879.913 403.372 893.991 359C894.84 356.321 895.396 353.669 896.706 351.154C928.734 358.387 959.788 378.139 985.296 398.282L1004.66 414.728C998.431 436.814 988.309 458.68 977.125 478.694C968.523 494.089 958.819 509.562 946.024 521.857C936.097 531.395 923.129 539.373 911.164 546.037C904.5 549.749 897.504 552.218 890.161 554.235C901.345 566.123 912.3 578.371 922.069 591.459L955.061 639.185C944.521 646.954 932.58 652.576 920.5 657.488C913.107 660.495 905.932 663.734 898.323 666.217C888.658 669.37 878.88 671.448 869.009 673.738L878.962 695C888.916 718.431 895.807 742.701 900.195 767.751C901.565 775.567 903.265 783.761 903.65 791.686L875.255 803.115C839.802 815.417 801.513 819.432 764.742 810.709C755.474 808.51 746.722 804.914 737.634 802.159C739.206 811.91 738.139 822.215 737.118 832C734.176 860.217 727.237 888.127 716.903 914.533L696.671 961.805C694.126 959.481 691.363 956.562 688.384 954.847C685.129 952.973 681.207 952.045 677.632 950.967L663.654 946.333C651.134 941.645 639.33 935.796 627.914 928.849C621.953 925.221 615.731 921.329 610.494 916.689C603.828 910.784 597.976 903.884 592.184 897.136C572.477 933.995 543.773 965.757 510.593 991.005L496.25 978.933C479.153 963.652 463.493 947.322 450.448 928.421L438.386 909.412C435.987 905.321 433.902 901.066 431.137 897.199C414.683 916.146 393.972 930.026 370.896 939.728C363.032 943.035 355.012 945.591 346.845 948.012C342.71 949.237 337.152 949.98 333.434 951.994C329.921 953.896 327.292 956.671 324.681 959.627C319.372 944.344 311.939 929.885 306.167 914.779C292.325 878.55 286.49 840.179 286.005 801.555C274.952 805.115 263.609 808.841 252.24 811.198C221.987 817.471 192.306 815.707 162.725 807.179C151.327 803.893 139.689 800.091 129.056 794.75L121.764 790.764C127.773 756.227 134.224 721.648 149.279 689.644C151.62 684.667 154.59 679.995 157.302 675.215C158.737 676.092 161.028 675.987 162.708 676.192C165.618 676.547 168.389 677.114 171.25 677.739C177.437 679.09 183.607 679.803 189.868 680.665C203.949 682.604 217.853 683.978 232.087 684.266L259.25 683.602C267.051 683.297 274.892 683.318 282.667 682.525C288.749 681.905 294.649 680.356 300.684 679.577C314.884 677.744 329.328 675.989 343.023 671.539C347.327 670.141 351.931 668.562 356.01 666.626C358.231 665.573 360.276 664.153 362.529 663.171C367.882 660.836 373.196 658.931 378.305 656.019C382.038 653.89 385.451 650.956 389.094 648.623L390.369 648.962C394.742 638.079 399.08 627.99 404.839 617.757C409.076 617.364 413.193 615.703 417.25 614.493C430.101 610.66 442.996 605.816 454.396 598.646C460.783 594.627 467.66 588.754 473.179 583.559C473.391 582.934 469.637 573.999 469.142 572.919C467.272 565.741 466.722 558.347 466.102 550.978C465.807 547.476 465.219 544.512 465.417 540.952L465.539 540.451C466.717 538.705 467.041 536.223 467.687 534.213C469.18 529.566 470.787 524.261 472.925 519.897C474.843 515.983 478.701 510.807 481.746 507.621C482.694 506.629 484.231 505.935 484.934 504.869L485.217 504.369L487.483 501.896C490.486 501.374 493.493 499.39 496.225 498.055C499.297 496.555 502.146 495.705 505.571 495.347C509.18 496.184 513.109 496.406 516.806 496.426C517.333 496.428 519.002 496.56 519.395 496.348C525.354 497.669 533.03 500.477 537.308 504.98C540.826 509.181 544.339 513.985 548.25 517.774L548.386 518.601C549.142 522.583 552.022 526.912 553.501 530.786C554.546 533.523 555.002 536.57 556.266 539.172L556.945 540.905L557.75 541.888C560.591 540.456 564.024 539.755 567.061 538.795L608.542 527.762C626.498 522.606 643.691 515.87 661.014 508.92Z"/>
	<path fill="#EEE" transform="scale(1.80081 1.80081)" d="M686.358 577.612C688.571 580.005 691.064 582.177 693.162 584.661C700.924 593.852 707.608 604.063 713.355 614.625C716.436 620.286 718.804 626.407 722.169 631.883C711.934 626.556 703.063 617.617 693.592 610.983L660.5 588.531C655.262 585.337 649.525 582.962 644.318 579.797C647.334 577.948 650.525 579.306 653.874 579.475L674.8 579.618C678.402 579.487 683.352 579.773 686.358 577.612Z"/>
	<path fill="white" transform="scale(1.80081 1.80081)" d="M644.318 579.797L615.205 568.595L589.559 559.742L572.198 551.898C567.727 549.831 563.245 548.675 558.971 546.126L594.97 553.311C619.063 558.81 643.924 565.368 668.814 564.499C680.142 564.103 691.428 561.847 702.288 558.671C713.975 555.253 724.905 549.824 736.146 545.264C744.096 542.039 752.162 539.698 760.477 537.699C745.319 547.813 731.732 559.161 715.322 567.419C709.389 570.404 702.798 572.961 696.363 574.623C693.466 575.371 688.537 575.722 686.358 577.612C683.352 579.773 678.402 579.487 674.8 579.618L653.874 579.475C650.525 579.306 647.334 577.948 644.318 579.797Z"/>
	<defs>
		<linearGradient id="gradient_0" gradientUnits="userSpaceOnUse" x1="606.82947" y1="592.17566" x2="588.17053" y2="730.32434">
			<stop offset="0" stop-color="#878888"/>
			<stop offset="1" stop-color="#E7E6E9"/>
		</linearGradient>
	</defs>
	<path fill="url(#gradient_0)" transform="scale(1.80081 1.80081)" d="M550.031 585.067C551.073 585.111 550.664 584.911 551.25 585.427C552.233 586.292 553.132 586.936 554.276 587.57C557.654 589.442 560.48 592.435 563.557 594.777C568.195 598.308 573.888 601.994 579.029 604.713C581.947 606.256 585.074 607.331 588.047 608.75C593.627 611.413 598.928 614.044 604.735 616.241C608.231 617.564 612.01 618.2 615.439 619.654C617.13 620.371 618.642 621.387 619.88 622.75C621.918 624.994 622.988 627.905 624.335 630.575C625.547 632.978 627.15 635.163 628.363 637.577C630.46 641.748 632.157 646.747 634.743 650.599C637.903 661.321 641.411 671.12 643.048 682.303L645.59 737.862L645.33 738.115C643.405 734.664 642.2 730.607 640.312 727.01L619.478 689.101L550.031 585.067Z"/>
	<path fill="#1A1E24" transform="scale(1.80081 1.80081)" d="M549.202 584.891L550.031 585.067L619.478 689.101L640.312 727.01C642.2 730.607 643.405 734.664 645.33 738.115L645.59 737.862C646.592 739.437 645.593 742.063 645.274 743.908C639.6 740.335 633.316 737.859 627.656 734.299C615.155 726.436 602.681 716.446 592.8 705.415C588.403 700.505 584.76 695.28 580.856 690.003C579.03 687.535 576.8 685.218 575.142 682.658L574.75 682.037L574.255 683.25L573.989 682.782L573.312 683.045C569.853 674.864 567.181 665.963 562.813 658.198L554.366 638.021L542.053 607.957C540.169 603.494 537.218 598.696 536.289 594.008L536.383 593.733C539.169 591.995 541.878 590.065 544.5 588.09C545.989 586.968 547.398 585.427 549.202 584.891Z"/>
	<path fill="#1A1E24" transform="scale(1.80081 1.80081)" d="M390.369 648.962C394.742 638.079 399.08 627.99 404.839 617.757C409.076 617.364 413.193 615.703 417.25 614.493C430.101 610.66 442.996 605.816 454.396 598.646C460.783 594.627 467.66 588.754 473.179 583.559L474.939 585.933C475.654 587.846 476.951 588.026 478.5 589.245C480.136 588.92 480.76 588.591 482.25 589.521C483.569 590.344 485.327 591.486 486.417 592.581C483.027 596.91 481.756 603.652 479.726 608.75L467.66 639.08L467.695 639.306C465.606 643.363 464.126 647.681 462.324 651.867C456.757 664.803 450.806 678.697 448.977 692.69L448.161 693.247C442.497 697.224 437.455 703.131 432.437 707.935C427.568 712.595 421.991 717.04 416.5 720.953C412.211 724.009 407.205 727.417 402.537 729.791C395.801 733.217 388.855 735.687 382.5 739.867C381.421 739.687 380.851 739.761 379.987 739.056C379.405 731.903 379.648 724.78 379.79 717.614C380.091 702.477 381.246 686.41 384.96 671.696C385.987 664.059 388.247 656.367 390.369 648.962Z"/>
	<defs>
		<linearGradient id="gradient_1" gradientUnits="userSpaceOnUse" x1="439.92456" y1="577.23401" x2="405.85373" y2="743.7887">
			<stop offset="0" stop-color="#868789"/>
			<stop offset="1" stop-color="#EBEBE9"/>
		</linearGradient>
	</defs>
	<path fill="url(#gradient_1)" transform="scale(1.80081 1.80081)" d="M390.369 648.962C394.742 638.079 399.08 627.99 404.839 617.757C409.076 617.364 413.193 615.703 417.25 614.493C430.101 610.66 442.996 605.816 454.396 598.646C460.783 594.627 467.66 588.754 473.179 583.559L474.939 585.933C466.573 598.698 456.662 610.38 447.474 622.536C434.205 640.092 422.24 657.694 411.695 677.045C409.802 681.7 407.028 686.002 404.753 690.48L386.145 726.892C384.754 729.643 382.453 737.889 379.987 739.056C379.405 731.903 379.648 724.78 379.79 717.614C380.091 702.477 381.246 686.41 384.96 671.696C385.987 664.059 388.247 656.367 390.369 648.962Z"/>
	<defs>
		<linearGradient id="gradient_2" gradientUnits="userSpaceOnUse" x1="549.24011" y1="819.36896" x2="474.13528" y2="596.83557">
			<stop offset="0" stop-color="black"/>
			<stop offset="1" stop-color="#A6AAAD"/>
		</linearGradient>
	</defs>
	<path fill="url(#gradient_2)" transform="scale(1.80081 1.80081)" d="M467.695 639.306L467.66 639.08L479.726 608.75C481.756 603.652 483.027 596.91 486.417 592.581L487.122 593.418L487.931 593.576C491.06 594.241 494.151 595.971 497.167 597.074C500.75 598.387 504.209 598.635 507.984 598.957C511.414 599.25 513.768 599.756 517.25 599.098C520.71 598.444 524.099 597.952 527.486 596.933C529.9 596.208 532.177 594.89 534.63 594.376L536.289 594.008C537.218 598.696 540.169 603.494 542.053 607.957L554.366 638.021L562.813 658.198C567.181 665.963 569.853 674.864 573.312 683.045C574.902 691.484 574.401 699.712 573.574 708.224C572.606 718.183 571.119 727.917 568.424 737.572C563.085 756.693 554.298 774.936 547.191 793.46C544.055 801.632 541.972 810.31 539.25 818.619L538.5 818.75L538.133 820.648C537.781 822.409 538.314 819.75 537.625 822.125L537.375 823.875L537 823.25C536.056 821.901 535.232 820.491 533.75 819.745L532.127 817.32L511.94 789.474C506.024 799.009 498.945 807.274 491.762 815.857L482.082 827.845C480.067 804.276 468.61 781.181 460.852 759.001C456.199 745.698 452.786 731.392 450.508 717.5C449.413 710.816 447.949 703.413 448.916 696.633L448.977 692.69C450.806 678.697 456.757 664.803 462.324 651.867C464.126 647.681 465.606 643.363 467.695 639.306Z"/>
	<path fill="#1A1E24" transform="scale(1.80081 1.80081)" d="M487.122 593.418L487.931 593.576C491.06 594.241 494.151 595.971 497.167 597.074C500.75 598.387 504.209 598.635 507.984 598.957C511.414 599.25 513.768 599.756 517.25 599.098C520.71 598.444 524.099 597.952 527.486 596.933C529.9 596.208 532.177 594.89 534.63 594.376L545.886 641.158L550.111 671.139C550.299 684.251 546.346 694.822 542.145 707.045C536.683 722.938 530.306 737.874 522.76 752.888L516.38 765.221C514.702 768.4 512.874 771.031 512.438 774.663L511.534 774.956C510.572 773.972 509.473 772.966 508.74 771.796C506.082 767.553 504.441 761.413 502.75 756.72C496.234 738.642 489.209 720.779 483.808 702.304C481.987 696.076 481.259 688.994 478.988 683.024C478.837 679.773 477.34 676.24 476.88 672.906C475.498 662.893 475.368 653.855 476.047 643.786L482.548 613.75C484.197 606.956 486.81 600.466 487.122 593.418Z"/>
</svg>
