<?xml version="1.0" encoding="utf-8" ?>
<svg xmlns="http://www.w3.org/2000/svg" xmlns:xlink="http://www.w3.org/1999/xlink" width="1844" height="1844">
	<path transform="scale(1.80081 1.80081)" d="M-0 -0L1024 0L1024 1024L-0 1024L0 -0Z"/>
	<path fill="white" transform="scale(1.80081 1.80081)" d="M650.972 648.073C656.218 649.658 661.553 650.38 666.657 652.528C672.77 655.101 678.011 659.212 683.918 662.203C681.38 657.564 676.88 654.235 674.693 649.48C673.33 646.518 672.8 642.736 672.03 639.568C670.533 633.407 669.044 627.249 666.967 621.25C663.266 610.558 656.395 602 651.144 592.114L662.122 596.666C675.477 602.217 690.746 605.444 705.289 603.87C709.423 608.47 713.499 613.619 718.058 617.766C735.222 633.376 756.792 642.535 779.948 643.761C786.517 644.109 792.988 643.586 799.528 642.974C805.172 642.446 811.172 641.923 816.435 639.674C818.721 641.219 820.253 643.317 821.945 645.454C826.506 651.218 831.029 658.142 833.753 664.972C837.998 671.805 841.157 680.191 844.043 687.714C847.638 697.086 851.403 706.786 853.963 716.5C856.681 726.814 858.275 737.158 859.597 747.724C852.554 749.718 845.48 750.524 838.25 751.505C798.642 756.876 759.221 752.219 722.466 736.208C721.587 735.319 719.665 734.65 718.5 734.099C714.224 732.079 709.82 730.676 705.669 728.351C693.727 721.659 682.954 714.146 673.046 704.675C667.308 699.192 661.437 691.875 658.137 684.65C656.06 680.101 655.07 675.166 654.047 670.302C652.511 663.003 651.132 655.543 650.972 648.073Z"/>
	<defs>
		<linearGradient id="gradient_0" gradientUnits="userSpaceOnUse" x1="701.23492" y1="563.56604" x2="786.34723" y2="697.06281">
			<stop offset="0" stop-color="#C2C3C6"/>
			<stop offset="1" stop-color="#E8E8E7"/>
		</linearGradient>
	</defs>
	<path fill="url(#gradient_0)" transform="scale(1.80081 1.80081)" d="M833.753 664.972L833.282 665.149C833.58 665.948 833.753 666.364 833.736 667.231C831.353 668.083 829.262 669.157 827 670.255L823.5 672.255C821.165 673.79 819.115 674.281 816.503 675.003L815.75 675.255L814.503 675.503C813.588 675.833 813.043 676.254 812.039 676.407C811.456 676.496 810.54 676.493 810 676.755C798.47 682.349 782.734 682.754 770.087 683.277C750.421 684.09 729.661 681.432 712.026 672.283C709.436 670.939 706.523 669.66 704.249 667.814C698.242 662.936 693.812 654.994 689.787 648.477C685.913 642.203 682.117 636.351 679.091 629.597C674.42 619.168 671.405 608.6 662.578 600.698L662.06 600.25C660.799 599.132 659.584 598.765 658 598.255L657.5 598.75C657.946 599.363 658.193 599.621 658.893 599.96L662.75 602L662.312 603.257C662.944 605.183 662.549 606.887 662.169 608.812L657.933 601.707L655.452 598.018C654.685 596.912 653.696 595.637 653.764 594.264C655.611 594.173 659.116 596.033 660.887 596.912L661.517 597.238L662.122 596.666C675.477 602.217 690.746 605.444 705.289 603.87C709.423 608.47 713.499 613.619 718.058 617.766C735.222 633.376 756.792 642.535 779.948 643.761C786.517 644.109 792.988 643.586 799.528 642.974C805.172 642.446 811.172 641.923 816.435 639.674C818.721 641.219 820.253 643.317 821.945 645.454C826.506 651.218 831.029 658.142 833.753 664.972Z"/>
	<defs>
		<linearGradient id="gradient_1" gradientUnits="userSpaceOnUse" x1="549.39551" y1="248.48355" x2="735.54468" y2="208.0303">
			<stop offset="0" stop-color="#D9D9DA"/>
			<stop offset="1" stop-color="white"/>
		</linearGradient>
	</defs>
	<path fill="url(#gradient_1)" transform="scale(1.80081 1.80081)" d="M586.76 185.465C588.466 180.637 591.605 176.319 594.601 172.204C610.705 150.08 634.981 132.289 659.53 120.557C675.778 112.792 694.539 105.755 712.579 104.167C714.465 113.112 717.68 121.728 719.778 130.661C725.82 156.382 727.177 182.622 723.354 208.767C722.551 214.259 721.41 219.7 720.121 225.097C719.491 227.732 718.969 230.809 717.811 233.252C714.279 236.784 712.865 242.734 710.868 247.25C709.607 250.102 707.938 252.757 706.556 255.555C705.139 258.424 704.164 261.471 702.655 264.318C695.268 278.257 684.242 291.105 670.347 298.763C667.214 300.123 664.32 301.904 661.141 303.186C627.153 316.899 589.504 327.331 568.503 360.169C571.012 349.414 577.783 340.472 581.599 330.25C590.279 306.997 587.005 282.491 576.785 260.338C577.67 260.982 578.125 261.267 578.599 262.285C579.397 263.999 580.3 265.609 581.245 267.25C582.995 265.868 584.07 262.848 584.768 260.753L588.124 250.666C588.488 249.557 589.152 248.516 589.435 247.429L590.208 244.109L590.309 243.5L590.742 240.958C592.204 227.154 592.434 212.653 590.363 198.904C589.705 194.538 588.904 189.34 586.76 185.465Z"/>
	<defs>
		<linearGradient id="gradient_2" gradientUnits="userSpaceOnUse" x1="660.77783" y1="638.98718" x2="620.17572" y2="867.55371">
			<stop offset="0" stop-color="#C3C3C5"/>
			<stop offset="1" stop-color="white"/>
		</linearGradient>
	</defs>
	<path fill="url(#gradient_2)" transform="scale(1.80081 1.80081)" d="M547.712 709.764C550.682 712.704 552.888 716.44 555.68 719.599C556.62 715.314 557.198 710.955 558.279 706.704C561.097 695.621 564.758 684.795 566.801 673.516C568.306 665.209 568.886 656.83 569.056 648.406C571.405 653.322 573.972 657.343 577.592 661.428C585.208 670.026 593.838 677.048 603.633 683.034C606.89 685.025 610.079 687.261 614 687.485C615.115 687.046 615.596 686.96 616.101 685.75C616.666 684.396 616.714 681.915 617.004 680.392C619.603 666.735 619.414 651.682 615.152 638.375C613.449 633.054 610.464 628.117 608.214 623.007C612.945 629.118 618.575 635.08 625.272 639.064C633.247 643.808 642.105 645.787 650.972 648.073C651.132 655.543 652.511 663.003 654.047 670.302C655.07 675.166 656.06 680.101 658.137 684.65C661.437 691.875 667.308 699.192 673.046 704.675C682.954 714.146 693.727 721.659 705.669 728.351C709.82 730.676 714.224 732.079 718.5 734.099C719.665 734.65 721.587 735.319 722.466 736.208C724.317 744.95 726.522 753.457 727.77 762.329C732.296 794.514 729.578 828.219 721.093 859.549C718.89 867.685 716.933 876.516 713.476 884.231C684.66 882.331 656.481 870.233 633.5 853.041C626.17 847.557 618.652 841.418 612.596 834.508C608.109 829.388 603.731 824.106 599.744 818.585C598 816.17 595.945 813.695 594.84 810.924C594.716 808.81 593.95 808.11 592.667 806.548C590.861 804.348 590.792 802.9 589.944 800.314L589.745 799.75C590.092 798.358 590.363 797.513 589.788 796.117C589.559 797.383 589.14 798.591 588.75 799.814L580.493 789.23C577.336 785.551 573.839 782.124 570.806 778.35C562.551 768.079 556.086 757.223 552.276 744.544C550.836 739.753 550.236 735.127 549.295 730.25C548.262 724.901 548.595 719.321 547.579 713.997C547.279 712.425 547.449 711.326 547.712 709.764Z"/>
	<path fill="#F7F7F7" transform="scale(1.80081 1.80081)" d="M810.112 350.884L810.998 350.865C813.661 350.767 816.337 349.97 819.005 349.702C823.159 349.283 827.608 349.37 831.775 349.678C842.27 350.453 853.206 353.522 863.134 356.921C887.892 365.396 910.79 378.369 933.543 391.149C917.952 426.686 890.683 457.179 857.057 476.602C845.294 483.396 832.475 488.542 820.446 494.819C823.604 494.119 826.912 493.188 830.165 493.398C832.837 493.57 835.371 494.89 837.763 496.007C843.412 498.646 848.975 501.98 854.232 505.342C862.832 510.841 870.515 517.555 877.894 524.566C895.992 541.761 911.843 561.976 922.269 584.784C924.373 589.387 925.83 594.424 927.523 599.199C923.658 603.634 917.046 607.391 912.062 610.411C882.617 628.249 850.347 635.964 816.435 639.674C811.172 641.923 805.172 642.446 799.528 642.974C792.988 643.586 786.517 644.109 779.948 643.761C756.792 642.535 735.222 633.376 718.058 617.766C713.499 613.619 709.423 608.47 705.289 603.87C714.966 602.56 723.766 599.724 732.75 595.959C736.666 594.317 740.667 592.753 744.273 590.489C743.256 589.874 743.685 590.065 742.705 589.699C719.844 581.171 704.793 560.966 682.388 551.864L678.188 550.14C674.172 548.744 669.103 545.915 664.978 545.606L664.881 545.605C662.927 543.214 661.21 540.906 659.663 538.226C663.846 539.786 667.81 540.228 672.221 540.621C694.774 542.349 716.472 535.434 736.038 524.655C741.136 521.847 745.542 518.026 750.904 515.641C755.937 513.402 761.951 513.691 767.144 511.561L767.75 511.289L768.569 510.986L764.714 511.389C746.07 514.65 727.791 505.274 712.881 494.853C706.215 492.436 700.058 487.855 693.414 485.101C685.012 481.617 676.418 478.996 667.5 477.159C664.163 476.471 660.771 476.22 657.458 475.398C668.017 472.159 679.133 471.445 689.655 467.79C705.364 462.332 721.189 453.536 732.117 440.768C733.811 438.789 735.836 436.701 736.915 434.307C737.333 433.381 737.372 433.551 737 432.53L733.247 432.164C734.97 431.849 736.782 431.888 738.53 431.932C739.298 431.507 739.001 431.619 739.702 431.39C742.157 430.589 743.881 429.226 746 427.796L759.503 417.027C762.285 414.971 764.008 412.574 766.382 410.187C769.468 407.083 773.271 403.848 775.75 400.255C776.761 398.79 778.028 397.691 779.053 396.256C780.869 393.713 783.145 391.455 784.806 388.791L786.264 386.644L792.293 378C793.272 376.619 793.877 375.109 794.802 373.701L801.283 363.652L801.75 362.826L803.531 359.502C804.535 357.002 806.374 356.02 808.003 354.004C808.814 352.998 809.234 351.843 810.112 350.884Z"/>
	<path fill="#D4D4D5" transform="scale(1.80081 1.80081)" d="M768.569 510.986C769.224 510.641 769.487 510.34 770.236 510.423C773.207 510.749 776.116 510.053 779.029 509.537C792.304 507.186 804.354 500.718 817 496.442L816.977 496.994C803.546 502.599 789.817 508.375 775.423 510.895L773.176 512.9C772.15 513.828 770.337 513.949 769.002 514.185L767.855 513.472L767.138 513.82L765.859 514.02L765.442 513.201C763.701 513.571 763.135 513.959 761.848 515.191C760.362 515.281 759.449 515.133 758.02 514.708L758.32 515.362C759.197 517.382 760.603 517.777 761.335 519.75C762.268 519.893 763.271 519.914 764.182 520.06L765.023 520.313C764.748 524.373 761.7 527.295 759.176 530.119C758.619 530.742 757.955 530.913 757.196 531.189C756.583 532.032 756.03 532.821 755.499 533.717C754.515 535.382 752.776 537.154 751.443 538.586C749.473 540.703 748.318 543.043 747.412 545.75C747.088 546.718 746.713 547.402 746.199 548.276C745.311 549.789 744.87 551.536 743.927 552.968C742.78 554.71 740.939 555.988 739.718 557.737C738.429 559.584 736.287 559.996 734.853 561.713L734.192 561.808C732.578 562.142 731.25 563.161 729.669 563.658C730.73 564.282 731.804 564.523 733 564.75L734.906 565.14C736.063 565.372 734.905 565.154 736.25 565.255L737.139 565.373C739.211 565.636 742.485 564.995 744.25 566L745.125 565.625C747.403 565.023 750.603 565.566 753 565.378C754.264 565.278 755.404 564.894 756.68 564.892C757.975 564.89 756.775 564.936 758.25 564.5C759.005 564.277 759.94 564.214 760.75 564L764.125 563.125L765.851 563.125C764.72 563.554 763.741 563.85 762.559 564.107L755.342 565.571C748.02 566.902 737.804 567.147 730.612 564.813C722.173 562.076 714.461 556.984 706.046 554.018C698.726 551.438 690.953 550.227 683.917 546.814C680.9 544.205 678.506 543.037 674.563 542.687L673.75 542.619C673.164 541.978 672.692 541.35 672.221 540.621C694.774 542.349 716.472 535.434 736.038 524.655C741.136 521.847 745.542 518.026 750.904 515.641C755.937 513.402 761.951 513.691 767.144 511.561L767.75 511.289L768.569 510.986Z"/>
	<path fill="#F7F7F7" transform="scale(1.80081 1.80081)" d="M499.331 625.36L500.065 626.039C501.08 627.019 501.42 627.983 501.951 629.25L506.85 640.104C508.435 643.777 509.693 647.297 511.889 650.687C514.454 647.874 516.512 645.371 518.322 642.006L518.133 646.165C518.028 648.403 518.797 650.619 519.375 652.758L522.527 663.828C525.402 673.009 527.35 682.37 532.181 690.835C534.871 695.549 538.594 699.699 542.306 703.625L547.712 709.764C547.449 711.326 547.279 712.425 547.579 713.997C548.595 719.321 548.262 724.901 549.295 730.25C550.236 735.127 550.836 739.753 552.276 744.544C556.086 757.223 562.551 768.079 570.806 778.35C573.839 782.124 577.336 785.551 580.493 789.23L588.75 799.814C589.14 798.591 589.559 797.383 589.788 796.117C590.363 797.513 590.092 798.358 589.745 799.75L589.944 800.314C590.792 802.9 590.861 804.348 592.667 806.548C593.95 808.11 594.716 808.81 594.84 810.924L590.724 805.821C590.04 809.884 586.563 831.95 584.688 833.557C580.967 843.919 576.867 854.316 571.485 863.941C569.872 866.824 567.83 869.356 566.073 872.134C551.597 895.011 532.954 913.636 511.333 929.795C495.729 917.584 481.382 904.408 469.128 888.75C462.74 880.588 457.131 871.553 451.98 862.575C448.424 856.375 443.978 849.156 442.32 842.154C441.172 840.553 440.528 837.627 439.933 835.715C436.447 824.509 434.476 812.953 433.434 801.285L427.668 808.917L427.31 809.573C426.058 811.793 424.033 813.715 422.489 815.75L412.943 827.69C392.147 851.818 365.6 869.682 335.333 879.75C328.222 882.116 320.789 883.761 313.546 885.716C300.252 854.943 291.557 821.97 292.915 788.187C293.368 776.91 295.24 765.611 297.572 754.594C299.083 751.837 300.079 749.185 301.184 746.25L301.448 746.554L301.125 748.753C303.055 748.294 303.469 747.495 304.625 746.003C306.238 745.755 308.276 744.342 309.561 743.335C311.967 741.45 313.915 738.983 316.257 737.012C320.124 733.756 324.75 730.924 328.887 727.966C331.336 726.215 334.395 725.104 337.013 723.576C351.532 715.1 367.397 708.93 381.464 699.692C385.868 696.799 390.277 693.809 394.347 690.455C396.341 688.812 399.84 684.407 402.056 683.588C402.619 683.38 403.247 683.433 403.842 683.355C404.345 684.863 404.736 686.185 405.75 687.448C408.531 686.563 411.572 683.53 414.19 681.958C423.532 676.35 433.076 671.29 441.915 664.859C447.69 660.656 453.299 655.453 458.503 650.567C455.102 667.93 454.297 684.847 464.777 700.185C467.58 704.286 470.938 707.671 475.626 709.591L484.278 712.221C485.979 710.317 487.397 708.093 488.75 705.933C497.221 692.405 500.257 675.933 501.329 660.25C502.146 648.306 502.052 637.054 499.331 625.36Z"/>
	<defs>
		<linearGradient id="gradient_3" gradientUnits="userSpaceOnUse" x1="562.91602" y1="650.97211" x2="493.93701" y2="863.08881">
			<stop offset="0" stop-color="#BFC0C2"/>
			<stop offset="1" stop-color="#EEEEED"/>
		</linearGradient>
	</defs>
	<path fill="url(#gradient_3)" transform="scale(1.80081 1.80081)" d="M499.331 625.36L500.065 626.039C501.08 627.019 501.42 627.983 501.951 629.25L506.85 640.104C508.435 643.777 509.693 647.297 511.889 650.687C514.454 647.874 516.512 645.371 518.322 642.006L518.133 646.165C518.028 648.403 518.797 650.619 519.375 652.758L522.527 663.828C525.402 673.009 527.35 682.37 532.181 690.835C534.871 695.549 538.594 699.699 542.306 703.625L547.712 709.764C547.449 711.326 547.279 712.425 547.579 713.997C548.595 719.321 548.262 724.901 549.295 730.25C550.236 735.127 550.836 739.753 552.276 744.544C556.086 757.223 562.551 768.079 570.806 778.35C573.839 782.124 577.336 785.551 580.493 789.23L588.75 799.814C589.14 798.591 589.559 797.383 589.788 796.117C590.363 797.513 590.092 798.358 589.745 799.75L589.944 800.314C590.792 802.9 590.861 804.348 592.667 806.548C593.95 808.11 594.716 808.81 594.84 810.924L590.724 805.821C590.04 809.884 586.563 831.95 584.688 833.557L584.011 833.282L583.732 833.986C583.314 834.954 583.547 834.617 582.745 835.25C572.036 828.077 560.53 821.252 552.139 811.231C549.199 807.72 547.018 803.789 544.496 800C541.687 795.78 538.669 791.774 536.904 786.971C535.89 784.212 535.168 781.273 534.018 778.58L525.41 759C523.472 753.98 522.278 747.598 519.612 743.047C519.136 742.235 519.459 742.466 518.48 742.406C501.339 761.311 491.828 785.519 484.345 809.5C482.792 814.477 480.272 820.814 480.149 825.947C480.132 826.686 479.833 827.096 479.755 827.75L479.877 829C479.948 830.244 479.708 830.872 479.377 832L479.389 833.198C479.384 834.749 478.711 836.199 477.658 837.342C477.013 838.042 477.005 837.926 476.251 838.454C473.529 840.361 471.076 842.004 468.001 843.368C464.563 844.893 462.138 845.95 458.498 846.667L457.372 847.175C455.151 848.11 447.955 848.105 445.49 847.414C444.747 846.72 444.994 847.136 444.763 846.433L443.39 842.86C443.051 842.62 442.702 842.318 442.32 842.154C441.172 840.553 440.528 837.627 439.933 835.715C436.447 824.509 434.476 812.953 433.434 801.285L427.668 808.917C427.706 807.869 427.819 807.306 428.412 806.454L429.002 805.625C429.981 804.092 431.276 802.831 432.002 801.125L432.255 800.5C433.69 797.854 432.212 793.08 432.46 789.838L432.5 788.75C432.056 786.883 431.547 784.289 431.862 782.359L432 781.75C431.458 780.537 431.307 779.121 431.437 777.797C431.505 777.103 431.446 776.679 431.25 776C430.984 775.078 430.655 774.495 430.847 773.516C431.089 772.279 430.239 771.348 430.5 769.75C429.274 767.241 429.979 763.736 429.203 761.155C428.848 759.975 428.662 758.774 428.862 757.549C429.286 754.956 429.015 751.89 429 749.25L427.92 748.702L427.755 747.5C427.517 746.707 427.344 746.325 427.255 745.5C428.852 743.494 427.191 741.185 428.002 739.003C428.318 738.154 428.393 738.126 428.324 737.14C428.269 736.351 428.213 735.756 428.502 735.003C429.314 732.889 428.906 730.74 428.755 728.5C430.058 726.538 428.776 724.166 429.502 722.125L430 721.25C429.79 720.228 429.662 719.514 430.002 718.503L430.377 717.5C430.421 715.967 431.057 715.542 430.755 714C431.366 713.08 431.864 710.864 431.755 709.75L432.377 709L432.255 708.25L432.877 707.5L432.755 706.75L433.377 706C433.21 704.975 433.432 704.895 433.877 704L433.755 703.25L434.377 702.5L434.255 701.5C434.824 700.644 434.716 700.998 434.891 700.129L435.002 699.502L435.255 698.75C435.464 697.953 435.521 697.423 435.863 696.626L436.75 694.5C437.144 693.221 437.654 691.689 438.255 690.5L438.75 689.755C439.045 689.111 439.016 688.459 439.376 687.735C439.903 686.676 440.624 685.072 440.907 683.954C441.375 682.105 442.226 680.301 442.877 678.5L443.255 677.5C443.877 676.393 444.081 675.333 444.645 674.204C445.082 673.328 444.941 673.761 445.145 672.954L445.255 672.5L451.426 662.173C451.837 661.352 451.606 661.656 452.16 661.008L452.502 660.625C453.232 659.389 452.191 660.57 453.25 659.5L454.284 659.917L454.63 661.243C447.968 675.436 442.952 690.246 438.777 705.305C438.144 707.589 437.358 711.1 435.879 712.933L435.312 713.593C432.584 724.46 429.624 735.799 429.4 747.064C430.261 750.469 429.301 755.502 429.638 759.176L432.163 778.676L433.575 799.493C436.875 795.269 440.694 791.756 444.396 787.914C453.495 778.469 461.811 768.802 467.979 757.148C472.8 748.038 475.235 738.899 476.54 728.731C477.35 722.426 477.529 715.738 475.626 709.591L484.278 712.221C485.979 710.317 487.397 708.093 488.75 705.933C497.221 692.405 500.257 675.933 501.329 660.25C502.146 648.306 502.052 637.054 499.331 625.36Z"/>
	<path fill="#A8A8AC" transform="scale(1.80081 1.80081)" d="M429.4 747.064L428.805 747.27L428.612 746.416C427.888 742.72 429.035 738.449 429.396 734.75C429.947 729.1 430.132 723.528 431.158 717.915C433.115 707.199 436.687 697.24 440.602 687.136C444.103 678.099 447.266 670.055 452.937 662.096C446.448 678.911 439.199 695.931 435.312 713.593C432.584 724.46 429.624 735.799 429.4 747.064Z"/>
	<path fill="white" transform="scale(1.80081 1.80081)" d="M442.32 842.154C442.702 842.318 443.051 842.62 443.39 842.86L444.763 846.433C444.994 847.136 444.747 846.72 445.49 847.414C447.955 848.105 455.151 848.11 457.372 847.175L458.498 846.667C462.138 845.95 464.563 844.893 468.001 843.368C471.076 842.004 473.529 840.361 476.251 838.454C477.005 837.926 477.013 838.042 477.658 837.342C478.711 836.199 479.384 834.749 479.389 833.198L479.377 832C479.708 830.872 479.948 830.244 479.877 829L479.755 827.75C479.833 827.096 480.132 826.686 480.149 825.947C480.272 820.814 482.792 814.477 484.345 809.5C491.828 785.519 501.339 761.311 518.48 742.406C519.459 742.466 519.136 742.235 519.612 743.047C522.278 747.598 523.472 753.98 525.41 759L534.018 778.58C535.168 781.273 535.89 784.212 536.904 786.971C538.669 791.774 541.687 795.78 544.496 800C547.018 803.789 549.199 807.72 552.139 811.231C560.53 821.252 572.036 828.077 582.745 835.25C583.547 834.617 583.314 834.954 583.732 833.986L584.011 833.282L584.688 833.557C580.967 843.919 576.867 854.316 571.485 863.941C569.872 866.824 567.83 869.356 566.073 872.134C551.597 895.011 532.954 913.636 511.333 929.795C495.729 917.584 481.382 904.408 469.128 888.75C462.74 880.588 457.131 871.553 451.98 862.575C448.424 856.375 443.978 849.156 442.32 842.154Z"/>
	<path transform="scale(1.80081 1.80081)" d="M422.52 163.734C427.719 168.929 433.971 174.932 437.002 181.636C440.953 167.278 446.211 153.273 453.578 140.29C463.111 123.49 476.211 108.886 490.101 95.5997C494.868 91.0403 499.776 86.9146 505.041 82.9393C506.372 81.9344 508.26 80.1673 509.75 79.5412C510.876 79.0678 511.51 79.3147 512.511 79.8831C514.919 81.2507 517.209 83.4507 519.39 85.1777L530.739 94.5072C548.229 110.206 563.321 128.812 573.675 150.01C579.218 161.36 583.339 173.339 586.76 185.465C588.904 189.34 589.705 194.538 590.363 198.904C592.434 212.653 592.204 227.154 590.742 240.958L590.309 243.5L590.208 244.109L589.435 247.429C589.152 248.516 588.488 249.557 588.124 250.666L584.768 260.753C584.07 262.848 582.995 265.868 581.245 267.25C580.3 265.609 579.397 263.999 578.599 262.285C578.125 261.267 577.67 260.982 576.785 260.338C587.005 282.491 590.279 306.997 581.599 330.25C577.783 340.472 571.012 349.414 568.503 360.169C589.504 327.331 627.153 316.899 661.141 303.186C664.32 301.904 667.214 300.123 670.347 298.763C684.242 291.105 695.268 278.257 702.655 264.318C704.164 261.471 705.139 258.424 706.556 255.555C707.938 252.757 709.607 250.102 710.868 247.25C712.865 242.734 714.279 236.784 717.811 233.252L718.329 233.057C721.246 231.819 724.006 229.756 726.821 228.257C731.052 226.004 735.832 224.275 740.394 222.794C748.346 220.212 756.246 219.067 764.5 217.941C796.163 213.618 827.319 215.468 858.914 219.227C857.43 238.167 855.224 256.834 850.009 275.182C845.634 290.572 838.973 306.662 831.094 320.593C829.229 323.892 826.909 326.966 824.901 330.186C820.76 336.829 816.042 345.715 810.112 350.884C809.234 351.843 808.814 352.998 808.003 354.004C806.374 356.02 804.535 357.002 803.531 359.502L801.75 362.826L801.283 363.652L794.802 373.701C793.877 375.109 793.272 376.619 792.293 378L786.264 386.644L784.806 388.791C783.145 391.455 780.869 393.713 779.053 396.256C778.028 397.691 776.761 398.79 775.75 400.255C773.271 403.848 769.468 407.083 766.382 410.187C764.008 412.574 762.285 414.971 759.503 417.027L746 427.796C743.881 429.226 742.157 430.589 739.702 431.39C739.001 431.619 739.298 431.507 738.53 431.932C736.782 431.888 734.97 431.849 733.247 432.164L737 432.53C737.372 433.551 737.333 433.381 736.915 434.307C735.836 436.701 733.811 438.789 732.117 440.768C721.189 453.536 705.364 462.332 689.655 467.79C679.133 471.445 668.017 472.159 657.458 475.398C660.771 476.22 664.163 476.471 667.5 477.159C676.418 478.996 685.012 481.617 693.414 485.101C700.058 487.855 706.215 492.436 712.881 494.853C727.791 505.274 746.07 514.65 764.714 511.389L768.569 510.986L767.75 511.289L767.144 511.561C761.951 513.691 755.937 513.402 750.904 515.641C745.542 518.026 741.136 521.847 736.038 524.655C716.472 535.434 694.774 542.349 672.221 540.621C667.81 540.228 663.846 539.786 659.663 538.226C661.21 540.906 662.927 543.214 664.881 545.605L664.978 545.606C669.103 545.915 674.172 548.744 678.188 550.14L682.388 551.864C704.793 560.966 719.844 581.171 742.705 589.699C743.685 590.065 743.256 589.874 744.273 590.489C740.667 592.753 736.666 594.317 732.75 595.959C723.766 599.724 714.966 602.56 705.289 603.87C690.746 605.444 675.477 602.217 662.122 596.666L651.144 592.114C656.395 602 663.266 610.558 666.967 621.25C669.044 627.249 670.533 633.407 672.03 639.568C672.8 642.736 673.33 646.518 674.693 649.48C676.88 654.235 681.38 657.564 683.918 662.203C678.011 659.212 672.77 655.101 666.657 652.528C661.553 650.38 656.218 649.658 650.972 648.073C642.105 645.787 633.247 643.808 625.272 639.064C618.575 635.08 612.945 629.118 608.214 623.007C610.464 628.117 613.449 633.054 615.152 638.375C619.414 651.682 619.603 666.735 617.004 680.392C616.714 681.915 616.666 684.396 616.101 685.75C615.596 686.96 615.115 687.046 614 687.485C610.079 687.261 606.89 685.025 603.633 683.034C593.838 677.048 585.208 670.026 577.592 661.428C573.972 657.343 571.405 653.322 569.056 648.406C568.886 656.83 568.306 665.209 566.801 673.516C564.758 684.795 561.097 695.621 558.279 706.704C557.198 710.955 556.62 715.314 555.68 719.599C552.888 716.44 550.682 712.704 547.712 709.764L542.306 703.625C538.594 699.699 534.871 695.549 532.181 690.835C527.35 682.37 525.402 673.009 522.527 663.828L519.375 652.758C518.797 650.619 518.028 648.403 518.133 646.165L518.322 642.006C516.512 645.371 514.454 647.874 511.889 650.687C509.693 647.297 508.435 643.777 506.85 640.104L501.951 629.25C501.42 627.983 501.08 627.019 500.065 626.039L499.331 625.36C502.052 637.054 502.146 648.306 501.329 660.25C500.257 675.933 497.221 692.405 488.75 705.933C487.397 708.093 485.979 710.317 484.278 712.221L475.626 709.591C470.938 707.671 467.58 704.286 464.777 700.185C454.297 684.847 455.102 667.93 458.503 650.567C453.299 655.453 447.69 660.656 441.915 664.859C433.076 671.29 423.532 676.35 414.19 681.958C411.572 683.53 408.531 686.563 405.75 687.448C404.736 686.185 404.345 684.863 403.842 683.355C403.247 683.433 402.619 683.38 402.056 683.588C399.84 684.407 396.341 688.812 394.347 690.455C390.277 693.809 385.868 696.799 381.464 699.692C367.397 708.93 351.532 715.1 337.013 723.576C334.395 725.104 331.336 726.215 328.887 727.966C324.75 730.924 320.124 733.756 316.257 737.012C313.915 738.983 311.967 741.45 309.561 743.335C308.276 744.342 306.238 745.755 304.625 746.003C303.469 747.495 303.055 748.294 301.125 748.753L301.448 746.554L301.184 746.25C300.079 749.185 299.083 751.837 297.572 754.594L301.302 735.461C289.49 739.458 278.335 744.397 266.236 747.702C240.515 754.73 213.432 756.208 186.98 753.391C179.911 752.638 173.227 752.062 166.435 749.847C167.097 715.36 181.43 679.436 199.967 650.75C203.015 646.034 206.572 641.606 209.895 637.079C205.865 637.548 201.786 637.306 197.74 637.203C187.471 636.941 177.747 635.729 167.683 633.704C157.555 631.667 148.224 628.38 138.631 624.668C124.956 619.377 112.071 613.229 99.9199 604.94C97.6961 603.423 93.727 601.193 92.2383 598.949L102.163 578.68C116.17 552.68 135.681 529.76 159.296 511.996C170.622 503.476 183.254 495.911 196.879 491.799C193.502 491.566 191.028 491.177 187.882 489.887C159.991 478.449 133.852 458.67 115.517 434.75C105.194 421.281 96.6277 405.032 90.1152 389.441C95.4128 385.864 101.183 383.381 106.898 380.561C121.94 373.141 137.519 366.471 153.336 360.891C163.963 357.142 174.668 353.682 185.803 351.768C194.322 350.303 202.385 350.845 210.883 350.394L210.469 349.983C205.717 345.171 202.035 339.122 198.358 333.475C176.002 299.134 167.109 258.804 167.025 218.19L212.18 215.608C243.444 214.807 276.702 219.301 304.704 233.848C290.445 190.733 296.98 147.356 310.313 104.97C335.6 110.223 361.154 117.941 383.231 131.704C397.724 140.739 410.342 151.844 422.52 163.734Z"/>
	<path fill="#D4D4D5" transform="scale(1.80081 1.80081)" d="M561.621 436.457C562.521 437.052 562.819 437.207 563.912 437.277C565.171 437.358 565.47 437.633 566.473 438.337C565.544 439.195 563.06 441.469 561.97 441.857C560.756 442.288 558.814 442.246 557.512 442.352C558.678 440.225 560.148 438.375 561.621 436.457Z"/>
	<path fill="#D4D4D5" transform="scale(1.80081 1.80081)" d="M449.836 433.34C452.64 435.91 456.6 439.564 458.157 443L457.764 443.344C457.096 443.942 456.601 444.509 456.085 445.243C454.727 444.699 453.613 444.164 452.388 443.366L452.896 442.661C452.479 440.525 449.587 437.925 448.159 436.25C448.183 435.18 448.181 434.988 448.745 434.022L449.123 433.965L449.836 433.34Z"/>
	<path fill="white" transform="scale(1.80081 1.80081)" d="M555.221 425.997C556.509 420.816 559.869 416.022 561.944 411.089C555.792 419.217 549.132 426.541 541.893 433.7L553.474 403.742C558.425 392.253 563.696 382.562 574.75 376.009C579.562 373.157 584.375 370.657 588.955 367.374C590.248 366.446 591.459 365.442 592.52 364.25C593.722 362.899 594.816 360.567 596.5 359.905C597.182 360.332 597.42 360.368 597.817 361.118C600.852 366.856 597.253 377.263 595.563 383C594.132 387.853 591.689 392.565 589.038 396.87C587.553 397.697 586.403 398.961 585.034 399.959C583.312 401.216 581.357 402.133 579.646 403.407C576.812 405.517 574.399 408.178 571.5 410.264C568.825 412.188 565.173 415.753 563.503 418.502C561.996 420.982 557.93 422.739 557.003 425.502L555.999 426.238L555.221 425.997Z"/>
	<path fill="white" transform="scale(1.80081 1.80081)" d="M499.331 625.36C496.593 613.893 497.186 604.243 498.86 592.691C499.373 589.151 499.672 585.406 500.656 581.967C502.699 574.825 505.796 567.974 508.453 561.052L512.249 587.32C512.874 578.685 514.336 570.01 516.447 561.606C521.035 576.579 528.495 593.37 526.903 609.276C525.776 620.539 521.627 631.269 518.322 642.006C516.512 645.371 514.454 647.874 511.889 650.687C509.693 647.297 508.435 643.777 506.85 640.104L501.951 629.25C501.42 627.983 501.08 627.019 500.065 626.039L499.331 625.36Z"/>
	<path fill="white" transform="scale(1.80081 1.80081)" d="M450.751 527.607C451.867 527.433 452.204 527.205 453.267 527.67C450.862 531.516 446.581 534.354 443.135 537.25C443.876 537.734 443.594 537.463 444.037 538C441.765 539.169 439.794 541.006 437.809 542.605L458.054 534.156C453.432 540.552 446.789 545.004 441.293 550.64C447.438 546.626 453.677 543.893 460.262 540.748C455.187 547.805 450.449 555.4 444.507 561.787C439.996 566.637 433.813 571.447 428.302 575.092C424.091 577.499 419.732 580.036 415.361 582.119L403.052 587.394C399.964 588.628 396.958 589.56 394.483 591.868C393.464 592.818 392.605 593.546 391.407 594.25L390.678 593.883C390.962 590.772 392.35 587.717 393.423 584.793C396.441 576.563 399.91 568.697 405.002 561.5C413.923 548.888 423.22 539.71 437.055 532.717C441.653 530.393 445.635 528.498 450.751 527.607Z"/>
	<path fill="white" transform="scale(1.80081 1.80081)" d="M466.734 563.617C470.455 559.74 475.028 556.501 479.294 553.242C476.351 559.636 475.008 566.686 472.134 573.067C467.253 583.907 460.219 594.688 453.341 604.357C446.346 614.19 438.765 624.763 429.4 632.48L432.64 592.95C436.393 571.246 448.863 556.983 466.333 544.652C464.117 550.449 458.789 556.275 455.088 561.325L472.9 547.9C470.87 552.859 467.997 556.815 464.887 561.12L466.734 563.617Z"/>
	<path fill="#1B1B1F" transform="scale(1.80081 1.80081)" d="M464.887 561.12L466.734 563.617L455.828 575.548C458.528 570.282 461.178 565.785 464.887 561.12Z"/>
	<path fill="white" transform="scale(1.80081 1.80081)" d="M438.09 507.205C440.285 506.868 442.7 507.215 444.915 507.348L423.632 518.69L446.801 511.941L444.75 513.93C441.162 517.388 436.105 519.516 431.84 522.075C437.921 520.928 443.658 519.756 449.866 519.647C445.417 523.494 440.719 526.648 435.99 530.114C431.708 533.253 427.503 536.806 422.981 539.578C417.9 542.692 412.182 545.17 406.635 547.32C399.879 549.68 392.706 551.706 385.647 552.905L373.951 554.306C370.377 554.847 367.018 555.912 363.383 556.298C363.736 554.807 364.968 553.381 365.819 552.089C367.547 549.466 369.131 546.656 371.151 544.25C379.106 534.778 388.836 526.324 399.085 519.427C403.736 516.297 408.766 513.084 414.115 511.291C421.955 508.664 429.92 507.936 438.09 507.205Z"/>
	<path fill="white" transform="scale(1.80081 1.80081)" d="M562.673 336.75L563.399 337.023C564.345 341.896 566.153 347.167 566.478 352.077C568.365 380.62 550.785 409.407 532.969 430.322C533.124 427.832 533.328 425.441 533.89 423C534.767 419.194 541.138 399.016 540.75 397.364L539.954 398.746L523.855 428.906L523.802 426.829C523.712 419.414 524.718 412.341 525.885 405.052C527.222 396.692 528.692 388.028 531.793 380.101C533.822 374.911 536.894 370.324 539.89 365.659C546.628 355.169 553.97 345.691 562.673 336.75Z"/>
	<path fill="white" transform="scale(1.80081 1.80081)" d="M486.131 558.25L486.546 558.5C486.69 561.517 484.95 564.832 484.005 567.684C482.626 571.845 481.639 575.916 479.953 580L480.25 580.664C481.674 577.369 483.763 574.162 485.574 571.062C487.886 567.107 489.863 563.317 492.966 559.903C491.302 565.895 490.605 572.15 489.57 578.282C488.891 582.309 487.791 586.38 487.556 590.456C488.463 589.773 490.065 582.593 490.656 580.998C493.176 574.187 496.391 566.528 500.348 560.463C499.776 575.225 499.662 591.689 493.451 605.342C490.822 613.595 486.361 622.064 481.238 629.045C476.323 635.741 470.447 641.753 465.229 648.229C465.112 643.454 463.779 638.566 462.871 633.876C461.447 626.518 460.236 618.98 460.25 611.47C460.26 606.359 461.585 601.892 462.98 597.014C464.843 590.498 467.043 583.727 470.398 577.798C474.258 570.978 480.579 563.78 486.131 558.25Z"/>
	<path fill="white" transform="scale(1.80081 1.80081)" d="M483.223 422.482L484.579 432.323C479.005 426.459 474.549 420.036 471.485 412.484C469.615 407.876 468.429 403.003 466.728 398.329L461.817 385.49C458.361 374.922 456.094 362.129 456.443 351L458.236 335.278C468.725 343.631 478.367 354.252 485.177 365.878C487.311 369.521 488.929 373.381 490.719 377.195C494.516 385.284 497.836 394.5 498.82 403.422C499.396 408.645 500.183 414.769 499.889 420C499.74 422.634 499.108 425.266 498.74 427.879C493.358 417.224 492.514 405.093 486.116 394.985C488.351 402.253 489.586 409.559 490.619 417.076C491.122 420.735 491.836 425.216 491.461 428.843L488.915 423.49C487.163 423.597 486.26 423.472 484.765 422.505L484.388 422.25L483.223 422.482Z"/>
	<path fill="#3A3B3E" transform="scale(1.80081 1.80081)" d="M482.053 417.698L477.898 401.395L484.307 413.33C483.873 414.139 483.536 414.749 483.345 415.65C483.151 416.564 482.648 417.015 482.053 417.698Z"/>
	<path fill="#1B1B1F" transform="scale(1.80081 1.80081)" d="M482.053 417.698C482.648 417.015 483.151 416.564 483.345 415.65C483.536 414.749 483.873 414.139 484.307 413.33L488.915 423.49C487.163 423.597 486.26 423.472 484.765 422.505L484.388 422.25L483.223 422.482L482.053 417.698Z"/>
	<path fill="white" transform="scale(1.80081 1.80081)" d="M413.669 380.431L433.13 393.986C427.827 381.488 424.421 369.677 423.836 355.992C428.518 358.954 432.235 362.285 436.559 365.69C440.195 368.554 443.909 371.172 447.298 374.353C457.248 383.69 465.732 396.696 468.709 410.139L469.955 416.2L466.738 413.401C468.42 415.807 470.201 418.217 471.408 420.906C472.693 423.77 473.294 426.844 474.402 429.765C475.072 431.533 476.493 434.021 476.612 435.864C469.948 429.291 464.402 422.483 459.241 414.689L469.186 438.003L460.25 426.853C459.802 427.756 459.999 427.757 460.25 428.681C457.042 426.236 454.686 422.392 451.729 419.534C455.92 427.564 465.078 432.644 468.442 440.723L459.505 433.891L459.063 434L459.21 434.682C459.351 435.437 459.351 435.909 459.25 436.654C456.703 435.235 454.495 433.407 452.082 431.788C443.852 426.266 435.743 420.139 429.094 412.75C423.274 406.282 418.427 399.235 413.175 392.34C412.946 388.894 411.94 383.434 413.669 380.431Z"/>
	<path fill="#D4D4D5" transform="scale(1.80081 1.80081)" d="M371.103 654.118C387.998 648.539 401.261 638.25 412.848 624.877C415.807 621.461 418.372 617.126 421.642 614.072C420.121 619.156 418.001 624.543 415.84 629.397C412.889 636.028 409.695 641.212 408.011 648.422C406.304 655.735 404.901 663.17 404.531 670.684C404.364 674.083 405.115 680.395 403.842 683.355C403.247 683.433 402.619 683.38 402.056 683.588C399.84 684.407 396.341 688.812 394.347 690.455C390.277 693.809 385.868 696.799 381.464 699.692C367.397 708.93 351.532 715.1 337.013 723.576C334.395 725.104 331.336 726.215 328.887 727.966C324.75 730.924 320.124 733.756 316.257 737.012C313.915 738.983 311.967 741.45 309.561 743.335C308.276 744.342 306.238 745.755 304.625 746.003C303.469 747.495 303.055 748.294 301.125 748.753L301.448 746.554L301.184 746.25C300.079 749.185 299.083 751.837 297.572 754.594L301.302 735.461C309.437 731.297 318.128 727.747 325.748 722.626C330.066 719.724 334.198 716.074 338.182 712.727C353.063 700.223 362.478 684.267 368.08 665.807C369.229 662.024 370.75 658.062 371.103 654.118Z"/>
	<path fill="white" transform="scale(1.80081 1.80081)" d="M594.383 519.318L579.866 510.109C587.154 508.869 593.37 510.523 600.581 510.932C606.098 511.244 611.103 510.59 616.5 512.048L618.25 512.52L618.474 512.192C607.421 507.616 594.455 506.867 583.858 501.25L581.938 500.255C586.163 499.223 590.436 499.358 594.75 499.287C600.405 499.194 605.989 499.039 611.641 499.427L594.479 495.113C590.832 494.233 586.52 493.326 583.272 491.371C587.815 489.591 592.198 489.268 597 488.665C601.344 488.12 605.95 487.187 610.331 487.393C615.491 487.635 620.994 489.267 625.935 490.75C632.528 492.729 639.116 494.869 645.429 497.625C652.203 500.582 658.665 504.301 664.859 508.319C668.255 510.521 671.734 512.612 674.47 515.639C662.439 519.388 646.864 519.666 634.636 517.017C632.505 516.555 630.336 516.104 628.266 515.408C626.342 514.76 624.297 513.467 622.25 513.787C636.278 520.099 648.066 528.185 659.663 538.226C661.21 540.906 662.927 543.214 664.881 545.605L664.978 545.606L669.371 555.408C658.945 553.396 648.021 552.391 637.75 549.92C633.614 548.925 629.61 546.935 625.658 545.382C613.687 540.679 600.909 535.435 589.949 528.619C585.867 526.081 582.427 522.853 578.493 520.151L578.052 519.851L578.162 519.25C581.742 517.974 585.486 519.671 588.864 520.877L594.383 519.318Z"/>
	<path fill="#1B1B1F" transform="scale(1.80081 1.80081)" d="M594.383 519.318C597.843 521.497 601.091 523.464 604.919 524.954C605.671 525.247 605.377 525.092 606.013 525.577C599.988 524.739 594.477 523.225 588.864 520.877L594.383 519.318Z"/>
	<path fill="white" transform="scale(1.80081 1.80081)" d="M584.903 453.243L570.084 457.159C575.778 450.03 583.995 446.333 590.117 439.894C587.061 441.473 581.303 444.776 577.869 444.25L578.75 443.43L578.75 443.031L563.653 450.179C567.461 444.403 572.29 439.387 577.162 434.498C583.058 428.582 590.083 422.309 597.512 418.344C607.041 413.258 619.693 410.751 630.263 408.63C639.301 406.817 647.33 405.887 655.327 400.973C655.468 402.149 654.466 404.229 654.062 405.399C652.282 410.559 650.355 415.316 647.856 420.169L646.943 421.767C638.808 430.257 630.158 436.451 620.429 442.961C624.485 442.6 627.354 442.631 631.287 443.822C629.545 447.942 627.885 450.655 624.529 453.661C641.603 449.82 657.194 451.259 674.284 453.787C663.135 465.79 647.442 478.376 631.5 482.962C626.872 484.293 621.642 484.805 616.842 484.994C610.35 485.25 603.791 484.781 597.329 484.195C591.712 483.685 586.93 483.347 581.52 481.475L592.75 477.523C599.05 475.508 605.656 474.29 611.75 471.613C601.164 473.261 589.752 474.395 579.023 473.33C589.688 466.621 601.512 462.919 612.868 457.754L574.562 465.228L587.643 456.42L584.903 453.243Z"/>
	<path fill="#1B1B1F" transform="scale(1.80081 1.80081)" d="M584.903 453.243L595.806 450.224C598.436 449.363 601.467 448.069 604.224 447.893L587.643 456.42L584.903 453.243Z"/>
	<path fill="white" transform="scale(1.80081 1.80081)" d="M573.687 526.39L583.75 529.726C587.075 530.676 590.144 530.955 593.238 532.672C598.324 535.493 603.839 537.442 608.865 540.412C624.627 549.725 637.638 562.464 648.161 577.323C650.919 581.216 653.733 584.861 655.986 589.086C649.84 587.113 643.81 586.359 637.598 584.848C625.283 581.851 613.872 576.489 603.666 568.94C601.32 567.205 599.283 565.112 597.052 563.236C598.676 566.322 602.422 568.935 604.617 571.827C610.106 579.059 613.949 586.652 617.426 595C619.352 599.623 621.097 603.459 622.051 608.433C616.236 606.32 612.983 603.175 608.08 599.614C600.896 594.398 593.612 589.341 587.248 583.112C588.181 585.314 589.428 587.361 590.344 589.572C593.503 597.197 596.077 606.385 596.904 614.582C597.636 621.835 597.118 629.611 597.113 636.922C593.39 634.209 590.11 630.367 586.872 627.068C579.966 620.033 572.634 612.741 566.724 604.845C562.601 599.337 559.122 593.341 555.344 587.594L554.813 587.75C558.259 594.426 562.452 601.247 564.938 608.338C570.388 623.882 568.91 642.308 564.598 657.925L548.261 637.678C543.391 631.125 539.226 623.915 535.518 616.659C531.017 607.797 528.338 597.395 526.324 587.707C525.367 583.104 524.261 578.298 523.896 573.619C523.564 569.357 523.964 564.8 524.03 560.505L539.525 592.23C538.975 587.441 537.281 582.616 536.008 577.964C534.242 571.508 532.797 565.177 531.814 558.552C537.107 565.092 540.653 572.672 545.17 579.75L545.607 579.75L539.849 565.196C542.194 568.025 544.774 570.845 546.361 574.188L549.664 580.414L550.173 580.25C548.615 577.579 547.677 574.833 546.491 572C544.083 566.249 542.007 561.13 540.4 555.069L560.317 577.07C560.033 574.976 558.33 572.933 557.141 571.215C555.202 568.411 553.404 565.658 551.776 562.661C553.833 563.97 555.378 566.278 557.554 567.25C553.232 562.28 550.017 556.709 547.916 550.474L564.963 564.261L565.75 563.657L567.5 564.955L568.095 564.75C564.84 561.132 558.399 554.248 557.204 549.657C558.029 549.838 558.37 549.929 559.215 549.75C558.114 548.943 556.989 548.566 556.75 547.18C559.595 548.562 561.89 550.531 564.597 552.095C568.907 554.586 573.193 556.814 577.269 559.709C571.599 553.942 566.016 547.893 562.285 540.677C566.777 542.431 570.643 544.907 574.75 547.36C576.117 548.176 577.634 548.789 578.915 549.739C580.214 550.702 581.132 552.089 582.36 553.139C585.349 555.696 589.274 557.744 592.839 559.34L576.736 545.635L583.513 548.283C578.438 543.789 572.965 539.25 569.15 533.6C577.961 536.065 585.88 541.562 593.999 545.747C592.327 544.057 588.65 541.998 587.544 540.123C586.009 537.521 583.556 535.721 581.314 533.731L573.687 526.39Z"/>
	<defs>
		<linearGradient id="gradient_4" gradientUnits="userSpaceOnUse" x1="583.81586" y1="298.73196" x2="829.78192" y2="356.58469">
			<stop offset="0" stop-color="#D3D3D4"/>
			<stop offset="1" stop-color="white"/>
		</linearGradient>
	</defs>
	<path fill="url(#gradient_4)" transform="scale(1.80081 1.80081)" d="M717.811 233.252L718.329 233.057C721.246 231.819 724.006 229.756 726.821 228.257C731.052 226.004 735.832 224.275 740.394 222.794C748.346 220.212 756.246 219.067 764.5 217.941C796.163 213.618 827.319 215.468 858.914 219.227C857.43 238.167 855.224 256.834 850.009 275.182C845.634 290.572 838.973 306.662 831.094 320.593C829.229 323.892 826.909 326.966 824.901 330.186C820.76 336.829 816.042 345.715 810.112 350.884C809.234 351.843 808.814 352.998 808.003 354.004C806.374 356.02 804.535 357.002 803.531 359.502L801.75 362.826L801.283 363.652L794.802 373.701C793.877 375.109 793.272 376.619 792.293 378L786.264 386.644L784.806 388.791C783.145 391.455 780.869 393.713 779.053 396.256C778.028 397.691 776.761 398.79 775.75 400.255C773.271 403.848 769.468 407.083 766.382 410.187C764.008 412.574 762.285 414.971 759.503 417.027L746 427.796C743.881 429.226 742.157 430.589 739.702 431.39C739.001 431.619 739.298 431.507 738.53 431.932C736.782 431.888 734.97 431.849 733.247 432.164C732.637 432.476 732.911 432.405 732.083 432.451C725.155 432.831 717.973 430.216 711.375 428.341C704.236 426.311 697.021 424.33 689.677 423.2C680.698 421.818 671.693 421.106 662.605 421.249C657.698 421.326 652.686 421.904 647.809 421.792L646.943 421.767L647.856 420.169L662.393 414.842C665.296 413.693 668.088 412.218 671.019 411.148C681.57 407.297 691.877 403.913 701.563 398.012L713.486 389.908C719.383 385.504 724.361 379.763 732.198 379.289L732.995 379.246C723.368 375.114 714.181 371.619 703.794 369.914C673.906 365.008 637.865 370.915 613.046 388.722C611.165 390.653 609.247 392.567 607.761 394.828C604.852 399.257 603.106 404.315 600.043 408.767C596.37 414.107 591.606 420.27 586.599 424.406C580.367 429.553 572.908 433.423 566.473 438.337C565.47 437.633 565.171 437.358 563.912 437.277C562.819 437.207 562.521 437.052 561.621 436.457L574.141 417.865C566.235 424.746 558.604 432.73 549.58 438.173C551.252 434.054 552.96 429.831 555.221 425.997L555.999 426.238L557.003 425.502C557.93 422.739 561.996 420.982 563.503 418.502C565.173 415.753 568.825 412.188 571.5 410.264C574.399 408.178 576.812 405.517 579.646 403.407C581.357 402.133 583.312 401.216 585.034 399.959C586.403 398.961 587.553 397.697 589.038 396.87C595.75 393.856 600.722 387.605 606.771 383.616C607.505 382.511 609.376 381.459 610.474 380.654C614.777 377.5 619.366 375.017 623.725 371.995C633.34 365.33 642.931 358.402 650.167 349.079C656.72 340.636 661.574 329.355 663.11 318.787C663.663 314.984 663.588 310.375 664.533 306.718C665.08 304.603 669.048 301.013 670.347 298.763C684.242 291.105 695.268 278.257 702.655 264.318C704.164 261.471 705.139 258.424 706.556 255.555C707.938 252.757 709.607 250.102 710.868 247.25C712.865 242.734 714.279 236.784 717.811 233.252Z"/>
	<path fill="#F7F7F7" transform="scale(1.80081 1.80081)" d="M589.038 396.87C595.75 393.856 600.722 387.605 606.771 383.616C606.575 384.385 606.661 384.705 606.019 385.209C603.657 387.065 601.695 389.255 599.25 391L586.771 400.223C584.974 401.652 583.521 403.474 581.714 404.901C579.339 406.775 576.598 408.108 574.181 409.906C569.882 413.103 566.106 417.688 562.625 421.702C561.332 423.193 559.645 424.37 558.606 426.066C558.107 426.881 557.633 427.34 556.956 427.99C556.469 428.458 556.059 428.965 555.643 429.495C553.468 430.343 552.995 432.687 552 434.75L552.875 434.875L554.75 432.755L555.5 432.75L555.931 432.219C556.579 431.492 556.826 431.528 557.625 431.125C559.051 430.405 560.276 428.942 561.391 427.828C562.051 427.167 561.47 427.796 562.625 427.125C564.318 426.141 565.73 423.741 567.5 422.5C569.493 421.103 572.277 418.508 573.375 416.375L574 415.5L576.125 412.625L577.268 412.73C577.737 416.402 565.731 432.311 563 436.25C563.702 436.403 564.348 436.503 565.064 436.576C566.119 436.685 565.644 436.592 566.75 437L567.195 436.523C568.482 435.236 566.89 436.782 568.625 435.625L569.25 435L570.125 434.625L571 434L574.758 431.508L578.25 429L582.758 426.008C583.713 425.371 584.536 424.628 585.504 424.011C587.164 422.955 588.364 421.484 589.375 419.875C590.87 417.496 593.773 415.866 595.375 413.375L596.5 412.25L597.461 410.789L600 407.25L600.5 406.5L606.375 395.252C606.724 394.474 606.999 394.212 607.5 393.5L607.82 392.909C608.362 392.01 609.023 391.701 609.75 391C611.227 389.577 610.725 389.294 613.046 388.722C611.165 390.653 609.247 392.567 607.761 394.828C604.852 399.257 603.106 404.315 600.043 408.767C596.37 414.107 591.606 420.27 586.599 424.406C580.367 429.553 572.908 433.423 566.473 438.337C565.47 437.633 565.171 437.358 563.912 437.277C562.819 437.207 562.521 437.052 561.621 436.457L574.141 417.865C566.235 424.746 558.604 432.73 549.58 438.173C551.252 434.054 552.96 429.831 555.221 425.997L555.999 426.238L557.003 425.502C557.93 422.739 561.996 420.982 563.503 418.502C565.173 415.753 568.825 412.188 571.5 410.264C574.399 408.178 576.812 405.517 579.646 403.407C581.357 402.133 583.312 401.216 585.034 399.959C586.403 398.961 587.553 397.697 589.038 396.87Z"/>
	<path fill="#F7F7F7" transform="scale(1.80081 1.80081)" d="M422.52 163.734C427.719 168.929 433.971 174.932 437.002 181.636C440.953 167.278 446.211 153.273 453.578 140.29C463.111 123.49 476.211 108.886 490.101 95.5997C494.868 91.0403 499.776 86.9146 505.041 82.9393C506.372 81.9344 508.26 80.1673 509.75 79.5412C510.876 79.0678 511.51 79.3147 512.511 79.8831C514.919 81.2507 517.209 83.4507 519.39 85.1777L530.739 94.5072C548.229 110.206 563.321 128.812 573.675 150.01C579.218 161.36 583.339 173.339 586.76 185.465C588.904 189.34 589.705 194.538 590.363 198.904C592.434 212.653 592.204 227.154 590.742 240.958L590.309 243.5L590.208 244.109L589.435 247.429C589.152 248.516 588.488 249.557 588.124 250.666L584.768 260.753C584.07 262.848 582.995 265.868 581.245 267.25C580.3 265.609 579.397 263.999 578.599 262.285C578.125 261.267 577.67 260.982 576.785 260.338C572.071 252.673 568.376 244.966 562.36 238.158C562.624 241.923 563.012 245.809 562.823 249.579C561.257 280.765 543.123 308.222 525.766 332.902C524.54 334.645 519.564 340.334 519.374 342.296C519.292 343.142 520.283 345.604 520.542 346.5C521.662 350.368 522.86 354.191 523.669 358.141C526.233 370.65 527.402 384.652 525.028 397.274C523.804 403.787 521.473 410.17 519.305 416.425C518.234 419.513 517.172 424.633 515.325 427.14L513.746 411.439C513.494 406.846 513.688 400.807 512.381 396.438C510.56 406.986 510.662 417.41 507.507 427.79C506.533 422.528 504.695 417.669 503.214 412.555C499.179 398.627 495.06 383.105 496.052 368.5C496.432 362.895 497.769 357.211 499.143 351.781L501.807 342.565C501.982 342.013 502.732 340.331 502.688 339.808C502.47 337.233 500.355 333.517 499.196 331.128C492.113 316.527 482.832 303.176 474.909 289.061C468.891 278.337 464.273 267.566 460.308 255.919C458.609 250.931 457.643 244.894 455.286 240.241C445.728 257.639 438.786 277.989 438.657 298C438.612 305.032 439.512 311.828 440.043 318.795C442.3 331.077 445.934 342.97 450.848 354.453C448.879 351.928 446.927 349.239 444.65 346.984C440.527 342.901 435.285 339.198 430.723 335.538C428.859 334.043 425.917 332.573 424.429 330.88C424.697 330.303 425.317 329.331 425.416 328.75C425.605 327.639 422.851 321.015 422.281 319.693C418.223 310.292 414.163 301.839 411.631 291.833C405.904 269.202 405.309 246.422 410.181 223.517L416.19 199.342C415.941 198.876 416.599 196.677 416.783 196L417.417 193.33L417.548 192.502L419.355 181.75L420.335 177L422.52 163.734Z"/>
	<path fill="white" transform="scale(1.80081 1.80081)" d="M301.302 735.461C289.49 739.458 278.335 744.397 266.236 747.702C240.515 754.73 213.432 756.208 186.98 753.391C179.911 752.638 173.227 752.062 166.435 749.847C167.097 715.36 181.43 679.436 199.967 650.75C203.015 646.034 206.572 641.606 209.895 637.079C205.865 637.548 201.786 637.306 197.74 637.203C187.471 636.941 177.747 635.729 167.683 633.704C157.555 631.667 148.224 628.38 138.631 624.668C124.956 619.377 112.071 613.229 99.9199 604.94C97.6961 603.423 93.727 601.193 92.2383 598.949L102.163 578.68C116.17 552.68 135.681 529.76 159.296 511.996C170.622 503.476 183.254 495.911 196.879 491.799C193.502 491.566 191.028 491.177 187.882 489.887C159.991 478.449 133.852 458.67 115.517 434.75C105.194 421.281 96.6277 405.032 90.1152 389.441C95.4128 385.864 101.183 383.381 106.898 380.561C121.94 373.141 137.519 366.471 153.336 360.891C163.963 357.142 174.668 353.682 185.803 351.768C194.322 350.303 202.385 350.845 210.883 350.394L210.469 349.983C205.717 345.171 202.035 339.122 198.358 333.475C176.002 299.134 167.109 258.804 167.025 218.19L212.18 215.608C243.444 214.807 276.702 219.301 304.704 233.848C290.445 190.733 296.98 147.356 310.313 104.97C335.6 110.223 361.154 117.941 383.231 131.704C397.724 140.739 410.342 151.844 422.52 163.734L420.335 177L419.355 181.75L417.548 192.502L417.417 193.33L416.783 196C416.599 196.677 415.941 198.876 416.19 199.342L410.181 223.517C405.309 246.422 405.904 269.202 411.631 291.833C414.163 301.839 418.223 310.292 422.281 319.693C422.851 321.015 425.605 327.639 425.416 328.75C425.317 329.331 424.697 330.303 424.429 330.88C419.769 327.18 414.446 322.904 409.25 320.039C395.561 312.492 380.338 307.466 367.045 299.253C362.85 296.662 359.199 293.544 355.47 290.341C355.721 293.339 356.118 296.127 356.835 299.051C359.059 305.057 360.39 311.234 362.408 317.284C368.216 334.704 377.953 351.521 392.018 363.582C398.953 369.528 406.804 374.467 413.669 380.431C411.94 383.434 412.946 388.894 413.175 392.34C405.327 383.994 393.576 379.805 383.853 374.11L383.441 373.865C370.204 368.792 356.412 365.093 342.177 364.542C328.574 364.016 314.88 365.584 301.25 365.56L300.75 366.388C305.199 372.726 308.844 379.452 313.844 385.432C324.425 398.086 338.373 404.801 352.57 412.436C356.933 414.782 360.793 417.696 365.003 420.246C367.922 422.014 370.987 423.377 373.843 425.284C366.193 423.901 358.636 422.209 350.844 421.719C336.013 420.786 319.393 423.759 305.094 427.426C301.186 428.428 297.271 428.964 293.37 430.135L293.845 430.374C295.114 431.035 296.055 431.666 297.102 432.637C300.504 435.792 305.363 437.761 309.292 440.262C321.996 448.347 333.527 457.742 347.894 462.844C341.156 464.168 333.943 464.939 327.405 467.027C316.629 470.468 305.96 476.759 297.123 483.783C295.572 485.017 293.119 486.679 292.132 488.419L291.925 489.04C300.571 490.893 307.571 496.129 315.386 499.929C323.904 504.069 332.84 507.705 341.696 511.066C344.617 511.117 348.402 512.829 351.489 513.275C351.906 513.336 353.513 513.667 353.82 513.591C354.949 513.312 357.164 510.998 358.077 510.194C361.597 507.095 365.087 503.928 368.814 501.077C371.153 499.287 373.67 497.757 376.218 496.285C382.135 492.869 388.714 489.605 395.25 487.564C398.64 486.505 403.749 486.607 406.641 484.846C408.401 483.774 406.061 484.99 407.937 484.036L408.437 483.791C402.092 482.244 395.272 482.596 388.883 481.081C371.931 477.061 355.908 466.539 341.808 456.615C359.509 450.469 382.119 450.454 400.479 453.699C398.609 452.237 397.235 451.213 396.26 449C398.249 446.808 401.084 446.953 403.867 446.711C394.213 441.206 381.14 435.071 374.55 425.903C369.767 419.248 366.898 411.557 363.46 404.199L363.709 404.046L399.51 410.85C411.135 413.311 423.858 415.357 434.422 420.99C440.14 424.039 445.226 428.843 449.836 433.34L449.123 433.965L448.745 434.022C448.181 434.988 448.183 435.18 448.159 436.25C449.587 437.925 452.479 440.525 452.896 442.661L452.388 443.366C444.308 440.079 436.893 436.608 429.25 432.394L429.009 432.889C438.386 439.482 447.273 445.416 455.057 454.009L433.984 448.136L438.34 451.272C433.953 449.728 429.626 447.65 424.923 447.541C428.147 448.59 431.536 449.604 434.552 451.168C439.724 453.85 444.741 458.034 449.272 461.669C445.458 461.167 441.936 460.445 438.196 459.623L437.75 460.324L402.75 453.809L402.537 454.29C411.401 456.066 420.123 459.333 428.636 462.311C434.902 464.502 441.006 466.216 446.715 469.718L430.918 469.965L431.779 470.264L437.596 472.589C434.92 472.224 432.194 471.671 429.5 471.494C424.657 471.177 419.803 471.549 414.998 470.736C414.299 470.618 413.69 470.699 413 470.819L436.75 476.059C439.596 476.812 442.468 478.226 445.21 479.324L419.752 482.757L420.402 482.783C425.913 483.057 431.689 484.959 436.786 487.001L424.844 486.446C423.55 486.419 422.266 486.079 421 486.332C428.243 488.463 436.436 487.318 443.731 489.493C436.293 491.471 428.439 493.521 421.497 496.909L417.726 498.716C426.227 497.486 434.302 496.937 442.75 498.793L443.25 499.44C441.309 501.706 434.363 502.836 431.372 503.87C420.571 507.605 409.941 511.793 398.861 514.7C394.717 515.787 390.218 516.613 385.944 516.917L353.499 517.022C351.127 516.948 348.583 517.439 346.215 517.706C324.656 520.136 304.572 534.822 289.553 549.81L276.39 564.168C275.924 564.712 274.886 565.598 274.841 566.316C294.772 569.419 314.172 577.167 334.449 577.59C346.199 578.312 357.814 578.824 369.595 578.432L387.783 577.074C385.919 579.211 384.112 581.387 381.918 583.2C377.418 588.015 372.796 592.779 369.012 598.191C360.371 610.548 355.552 624.805 351.19 639.094L344.302 661.94C353.067 658.325 362.108 656.978 371.103 654.118C370.75 658.062 369.229 662.024 368.08 665.807C362.478 684.267 353.063 700.223 338.182 712.727C334.198 716.074 330.066 719.724 325.748 722.626C318.128 727.747 309.437 731.297 301.302 735.461Z"/>
	<path fill="#D4D4D5" transform="scale(1.80081 1.80081)" d="M291.925 489.04C300.571 490.893 307.571 496.129 315.386 499.929C323.904 504.069 332.84 507.705 341.696 511.066C338.369 511.296 335.07 510.884 331.735 511.361C324.5 512.396 316.884 513.755 310.25 516.975C306.572 518.761 303.133 521.183 299.5 523.1L299 522.75C299.55 522.304 299.998 521.991 300.648 521.695C301.984 521.088 303.344 520.416 304.5 519.5C305.183 518.959 305.378 518.672 306.22 518.32C307.266 517.884 306.776 518.157 307.75 517.508C309.315 516.465 311.461 515.581 313.25 514.984L318.375 513.375C319.52 512.958 320.641 512.881 321.75 512.5C322.965 512.082 322.212 512.152 323.163 512.051L324.875 511.875C326.081 511.51 326.647 511.565 327.875 511.375C328.798 511.232 328.998 510.882 329.386 510.115C328.537 509.565 328.206 509.425 327.17 509.347C326.133 509.27 326.506 509.424 325.791 509.084C325.15 508.78 324.651 508.701 323.95 508.575C322.361 508.291 321.843 507.751 320.799 506.519L320.431 506.078L319.696 505.843L319.262 504.757L318.798 503.94L319.346 502.786L305.038 495.391L294.174 490.079L287.038 496.575C280.687 501.39 273.568 505.738 265.923 508.128C263.643 508.841 261.411 509.634 259.003 509.327C262.191 508.372 265.368 507.757 268.5 506.554C276.894 503.331 286.768 497.082 292.784 490.276L291.925 489.04Z"/>
	<path fill="#D4D4D5" transform="scale(1.80081 1.80081)" d="M334.449 577.59C346.199 578.312 357.814 578.824 369.595 578.432L387.783 577.074C385.919 579.211 384.112 581.387 381.918 583.2L379.25 582.525C376.202 583.77 372.914 585.09 370.214 586.996C363.873 591.472 358.076 598.782 353.075 604.71L339.03 620.52C334.163 625.974 329.369 631.631 323.5 636.05L323 635.75C323.92 634.569 325.141 634.132 326.15 633.115L334.75 624.5C334.759 623.169 336.242 622.762 336.877 621.5L335.998 621.243C334.089 620.664 332.346 620.935 330.433 620.591L329.532 620.424C326.456 619.971 324.638 618.689 321.796 617.889C318.274 616.899 315.247 615 311.568 614.425C308.939 614.014 306.277 613.532 304.059 612.002L303.695 611.743L302.167 612.937L297.604 616.299C293.736 618.853 289.406 620.957 285.25 623C283.543 623.839 281.705 625.137 279.755 624.75C284.694 622.824 289.647 620.242 294.182 617.503C310.684 607.539 320.309 590.939 334.75 578.755L334.449 577.59Z"/>
	<path fill="#D4D4D5" transform="scale(1.80081 1.80081)" d="M383.441 373.865C383.67 373.125 383.811 372.96 383.727 372.202C383.486 370.036 380.668 367.217 379.299 365.562C376.413 362.075 373.532 358.122 370.25 354.999C363.936 348.991 356.136 344.239 349.424 338.566C327.675 320.188 318.136 294.387 311.683 267.492C309.114 256.78 306.809 246.137 305.887 235.151L318.76 257.217C326.662 268.829 335.504 279.717 345.115 289.962C347.86 292.888 352.29 298.295 356.354 298.984L356.835 299.051C359.059 305.057 360.39 311.234 362.408 317.284C368.216 334.704 377.953 351.521 392.018 363.582C398.953 369.528 406.804 374.467 413.669 380.431C411.94 383.434 412.946 388.894 413.175 392.34C405.327 383.994 393.576 379.805 383.853 374.11L383.441 373.865Z"/>
</svg>
