<?xml version="1.0" encoding="utf-8" ?>
<svg xmlns="http://www.w3.org/2000/svg" xmlns:xlink="http://www.w3.org/1999/xlink" width="1844" height="1844">
	<path fill="#BBC0C2" transform="scale(1.80081 1.80081)" d="M-0 -0L1024 0L1024 1024L-0 1024L0 -0Z"/>
	<path fill="#52565D" transform="scale(1.80081 1.80081)" d="M458.924 932.007C460.26 934.419 459.474 940.877 459.457 943.7L458.968 974.647C435.635 973.099 412.692 971.214 389.628 967.309C382.639 966.126 374.214 965.044 367.707 962.307C365.544 961.397 363.493 959.518 361.634 958.09C364.433 955.55 366.996 953.92 370.552 952.655C375.847 950.772 381.52 949.704 387 948.515L398.557 945.687L416.254 942.6C428.152 940.298 440.116 937.219 452.15 935.825C454.268 935.818 456.814 936.105 458.75 935.18L458.924 932.007Z"/>
	<path fill="#52565D" transform="scale(1.80081 1.80081)" d="M532.057 975.462L531.586 933.417C551.599 933.457 571.792 935.752 591.81 934.913C597.854 934.66 604.387 934.353 610.347 933.391L627.597 930.148L628 930.846C637.931 931.877 648.982 933.553 658.215 937.479C661.319 938.798 664.339 940.226 666.515 942.917C668.178 944.974 669.673 948.032 669.557 950.75C669.503 952.018 668.912 952.259 667.936 952.929C656.594 960.703 642.748 963.099 629.5 965.518C602.597 970.429 575.649 971.961 548.482 974.337L537.326 974.83C535.672 974.896 533.528 974.717 532.057 975.462Z"/>
	<path transform="scale(1.80081 1.80081)" d="M423.791 931.679C410.581 930.594 396.902 928.579 384.192 924.711C379.392 923.25 375.008 921.244 370.421 919.25C366.087 917.366 361.673 915.715 357.484 913.507C347.554 908.273 338.486 901.738 330.037 894.388C325.066 890.064 319.662 885.124 315.481 880.023C309.098 872.234 303.484 863.186 298.404 854.5C294.765 848.278 290.943 842.21 287.775 835.719C274.036 807.572 266.522 776.084 260.75 745.432L256.891 722.209C256.183 717.876 255.135 713.682 254.827 709.283C270.551 713.769 287.089 715.592 302.972 719.755C334.672 728.064 367.284 740.096 395.406 757.147C405.079 763.012 413.907 769.749 422.701 776.819C435.776 787.331 448.383 798.906 459.426 811.55L460.146 671.87L447.116 678.696C425.374 688.152 398.523 689.603 376.37 680.752C363.118 675.458 351.849 666.076 343.502 654.556C341.617 651.955 339.338 649.167 338.108 646.177C336.441 642.128 334.386 638.244 332.909 634.116C330.546 627.514 329.377 620.831 328.669 613.87C326.724 594.759 331.463 576.806 338.401 559.176C343.173 547.051 349.286 534.847 356.918 524.243C364.965 513.06 374.495 503.04 383.157 492.357C380.328 490.412 377.942 487.743 375.523 485.324C369.421 479.224 363.546 472.707 358.575 465.64L351.905 455.627C351.322 454.675 348.475 448.976 347.983 448.761C346.755 448.226 328.724 452.341 325.761 452.932C302.343 457.605 277.344 460.738 253.449 459.917C239.842 459.449 226.316 456.877 213.583 452.062C189.954 443.126 165.24 428.674 154.523 404.598C148.725 391.573 147.307 375.455 152.57 362C162.796 335.855 187.922 314.465 212.532 302.187C221.236 297.845 230.395 294.879 239.251 290.967L237.172 288.702C235.24 286.428 234.323 284.133 233.021 281.5C231.852 279.135 230.448 276.886 229.475 274.425C225.634 264.717 223.202 251.924 222.715 241.56C222.366 234.124 223.224 226.397 223.805 218.974C220.817 214.833 219.133 210.885 218.123 205.859C217.105 200.791 217.478 194.995 218.086 189.875C219.522 177.797 223.044 167.383 229.739 157.148C238.166 144.267 251.269 134.91 266.507 131.907C292.124 126.86 317.781 142.583 338.802 155.204C357.066 166.169 374.89 178.891 391.245 192.568L420.37 217.946C424.662 221.606 428.748 225.505 433.416 228.693C432.76 221.538 430.238 214.318 428.843 207.25L421.933 165.19C418.94 141.977 417.303 119.856 427.269 97.751C434.811 81.0203 446.088 65.1902 461.25 54.5483C467.371 50.2525 473.81 47.1355 480.539 43.9558C484.214 42.2196 487.924 40.1484 491.735 38.75C505.551 33.6799 519.005 36.5435 532 42.5224C557.771 54.379 580.037 78.0838 589.906 104.77C598.907 129.109 597.827 157.762 594.386 183.071C593.086 192.633 591.635 202.065 589.286 211.44C588 216.569 587.742 221.204 585.499 226.094L588.5 227.084L590.075 227.889C592.071 228.411 594.45 226.66 595.959 225.48C603.59 219.514 610.56 212.223 617.952 205.901C634.128 192.065 650.761 178.737 668.946 167.604C676.352 163.07 684.283 159.092 692.068 155.245C704.507 149.098 717.45 144.475 730.546 139.988C738.418 137.291 747.197 133.932 755.505 133.181C762.626 132.537 768.838 133.275 775.563 135.608C788.978 140.262 798.421 150.898 804.438 163.441C811.43 178.018 814.112 195.206 813.272 211.331C812.728 221.783 810.824 232.123 809.606 242.5C807.803 257.875 806.718 273.736 802.229 288.652C801.451 291.237 800.171 293.571 799.285 296.098C801.222 298.191 803.486 298.739 806 299.875L815.619 304.742C821.19 307.713 826.503 311.54 831.649 315.18C837.33 319.197 843.033 323.176 848.059 328.039C853.714 333.511 859.084 340.554 863.252 347.223C872.153 361.463 875.913 379.424 871.953 395.87C867.038 416.282 852.117 434.492 834.195 445.202C812.443 458.2 786.598 459.675 761.925 459.531C732.037 459.357 703.133 455.693 674.159 448.418C668.408 457.649 662.929 466.572 655.743 474.836C650.427 480.947 644.228 486.476 638.274 491.958C640.503 494.216 642.289 497.003 644.359 499.426C652.03 508.405 659.428 517.612 666.122 527.352C683.55 552.709 699.428 587.334 693.459 618.83C689.397 640.259 679.69 659.557 661.156 672.084C653.325 677.377 645.145 681.766 636.001 684.329C622.666 688.066 604.898 687.494 591.393 684.777C572.56 680.989 554.666 670.076 542.25 655.487C538.552 651.142 535.268 646.158 532.079 641.42L531.153 841.387C532.481 839.801 533.381 837.564 534.344 835.725C536.321 831.951 538.259 828.119 540.513 824.5C548.838 811.137 559.6 798.657 570.958 787.757C585.906 773.41 603.572 763.533 622 754.469C657.694 736.912 696.466 724.87 735.5 717.474L755.654 714.423C760.492 713.758 764.484 712.902 769.466 712.994L769.623 713.436C768.586 717.238 768.196 721.133 767.497 725L762.989 747.998C755.586 784.706 745.808 823.389 725.376 855.232C719.441 864.482 712.709 872.782 705.408 880.94C702.933 883.705 700.705 886.559 698.027 889.145C695.537 891.549 692.816 893.435 690.25 895.683C684.708 900.537 679.78 905.137 673.604 909.301C669.936 911.774 666.13 913.716 662.312 915.901C651.156 922.287 640.269 927.449 627.597 930.148L610.347 933.391C604.387 934.353 597.854 934.66 591.81 934.913C571.792 935.752 551.599 933.457 531.586 933.417L532.057 975.462C529.294 976.783 525.445 976.494 522.425 976.728C509.302 977.746 495.761 977.872 482.63 976.914L458.968 974.647L459.457 943.7C459.474 940.877 460.26 934.419 458.924 932.007L458.75 935.18C456.814 936.105 454.268 935.818 452.15 935.825L452.476 935.258L452.25 934.755C450.472 933.598 434.729 934.258 431.5 934.245C430.439 933.54 429.737 933.748 428.5 933.745C427.244 932.911 427.015 933.55 425.75 933.245C425.347 933.148 424.185 931.994 423.791 931.679Z"/>
	<path fill="#B7B6B9" transform="scale(1.80081 1.80081)" d="M423.791 931.679L449.25 932.207C452.342 932.194 455.895 931.655 458.924 932.007L458.75 935.18C456.814 936.105 454.268 935.818 452.15 935.825L452.476 935.258L452.25 934.755C450.472 933.598 434.729 934.258 431.5 934.245C430.439 933.54 429.737 933.748 428.5 933.745C427.244 932.911 427.015 933.55 425.75 933.245C425.347 933.148 424.185 931.994 423.791 931.679Z"/>
	<path fill="#052605" transform="scale(1.80081 1.80081)" d="M518.954 915.862L519.75 928C520.041 926.915 519.737 923.481 520.265 923.018L520.98 967.106C510.031 968.27 499.464 967.938 488.481 967.446C482.368 967.172 475.968 967.103 469.953 965.975C470.207 960.494 469.772 953.741 470.951 948.458L470.963 956.363C475.966 957.789 480.688 959.99 485.735 961.25C488.876 962.034 492.263 962.034 495.482 962.201C502.721 962.576 509.771 962.503 517.007 961.993L518.011 931.476C518.201 926.501 518.146 921.358 518.864 916.437L518.954 915.862Z"/>
	<path fill="white" transform="scale(1.80081 1.80081)" d="M234.365 244.026L242.805 255.497C247.176 261.087 251.84 266.643 257.296 271.207C262.992 275.971 269.078 279.374 275.633 282.75L273.734 283.369C265.883 283.629 259.166 284.436 251.574 286.413C240.051 275.109 237.243 259.208 234.365 244.026Z"/>
	<path fill="#062205" transform="scale(1.80081 1.80081)" d="M490.851 639.168C491.876 636.035 493.855 633.319 495.545 630.51C497.865 626.656 500.117 622.728 502.016 618.647C505.62 610.904 507.358 602.448 510.659 594.533C514.132 603.422 515.096 613.308 519.25 621.867C519.999 623.41 521.026 625.043 521.258 626.755C521.593 629.225 521.084 632.003 521.039 634.5L520.358 653.5C520.151 656.938 520.704 660.723 520.078 664.086L519.973 653.628C511.78 646.9 500.398 643.617 490.851 639.168Z"/>
	<path fill="#BBC0C2" transform="scale(1.80081 1.80081)" d="M218.641 441.51C201.545 436.479 182.407 423.912 171.301 409.897C164.614 401.458 159.855 387.608 161.264 376.821L161.385 376C163.778 359.131 175.227 344.914 187.4 333.808L187.539 334.302C188.649 338.701 186.004 345.599 185.075 350.068C180.078 374.12 180.796 398.593 194.588 419.601C197.31 423.746 201.157 427.068 204.755 430.43C206.752 432.296 208.782 434.501 211 436.094C213.407 437.824 216.417 438.797 218.272 441.1L218.641 441.51Z"/>
	<path fill="#062205" transform="scale(1.80081 1.80081)" d="M657.192 905.865C643.085 912.783 628.544 918.869 613.068 922.03C606.468 923.378 599.762 923.633 593.057 924.015C572.367 925.193 551.852 924.022 531.289 921.643L531.008 904.84L531.437 887.363C531.436 881.08 530.705 873.862 531.932 867.726L531.954 889.814C531.956 892.878 531.515 896.775 532.207 899.728C541.925 905.204 555.325 909.037 566.347 910.579C571.008 911.231 575.907 911.119 580.612 911.243C592.847 911.565 604.393 910.843 616.54 909.443C624.108 908.571 632.052 907.598 639.399 905.551L650.539 902.613L651.109 902.986C652.395 903.873 651.315 903.087 652.337 904.071C653.498 905.191 655.642 905.49 657.192 905.865Z"/>
	<path fill="white" transform="scale(1.80081 1.80081)" d="M274.727 294.224C285.62 294.016 298.08 293.316 308.75 295.556C316.708 297.227 325.61 301.098 333 304.507L345.936 310.96L336.438 333.047L330.881 332.279L312.492 328.928C298.504 325.318 286.681 319.105 274.535 311.409C267.834 307.164 260.427 302.424 256.322 295.449C262.323 294.249 268.626 294.404 274.727 294.224Z"/>
	<path fill="white" transform="scale(1.80081 1.80081)" d="M731.718 293.705C735.932 293.575 740.143 293.409 744.34 293.907C750.544 294.644 756.571 296.323 762.751 297.14L763.277 297.206L762.67 298.195C750.183 316.697 728.822 325.834 707.532 329.675C700.857 331.247 694.391 331.572 687.569 331.963C685.381 329.024 684.768 325.466 683.261 322.181C681.191 317.67 678.539 313.645 676.92 308.903C694.143 300.858 712.649 294.947 731.718 293.705Z"/>
	<path fill="#052605" transform="scale(1.80081 1.80081)" d="M297.35 824.005C303.526 831.711 310.247 839.233 317.68 845.761C324.861 852.067 332.672 857.516 340.369 863.142C359.292 876.971 381.496 889.525 404.5 895.021C409.401 896.192 414.874 896.512 419.913 897.059C425.073 897.62 430.512 898.094 435.705 897.795C443.453 897.35 451.237 895.761 458.938 894.748C459.052 892.602 459.021 890.348 459.437 888.242C459.729 891.339 459.517 894.612 459.555 897.739C459.649 905.529 459.533 913.3 458.918 921.068C437.807 923.121 417.28 920.323 396.714 915.797C392.249 914.814 386.583 914.034 382.524 911.889C379.04 910.048 375.145 909.001 371.593 907.245L365.179 903.75C361.971 902.139 358.532 900.913 355.473 899.023C350.143 895.731 344.881 891.215 339.932 887.306C334.344 882.891 328.088 876.575 323.537 871.098C317.335 863.632 312.18 854.959 307.25 846.63C303.104 839.626 298.283 832.264 297.35 824.005Z"/>
	<path fill="#D41B01" transform="scale(1.80081 1.80081)" d="M544.313 523.189C541.028 524.227 537.411 524.501 534.007 524.981C524.178 526.367 514.453 526.793 504.526 526.465C491.406 526.031 478.474 523.782 465.762 520.717C446.989 516.189 428.194 509.202 411.75 498.923C398.51 490.646 386.402 480.086 375.813 468.624C373.308 465.913 371.366 462.693 369.168 459.737C355.623 441.518 346.959 421.294 342.907 399C341.515 391.341 340.329 383.713 340.701 375.888C341.17 366.009 342.059 355.959 344.334 346.318C346.262 338.149 349.182 330.874 352.463 323.206C357.624 311.142 363.255 300.563 371.445 290.246C373.99 287.04 376.325 283.772 379.37 281.009L379.221 281.482C377.855 285.543 374.897 288.491 373.731 292.745C369.464 308.309 367.989 325.227 367.792 341.303C367.454 368.897 370.746 396.757 382.836 421.909C387.807 432.251 392.756 442.568 399.228 452.095C411.991 470.879 431.12 486.453 451 496.977L466.078 504.388C468.06 505.329 469.961 506.55 472.013 507.323C474.51 508.264 477.205 508.752 479.745 509.589C492.35 513.739 505.779 517.107 519.083 518.018C525.504 518.458 532.223 518.191 538.663 518.038C551.802 517.388 565.391 514.934 578.001 511.17C579.452 512.087 580.622 512.494 582.291 512.829C577.186 514.951 571.858 516.195 566.557 517.717C559.016 519.882 552.105 521.943 544.313 523.189Z"/>
	<path fill="#080" transform="scale(1.80081 1.80081)" d="M490.851 639.168C500.398 643.617 511.78 646.9 519.973 653.628L520.078 664.086L518.954 915.862L518.864 916.437C518.146 921.358 518.201 926.501 518.011 931.476L517.007 961.993C509.771 962.503 502.721 962.576 495.482 962.201C492.263 962.034 488.876 962.034 485.735 961.25C480.688 959.99 475.966 957.789 470.963 956.363L470.951 948.458L471.397 831.213L471.706 763.618L471.658 690.576C471.503 682.364 472.165 673.645 471.044 665.545L470.938 664.815C478.311 658.458 486.124 648.283 490.631 639.605L490.851 639.168Z"/>
	<path fill="white" transform="scale(1.80081 1.80081)" d="M187.4 333.808C191.002 330.581 194.572 327.084 198.435 324.171C206.387 318.174 215.556 313.326 224.637 309.259C230.988 306.414 237.374 303.877 244.253 302.709C259.549 319.245 283.258 334.021 305.079 339.551C314.293 341.885 323.957 342.592 333.382 343.597L330.545 362.246C328.254 383.742 330.694 403.988 337.75 424.374C339.347 428.989 341.526 433.367 343.299 437.911C336.367 440.18 328.919 440.788 321.75 441.995C301.52 445.403 281.187 448.08 260.627 448.046C251.169 448.031 240.987 447.642 231.736 445.621C227.288 444.649 222.935 442.999 218.641 441.51L218.272 441.1C216.417 438.797 213.407 437.824 211 436.094C208.782 434.501 206.752 432.296 204.755 430.43C201.157 427.068 197.31 423.746 194.588 419.601C180.796 398.593 180.078 374.12 185.075 350.068C186.004 345.599 188.649 338.701 187.539 334.302L187.4 333.808Z"/>
	<path fill="white" transform="scale(1.80081 1.80081)" d="M276.419 145.723L283.328 146.012C299.057 147.514 313.579 154.913 327.088 162.53C354.798 178.153 380.367 198.168 403.639 219.793C409.148 224.912 415.305 229.895 420.117 235.669C396.75 246.491 376.603 265.515 360.531 285.347C356.851 290.026 353.895 295.421 350.832 300.523C342.612 296.964 335.098 292.201 326.667 288.918C317.059 285.177 306.973 282.967 297.297 279.576C292.531 277.905 287.984 275.54 283.492 273.25C276.247 269.557 270.134 266.387 263.954 260.915C250.193 248.732 240.703 230.791 234.716 213.666C232.81 208.214 230.806 202.384 230.486 196.572C229.715 182.599 235.343 168.844 244.668 158.568C247.574 155.366 251.637 151.668 255.505 149.709C261.536 146.655 269.741 146.031 276.419 145.723Z"/>
	<path fill="white" transform="scale(1.80081 1.80081)" d="M780.156 302.433C802.371 308.249 825.301 322.134 841.717 338.079C853.824 349.838 861.946 365.706 861.902 382.75C861.86 398.876 853.97 412.722 842.861 423.86C832.199 434.551 817.298 442.103 802.591 445.228C788.402 448.243 772.482 447.902 758.025 448C739.537 447.167 721.484 445.875 703.158 443.165C695.016 441.961 687.134 439.679 678.99 438.633C681.511 432.181 684.316 425.783 686.424 419.181C691.328 403.825 693.846 386.648 692.874 370.517C692.314 361.212 690.63 352.266 689.207 343.085C717.677 343.32 744.46 333.997 766.499 315.792C771.436 311.713 775.39 306.699 780.156 302.433Z"/>
	<path fill="white" transform="scale(1.80081 1.80081)" d="M752.187 146.602C760.367 145.447 770.899 147.711 777.969 152.008C790.016 159.332 793.886 173.962 796.841 186.836C798.19 192.715 798.883 198.693 799.574 204.679C800.395 211.793 801.25 219.754 800.267 226.883C798.289 241.237 790.7 255.724 783.034 267.837C779.886 272.812 776.272 277.188 772.564 281.741C772.2 282.188 770.513 284.612 770.093 284.767C769.974 284.811 768.284 284.338 768.124 284.3L757.314 281.8C749.368 280.354 740.687 279.491 732.614 280.239C715.815 281.797 699.064 287.829 683.251 293.328C679.062 294.785 675.264 296.939 670.895 297.924L665.423 289.772C652.97 272.973 638.541 258.626 621.352 246.663L604.051 235.757C626.834 212.073 653.57 189.019 682.529 173.194C696.241 165.702 711.215 159.601 726 154.581C734.605 151.66 743.282 148.447 752.187 146.602Z"/>
	<path fill="#080" transform="scale(1.80081 1.80081)" d="M297.35 824.005C295.199 820.885 293.501 817.583 291.995 814.109C282.441 792.071 278.026 767.995 272.92 744.641C271.478 738.048 270.552 731.399 268.676 724.904C307.988 731.332 346.336 744.487 381.388 763.269C387.044 766.299 392.757 769.054 398.105 772.626C411.019 781.255 423.156 792.169 434.295 802.98C440.837 809.329 448.361 815.864 453.717 823.232C455.662 825.906 459.029 829.726 460.252 832.697C460.467 833.219 460.318 834.901 460.333 835.505L460.294 845.798L460.344 864.223L459.925 881.676C459.864 883.825 459.361 886.134 459.437 888.242C459.021 890.348 459.052 892.602 458.938 894.748C451.237 895.761 443.453 897.35 435.705 897.795C430.512 898.094 425.073 897.62 419.913 897.059C414.874 896.512 409.401 896.192 404.5 895.021C381.496 889.525 359.292 876.971 340.369 863.142C332.672 857.516 324.861 852.067 317.68 845.761C310.247 839.233 303.526 831.711 297.35 824.005Z"/>
	<path fill="white" transform="scale(1.80081 1.80081)" d="M626.909 501.434C636.567 507.018 644.103 517.701 650.99 526.34C660.991 538.886 668.488 551.978 674.559 566.788C680.672 581.703 684.75 598.313 682.752 614.559L682.626 615.5C682.005 620.329 680.915 624.746 679.247 629.325C673.147 646.073 660.838 661.022 644.417 668.505C624.628 677.523 599.207 676.094 579.162 668.538C566.353 663.233 556.531 654.103 547.732 643.691C543.582 638.781 540.447 633.405 537.274 627.839C524.038 604.63 515.698 575.333 517.642 548.571C517.842 545.817 517.297 541.118 518.054 538.649C518.369 537.618 521.237 537.751 522.281 537.661C532.448 536.78 542.227 535.543 552.24 533.571C572.31 529.619 591.184 522.425 609.085 512.589C615.058 509.308 621.127 505.117 626.909 501.434Z"/>
	<path fill="white" transform="scale(1.80081 1.80081)" d="M391.852 501.25C392.753 501.067 393.199 500.932 394.052 501.359C396.231 502.451 398.31 504.188 400.455 505.424L419.778 516.157C437.147 525.142 456.057 530.921 475.263 534.407L505.056 538.599C506.521 550.023 504.726 562.27 502.862 573.555C501.375 582.558 499.81 591.606 497.062 600.319C495.291 605.933 492.576 611.273 490.1 616.602C482.484 632.996 472.682 648.881 457.923 659.768C454.04 662.632 449.641 664.94 445.376 667.175C431.221 673.445 414.895 675.622 399.474 674.268C381.43 672.684 367.346 664.803 355.748 650.929C342.399 634.962 338.205 615.551 340.14 595.121C341.029 585.735 343.706 576.706 346.961 567.904C354.494 547.533 365.745 529.202 380.267 513.058C383.918 509 387.623 504.718 391.852 501.25Z"/>
	<path fill="white" transform="scale(1.80081 1.80081)" d="M509.729 49.7185C513.074 49.8363 515.973 50.3275 519.195 51.2658C526.501 53.3932 532.315 56.8974 538.53 61.17C553.24 71.2826 566.319 84.9828 574.866 100.682C580.194 110.467 581.692 120.603 582.878 131.542C585.51 155.818 583.691 179.022 578.926 202.893C577.528 209.895 576.215 216.864 574.202 223.724C565.975 221.232 557.669 218.565 549.261 216.75C535.189 213.712 521.47 212.609 507.118 212.409C493.729 212.437 479.173 214.432 466.227 217.868L454.269 221.25C451.92 221.948 449.433 222.968 447.007 223.308C445.902 223.462 445.871 223.127 445.012 222.5C442.837 215.723 441.886 208.06 440.542 201.037C437.02 182.625 433.327 163.932 432.066 145.204C431.625 138.655 431.407 131.661 432.202 125.137C434.315 107.786 442.243 90.8193 453.774 77.7667C468.033 61.6264 488.124 51.0111 509.729 49.7185Z"/>
	<path fill="#080" transform="scale(1.80081 1.80081)" d="M531.932 867.726C532.018 864.53 532.006 861.514 533.095 858.465C533.996 855.945 535.769 853.447 537.029 851.064C541.246 843.09 546.01 835.676 551.002 828.19C552.674 825.682 554.067 823.008 555.861 820.582C557.742 818.036 560.041 815.8 561.916 813.25C565.478 808.405 568.407 804.252 572.819 800.051C584.15 789.261 595.879 780.789 609.273 772.745C611.158 771.613 612.843 770.142 614.774 769.095C623.066 764.594 631.885 760.847 640.542 757.087C671.431 743.674 703.631 733.36 736.938 727.974C743.373 726.933 749.674 725.484 756.225 725.389L753.926 738.737L750.263 753.764C744.238 781.135 737.045 807.785 724.481 833C721.293 839.399 718.065 845.779 714.054 851.716C711.828 855.011 709.153 858.004 706.705 861.135C705.514 862.658 704.621 864.42 703.377 865.893C701.566 868.035 699.041 869.553 697.102 871.586C689.488 879.566 682.595 887.706 673.318 893.864L668.002 896.876C666.966 900.514 662.827 902.766 659.666 904.549L657.192 905.865C655.642 905.49 653.498 905.191 652.337 904.071C651.315 903.087 652.395 903.873 651.109 902.986L650.539 902.613L639.399 905.551C632.052 907.598 624.108 908.571 616.54 909.443C604.393 910.843 592.847 911.565 580.612 911.243C575.907 911.119 571.008 911.231 566.347 910.579C555.325 909.037 541.925 905.204 532.207 899.728C531.515 896.775 531.956 892.878 531.954 889.814L531.932 867.726Z"/>
	<path fill="#052605" transform="scale(1.80081 1.80081)" d="M650.539 902.613C656.539 901.764 662.349 899.002 668.002 896.876C666.966 900.514 662.827 902.766 659.666 904.549L657.192 905.865C655.642 905.49 653.498 905.191 652.337 904.071C651.315 903.087 652.395 903.873 651.109 902.986L650.539 902.613Z"/>
	<path fill="#FFE501" transform="scale(1.80081 1.80081)" d="M379.37 281.009C409.681 247.089 454.017 227.03 499.304 224.456C530.095 222.707 559.118 229.117 587.181 241.596C591.683 243.598 596.348 245.313 600.719 247.59C612.697 253.829 623.838 261.857 633.906 270.821C662.783 296.533 679.783 332.82 681.921 371.318C683.24 395.059 676.24 419.549 665.287 440.492C661.279 448.155 656.354 456.26 650.545 462.683C638.838 475.628 628.3 488.174 612.664 496.718C609.754 500.661 602.965 503.399 598.559 505.456L582.291 512.829C580.622 512.494 579.452 512.087 578.001 511.17C565.391 514.934 551.802 517.388 538.663 518.038C532.223 518.191 525.504 518.458 519.083 518.018C505.779 517.107 492.35 513.739 479.745 509.589C477.205 508.752 474.51 508.264 472.013 507.323C469.961 506.55 468.06 505.329 466.078 504.388L451 496.977C431.12 486.453 411.991 470.879 399.228 452.095C392.756 442.568 387.807 432.251 382.836 421.909C370.746 396.757 367.454 368.897 367.792 341.303C367.989 325.227 369.464 308.309 373.731 292.745C374.897 288.491 377.855 285.543 379.221 281.482L379.37 281.009Z"/>
	<path fill="#CF2013" transform="scale(1.80081 1.80081)" d="M578.001 511.17L612.664 496.718C609.754 500.661 602.965 503.399 598.559 505.456L582.291 512.829C580.622 512.494 579.452 512.087 578.001 511.17Z"/>
	<path transform="scale(1.80081 1.80081)" d="M430.097 405.297C432.29 408.417 434.118 411.824 436.447 414.851C442.387 422.574 452.348 431.134 460.959 435.75C465.947 438.424 471.339 441.536 476.594 443.593C496.688 451.459 518.332 452.912 539.044 446.739C560.24 440.421 581.77 428.132 592.626 408.033L593.334 408.042C593.728 411.552 592.883 413.894 591.716 417.125C589.651 422.229 587.166 427.348 583.688 431.642C577.694 439.044 570.538 446.037 562.246 450.845C552.44 456.53 538.555 460.473 527.341 461.667C500.732 464.501 472.014 459.46 450.845 442.056C439.584 432.797 431.542 419.899 430.097 405.297Z"/>
	<path transform="scale(1.80081 1.80081)" d="M571.895 287.125C581.784 286.654 590.408 288.476 598.897 293.752C611.496 301.583 621.735 316.173 624.874 330.704C627.523 342.969 625.048 355.904 618.164 366.314C609.328 379.675 599.128 386.899 583.375 390.017C572.303 390.204 561.736 388.74 552.241 382.644C541.094 375.486 531.812 363.647 529.142 350.481C526.2 335.971 530.483 322.49 538.545 310.468C546.129 299.158 558.399 289.811 571.895 287.125Z"/>
	<path fill="white" transform="scale(1.80081 1.80081)" d="M567.525 297.618C571.587 297.519 575.306 298.391 578.75 300.556C582.6 302.975 584.88 307.591 585.761 311.954C586.749 316.839 585.384 322.295 582.514 326.309C579.249 330.875 574.541 332.936 569.158 333.769C565.491 333.666 562.258 333.587 558.928 331.811C555.253 329.85 551.863 325.431 550.823 321.386C549.472 316.133 549.978 311.051 552.951 306.442C556.31 301.234 561.675 298.8 567.525 297.618Z"/>
	<path transform="scale(1.80081 1.80081)" d="M444.848 287.218C457.256 287.775 466.335 292.003 475.359 300.643C478.447 303.599 480.786 307.402 482.928 311.067C488.318 320.286 491.602 329.449 491.766 340.25C491.979 354.264 486.371 366.2 476.564 376.069C465.996 386.705 453.861 390.341 439.259 390.473C428.793 389.625 418.788 385.807 410.555 379.165C401.236 371.647 394.037 357.707 392.87 345.864C391.387 330.819 397.625 317.998 407.031 306.697C416.804 294.956 429.752 288.523 444.848 287.218Z"/>
	<path fill="white" transform="scale(1.80081 1.80081)" d="M443.34 297.171C446.434 297.225 449.352 297.481 452.245 298.665C457.318 300.741 460.246 304.035 462.27 309.046L462.646 309.991C462.925 310.683 463.204 311.341 463.337 312.081C464.296 317.423 463.201 322.298 459.992 326.645C456.692 331.113 453.1 332.91 447.733 333.774C443.549 333.878 439.691 333.358 436.089 331.088C431.829 328.402 428.759 323.194 427.882 318.301C426.937 313.025 428.114 308.867 431.202 304.536C434.432 300.005 437.95 298.124 443.34 297.171Z"/>
</svg>
