<?xml version="1.0" encoding="utf-8" ?>
<svg xmlns="http://www.w3.org/2000/svg" xmlns:xlink="http://www.w3.org/1999/xlink" width="1844" height="1844">
	<path fill="white" transform="scale(1.80081 1.80081)" d="M-0 -0L1024 0L1024 1024L-0 1024L0 -0Z"/>
	<path transform="scale(1.80081 1.80081)" d="M509.889 285.75L510.115 285.696C510.14 285.691 511.744 285.38 511.75 285.38C512.68 285.437 515.708 287.441 516.726 287.978C523.435 291.525 530.153 294.726 536.499 298.937C547.832 306.458 558.151 316.648 564.339 328.91C569.24 338.621 571.825 349.299 573.977 359.882C581.572 355.485 588.889 352.721 597.311 350.296C613.589 345.608 630.279 345.177 646.946 348.222C657.626 350.173 667.862 353.384 678.379 355.936L678.574 356.375C680.576 361.369 681.026 367.21 681.664 372.5C682.563 379.961 682.673 387.312 682.71 394.819C682.735 399.719 682.887 404.785 682.265 409.653C680.676 422.084 676.91 434.135 671.949 445.596C676.082 447.921 680.497 449.737 684.603 452.14C695.108 458.287 704.828 466.379 712.77 475.637C715.972 479.37 718.754 483.701 721.544 487.748C726.288 494.627 730.09 502.148 735.654 508.415C733.634 511.223 730.66 513.298 728.562 516.171C724.125 522.248 720.604 529.209 716.12 535.245C707.573 546.751 696.248 555.848 684.212 563.434C680.016 566.079 675.341 569.059 670.541 570.379L669.904 570.538C672.791 576.925 675.799 583.565 677.748 590.31C684.312 613.019 683.422 637.838 678.82 660.839C678.331 661.226 678.228 661.337 677.596 661.664C674.031 663.509 669.287 664.647 665.431 665.731C644.209 671.695 619.173 673.947 597.47 669.318C589.287 667.573 582.003 664.222 574.277 661.142C568.315 679.33 559.934 695.7 545.269 708.426C540.377 712.671 534.521 716.526 529.181 720.228C524.734 723.311 519.39 725.301 515.184 728.596L514.786 728.914L511.75 731.144C510.007 730.085 508.844 728.668 506.851 727.989C503.681 726.909 500.702 725.385 497.769 723.777C483.044 715.702 468.056 705.137 458.568 691.036C454.638 685.196 451.682 678.479 449.018 672C447.644 668.66 446.092 665.516 445.091 662.029L444.891 661.32L432.886 666.576C428.716 668.108 424.348 668.657 419.994 669.405C417.239 669.878 414.532 670.565 411.75 670.882C406.178 671.518 400.247 671.295 394.647 671.066C376.622 670.331 358.114 666.387 341.635 658.91C337.595 646.443 336.819 632.405 337.029 619.36C337.153 611.62 337.532 603.626 339.169 596.044C340.988 587.614 344.405 579.579 347.861 571.725L331.201 560.709C320.368 552.949 311.407 542.905 303.44 532.317C297.595 524.548 293.32 516.462 286.558 509.28C292.866 502.174 296.847 493.878 302.115 486.053C310.324 473.861 322.19 462.1 334.715 454.342C339.209 451.558 344.065 449.455 348.551 446.623C344.28 436.439 340.627 425.701 338.948 414.757C337.654 406.321 337.944 397.583 338.319 389.094C338.804 378.128 339.883 367.29 342.083 356.527L347.645 354.317C353.628 352.16 360.346 351.073 366.586 349.829C385.556 346.048 404.987 344.999 423.934 349.693C432.001 351.692 439.948 355.092 447.478 358.561L449.645 347.798C455.777 323.954 470.934 307.756 491.74 295.427L509.889 285.75Z"/>
	<path fill="white" transform="scale(1.80081 1.80081)" d="M506.282 347.611C510.627 347.457 514.827 347.462 519.12 348.24C522.825 348.911 525.919 350.902 529.121 352.777C538.581 358.319 545.935 366.131 551.955 375.25C554.084 378.474 555.761 381.913 557.979 385.099C565.154 383.304 572.146 383.475 579.484 383.4C583.934 383.354 588.565 383.069 592.979 383.621C603.024 384.877 613.193 389.854 620.607 396.7C624.484 400.279 628.319 404.469 630.898 409.105C638.597 422.943 637.426 439.301 636.11 454.5C636.037 455.343 635.321 459.577 635.59 460.122C635.855 460.659 637.123 461.549 637.647 462.003C641.04 464.941 644.955 467.249 648.286 470.269C652.231 473.846 655.759 478.035 659.004 482.247C664.862 489.85 671.056 500.674 669.694 510.675C667.513 526.691 659.74 537.968 647.664 548.332C643.988 551.488 639.438 554.687 636.677 558.679C636.092 559.526 636.923 561.86 637.134 563C637.804 566.628 637.537 570.602 637.503 574.285C637.368 588.62 635.253 602.667 626.858 614.729C615.779 630.649 596.028 635.297 577.75 634.913C572.029 634.793 565.237 633.533 559.634 634.647C555.465 635.476 554.78 639.383 552.523 642.591C542.894 656.28 528.16 666.465 511.626 669.396L506.104 668.894C502.48 668.323 498.506 667.68 495.093 666.3C485.91 662.588 477.386 654.557 471.615 646.618C468.976 642.988 466.788 638.799 463.905 635.37C463.876 635.336 463.102 634.488 462.958 634.442C461.037 633.839 457.154 634.373 455.068 634.41C447.392 634.543 439.113 635.219 431.485 634.287L425.011 633.185C411.41 629.569 399.575 621.959 392.643 609.413C384.384 594.469 380.517 574.464 385.478 557.82L385.69 557.127C379.584 553.258 373.882 548.777 368.631 543.815C359.584 535.263 352.802 524.275 350.499 512C350.15 510.139 349.575 508.155 349.638 506.25C349.714 503.933 351.014 501.117 351.681 498.875C354.956 487.862 363.451 476.973 372.267 469.644C376.345 466.254 380.765 463.312 384.573 459.597C381.915 449.796 380.946 436.971 383.202 426.995L385.181 418.859C389.257 406.645 398.408 395.62 410.115 389.915C423.329 383.475 435.129 383.114 449.559 383.582C452.914 383.691 457.707 383.407 460.792 384.67C461.547 384.979 461.746 384.792 462.543 384.619C465.771 382.014 467.374 378.166 469.573 374.734C478.361 361.023 490.293 351.14 506.282 347.611Z"/>
	<path transform="scale(1.80081 1.80081)" d="M464.143 385.532C465.416 385.441 466.73 385.39 468 385.561C481.05 387.322 493.112 393.843 501.903 403.548C504.014 405.879 506.312 408.335 507.856 411.096C509.824 414.616 510.475 419.728 512.788 422.839L512.51 421C511.799 417.092 512.548 413.166 514.629 409.733C520.675 399.76 533.534 391.947 544.601 388.809C549.315 387.473 554.246 386.742 559.011 385.511C561.419 386.569 563.887 387.743 565.774 389.628C569.689 393.54 572.56 400.971 574.548 406.039C579.703 419.183 580.526 431.95 574.784 444.984C578.66 444.551 582.447 442.497 586.546 442.028C600.85 440.392 617.588 446.229 628.653 455.147C628.889 469.155 624.712 486.22 615.785 497.213C611.78 502.146 606.911 505.576 601.209 508.268C599.74 508.962 598.012 509.978 596.376 510.117C595.348 510.204 594.716 510.404 593.75 510.742L594.25 510.818C595.047 510.724 595.662 510.395 596.5 510.393C603.423 510.38 610.237 515.229 615.056 519.825C626.038 530.299 630.947 545.907 631.185 560.677C626.503 565.2 619.529 568.813 613.557 571.264C601.564 576.185 588.347 575.358 576.569 570.37C580.239 578.357 580.221 588.527 579.19 597.062L579.071 598C577.701 609.261 571.507 620.95 563.787 629.081C562.445 630.111 561.254 630.928 559.5 630.936C557.049 630.948 554.188 630.268 551.771 629.813C540.329 627.656 530.662 623.02 522.439 614.709C518.786 611.018 516.28 607.375 513.759 602.848C513.148 601.752 512.091 600.344 511.747 599.2C511.401 598.047 511.772 595.528 511.781 594.232L510.286 598.318C507.537 607.258 499.861 615.757 491.962 620.707C486.129 624.362 479.259 626.632 472.712 628.593C469.446 629.57 465.954 630.8 462.525 629.768C456.472 627.945 451.879 619.669 449.074 614.381C447.614 611.627 446 608.612 445.074 605.629C441.75 594.921 443.343 581.004 446.541 570.447C442.393 571.985 438.669 573.164 434.245 573.566C420.43 574.823 402.051 569.815 391.363 560.83C389.818 553.234 392.652 543.341 396.005 536.389C402.114 523.724 411.792 514.776 425.028 510.269C419.198 508.308 414.604 506.414 410.016 502.156C397.093 490.163 391.674 474.866 391.038 457.51C392.059 455.66 393.195 454.288 394.756 452.893C404.216 444.438 420.85 440.546 433.25 441.031C437.902 441.213 442.346 442.369 447.008 442.647L445.657 439.939C444.362 436.695 444.111 432.615 444.031 429.154C443.797 419.085 446.157 410.762 450.013 401.5C452.977 394.382 456.775 388.556 464.143 385.532Z"/>
	<path fill="white" transform="scale(1.80081 1.80081)" d="M510.315 438.718L510.759 438.695C528.418 438.193 548.262 446.059 561.085 458.231C574.728 471.183 581.97 488.172 582.291 506.859C582.47 517.263 580.762 528.882 576.344 538.375C573.127 545.288 567.805 551.725 562.482 557.141C550.843 568.982 532.253 577.398 515.625 577.615C508.907 577.772 502.792 577.616 496.17 576.327C477.888 572.767 461.874 559.995 451.772 544.764C442.885 531.365 439.846 514.038 441.723 498.177C442.173 494.377 443.348 490.677 444.08 486.93C445.87 477.779 451.798 468.658 457.583 461.543L459.21 459.613C471.837 445.99 492.2 439.359 510.315 438.718Z"/>
</svg>
