<?xml version="1.0" encoding="utf-8" ?>
<svg xmlns="http://www.w3.org/2000/svg" xmlns:xlink="http://www.w3.org/1999/xlink" width="1844" height="1844">
	<path fill="white" transform="scale(1.80081 1.80081)" d="M-0 -0L1024 0L1024 1024L-0 1024L0 -0Z"/>
	<defs>
		<linearGradient id="gradient_0" gradientUnits="userSpaceOnUse" x1="785.57037" y1="514.7381" x2="239.4525" y2="536.6474">
			<stop offset="0" stop-color="#FCC00C"/>
			<stop offset="1" stop-color="#FFE71E"/>
		</linearGradient>
	</defs>
	<path fill="url(#gradient_0)" transform="scale(1.80081 1.80081)" d="M417.544 228.808L418.182 228.485C426.654 224.125 434.663 218.039 442.757 212.93L485.276 186.874C493.418 181.902 503.068 174.388 512.42 172.342C515.215 173.252 518.154 174.132 520.75 175.527C526.616 178.682 532.011 183.401 537.75 186.897L586.388 216.318L598.328 223.831C601.885 226.132 603.793 228.137 608.135 228.891C611.171 226.702 614.53 224.516 617.071 221.762C623.015 215.321 624.961 206.449 627.554 198.351C628.406 209.414 629.694 220.061 629.513 231.203C629.494 232.396 629.783 235.201 629.375 236.25C629.161 236.8 628.328 237.622 627.946 238.123C628.584 238.196 629.161 238.252 629.75 238.535C631.545 239.396 633.304 240.833 635.013 241.896L649.048 250.75L703.339 283.75L745.305 308.931C752.751 313.319 761.124 317.108 768.041 322.233C772.811 325.767 776.731 329.72 778.736 335.456C779.623 337.994 779.884 340.452 779.934 343.118L779.459 397.792L779.489 529.252L779.466 615.308L779.517 639.697C779.552 643.237 780.027 646.91 779.818 650.426C779.617 653.824 778.489 657.248 776.896 660.25C774.33 665.085 768.291 669.142 763.798 672.042L712.394 702.025L589.348 774.841L537.816 805.676C531.369 809.472 524.885 814.625 517.73 816.886L517 817.107L515.945 817.424C511.578 818.397 505.696 816.898 501.75 814.962C496.064 812.172 490.592 808.39 485.199 805.054L464.494 792.619L420.405 767.068L399.516 754.25L347.343 724.084L320.75 707.986L285.328 687.335C275.797 681.836 266.226 676.737 257.103 670.522C251.066 666.408 245.29 660.972 243.948 653.462L243.83 652.75C242.494 644.994 243.482 636.857 243.512 629.011L243.547 581.043L243.475 528.457L243.067 516.968L243.419 413.653L243.543 361.911C243.552 354.639 243.029 347.284 243.326 340.031C243.401 338.213 243.453 336.365 244.22 334.682L244.557 334C246.837 329.25 249.879 325.398 254.178 322.298C256.746 320.446 259.833 319.16 262.56 317.534L285.759 303.876L331.509 277.418L355.574 262.592C358.425 260.876 361.469 259.517 364.297 257.753C375.2 250.954 386.046 243.641 397.51 237.84L396.452 236.75C396.64 232.435 396.109 228.052 396.006 223.728C395.805 215.242 396.035 206.698 397.345 198.3C401.032 210.603 406.06 220.63 416.846 228.317L417.544 228.808Z"/>
	<path transform="scale(1.80081 1.80081)" d="M504.78 635.176C506.36 634.793 508.5 635.012 510.137 635.009C516.75 635 523.233 636.051 529.562 637.927C549.073 643.711 565.164 655.941 574.963 674.055C573.685 680.269 567.107 686.853 562.979 691.447C548.332 707.746 532.202 722.49 514.477 735.407C513.363 736.185 510.946 738.373 509.696 738.332L492.5 724.535C482.216 715.94 472.547 706.799 463.428 696.991C457.139 690.227 450.816 682.976 446.434 674.816C448.045 671.295 450.122 668.094 452.396 664.966C465.588 646.816 483.225 638.584 504.78 635.176Z"/>
	<path transform="scale(1.80081 1.80081)" d="M608.135 228.891C611.171 226.702 614.53 224.516 617.071 221.762C623.015 215.321 624.961 206.449 627.554 198.351C628.406 209.414 629.694 220.061 629.513 231.203C629.494 232.396 629.783 235.201 629.375 236.25C629.161 236.8 628.328 237.622 627.946 238.123C625.411 239.375 622.897 241.614 620.545 243.25L598.25 259.416C582.262 271.356 565.336 282.559 549.93 295.234C557.159 300.802 565.846 308.642 569.224 317.381C574.605 331.303 575.432 348.814 569.134 362.524C565.671 361.036 562.674 358.556 559.41 356.675C552.442 352.659 544.334 349.189 536.5 347.335C513.778 341.959 490.183 343.822 469.25 354.508C463.98 357.198 459.289 360.83 454.25 363.913C452.852 363.567 452.37 363.255 451.601 362C445.217 351.569 445.459 338.474 448.2 326.973C451.764 312.017 461.048 302.219 473.809 294.338L473.786 293.895L397.51 237.84L396.452 236.75C396.64 232.435 396.109 228.052 396.006 223.728C395.805 215.242 396.035 206.698 397.345 198.3C401.032 210.603 406.06 220.63 416.846 228.317L417.544 228.808L493.693 285.443C501.064 283.946 509.283 282.814 516.773 283.792C518.618 284.032 531.188 286.842 531.914 286.571C532.212 286.46 533.313 285.19 533.609 284.902L538.68 280.155C540.923 278.188 543.361 276.415 545.756 274.637L592.657 240.168L608.135 228.891Z"/>
	<path fill="#FFD915" transform="scale(1.80081 1.80081)" d="M417.544 228.808L418.182 228.485C426.654 224.125 434.663 218.039 442.757 212.93L485.276 186.874C493.418 181.902 503.068 174.388 512.42 172.342C515.215 173.252 518.154 174.132 520.75 175.527C526.616 178.682 532.011 183.401 537.75 186.897L586.388 216.318L598.328 223.831C601.885 226.132 603.793 228.137 608.135 228.891L592.657 240.168L545.756 274.637C543.361 276.415 540.923 278.188 538.68 280.155L533.609 284.902C533.313 285.19 532.212 286.46 531.914 286.571C531.188 286.842 518.618 284.032 516.773 283.792C509.283 282.814 501.064 283.946 493.693 285.443L417.544 228.808Z"/>
	<path transform="scale(1.80081 1.80081)" d="M488.585 470.237L539.614 470.439C542.595 470.51 550.596 469.973 553.049 471.535C555.891 473.344 559.032 477.803 561.397 480.394C581.232 502.124 596.074 530.838 600.806 560C605.069 586.272 601.428 614.526 594.572 640C593.307 644.702 592.402 650.774 589.568 654.75C588.871 654.995 588.67 655.312 587.99 654.855C586.116 653.595 584.323 650.51 582.912 648.685C580.405 645.443 577.92 642.544 574.742 639.927C562.395 629.763 546.944 622.81 531.38 619.278C523.943 617.963 516.626 616.816 509.057 616.863C486.614 617.002 463.274 625.042 447.069 640.898C442.088 645.77 438.486 651.637 433.64 656.514C429.938 652.121 428.63 647.396 426.935 642.016C421.592 625.054 419.698 607.613 418.991 589.932C418.499 577.623 419.022 565.227 421.841 553.204C423.497 546.137 426.364 539.346 429.242 532.711C432.558 525.068 436.015 517.6 440.418 510.5C449.113 496.477 460.521 483.233 471.688 471.101C473.257 470.368 475.513 470.584 477.224 470.532L488.585 470.237Z"/>
	<path fill="#FFD915" transform="scale(1.80081 1.80081)" d="M509.762 538.723C517.922 538.326 526.25 539.244 534.293 540.568C552.687 543.594 568.283 549.136 584.471 558.432L584.672 577.149L568.745 569.122C560.986 565.419 553.222 562.033 544.931 559.683C533.994 556.584 522.073 555.481 510.757 555.236C496.296 555.517 482.288 556.887 468.592 561.862C457.241 565.986 447.096 572.054 436.485 577.658C436.472 573.842 435.545 561.656 438.012 558.832C440.595 555.874 444.803 553.968 448.27 552.267C467.36 542.904 488.734 539.597 509.762 538.723Z"/>
	<path transform="scale(1.80081 1.80081)" d="M504.446 360.703C506.419 360.19 509.315 360.462 511.36 360.445C524.674 360.331 538.344 362.941 550.199 369.195C554.862 371.654 560.34 374.613 564.094 378.387C570.147 384.473 573.659 393.453 576.133 401.483L592.204 402.726C627.545 405.869 662.478 414.576 693.95 431.239C710.75 440.134 726.707 451.654 738.859 466.4C748.077 477.585 764.294 502.57 762.791 517.137C762.451 520.431 760.943 530.666 758.293 532.701C754.463 535.642 749.142 537.369 744.689 539.224C727.537 546.366 709.769 551.772 691.708 556.08C679.776 558.926 665.926 562.141 653.619 560.322C643.254 558.79 632.131 551.674 624.898 544.294C620.286 539.59 616.991 533.502 613.646 527.873L602.273 509.587L579.883 477.801L564.983 456.089L580.563 440.038L597.064 456.85L624.503 489.25C629.389 495.373 633.761 501.955 638.22 508.391C640.514 511.702 642.722 515.349 645.503 518.272C648.686 521.617 653.98 525.168 658.376 526.666C670.28 530.72 707.039 517.655 719.237 511.927C722.213 510.529 727.183 508.259 728.25 505.003C729.397 501.502 724.881 491.332 722.942 488.223C719.277 482.345 710.342 478.412 704.506 475.117C678.595 460.487 650.828 447.958 622.977 437.515C606.7 431.413 589.917 425.543 572.91 421.907C568.394 431.362 561.69 439.68 554.254 447.007C552.035 449.192 549.516 451.759 546.571 452.908C544.254 453.812 540.899 453.527 538.428 453.588L519.791 453.738L483.998 453.853C474.029 452.779 463.525 439.731 458.194 431.972C455.864 428.58 454.05 424.962 451.426 421.764C445.742 421.869 438.882 424.851 433.425 426.558L394.375 440.81C363.916 452.668 333.386 465.918 305.624 483.33C297.849 488.207 296.181 497.802 294.285 506.191C299.4 511.17 306.363 514.141 312.86 516.811C321.812 520.49 330.509 523.171 339.957 525.242C344.376 526.21 349.048 527.264 353.579 527.453C360.062 527.725 366.211 526.655 371.574 522.784C375.769 519.755 379.031 515.35 382.134 511.283L392.401 497.484L407.075 478.5C417.645 465.122 429.322 452.36 441.903 440.844C446.679 446.223 452.419 450.77 457.807 455.534L403.916 536.243C396.752 546.637 384.35 557.753 371.556 560.035C362.836 561.591 353.325 560.944 344.601 559.695C324.186 556.769 303.051 549.763 283.844 542.364C277.332 539.855 269.908 537.312 264.219 533.24C261.859 529.128 259.589 521.899 259.139 517.25C258.642 512.122 260.249 507.735 261.995 503C267.163 488.975 275.132 477.266 284.74 465.944C297.958 450.371 315.928 438.373 334.039 429.26C358.045 417.181 383.259 409.31 409.794 404.914C422.154 402.866 434.567 401.993 447.032 400.968C449.517 394.362 451.967 388.585 456.379 382.995C467.563 368.823 487.183 362.71 504.446 360.703Z"/>
</svg>
