<?xml version="1.0" encoding="utf-8" ?>
<svg xmlns="http://www.w3.org/2000/svg" xmlns:xlink="http://www.w3.org/1999/xlink" width="1844" height="1844">
	<path fill="white" transform="scale(1.80081 1.80081)" d="M-0 -0L1024 0L1024 1024L-0 1024L0 -0Z"/>
	<path fill="#06090E" transform="scale(1.80081 1.80081)" d="M333.024 75.59L335.25 75.5941C339.256 75.8941 343.251 77.1257 345.877 80.3709C348.171 83.2069 349.768 87.3564 349.279 91.0238C348.541 96.5568 345.023 98.9409 340.952 102.173L347.184 123.889C348.91 129.42 350.951 135.023 351.798 140.769L351.9 141.486L354.511 141.477C358.835 141.544 361.936 142.155 365.695 144.463C372.142 148.422 377.898 154.258 383.768 159.047L428.668 196.445L459.487 222.664C462.979 225.716 466.68 228.307 469.928 231.642C474.016 230.195 477.401 227.76 481.34 226.087C498.667 218.73 520.76 219.497 538.283 225.733C542.712 227.309 546.499 229.929 550.796 231.626L616.25 174.872L636.377 157.532C641.56 153.037 647.811 146.891 653.962 143.876C658.302 141.75 662.849 140.968 667.421 142.721L667.905 142.912C669.504 138.914 670.026 134.767 671.235 130.685C673.887 121.729 677.261 112.556 678.926 103.361C675.973 101.786 673.396 99.9979 671.831 96.9202C670.217 93.7469 670.049 89.0366 671.334 85.7308C672.528 82.6558 675.121 79.4376 678.234 78.1621C681.511 76.8193 685.961 76.8948 689.184 78.3701C692.265 79.7805 694.777 81.957 695.847 85.2643C697.028 88.9154 697.064 93.4412 695.289 96.8913C693.052 101.241 689.502 102.41 685.185 103.916L677.521 130.151C676.163 134.954 675.165 140.43 673.137 144.976C672.556 146.277 674.119 153.267 674.076 155.456C673.996 159.566 672.859 162.921 670.307 166.186C665.144 172.794 657.044 177.762 650.338 182.761L596.715 220.717L576.533 233.996C571.833 237.135 567.292 240.035 563.219 243.994C568.725 252.032 572.221 260.092 573.604 269.75C574.367 275.078 574.057 280.313 573.575 285.654C577.974 287.526 582.64 289.395 586.677 291.98C598.324 299.437 605.954 312.994 608.888 326.166C610.855 326.059 613.216 324.401 614.986 323.507L627.048 317.699C642.665 310.779 659.024 304.287 675.241 298.914C714.124 286.03 754.082 277.753 793.837 268.172L832.297 259.174C843.463 256.501 854.773 253.193 866.248 252.118C877.813 251.035 891.266 252.503 900.406 260.288C907.037 265.936 911.16 274.783 911.826 283.398C912.269 289.139 911.151 294.874 909.171 300.256C908.229 302.815 906.715 305.246 905.492 307.681L894.396 327.357C872.483 363.581 847.104 397.489 819.658 429.73C810.928 439.985 799.708 450.513 785.5 451.408C775.933 452.01 767.045 450.351 757.837 448C743.13 444.245 729.228 438.197 716.044 430.706L708.187 425.769C672.596 404.783 641.935 376.847 610.681 350.122C610.138 365.66 604.061 377.493 594.485 389.341C608.407 401.545 620.969 415.339 633.061 429.329C670.406 472.536 702.318 522.103 708.513 580.197C712.325 615.944 707.682 653.002 691.025 685.203C687.289 692.426 682.994 699.859 677.901 706.185L683.752 662.704C686.134 637.939 686.325 612.778 683.205 588.069C679.692 560.251 671.884 533.055 661.003 507.25C651.934 485.741 641.458 464.848 629.179 444.986C628.51 443.905 626.104 439.262 625.165 438.88L626.87 454.25C629.601 480.426 632.71 506.883 630.952 533.257C630.38 541.846 627.092 550.968 624.755 559.229C613.049 600.615 593.685 644.762 560.258 673.25C545.528 685.803 525.366 694.118 505.859 692.579C483.555 690.82 460.748 674.114 446.68 657.44C440.878 650.564 435.276 643.724 430.276 636.23C415.458 614.022 405.435 589.163 398.09 563.615C395.423 554.34 392.381 544.152 391.585 534.5C390.998 527.391 391.266 520.093 391.367 512.96C391.685 490.627 394.179 468.86 396.1 446.664C385.869 462.94 377.008 480.339 369.75 498.157C355.766 532.486 346.716 569.848 348.593 607.115C349.821 631.491 355.21 655.392 362.79 678.529C365.669 687.318 368.011 696.079 371.601 704.638C366.884 699.399 362.979 693.454 359.069 687.61C345.337 667.086 334.685 643.955 327.737 620.266C323.071 604.357 319.829 588.064 320.683 571.392C321.622 553.035 326.628 536.61 333.745 519.754C345.864 491.051 362.709 465.523 381.455 440.793C396.231 421.3 411.025 402.95 429.274 386.516C419.101 376.783 415.277 361.631 414.409 348.078C410.146 351.089 406.403 355.066 402.523 358.567L380.557 378.339C363.981 393.352 346.052 407.552 327.25 419.64C319.928 424.348 312.659 429.102 304.902 433.099C287.096 442.274 266.41 450.443 246.191 451.238C241.02 451.441 235.212 451.321 230.262 449.669C226.159 448.3 221.117 445.898 217.734 443.216C212.798 439.304 208.46 434.157 204.218 429.517C192.56 416.766 182.148 403.12 171.872 389.25C152.463 363.054 132.788 335.86 118.25 306.585C113.061 296.136 111.486 284.693 115.543 273.529C118.082 266.541 124.768 258.743 131.554 255.628C140.7 251.431 150.659 251.031 160.516 252.052C168.117 252.84 176.001 254.941 183.467 256.608L224.45 266.179L322 290.96L344.813 297.592L396.878 316.845L416.609 324.898L418.38 319.199C423.866 302.992 435.079 293.868 449.822 286.551L449.666 286.029C448.774 282.744 448.89 279.231 448.878 275.846C448.834 263.507 451.195 253.593 457.143 242.733L420.176 219.693L375.743 188.968C367.638 183.226 358.253 177.862 351.096 170.99C347.898 167.919 344.971 164.328 343.805 159.972C342.21 154.017 343.763 149.729 346.66 144.545C344.45 133.165 340.678 122.526 337.425 111.439C337.055 110.176 335.745 103.958 335.091 103.336C334.716 102.978 332.839 102.383 332.26 102.124C328.779 100.567 325.71 98.2275 324.153 94.6056C322.788 91.4293 322.478 86.4922 323.817 83.255C325.538 79.0954 329.093 77.1867 333.024 75.59Z"/>
	<path fill="white" transform="scale(1.80081 1.80081)" d="M873.832 270.197C880.946 269.437 886.474 272.998 892.131 276.773C885.029 280.455 876.902 281.798 869.171 283.628L842.25 290.031L808.75 298.493L770 307.492C758.475 310.233 746.955 314.269 735.323 316.353C723.689 318.437 712.246 318.601 700.482 318.885L681.29 319.388C688.555 315.938 697.281 314.173 704.972 311.729C744.387 299.202 784.38 289.451 824.723 280.447C840.991 276.817 857.252 272.111 873.832 270.197Z"/>
	<path fill="white" transform="scale(1.80081 1.80081)" d="M151.087 269.67C158.443 269.748 165.121 271.773 172.25 273.24L201.365 279.667L310.286 308.663L341.75 318.621L341.657 319.25C337.62 320.679 331.374 319.419 327.073 319.111L302.767 317.986C297.188 317.698 291.427 317.633 285.914 316.686C279.362 315.561 272.987 313.203 266.631 311.308L240.951 304.274L176.266 288.155C162.103 284.746 146.715 282.424 133.262 276.846C138.75 273.085 144.458 270.492 151.087 269.67Z"/>
	<path fill="white" transform="scale(1.80081 1.80081)" d="M708.39 378.958C718.283 382.599 729.593 383.567 740 385.128L779.93 390.845C790.015 391.812 800.141 391.781 810.256 391.56C809.655 401.564 805.422 413.436 798.871 421.085C795.763 423.758 791.905 426.722 788.099 428.265C784.956 429.539 781.307 429.559 778.043 428.722C774.187 427.733 770.361 425.628 766.75 423.988C756.657 419.403 746.295 413.757 736.808 408.041L713.294 394.461C710.514 392.999 707.901 391.315 704.977 390.137L704.5 389.952C706.259 386.348 707.409 382.825 708.39 378.958Z"/>
	<path fill="white" transform="scale(1.80081 1.80081)" d="M344.96 374.665C345.675 374.49 346.513 374.61 347.25 374.629C344.847 377.136 340.733 378.969 337.773 380.847C324.49 389.272 310.425 396.654 296.5 403.956L267.307 418.793L251.25 425.505C248.151 426.853 244.324 429.291 240.926 429.533C233.543 430.06 229.107 427.827 223.687 423.105C221.978 421.396 220.157 419.664 218.98 417.529C215.194 410.663 214.613 399.194 214.353 391.518C246.386 392.502 277.314 386.645 308.652 380.939L344.96 374.665Z"/>
	<path fill="#FED201" transform="scale(1.80081 1.80081)" d="M496.692 238.066C501.852 237.773 507.082 238.283 512.25 238.35C516.581 238.406 521.002 237.795 525.307 238.05C530.986 238.386 537.349 241.052 542.094 244.151C549.098 248.726 555.372 255.405 556.998 263.806L557.174 264.75C558.311 270.481 558.001 276.11 557.698 281.918L527.761 281.983L465.57 281.933C465.062 272.384 465.164 264.257 470.458 255.926C476.481 246.447 485.746 240.433 496.692 238.066Z"/>
	<path fill="white" transform="scale(1.80081 1.80081)" d="M878.33 301.25L880.5 301.026L881.003 301.5C873.289 325.539 860.593 346.11 839.039 359.955C829.438 366.122 817.052 370.057 805.778 371.298C787.769 373.279 768.825 370.175 751 367.538L689.182 356.244L659.714 348.632L633.157 339.753C643.316 338.709 653.252 338.782 663.432 338.661L709.448 338.304C718.308 338.196 727.228 338.32 736.04 337.325C739.701 336.912 743.325 335.735 746.919 334.935L772.413 328.747L830.145 314.263L878.33 301.25Z"/>
	<path fill="white" transform="scale(1.80081 1.80081)" d="M138.747 299.66L160 304.945L196 313.925L241.875 325.134L267.074 332.704C272.055 334.29 277.148 336.392 282.321 337.17C295.418 339.14 309.801 338.01 323.042 338.06L395.316 339.741L370.839 347.556C334.912 356.565 298.498 364.116 261.689 368.542C246.542 370.364 231.853 372.31 216.521 371.225C207.265 370.571 198.496 368.624 190.083 364.649C165.295 352.936 147.693 324.552 138.747 299.66Z"/>
	<path fill="#FED201" transform="scale(1.80081 1.80081)" d="M422.877 590.54L598.663 590.533L598.787 590.955C590.886 611.227 579.758 629.312 566.032 646.137C551.875 661.459 536.305 675.289 514.75 677.69C507.504 678.497 497.891 676.797 491.233 673.745C465.651 662.016 446.535 637.15 433.365 613.062C430.328 607.508 427.008 601.617 424.81 595.677L422.877 590.54Z"/>
	<path fill="#FED201" transform="scale(1.80081 1.80081)" d="M465.288 297.614C470.476 297.132 475.94 297.387 481.154 297.402L507.637 297.468L540.304 297.446L555.42 297.343C558.323 297.359 561.44 297.208 564.213 298.162C570.625 300.367 576.733 303.147 581.905 307.613C590.83 315.32 595.487 325.001 596.278 336.75C596.795 344.436 596.841 354.916 594.177 362.189C592.556 366.617 589.608 370.617 586.495 374.111C579.204 382.293 572.708 384.708 561.954 385.371L496.376 385.588L472.137 385.543C468.002 385.507 463.565 385.757 459.466 385.283C455.699 384.847 451.106 383.415 447.812 381.546C439.849 377.025 432.843 368.203 430.531 359.319L430.328 358.516C429.234 354.375 429.329 350.028 429.331 345.768C429.334 339.95 429.423 334.477 430.496 328.75C431.299 324.466 434.064 319.568 436.49 315.932C442.937 306.269 454.068 299.721 465.288 297.614Z"/>
	<path fill="#FED201" transform="scale(1.80081 1.80081)" d="M437.343 398.523L442.013 400.352C444.965 401.313 448.209 401.801 451.304 401.96C459.787 402.393 468.474 401.989 476.976 401.96L522.257 401.994L554.136 402.148C561.02 402.217 568.636 402.677 575.447 401.932C578.8 401.566 581.886 400.102 584.843 398.582L585.579 399.218C595.853 408.15 604.925 421.973 609.167 434.917C611.127 440.895 612.036 447.532 612.939 453.743L615.497 475.685C606.709 476.704 597.24 475.935 588.375 475.862L407.652 476.481L411.491 439.688C414.241 423.655 424.109 407.965 437.343 398.523Z"/>
	<path fill="#FED201" transform="scale(1.80081 1.80081)" d="M497.892 492.234L576.75 492.433C589.721 492.515 603.535 491.347 616.407 492.803C617.037 499.238 616.626 506.106 616.635 512.587C616.644 518.845 617.131 525.61 616.318 531.785C615.262 539.818 612.602 547.861 610.316 555.616C608.458 561.921 606.834 568.466 604.155 574.473L526.18 574.132L416.775 574.258C413.369 565.826 410.92 556.843 408.87 548C407.777 543.284 406.522 538.641 405.971 533.818C405.19 526.992 405.648 519.967 405.79 513.112C405.934 506.142 405.822 499.164 406.399 492.211L497.892 492.234Z"/>
</svg>
