<?xml version="1.0" encoding="utf-8" ?>
<svg xmlns="http://www.w3.org/2000/svg" xmlns:xlink="http://www.w3.org/1999/xlink" width="1844" height="1844">
	<path fill="#145624" transform="scale(1.80081 1.80081)" d="M-0 -0L1024 0L1024 1024L-0 1024L0 -0Z"/>
	<path fill="white" transform="scale(1.80081 1.80081)" d="M514.018 186.068C516.726 195.514 520.556 204.855 524.25 213.952C539.133 250.595 559.867 284.662 580.265 318.434C590.593 335.535 600.758 353.017 609.106 371.174C610.724 374.695 612.657 378.12 613.86 381.81L614.011 382.296C623.019 366.572 637.536 354.338 652.5 344.543C655.903 342.315 659.317 339.789 662.893 337.851C675.466 331.037 688.812 325.852 701.653 319.639C714.98 313.191 727.658 306.226 740.25 298.457C745.951 294.939 754.187 288.901 757.68 283.204L758.018 282.628L770.671 332.817C776.921 361.04 781.555 389.942 778.234 418.889C776.51 433.921 771.967 448.32 764.752 461.555C760.893 468.633 756.508 475.063 750.162 480.095C765.724 474.717 782.087 472.418 798.255 469.498L864.25 457.774C876.691 455.548 888.547 453.871 900.635 449.87L897.994 473.5C894.018 498.553 886.429 522.458 877.69 546.198C866.007 577.932 849.296 608.456 829.991 636.174C823.282 645.808 816.586 655.484 809.052 664.5C777.812 701.883 737.024 734.924 690.001 749.738L652.773 760.307C623.759 767.193 593.634 772.378 566.236 784.58C551.222 791.266 537.148 801.006 526.902 813.97C523.829 817.858 520.98 822.406 518.476 826.684C517.276 828.735 514.619 835.217 512.75 836.079L511.75 834.58C508 828.336 505.129 821.862 500.443 816.176C495.314 809.951 489.384 803.746 482.957 798.851C455.695 778.091 421.46 771.813 388.905 764.241C369.823 759.803 350.448 754.772 331.973 748.234C316.286 742.683 300.056 735.449 285.8 726.8C281.432 724.151 277.33 720.967 273.184 717.983C264.046 711.405 254.978 704.378 246.55 696.903C228.95 681.294 213.366 663.015 199.599 644.007C175.507 610.744 156.913 574.908 143.284 536.198C139.134 524.41 134.892 512.529 131.765 500.415C127.477 483.799 125.037 466.874 123.999 449.759C131.158 452.766 137.548 453.722 145.092 455.111L177.403 460.345L208.471 465.196L239.5 472.489C250.539 475.176 261.772 477.841 272.351 481.992C265.391 474.351 259.344 464.283 255.204 454.811C237.234 413.704 245.935 366.629 256.055 324.651C259.306 311.167 262.477 297.066 267.442 284.124C278.533 298.263 296.684 307.021 312.457 314.948L351.276 334.227C362.179 339.917 373.102 346.504 382.75 354.153C391.212 360.862 399.704 368.835 406.251 377.454C407.957 379.7 409.119 382.338 410.803 384.646C412.116 381.147 414.035 377.951 415.647 374.591L423.155 359.054L452.449 306.521L477.185 266.669C487.322 249.141 497.157 231.187 504.725 212.385L514.018 186.068Z"/>
	<path fill="#145624" transform="scale(1.80081 1.80081)" d="M874.806 494.625C872.882 507.095 868.885 519.402 864.459 531.183C856.568 552.183 846.564 571.99 832.865 589.851C820.801 605.58 806.787 620.517 787.196 626.142C776.268 629.28 764.087 630.238 752.79 631.75L752.344 631.66L752.085 631.25C760.135 625.608 767.907 618.565 775.062 611.826C797.699 590.506 814.003 566.009 826.741 537.694L837.633 510.782C837.933 510.049 838.575 508.286 839.17 507.822C839.872 507.274 842.541 506.807 843.5 506.448L854.223 502.003C861.099 499.457 868.012 497.503 874.806 494.625Z"/>
	<path fill="#145624" transform="scale(1.80081 1.80081)" d="M147.478 497.783L173.5 504.893C178.728 506.416 184.025 507.754 189.068 509.837L189.837 513.096C197.957 544.014 214.965 573.888 237.423 596.595C245.023 604.279 253.557 611.076 262.147 617.596L271.837 625.631C274.779 627.866 278.113 629.685 281.31 631.531C262.42 631.667 240.364 628.776 223.208 620.584C212.303 615.376 204.306 607.576 196.529 598.49C185.265 585.331 175.595 569.765 168.391 554C160.073 535.796 154.1 516.631 147.478 497.783Z"/>
	<path fill="#145624" transform="scale(1.80081 1.80081)" d="M214.177 504.833C219.324 505.319 224.447 506.349 229.556 507.132C238.012 508.428 246.385 509.677 254.5 512.52C265.522 516.381 276.433 520.887 286.377 527.074C305.271 538.83 321.54 554.728 336.706 570.873C351.707 586.842 365.745 603.179 377.184 621.959C380.374 627.195 382.938 632.822 385.593 638.342L330.243 622.633C305.356 613.439 281.041 600.601 262.761 580.939C253.559 571.04 245.763 559.518 238.407 548.219C229.208 534.088 221.248 520.161 214.177 504.833Z"/>
	<path fill="#145624" transform="scale(1.80081 1.80081)" d="M811.264 503.738C812.128 503.509 812.345 503.565 813.188 503.75L785.318 552.219C770.056 575.182 748.958 595.509 724.773 608.947C705.336 619.748 683.405 626.623 661.969 632.133L633.772 638.88C633.244 639.016 632.661 638.832 632.126 638.75C638.085 632.743 642.594 625.598 647.716 618.898L679.736 578.25C695.093 560.32 712.777 542.778 732.537 529.75C755.94 514.32 783.463 505.767 811.264 503.738Z"/>
	<path fill="#145624" transform="scale(1.80081 1.80081)" d="M230.564 641.019C237.974 643.213 246.346 643.622 254.012 644.684C260.557 645.591 267.25 647.107 273.644 648.77C292.063 653.56 309.088 660.707 326.946 667.124L353.478 676.938C367.962 682.107 382.448 687.134 396.367 693.729C417.622 703.798 437.677 717.074 448.964 738.408C451.53 743.26 453.245 748.576 455.093 753.732L407.277 744.158C379.466 739.118 350.946 734.763 324 726.039C308.394 720.987 291.744 714.347 278.443 704.636C256.687 688.752 242.608 664.6 230.564 641.019Z"/>
	<path fill="#145624" transform="scale(1.80081 1.80081)" d="M793.38 640.25L794.383 640.523C790.195 650.427 783.407 660.651 777.343 669.531C769.844 680.514 761.328 691.897 751.12 700.499C743.847 706.628 735.535 711.365 727.051 715.57C695.036 731.437 658.372 736.603 623.429 742.234L567.608 753.244C568.723 748.837 571.642 743.559 574.019 739.618C592.39 709.171 624.712 694.527 656.364 681.839L692.824 667.672C710.456 661.072 728.075 653.505 746.31 648.769C756.582 646.101 767.022 644.359 777.508 642.794C782.638 642.028 787.79 641.691 792.834 640.395L793.38 640.25Z"/>
	<path fill="#145624" transform="scale(1.80081 1.80081)" d="M739.669 340.25C740.478 340.161 739.983 340.19 741.155 340.25C743.977 353.843 745.601 367.574 746.445 381.416C748.053 407.821 746.355 432.85 735.538 457.291C722.643 486.429 696.738 505.414 671.311 522.888L655.5 532.987C653.529 534.116 651.473 535.632 649.328 536.378C648.509 536.663 648.813 536.571 647.879 536.103C646.887 533.798 648.175 528.279 648.422 525.622C651.654 496.838 648.298 467.25 639.542 439.703L629.954 413.431C629.665 412.619 628.923 411.267 629.299 410.496C630.17 408.714 631.933 406.993 633.203 405.462L640.454 396.722C661.795 371.645 689.774 357.318 720.349 346.493L739.669 340.25Z"/>
	<path fill="#145624" transform="scale(1.80081 1.80081)" d="M283.821 340.533L303.581 347.75L318.688 353.109C336.924 360.424 355.32 370.224 370.076 383.361C378.15 390.548 385.108 398.556 392.216 406.667C392.806 407.34 395.945 410.532 395.969 410.967C395.986 411.282 395.215 412.863 395.061 413.25L392.234 420.368C388.453 430.896 384.853 441.511 382.135 452.369C376.194 476.105 374.28 499.23 375.706 523.622L376.429 536.85C372.502 534.196 368.264 532.28 364.25 529.825C361.985 528.439 359.955 526.687 357.693 525.274C327.477 506.398 299.781 486.406 286.33 451.918C274.8 422.357 273.658 389.415 279.603 358.422C280.791 352.227 281.232 346.381 283.821 340.533Z"/>
	<path fill="#145624" transform="scale(1.80081 1.80081)" d="M514.181 259.934C517.923 265.672 520.313 272.238 523.278 278.38L538.804 307.784L553.25 331.839L560.352 344.134C573.13 364.56 585.679 384.892 594.698 407.329C602.017 425.537 606.638 445.31 607.794 464.899C610.195 505.581 594.113 543.456 570.782 575.965L538.171 618.174L520.086 644.908C517.509 648.73 515.167 652.747 512.093 656.198L488.896 623.12L455.772 579.484C442.833 561.687 431.142 543.917 424.201 522.839C419.558 508.739 417.638 493.557 417.258 478.766C416.755 459.219 419.552 439.866 425.545 421.25C430.165 406.901 436.747 393.701 443.837 380.483C458.331 353.465 475.831 328.495 491.862 302.421C500.185 288.885 506.955 274.084 514.181 259.934Z"/>
</svg>
