<?xml version="1.0" encoding="utf-8" ?>
<svg xmlns="http://www.w3.org/2000/svg" xmlns:xlink="http://www.w3.org/1999/xlink" width="1844" height="1844">
	<path fill="white" transform="scale(1.80081 1.80081)" d="M-0 -0L1024 0L1024 1024L-0 1024L0 -0Z"/>
	<path fill="#063D02" transform="scale(1.80081 1.80081)" d="M268.526 309.674C267.624 313.802 267.322 316.831 268.346 321.026C266.133 319.247 263.203 316.866 261.476 314.634L268.526 309.674Z"/>
	<path transform="scale(1.80081 1.80081)" d="M521.418 346.335C505.103 347.712 488.448 348.72 472.5 352.624L472.041 352.25C472.594 351.584 473.128 350.989 473.842 350.487C476.664 348.502 480.321 347.516 483.43 346.034C486.724 344.465 489.938 342.764 493.413 341.615C507.098 337.088 519.441 337.895 533.464 340.265C531.313 343.574 524.48 343.37 521.418 346.335Z"/>
	<path fill="#032E03" transform="scale(1.80081 1.80081)" d="M639.017 242.55L639.417 242.757C641.004 243.537 642.015 243.593 643.75 243.411C645.804 242.013 646.984 240.389 648.185 238.229C648.644 237.403 649.572 235.056 650.275 234.637L650.342 235.199C651.519 244.549 653.875 253.277 651.671 262.75C649.508 272.049 645.945 279.562 637.739 284.976C629.756 290.243 621.573 287.835 613.003 286.734C612.443 285.449 612.169 284.304 611.961 282.917L611.827 282C611.153 277.561 610.973 273.129 610.795 268.647C610.709 266.484 610.407 263.995 610.757 261.861C611.99 254.332 623.13 248.923 629.479 246.621C632.002 245.706 636.733 244.71 638.669 242.951L639.017 242.55Z"/>
	<path fill="#032E03" transform="scale(1.80081 1.80081)" d="M878.749 325.18L879.406 325.121C895.1 323.967 905.129 338.174 915.512 347.444C907.579 353.568 898.089 358.897 888.402 361.482C883.478 362.361 878.965 362.66 874.344 360.383C869.511 358.001 851.869 345.287 850.656 340.503C850.464 339.747 851.027 338.838 851.482 338.25C858.09 329.714 868.442 326.369 878.749 325.18Z"/>
	<path fill="#1B7101" transform="scale(1.80081 1.80081)" d="M508.116 127.157C514.297 126.357 520.762 127.326 526.915 127.968C531.191 128.415 535.492 128.51 539.787 128.63C538.316 136.872 536.007 145.297 531.243 152.31C526.524 159.258 520.287 162.655 512.23 164.256C501.4 165.184 490.606 162.191 480.308 159.157C484.172 152.133 486.442 143.973 491.218 137.495C495.399 131.825 501.153 128.171 508.116 127.157Z"/>
	<path fill="#032E03" transform="scale(1.80081 1.80081)" d="M782.876 535.682C784.569 535.102 788.519 535.452 790.225 535.874C797.874 537.768 804.453 543.675 810.283 548.67C812.608 550.661 815.376 552.651 817.013 555.25C817.001 556.051 817.159 556.943 816.779 557.659C815.636 559.809 813.955 561.052 812.188 562.638C805.624 568.523 798.298 572.527 789.912 575.214C786.273 575.643 780.27 575.924 776.812 574.591C765.942 570.401 759.098 559.789 754.886 549.497C764.106 542.148 770.861 537.335 782.876 535.682Z"/>
	<path fill="#063D02" transform="scale(1.80081 1.80081)" d="M235.545 567.514C231.953 567.611 227.813 567.709 224.335 566.788L223.5 566.552L218.016 564.836C204.317 559.541 197.416 544.788 191.786 532.208C205.269 529.452 222.521 522.152 235.563 529.375C244.407 534.274 249.357 542.048 252.041 551.538C249.298 556.194 246.429 560.055 242.418 563.709C239.802 564.711 237.649 565.586 235.545 567.514Z"/>
	<path fill="#032E03" transform="scale(1.80081 1.80081)" d="M515.494 66.2451C517.281 69.8272 518.573 73.351 519.42 77.2688C521.781 88.1945 521.476 101.322 515.069 110.907C511.35 116.471 501.852 123.143 495.284 124.466L494.5 124.614C489.379 125.62 485.239 124.976 480.556 122.74C478.928 121.765 477.297 120.275 476.161 118.761C472.11 113.36 471.873 106.849 472.815 100.415L472.957 99.5C473.643 94.8697 475.615 89.0918 479.138 85.75C486.437 78.8271 499.172 76.9231 508.01 72.0561C510.675 70.5885 513.174 68.2092 515.494 66.2451Z"/>
	<path fill="#032E03" transform="scale(1.80081 1.80081)" d="M471.21 357.567C473.771 357.468 476.225 357.471 478.75 358.024C484.458 359.275 489.793 363.689 492.875 368.608C495.831 373.326 495.592 379.831 494.293 385.087L494.055 386C493.423 388.468 492.632 390.6 491.372 392.806C485.876 402.426 477.422 405.878 467.235 408.607C459.666 410.088 452.777 411.111 445.051 411.224C444.827 400.94 443.394 387.134 447.729 377.516C451.954 368.142 461.668 360.868 471.21 357.567Z"/>
	<path fill="#032E03" transform="scale(1.80081 1.80081)" d="M570.473 242.552C568.896 246.676 567.5 250.984 564.702 254.474C559.399 261.089 550.706 265.729 542.25 266.46C525.498 267.909 511.989 259.134 499.664 248.934L499.961 248.395C501.922 246.142 504.83 244.112 507.027 241.984C516.306 232.996 525.416 223.734 539.288 223.44C548.917 223.237 557.632 227.847 563.886 235.006C565.823 237.223 567.312 239.897 569.412 241.933L570.473 242.552Z"/>
	<path fill="#032E03" transform="scale(1.80081 1.80081)" d="M771.983 580.5C779.576 585.795 789.291 587.469 797.284 592.112C811.475 600.355 812.683 613.685 815.34 628.349C816.127 632.698 817.327 636.969 818.485 641.23C816.332 641.36 814.018 640.799 811.887 640.469C799.178 638.485 784.504 635.594 774.188 627.442C767.923 622.491 764.967 616.647 764.15 608.75C763.133 598.914 765.834 588.239 771.983 580.5Z"/>
	<path fill="#032E03" transform="scale(1.80081 1.80081)" d="M703.392 296.648C705.483 296.52 707.568 296.382 709.647 296.721C725.021 299.226 735.791 312.069 744.458 323.928C736.518 329.101 727.475 334.576 718.266 337.069C714.088 338.2 709.545 338.479 705.243 338.765C689.812 338.099 677.562 332.282 664.836 323.931C668.385 320.56 671.207 316.428 674.506 312.811C681.58 305.053 693.04 298.421 703.392 296.648Z"/>
	<path fill="#1B7101" transform="scale(1.80081 1.80081)" d="M533.464 340.265C538.954 340.927 544.389 342.076 549.62 343.899C560.38 347.647 568.811 356.798 573.449 366.954C576.684 374.039 578.515 383.818 578.829 391.558C569.78 391.953 561.101 392.045 552.07 391.152C544.42 390.396 536.385 388.89 530.414 383.581C524.263 378.112 521.672 369.512 521.431 361.483C521.33 358.129 521.702 354.766 522.025 351.431C522.174 349.897 522.701 348.011 521.965 346.665L521.418 346.335C524.48 343.37 531.313 343.574 533.464 340.265Z"/>
	<path fill="#032E03" transform="scale(1.80081 1.80081)" d="M514.446 200.801C511.918 201.443 507.697 206.178 505.28 207.806C501.921 210.069 496.612 212.131 492.632 212.862C474.087 216.268 458.426 205.674 443.721 195.87C454.659 185.863 465.381 175 480.4 171.699C485.176 170.649 490.072 169.5 495 169.865C503.434 170.49 509.547 175.857 514.886 181.814C517.377 184.592 519.942 187.857 523.145 189.833L523.558 190.074C521.184 194.048 517.617 197.449 514.446 200.801Z"/>
	<path fill="#032E03" transform="scale(1.80081 1.80081)" d="M158.312 298.166C163.341 297.865 168.068 298.393 172.936 299.711C181.657 302.071 194.962 310.904 199.519 318.636C198.869 319.854 198.128 320.969 197.285 322.061C189.096 332.673 177.343 341.745 163.832 343.565C147.389 343.36 132.301 332.637 120.773 321.69C123.411 318.721 126.596 316.126 129.589 313.516C137.975 306.201 146.98 299.66 158.312 298.166Z"/>
	<path fill="#1B7101" transform="scale(1.80081 1.80081)" d="M519.479 406.599C522 406.521 525.129 406.113 527.584 406.644C536.815 408.637 543.167 415.964 549.558 422.25C554.521 427.132 559.134 431.109 565.389 434.265C563.475 437.026 560.779 438.766 558.128 440.75C548.997 447.584 539.673 452.267 528.674 455.133C521.88 456.033 514.386 455.13 507.904 452.972C497.343 449.456 486.803 441.999 481.773 432C497.087 427.339 503.208 409.952 519.479 406.599Z"/>
	<path fill="#032E03" transform="scale(1.80081 1.80081)" d="M841.224 351.505L841.769 351.968L842.248 351.868C846.193 351.152 851.669 351.76 855.5 352.872L856.258 353.087C859.532 354.084 862.303 356.301 865.05 358.271C871.397 362.824 877.242 366.845 880.968 373.988C885.244 382.185 887.366 391.38 890.903 399.908C892.19 403.013 893.523 406.494 895.604 409.166C877.735 410.582 853.247 407.538 839.071 395.576C834.223 391.485 831.222 387.153 829.437 381L829.183 380.147C827.914 375.621 828.047 370.395 828.594 365.756C831.568 358.531 834.701 355.72 841.224 351.505Z"/>
	<path fill="#032E03" transform="scale(1.80081 1.80081)" d="M268.526 309.674C280.905 300.787 294.013 290.724 310.207 293.219L313.008 293.828C327.621 297.478 342.203 307.362 350.516 320.052C352.495 323.073 353.235 326.542 353.882 330.027C345.663 329.151 337.29 329.191 329.233 331.241C322.412 332.976 316.053 336.264 309.25 337.949C299.535 340.355 289.447 336.335 281.366 331.149C277.059 328.385 271.736 324.905 268.346 321.026C267.322 316.831 267.624 313.802 268.526 309.674Z"/>
	<path fill="#032E03" transform="scale(1.80081 1.80081)" d="M232.561 581.192C239.323 580.937 247.082 580.803 252.709 585.25C257.566 589.089 260.013 595.058 260.67 601.073C261.387 607.647 259.777 615.576 255.413 620.669C247.217 630.236 232.882 633.351 220.928 634.109C211.025 635.027 200.946 633.779 191.078 632.855C192.811 628.156 195.348 623.855 197.223 619.213C200.724 610.546 202.83 600.315 208.919 592.975C215.062 585.57 223.146 582.097 232.561 581.192Z"/>
	<path fill="#032E03" transform="scale(1.80081 1.80081)" d="M210.458 356.151C212.364 362.102 212.576 368.852 211.934 375.032C211.21 382.002 208.3 389.943 202.645 394.443C192.201 402.754 179.028 404.529 166.177 405.643C156.993 406.438 148.336 406.829 139.151 405.752L146.507 390.259C149.846 382.75 152.617 374.3 157.422 367.61C166.633 354.787 183.75 349.45 198.616 347.085L199.569 349.438L200.137 349.664C203.582 351.09 208.175 353.176 210.458 356.151Z"/>
	<path fill="#1B7101" transform="scale(1.80081 1.80081)" d="M770.083 239.634C784.876 238.414 804.199 241.078 816.345 250.222C813.152 255.405 809.044 259.522 805.211 264.196C800.634 269.778 796.447 275.6 791.285 280.671C783.25 288.562 775.433 292.108 764.14 292.024C756.084 291.061 749.15 288.495 742.75 283.449C737.92 279.641 733.97 275.336 727.78 273.716C724.591 272.882 720.256 273.358 716.9 273.174C718.404 272.123 720.768 271.723 722.54 271.135C725.964 270 729.487 268.66 732.46 266.583C735.756 264.28 738.482 261.336 741.304 258.495C746.296 253.47 751.763 247.088 758.014 243.629C761.737 241.569 765.944 240.472 770.083 239.634Z"/>
	<path fill="#1B7101" transform="scale(1.80081 1.80081)" d="M494.802 275.397C506.367 275.382 520.226 274.08 531.526 276.708C537.753 278.156 543.171 280.171 548.079 284.392C561.326 295.784 563.312 309.464 564.479 325.989L558.571 328.99C555.758 330.151 551.94 332.078 548.886 332.171C546.076 332.256 543.548 333.518 540.882 334.3C537.91 335.171 533.167 335.64 530.15 334.826C522.905 332.872 516.719 330.579 511.43 324.925C498.906 311.536 494.13 293.394 494.802 275.397Z"/>
	<path fill="#1B7101" transform="scale(1.80081 1.80081)" d="M900.92 440.282C902.619 440.197 904.51 439.701 905.873 440.75L904.011 459.5C902.509 472.271 901.159 483.58 891.55 493.095C884.905 499.675 875.711 504.157 866.372 504.918C858.507 505.558 850.769 504.423 842.935 504.4C841.615 504.896 840.496 505.701 839.1 505.98C839.768 501 840.667 496.089 841.071 491.067C842.081 478.514 841.198 465.707 850.398 455.77C863.146 442.001 883.384 441.006 900.92 440.282Z"/>
	<path fill="#1B7101" transform="scale(1.80081 1.80081)" d="M211.588 214.25C216.276 213.544 222.066 214.45 226.756 215.125C243.477 217.53 263.704 221.661 272.016 238.281C274.823 243.893 275.932 250.318 276.544 256.5C277.515 266.31 278.107 275.194 284.186 283.311C282.435 282.102 280.301 280.373 278.387 279.503C277.481 279.092 274.872 279.391 273.863 279.453L262.948 279.96C256.165 280.029 248.313 279.752 241.961 277.243C229.632 272.374 222.661 264.546 217.598 252.498C213.808 243.479 212.738 232.774 211.707 223.112C211.415 220.374 210.545 216.809 211.588 214.25Z"/>
	<path fill="#1B7101" transform="scale(1.80081 1.80081)" d="M821.782 406.536L830.547 426.001C836.329 440.316 836.099 455.829 829.988 470C828.202 474.14 825.469 477.344 822.291 480.475C816.939 485.749 811.472 489.016 804.364 491.436C799.908 492.953 795.388 493.79 790.996 495.585C789.425 488.931 785.528 483.696 782.231 477.817C776.02 466.746 775.287 457.909 778.735 445.828C782.815 431.531 794.127 423.356 806.199 415.919L821.782 406.536Z"/>
	<path fill="#1B7101" transform="scale(1.80081 1.80081)" d="M373.054 607.7L396.002 608.851L399.718 621.668C402.491 632.559 401.656 645.876 395.742 655.671C388.344 667.927 376.143 672.533 362.879 675.809C354.158 677.808 344.603 678.407 335.69 678.522C336.893 673.261 337.668 668.033 337.839 662.629C338.332 647.029 336.193 632.405 347.266 619.641C354.11 611.752 362.854 608.356 373.054 607.7Z"/>
	<path fill="#1B7101" transform="scale(1.80081 1.80081)" d="M204.66 400.25C205.214 400.292 204.949 400.216 205.517 400.557L229.788 414.561C240.017 420.359 249.851 428.827 252.956 440.569L253.182 441.448C255.71 450.955 252.697 461.752 254.976 471.401C256.113 476.214 257.613 477.92 261.587 480.478C256.468 479.211 254.1 479.9 249.227 481.463C241.291 484.239 234.055 484.209 225.969 482.082C215.519 479.333 204.524 472.166 199.027 462.682C187.129 442.152 199.299 420.663 204.66 400.25Z"/>
	<path fill="#1B7101" transform="scale(1.80081 1.80081)" d="M860.486 257.202C869.115 255.908 880.927 257.269 889.201 259.724L883.954 288.378C881.936 298.685 880.736 307.955 872.926 315.689C864.51 324.023 854.556 324.66 843.44 324.506C838.883 323.945 829.51 322.659 825.317 324.328C823.131 325.198 820.944 326.879 818.966 328.165C822.947 319.773 822.589 313.993 821.462 304.978C820.168 294.631 822.002 281.132 828.753 272.711C837.27 262.089 847.43 258.722 860.486 257.202Z"/>
	<path fill="#1B7101" transform="scale(1.80081 1.80081)" d="M569.132 115.25C571.356 115.751 573.723 117.756 575.674 118.997C586.364 125.799 598.526 133.721 606.75 143.423C616.037 154.378 621.326 170.682 615.342 184.418C612.487 190.971 607.848 196.496 605.406 203.331C603.042 209.944 602.928 217.171 602.341 224.104L602.019 222.75C600.807 217.4 597.09 209.122 592.435 205.833C590.011 204.119 586.437 203.319 583.627 202.33C573.91 198.911 564.409 193.628 559.134 184.36C549.916 168.164 557.494 150.368 563.139 134.5L569.132 115.25Z"/>
	<path fill="#1B7101" transform="scale(1.80081 1.80081)" d="M434.418 169.813C430.93 169.822 426.738 171.03 423.173 171.403C412.238 172.549 399.73 170.864 390.237 165.021L388.701 145.862C387.975 136.945 387.275 127.368 391.194 119.016C401.869 96.2683 427.544 89.6412 449.301 81.7201L449.686 82.3377L456.258 115.042C456.03 115.447 455.628 115.796 455.573 116.258C455.393 117.776 456.195 120.445 456.352 122.076C456.884 127.621 456.538 134.624 455.132 140L454.907 140.904C452.544 150.208 447.233 158.081 440.365 164.573C438.475 166.36 436.639 168.443 434.418 169.813Z"/>
	<path fill="#1B7101" transform="scale(1.80081 1.80081)" d="M197.944 290.034C192.827 292.015 188.541 293.27 183 293.333C168.564 293.498 155.377 285.79 145.324 275.891C141.115 271.746 136.804 266.164 134.75 260.618C133.234 256.523 132.881 251.813 132.399 247.5C130.778 233.013 131.467 217.94 131.272 203.347L153 209.562C156.347 210.582 159.569 212.071 162.897 213.176C173.286 216.626 184.319 219.846 192.188 227.964C198.841 234.827 204.108 247.976 204.559 257.484C204.92 265.102 203.791 272.399 203.634 279.932C201.881 283.081 200.13 287.288 197.944 290.034Z"/>
	<path fill="#1B7101" transform="scale(1.80081 1.80081)" d="M867.496 529.21C871.309 528.428 876.76 529.001 880.641 529.64C908.509 534.225 923.357 557.955 938.299 579.329C925.784 587.344 910.485 594.21 895.954 597.384L887.909 598.508C870.913 599.591 856.426 594.942 845.686 581.201C842.166 576.697 839.623 571.434 835.988 567.016C832.751 563.082 828.459 559.673 824.671 556.253L832.223 545.463C841.819 533.842 853.009 530.611 867.496 529.21Z"/>
	<path fill="#1B7101" transform="scale(1.80081 1.80081)" d="M408.641 308.383C410.572 297.769 412.379 288.889 418.964 280.035C430.05 265.129 446.505 258.719 464.392 256.208L489.531 254.561L489.707 274.8C490.231 293.678 490.52 310.298 476.317 324.711C465.271 335.921 449.224 337.556 434.359 337.569C427.523 337.575 420.827 336.431 415.749 331.478C414.378 330.14 413.182 328.479 412.25 326.805L411.576 328.777C412.016 325.48 411.135 322.709 410.697 319.481C410.208 315.885 410.661 311.512 408.641 308.383Z"/>
	<path fill="#1B7101" transform="scale(1.80081 1.80081)" d="M144.231 450.688C157.083 449.415 170.074 451.965 180.266 460.287C194.076 471.565 196.952 489.23 198.761 506.022C198.157 506.766 198.428 506.552 197.65 507.059C192.576 510.366 187.21 514.085 181.844 516.818C168.939 523.389 156.12 524.065 142.096 521.337C119.577 516.655 100.297 498.084 84.53 482.45C101.929 467.766 120.985 453.324 144.231 450.688Z"/>
	<path fill="#1B7101" transform="scale(1.80081 1.80081)" d="M707.396 591.696C711.616 591.177 717.152 591.197 721.382 591.725C726.658 592.384 731.693 593.457 736.39 596.088C756.722 607.479 757.556 631.669 762.012 651.75C763.655 659.153 766.403 665.984 768.492 673.225C763.466 674.324 758.226 674.138 753.108 674.064C739.251 673.864 725.501 672.029 712.216 668.035L711.126 667.697C699.847 663.898 689.874 656.888 683.739 646.511C678.879 638.29 675.751 628.946 671.447 620.4C666.499 610.576 654.491 606.72 644.823 603.515C654.185 602.305 664.114 602.011 673.315 599.972C684.881 597.41 695.442 592.956 707.396 591.696Z"/>
	<path fill="#1B7101" transform="scale(1.80081 1.80081)" d="M260.976 161.837C260.777 147.753 263.219 133.335 267.75 120.014C269.823 113.918 273.288 108.396 275.38 102.362C277.579 96.0166 278.538 88.7966 281.294 82.7074C311.307 97.5723 348.078 115.658 359.464 149.62C363.629 162.044 363.189 175.387 360.697 188.081C359.856 192.363 359.049 196.611 357.509 200.714C353.539 211.295 348.39 221.381 345.865 232.483C343.337 243.597 343.909 254.186 344.535 265.452C338.865 259.768 337.098 254.21 335.093 246.583C334.322 243.651 333.679 240.543 331.862 238.048C331.239 237.192 330.338 236.232 329.335 235.84C326.766 234.837 323.741 234.445 321.052 233.771C315.064 232.269 308.94 230.464 303.619 227.253C300.03 225.088 296.277 221.923 293.208 219.062C291.251 217.238 288.391 213.237 286.104 212.202C285.427 211.697 285.652 211.936 285.184 211.352C280.321 205.278 274.04 200.864 270.227 193.775C268.348 190.283 266.811 186.054 265.757 182.25C264.625 178.161 263.883 173.887 263.137 169.714C262.691 167.225 262.628 163.779 260.976 161.837Z"/>
	<path fill="#1B7101" transform="scale(1.80081 1.80081)" d="M720.879 235.153L720.359 234.869C714.537 236.142 709.169 238.137 703.184 238.861C700.365 239.202 695.635 238.363 693.25 239.169C690.177 240.207 680.445 265.391 676.753 270.277C674.106 273.781 670.685 276.23 667.104 278.698C670.265 270.292 674.744 260.122 674.634 251.062C674.544 243.692 671.141 237.83 668.107 231.36C660.764 215.698 653.563 199.364 653.622 181.75C653.648 173.958 655.339 165.942 657.744 158.549C664.599 137.48 680.796 120.92 699.75 110.047C711.932 103.06 725.232 97.8943 738.015 92.14L763.819 79.3685C769.447 93.5316 774.831 107.839 776.995 123.005C778.008 130.104 778.048 137.426 778.026 144.579C778.004 151.753 777.873 159.436 776.487 166.5C772.647 186.07 763.001 201.706 749.251 215.826C745.721 217.841 743.427 221.249 740.389 223.861C735.104 228.404 727.712 232.261 721.288 234.942L720.879 235.153Z"/>
	<path transform="scale(1.80081 1.80081)" d="M434.418 169.813C436.639 168.443 438.475 166.36 440.365 164.573C447.233 158.081 452.544 150.208 454.907 140.904L455.132 140C456.538 134.624 456.884 127.621 456.352 122.076C456.195 120.445 455.393 117.776 455.573 116.258C455.628 115.796 456.03 115.447 456.258 115.042L460.163 131.609C460.801 134.332 461.904 137.731 461.743 140.521C461.594 143.084 459.875 146.024 458.78 148.314C455.505 155.167 451.726 161.835 447.552 168.188C438.597 181.817 425.15 192.492 414.75 205C402.825 219.342 392.346 237.015 386.721 254.812C383.579 264.754 381.844 275.335 380.37 285.633C378.512 298.611 377.483 310.735 380.027 323.708C381.635 331.908 383.932 339.701 386.358 347.681C388.213 353.782 389.77 359.566 392.646 365.288C396.808 346.002 401.345 326.761 408.641 308.383C410.661 311.512 410.208 315.885 410.697 319.481C411.135 322.709 412.016 325.48 411.576 328.777C411.595 332.696 410.439 336.587 410.169 340.5C409.77 346.276 409.787 352.152 409.928 357.938C410.066 363.583 410.302 369.957 412.621 375.198C413.796 377.854 415.727 379.894 417.628 382.043C418.73 378.993 419.243 375.798 420.309 372.753C421.822 368.428 423.917 364.142 426.323 360.247C426.363 364.686 426.147 369.284 426.605 373.693L429.732 394.827C430.925 404.259 431.368 414.694 434.648 423.672C436.187 427.883 438.521 431.913 440.696 435.828C447.528 448.129 456.16 459.199 464.637 470.379L514.297 534.5L515.134 533.719C537.013 512.606 553.259 485.5 569.499 460C573.603 453.556 579.55 446.064 581.839 438.782C584.284 431.003 583.546 420.735 583.543 412.561C583.539 405.726 583.794 398.735 583.176 391.93L579.384 362.739C577.61 352.332 575.281 342.661 575.457 332.034L581.382 348.176C584.303 355.294 588.325 362.209 592.156 368.876C594.1 372.258 595.913 376.002 598.25 379.118L598.68 378.904C601.405 377.147 602.646 367.287 603.088 363.98C607.817 328.542 598.731 294.845 583.224 263.238C579.746 256.149 576.806 249.029 571.949 242.75L570.473 242.552L569.412 241.933L569.444 237.25C557.58 217.142 536.098 206.699 514.446 200.801C517.617 197.449 521.184 194.048 523.558 190.074C535.819 195.69 548.304 201.375 559.213 209.42C574.1 220.397 584.914 234.933 594.009 250.807C594.635 251.901 596.365 255.565 597.382 255.75C601.539 249.269 599.619 239.621 598.798 232.323C604.063 239.109 606.464 247.426 610.648 254.869C613.259 250.684 616.389 246.902 619.067 242.774C626.8 230.855 630.336 218.769 629.899 204.566C629.681 197.488 628.404 189.698 629.153 182.683L632.578 198.807C634.127 205.416 635.906 211.895 636.875 218.635C638.014 226.554 638.361 234.583 639.017 242.55L638.669 242.951C636.733 244.71 632.002 245.706 629.479 246.621C623.13 248.923 611.99 254.332 610.757 261.861C610.407 263.995 610.709 266.484 610.795 268.647C610.973 273.129 611.153 277.561 611.827 282L611.961 282.917C612.169 284.304 612.443 285.449 613.003 286.734C614.33 292.225 614.726 298.44 615.589 304.069L620.688 331.919L624.291 349.852C625.472 355.36 626.445 360.303 628.971 365.379C632.373 358.871 634.667 351.453 636.999 344.5C640.672 333.544 644.035 322.386 649.386 312.09C651.437 308.144 654.268 304.285 656.876 300.683C661.616 294.133 668.516 288.838 674.941 284.014C692.695 270.688 713.925 257.485 720.879 235.153L721.288 234.942C727.712 232.261 735.104 228.404 740.389 223.861C743.427 221.249 745.721 217.841 749.251 215.826C745.473 234.675 736.738 254.401 720.258 265.422C717.217 267.456 713.925 269.108 710.94 271.229L697.654 281.214C692.901 284.54 687.848 287.563 683.311 291.18C673 299.401 664.149 310.394 659.226 322.696C655.965 330.846 654.432 340.165 652.328 348.707L638.193 401.166C659.577 382.38 689.05 373.942 715.584 365.21L751.063 352.818C771.239 345.477 791.832 337.924 805.555 320.265C811.316 312.851 814.183 303.824 816.303 294.812C816.966 307.892 815.802 318.892 806.726 329.008C802.764 333.424 798.569 338.344 794.007 342.129C792.837 343.1 786.729 347.148 786.404 348.186C792.123 347.398 797.95 346.41 803.715 346.103C813.09 345.603 822.715 346.584 831.965 348.093C834.312 348.476 837.855 348.774 839.779 350.213C840.302 350.604 840.777 351.032 841.224 351.505C834.701 355.72 831.568 358.531 828.594 365.756C817.05 363.696 805.681 362.883 794.006 364.502C788.026 365.331 781.953 367.336 776.187 369.091C771.869 370.404 767.383 371.556 763.163 373.153L767.404 395.5C770.177 414.819 770.459 434.652 765.957 453.736C765.148 457.162 764.62 461.986 763.04 465.097C762.82 467.891 762.642 469.37 761.003 471.739C758.439 475.444 757.438 480.809 755.041 484.904C745.246 501.632 734.555 516.338 718.499 527.667C715.313 529.915 711.83 531.626 708.545 533.714C714.286 533.371 719.998 532.09 725.641 531.019L750.629 526.074C783.815 518.946 818.554 512.558 852.497 516.909C841.561 519.195 830.251 520.344 819.195 522.02L769.079 531.179C748.998 535.557 729.664 542.907 709.976 548.725C705.537 550.036 688.787 553.845 686.295 555.978C694.185 559.146 702.53 561.659 710.64 564.198C719.366 566.929 728.335 569.787 737.372 571.279L758.954 574.232C763.729 574.839 768.677 575.271 773.324 576.553C756.863 579.458 739.594 578.775 722.927 578.598C723.561 579.165 724.062 579.281 724.847 579.606C728.456 581.101 734.62 584.67 736.78 587.831L736 588.431C724.681 586.486 713.61 583.085 702.253 581.452C674.348 577.439 646.683 587.147 622.781 600.932L640.469 602.642C634.851 603.728 628.725 603.966 623.321 605.85C619.387 607.221 615.695 609.773 612.187 611.992C597.034 621.579 582.723 633.849 572.599 648.75C566.518 657.699 561.37 667.919 558.328 678.32C554.816 690.325 553.561 703.019 553.009 715.48C551.934 739.782 554.15 764.209 559.013 788.031C568.188 832.984 593.813 876.581 632.581 902.121C643.285 909.172 654.289 915.411 666.125 920.395C704.58 936.59 746.012 941.009 787.202 944.345L816.75 946.317C813.839 947.166 810.634 946.986 807.612 947.074L789.971 947.368L756.898 947.55L610.919 947.485L353.148 947.508L273.979 947.463L202.78 946.25C205.252 945.384 208.306 945.541 210.918 945.409L226.5 944.6L257.986 942.258C301.041 938.536 345.785 929.907 383.388 907.752C400.398 897.729 415.323 884.667 428.081 869.664C437.935 858.076 446.628 845.379 453.267 831.666C468.929 799.319 473.715 761.872 473.537 726.315C473.447 708.269 472.25 689.527 466.185 672.385C454.06 638.112 423.281 608.577 390.831 593.146C373.042 584.686 353.34 580.822 333.699 581.322C326.123 581.514 318.167 582.204 310.964 584.724C303.545 587.319 298.262 592.337 293.189 598.095C291.159 600.398 288.943 602.663 287.653 605.483C283.807 613.894 280.715 620.997 280.169 630.29C277.69 616.905 283.225 604.242 290.653 593.462C294.659 587.647 299.369 583.335 304.971 579.08L268.658 574.346L248.214 571.006C243.812 570.14 239.642 569.451 235.545 567.514C237.649 565.586 239.802 564.711 242.418 563.709C257.922 567.07 273.59 568.101 289.383 569.141C296.641 569.619 306.022 570.823 313.145 569.301C315.762 568.742 318.53 567.24 321.027 566.25L335.276 560.953C342.635 558.614 350.361 557.989 357.821 556.143C351.614 550.91 342.328 547.41 335.073 543.689C318.268 535.071 301.488 528.163 283.636 522.037C266.427 516.132 248.5 511.103 230.325 509.281C220.786 508.324 211.222 508.501 201.666 508.884C206.401 506.779 210.462 506.478 215.372 505.33C237.501 500.156 259.398 500.104 281.767 504.178C291.332 505.919 300.784 509.06 310.365 510.356C307.473 506.545 303.335 503.244 300.021 499.75C292.491 491.811 285.772 482.922 280.611 473.254C277.734 467.864 274.878 461.991 273.283 456.073C271.73 450.31 271.679 444.157 271.054 438.25L268.615 419.097C267.655 407.058 269.027 394.451 272.507 382.913C268.154 378.87 263.17 375.765 258.13 372.659C254.064 370.154 249.877 367.411 245.578 365.348C234.77 360.161 222.371 357.086 210.458 356.151C208.175 353.176 203.582 351.09 200.137 349.664L199.569 349.438L198.616 347.085C207.68 345.47 217.575 347.176 226.547 348.714C231.404 349.546 236.171 350.208 240.903 351.635C247.59 353.652 253.268 356.271 260.271 357.441C255.184 351.628 247.945 347.332 241.983 342.385C224.412 327.807 210.887 311.324 200.406 291.015C199.599 290.444 198.897 290.268 197.944 290.034C200.13 287.288 201.881 283.081 203.634 279.932C205.698 282.969 206.854 286.783 208.498 290.08C210.875 294.847 214.756 300.364 218.204 304.418C233.764 322.713 254.664 337.332 275.974 348.201C295.623 358.223 316.474 365.776 336.816 374.237L383.956 395.035C383.185 390.443 381.46 385.932 380.051 381.5L371.78 355.98L366.646 339C363.536 330.268 359.771 321.351 354.682 313.578C347.643 302.827 337.961 294.224 327.748 286.576C316.915 278.464 306.062 269.543 297.225 259.246C284.157 244.02 276.656 226.275 269.974 207.547C264.724 192.83 259.713 177.67 260.976 161.837C262.628 163.779 262.691 167.225 263.137 169.714C263.883 173.887 264.625 178.161 265.757 182.25C266.811 186.054 268.348 190.283 270.227 193.775C274.04 200.864 280.321 205.278 285.184 211.352C285.652 211.936 285.427 211.697 286.104 212.202C285.996 214.763 285.795 217.413 286.384 219.929C287.494 224.67 290.399 228.97 293.207 232.867C300.542 243.046 310.428 251.559 320.776 258.595C327.99 263.501 335.482 268.076 341.65 274.325C345.838 278.567 350.07 283.06 353.717 287.774C355.644 290.265 357.206 292.978 358.797 295.687C359.653 297.147 360.569 299.187 362 300.062C362.779 299.021 363.074 298.166 363.284 296.878C363.994 292.509 363.823 287.859 364.224 283.437L367.157 257.75L373.486 209.944C375.071 195.379 375.426 180.854 379.359 166.632C379.622 181.48 382.691 193.247 388.402 206.845L434.418 169.813Z"/>
	<path fill="#1B7101" transform="scale(1.80081 1.80081)" d="M297.891 457.562L295.75 455.996C289.904 451.878 285.136 446.283 281.196 440.334C271.317 425.42 272.26 402.241 275.417 385.228C276.766 377.956 279.189 370.814 280.658 363.499L281.37 363.547C282.785 363.787 284.514 364.691 285.872 365.212C290.361 366.937 294.601 369.221 298.888 371.389C307.842 375.919 317.215 380.287 325.75 385.552C327.125 386.4 328.254 387.263 329.051 388.694L329.283 389.09C332.011 393.556 336.307 397.465 339.471 401.71C349.765 415.521 353.038 431.445 349.21 448.297C348.167 452.888 346.901 457.431 345.091 461.783C342.191 468.752 338.099 474.558 337.744 482.283C336.165 477.405 334.187 471.576 329.172 469.207C326.904 468.135 323.951 467.939 321.5 467.428C317 466.489 312.194 465.381 307.897 463.735C305.535 462.83 303.528 461.479 301.507 459.994C300.445 459.214 299.146 457.928 297.891 457.562Z"/>
	<path fill="white" transform="scale(1.80081 1.80081)" d="M329.051 388.694L398.492 422.324C405.593 444.087 415.545 464.423 426.644 484.412C437.75 504.414 451.073 523.482 460.969 544.132C465.855 554.328 469.653 565.257 473.017 576.035C475.419 583.729 478.058 591.755 478.127 599.864C464.812 588.92 451.966 577.721 436.764 569.345C425.528 563.154 413.799 557.59 402 552.574C390.984 547.89 379.513 543.641 368.872 538.146C348.588 527.672 330.437 511.498 316.137 493.837C307.474 483.137 299.724 471.419 297.891 457.562C299.146 457.928 300.445 459.214 301.507 459.994C303.528 461.479 305.535 462.83 307.897 463.735C312.194 465.381 317 466.489 321.5 467.428C323.951 467.939 326.904 468.135 329.172 469.207C334.187 471.576 336.165 477.405 337.744 482.283C338.099 474.558 342.191 468.752 345.091 461.783C346.901 457.431 348.167 452.888 349.21 448.297C353.038 431.445 349.765 415.521 339.471 401.71C336.307 397.465 332.011 393.556 329.283 389.09L329.051 388.694Z"/>
	<path fill="#032E03" transform="scale(1.80081 1.80081)" d="M371.619 463.699L402.153 463.56C397.439 468.245 392.398 473.599 390.686 480.25C389.219 485.952 388.818 491.426 386.512 496.938C383.286 504.651 377.373 509.106 369.85 512.16L367.688 512.636C360.663 513.935 352.265 512.441 346.482 508.098C342.911 505.416 340.757 501.874 340.213 497.408C339.243 489.444 341.4 479.761 346.553 473.534C352.429 466.433 362.927 464.523 371.619 463.699Z"/>
	<path fill="white" transform="scale(1.80081 1.80081)" d="M723.014 387.315C725.753 386.284 728.619 385.652 731.337 384.582C741.764 380.478 752.178 375.63 763.163 373.153L767.404 395.5C770.177 414.819 770.459 434.652 765.957 453.736C765.148 457.162 764.62 461.986 763.04 465.097C760.585 466.054 760.346 468.563 758.862 470.613C757.515 472.474 755.802 474.194 754.241 475.874C748.675 481.866 741.81 488.467 734.243 491.776C732.005 492.755 730.298 493.255 728.802 495.262C724.94 501.54 718.299 507.052 712.773 511.91C700.56 522.645 686.829 531.881 672.037 538.678C646.563 550.384 618.983 556.829 594.102 570.115C584.646 575.164 574.718 580.702 566.201 587.23C559.285 592.531 552.434 599.842 544.752 603.858C545.84 597.003 548.303 590.477 550.435 583.891C560.14 553.917 575.687 526.156 591.031 498.757C597.327 487.517 604.207 476.247 609.648 464.571C613.115 457.133 616.474 449.655 618.959 441.825C619.687 439.532 620.354 433.828 621.742 432.275C622.669 431.237 624.701 430.336 625.919 429.589L635.398 423.759C656.758 410.66 680.073 397.538 704.364 390.879C710.406 389.223 716.82 388.248 723.014 387.315Z"/>
	<path fill="#1B7101" transform="scale(1.80081 1.80081)" d="M723.014 387.315C725.753 386.284 728.619 385.652 731.337 384.582C741.764 380.478 752.178 375.63 763.163 373.153L767.404 395.5C770.177 414.819 770.459 434.652 765.957 453.736C765.148 457.162 764.62 461.986 763.04 465.097C760.585 466.054 760.346 468.563 758.862 470.613C757.515 472.474 755.802 474.194 754.241 475.874C748.675 481.866 741.81 488.467 734.243 491.776C732.005 492.755 730.298 493.255 728.802 495.262C727.899 495.314 728.016 495.186 727.397 495.53C725.947 496.337 724.611 497.375 723.085 498.054C716.069 501.175 705.818 501.823 698.182 502.242C694.326 502.453 690.312 502.295 686.5 502.97C678.524 504.382 677.207 514.382 674.9 520.75C673.937 523.41 672.489 525.885 670.876 528.197C672.624 513.399 669.974 498.882 667.333 484.357C666.029 477.183 664.394 469.086 664.659 461.812C665.592 436.191 680.251 416.888 700.787 402.809C707.931 397.912 716.371 393.586 722.648 387.668L723.014 387.315Z"/>
</svg>
