<?xml version="1.0" encoding="utf-8" ?>
<svg xmlns="http://www.w3.org/2000/svg" xmlns:xlink="http://www.w3.org/1999/xlink" width="1844" height="1844">
	<path fill="white" transform="scale(1.80081 1.80081)" d="M-0 -0L1024 0L1024 1024L-0 1024L0 -0Z"/>
	<path fill="#168F00" transform="scale(1.80081 1.80081)" d="M222.227 203.408C223.911 206.412 224.803 210.488 225.777 213.798C227.107 218.319 228.593 222.569 230.435 226.912C236.539 241.302 244.418 256.165 254.22 268.39C261.519 277.492 270.187 285.768 278.703 293.716C277.253 293.49 275.968 292.394 274.762 291.602C262.5 283.09 250.822 272.815 239.341 263.25C232.851 257.843 225.462 253.819 220.759 246.537C215.443 238.304 215.412 228.091 217.819 218.807C219.102 213.858 221.064 209.125 222.088 204.103L222.227 203.408Z"/>
	<path fill="#168F00" transform="scale(1.80081 1.80081)" d="M799.477 195.504C801.629 205.869 805.945 217.093 805.431 227.777C805.055 235.576 802.825 242.294 798.924 249C795.108 255.559 790.169 261.41 784.265 266.205C774.661 274.005 763.116 278.95 753.083 286.162C750.25 288.199 747.672 290.773 745.108 293.138L741.15 296.074C760.501 272.918 787.083 253.48 795.263 222.952C797.679 213.935 798.155 204.696 799.477 195.504Z"/>
	<path fill="#168F00" transform="scale(1.80081 1.80081)" d="M319.406 127.198C324.895 127.45 330.112 127.98 334.887 130.981C341.58 135.187 346.703 141.7 348.333 149.523C350.05 157.767 347.997 165.825 343.3 172.733C338.357 180.003 331.472 183.483 322.955 185.052C316.239 185.094 309.521 183.978 304.021 179.782C298.147 175.3 293.3 167.923 292.495 160.506C291.583 152.098 293.258 144.107 298.769 137.474C304.084 131.075 311.302 127.873 319.406 127.198Z"/>
	<path fill="#168F00" transform="scale(1.80081 1.80081)" d="M703.278 128.585C709.817 127.606 716.03 128.996 721.648 132.505C728.543 136.813 733.038 144.276 734.682 152.156C736.236 159.603 734.124 166.594 730.144 172.861C725.635 179.96 718.978 184.02 710.899 185.851C704.835 186.815 698.419 186.055 693 182.986C686.045 179.048 681.298 172.289 679.292 164.643C677.114 156.348 678.115 149.373 682.593 142.04C687.43 134.12 694.56 130.645 703.278 128.585Z"/>
	<path fill="#168F00" transform="scale(1.80081 1.80081)" d="M764.359 139.65C771.629 139.19 778.815 141.088 784.918 145.071C792.044 149.722 796.791 156.498 798.458 164.835L798.634 165.75L798.832 166.716C800.246 173.854 798.908 182.866 794.758 188.961C789.424 196.797 781.392 201.172 772.299 202.886L765.889 202.935C757.35 202.056 749.765 197.191 744.397 190.629C739.084 184.132 736.381 175.356 737.3 166.996C737.875 161.761 739.088 156.386 742.076 151.946C747.328 144.143 755.421 141.141 764.359 139.65Z"/>
	<path fill="#168F00" transform="scale(1.80081 1.80081)" d="M275.094 246.135C274.908 241.37 273.998 236.394 274.454 231.648C275.337 222.45 280.368 213.332 287.633 207.652C293.843 202.797 302.762 200.905 310.526 202.03C318.414 203.173 326.391 208.658 331.063 215.022C336.072 221.844 337.87 231.713 336.347 239.921C334.717 248.71 329.679 255.58 322.311 260.521C319.649 262.305 317.09 263.642 314 264.552L313.183 264.801C307.611 266.392 300.485 265.654 295.186 263.479C292.51 262.38 289.801 260.86 286.871 260.647C283.086 256.431 279.239 252.286 276.587 247.235C276.17 246.44 275.886 246.497 275.094 246.135Z"/>
	<path fill="#168F00" transform="scale(1.80081 1.80081)" d="M736.743 260.394C732.445 262.822 728.404 264.897 723.555 265.952L722.75 266.121C721.388 266.418 720.131 266.543 718.736 266.56C709.664 266.674 700.347 263.375 693.856 256.87C688.016 251.016 684.883 242.576 684.968 234.343C685.053 226.161 688.71 217.793 694.612 212.171C702.05 205.086 710.639 202.546 720.75 203.01C728.138 203.349 737.084 207.663 741.952 213.151C748.73 220.79 750.652 232.562 750.046 242.443L749.804 242.782C747.953 245.426 746.64 248.384 744.874 251.085C742.561 254.622 739.841 257.541 736.743 260.394Z"/>
	<path fill="#168F00" transform="scale(1.80081 1.80081)" d="M251.484 140.649C258.409 139.488 266.731 141.721 272.5 145.455C279.149 149.759 283.637 156.02 285.346 163.756C287.266 172.446 285.864 181.774 281.019 189.273C275.523 197.78 267.133 202.515 257.43 204.556C249.281 205.329 241.291 203.384 234.539 198.677C227.845 194.01 223.113 187.168 221.867 179.028C220.58 170.619 222.693 161.728 227.614 154.806C233.176 146.983 242.188 142.211 251.484 140.649Z"/>
	<path fill="#168F00" transform="scale(1.80081 1.80081)" d="M761.214 572.482C764.798 573.252 768.202 574.387 771.504 575.979C780.744 580.432 789.014 587.951 796.171 595.203C805.75 604.907 815.519 615.917 820.007 629.034C823.272 638.577 823.448 648.409 818.877 657.561C813.581 668.162 805.706 673.901 794.594 677.582L789.869 678.635C779.447 680.377 769.225 677.922 760.659 671.774C754.339 667.239 748.107 659.143 746.975 651.249L746.882 650.5C744.67 634.052 756.306 619.815 764.665 606.932C769.335 599.733 773.974 593.048 772.519 584C771.718 579.015 765.037 575.071 761.214 572.482Z"/>
	<path fill="#168F00" transform="scale(1.80081 1.80081)" d="M253.236 556.75L253.574 556.918C254.894 559.81 256.936 562.315 258.603 565.011C262.192 570.813 264.956 577.422 267.575 583.716C274.402 600.126 280.192 618.219 280.516 636.143C280.581 639.768 280.711 643.565 279.83 647.105C278.628 651.937 277.067 656.469 274.535 660.785C268.95 670.308 260.53 676.178 250 679.124C244.135 680.765 237.32 680.21 231.401 678.951C223.275 676.89 216.336 672.389 210.874 666.075C205.162 659.473 202.157 651.219 202.345 642.535C202.853 618.971 222.278 601.167 237.063 584.931C244.371 576.906 252.393 568.105 253.236 556.75Z"/>
	<path fill="#168F00" transform="scale(1.80081 1.80081)" d="M558.826 316.491C551.725 300.577 552.411 283.591 556.949 267.006C561.237 251.334 571.05 238.685 585.25 230.604C602.772 220.634 625.6 214.296 645.807 214.517C650.388 241.329 651.855 272.926 638.679 297.584C637.273 300.214 635.891 303.176 634.121 305.569C626.112 316.398 614.938 322.861 601.658 324.676C594.1 325.709 586.044 325.717 578.477 324.967C575.366 324.658 572.077 324.39 569.123 323.327C565.759 322.116 562.624 319.889 559.652 317.946L558.826 316.491Z"/>
	<path fill="#168F00" transform="scale(1.80081 1.80081)" d="M461.433 318.212C459.325 319.291 457.413 321.003 455.344 322.203C447.417 326.801 433.417 325.92 424.5 325.059C420.728 324.695 416.922 324.496 413.25 323.477C400.514 319.943 389.053 312.52 382.445 300.827C376.507 290.32 372.492 278.069 371.671 266C370.489 248.63 374.744 230.112 379.253 213.455L386.715 214.241C405.839 216.584 425.199 221.991 441.209 232.994C446.434 236.585 451.133 240.37 455.032 245.399C466.186 259.786 470.494 281.712 468.176 299.585L468.049 300.5C467.233 306.943 464.931 311.935 462.041 317.656L461.433 318.212Z"/>
	<path fill="#168F00" transform="scale(1.80081 1.80081)" d="M888.241 579.706C903.395 578.45 920.543 579.805 934.518 586.166C953.989 595.028 968.054 618.388 978.077 636.25C985.392 649.285 991.945 662.256 997.193 676.303C972.995 691.501 944.589 701.632 915.875 702.594C907.486 703.052 896.98 704.122 888.863 701.837L888 701.584C883.829 700.39 880.046 698.412 876.216 696.404C864.576 690.3 851.787 681.181 844.583 670.022C831.329 649.491 835.55 619.427 840.508 596.891C835.71 590.28 828.611 585.942 822.99 580.167C827.895 581.52 841.804 593.058 844.417 593.08C845.429 593.089 854.205 587.421 856.437 586.586C867 582.638 876.99 580.4 888.241 579.706Z"/>
	<path fill="#168F00" transform="scale(1.80081 1.80081)" d="M118.219 546.689C120.073 546.235 122.907 546.493 124.894 546.457C140.872 546.163 158.656 549.44 173.826 554.42C177.9 555.757 182.178 556.957 185.98 558.953L186.485 559.229L207.519 549.619C202.745 554.581 195.943 557.397 192.75 563.533C190.621 567.624 191.172 574.194 190.957 578.75L189.607 616.69C188.875 633.212 188.237 651.264 179.55 665.818C168.083 685.028 146.89 696.861 125.728 702.265C122.067 703.168 118.327 703.947 114.559 704.191C91.4739 705.686 67.117 695.748 46.8967 685.468C40.9587 682.448 34.8765 679.525 29.8534 675.084C29.9691 669.229 31.4419 662.926 32.3718 657.131C37.2175 626.933 46.4449 597.988 65.5968 573.75C70.6399 567.368 77.3436 561.001 84.326 556.728C94.1843 550.697 106.895 548.005 118.219 546.689Z"/>
	<path fill="#168F00" transform="scale(1.80081 1.80081)" d="M494.87 235.979L489.513 234.726C466.453 228.555 448.213 216.412 436.174 195.373C428.312 181.633 423.009 165.609 420.403 150.063C419.231 153.826 419.118 157.765 418.779 161.664C418.037 170.213 417.608 178.91 418.583 187.467C393.519 175.373 365.956 158.536 356.357 130.824C350.788 114.747 349.964 96.8265 357.554 81.2211C362.231 71.6053 369.584 64.3545 379.811 60.8338C389.467 57.5094 402.918 59.1659 411.911 63.8187C422.039 69.0585 432.229 78.1938 435.662 89.3713L436.834 93.4041C440.379 86.6174 442.553 79.254 446.092 72.4258C447.884 68.9683 449.667 65.3202 451.82 62.0793C465.203 41.9399 485.726 28.7929 508.546 21.653C509.456 21.3683 510.927 20.6729 511.811 20.665C513.504 20.6499 516.772 22.1206 518.39 22.6809C526.541 25.5037 534.552 28.7883 542.206 32.7885C565.82 45.1298 580.529 64.6285 591.624 88.2622C596.7 76.7383 607.257 67.2222 618.973 62.6165C628.399 58.9108 641.464 59.1896 650.658 63.3149C659.304 67.1946 664.454 74.4457 667.731 83.1466C669.691 88.3536 670.472 93.6464 671.223 99.1197C673.757 117.598 666.003 136.445 654.825 150.826C646.044 162.125 634.434 170.505 622.231 177.737C616.859 180.92 611.385 184.245 605.164 185.443L605.728 163.898C605.428 164.562 605.291 165.092 605.11 165.795C599.101 189.188 584.296 209.715 563.475 221.967C553.316 227.945 541.433 232.491 529.959 235.106C528.023 235.547 526.13 236.373 524.175 236.652C523.146 236.444 523.471 236.423 522.583 236.509C517.124 237.038 511.595 237.418 506.111 237.039C502.275 236.774 498.76 235.815 494.87 235.979Z"/>
	<path fill="#168F00" transform="scale(1.80081 1.80081)" d="M133.555 527.205C129.522 528.828 125.93 531.459 121.96 533.25C107.747 539.66 93.2288 540.327 78 537.521C64.6186 535.056 51.534 529.599 41.3793 520.387C39.0038 518.232 36.7288 516.162 34.944 513.475C27.8185 502.749 25.4194 491.804 27.902 479.106C30.5519 465.552 38.8987 452.984 50.4062 445.25C71.9106 430.798 96.912 430.015 121.645 434.889C117.369 431.405 112.361 429.29 107.673 426.447C92.7681 417.409 77.8102 407.456 66.8128 393.699C55.3842 379.404 47.4601 361.096 49.7682 342.44C50.9793 332.653 54.3601 323.555 59.8601 315.311C76.2244 290.784 102.873 280.828 130.562 275.456C125.871 271.567 121.583 268.213 119.831 262.125C116.841 251.738 118.655 236.256 123.927 226.801C130.401 215.19 139.039 210.627 151.403 207.108C157.191 205.461 162.926 205.117 168.895 204.648C172.237 204.386 177.308 203.883 180.234 205.74C181.894 206.793 183.345 208.939 184.494 210.518C191.507 220.158 191.606 230.67 193.865 241.868C196.166 253.275 204.93 260.445 214.206 266.57C211.344 265.852 208.735 264.626 205.964 263.647L195.69 260.332C193.332 259.485 190.972 258.128 188.52 257.638C186.009 260.992 183.536 264.831 180.663 267.861C178.382 270.266 175.682 272.032 173.434 274.578C177.303 275.056 181.249 275.162 185.088 275.804C197.33 277.852 210.249 281.92 221.007 288.167C225.688 290.885 231.099 294.228 235.068 297.926C237.513 300.203 240.266 304.252 243.504 304.934L242.575 307C243.56 307.981 246.391 308.197 246.402 308.235L245.2 308.605L245.483 308.91C249.608 313.432 252.383 318.604 255.113 324.031C261.858 337.44 265.368 350.504 264.605 365.614C264.405 369.578 263.413 373.691 263.641 377.621C262.263 380.482 261.587 383.561 260.596 386.561L254.529 403.294C253.621 405.481 249.858 410.825 249.977 412.547L249.368 413.257C246.01 417.271 243.887 422.543 240.611 426.766C229.424 441.188 210.394 455.974 191.591 457.942C184.49 458.685 177.057 458.846 170.075 457.13C161.925 455.126 154.643 451.058 146.899 447.979C158.673 457.48 170.044 466.889 185.039 470.644L157.578 501.647L133.382 526.47L133.555 527.205Z"/>
	<path fill="#168F00" transform="scale(1.80081 1.80081)" d="M793.124 304.901L793.834 304.388C797.384 301.752 800.039 297.777 803.607 294.993C819.337 282.72 838.409 277.551 857.865 275.098C851.439 271.214 845.943 266.727 841.035 261.001C831.165 266.959 821.969 270.236 811.049 273.613C808.757 274.322 806.45 275.512 804.121 275.996C806.307 274.198 808.796 272.918 811.057 271.229C816.478 267.179 821 261.133 824.309 255.277C832.477 240.82 830.955 222.527 840.389 208.331C840.897 207.567 842.16 205.482 843.067 205.129C843.8 204.844 846.06 205.065 846.987 205.05C851.899 204.969 856.795 205.143 861.686 205.64C876.261 207.124 891.102 211.673 900.478 223.5C907.366 232.188 909.67 243.218 908.25 254.118L907.644 257.5L907.489 258.235C905.858 265.467 899.345 271.145 894.561 276.425C900.48 277.544 906.397 278.282 912.25 279.767C933.361 285.122 951.854 295.863 964.223 314.171C974.154 328.87 976.517 346.601 972.984 363.761C968.302 386.503 948.513 407.884 929.571 420.341L916.791 428.436C915.177 429.44 912.222 430.957 911.134 432.497C919.989 432.296 929.302 432.537 938.008 434.374C953.637 437.673 967.553 445.487 979.064 456.427C991.811 468.542 1000.22 488.167 1000.39 505.75C1000.54 522.369 994.002 536.945 982.212 548.529C967.412 563.069 944.147 571.448 923.5 571.293C909.44 571.187 890.97 565.791 880.74 555.707L880.497 554.995C878.7 551.388 875.016 549.115 872.229 546.262L860.491 533.645C858.643 532.544 856.137 528.608 854.705 526.817C843.233 512.471 835.969 496.609 829.079 479.748C826.471 473.364 824.457 467.196 821.307 460.997C823.975 462.013 826.539 462.574 829.366 462.927C843.579 464.701 859.477 461.325 870.85 452.397C864.684 454.354 857.441 456.574 851.017 457.278C839.401 458.55 825.104 456.416 814.5 451.533C805.034 447.173 794.703 440.077 788.589 431.468C783.542 424.362 780.532 415.791 777.586 407.677C777.414 405.665 776.59 403.543 776.103 401.572L774.009 392.025L772.043 376.222C770.612 358.759 773.126 340.607 780.52 324.619C781.846 321.751 783.39 318.86 785.25 316.301C786.832 314.123 789.552 311.5 790.381 309.038C788.968 308.628 787.235 308.704 785.754 308.629L790.25 308.451C791.805 308.02 792.368 306.199 793.124 304.901Z"/>
	<path transform="scale(1.80081 1.80081)" d="M494.87 235.979C498.76 235.815 502.275 236.774 506.111 237.039C511.595 237.418 517.124 237.038 522.583 236.509C523.471 236.423 523.146 236.444 524.175 236.652C522.935 244.22 523.654 252.504 523.755 260.166C524.18 292.345 526.948 323.079 535.411 354.248C542.186 341.233 548.216 326.981 558.826 316.491L559.652 317.946C554.643 321.615 551.159 328.591 548.423 334.022C546.274 338.287 544.082 342.584 542.309 347.02C540.627 351.227 539.464 355.863 537.304 359.837L537.08 360.234L548.85 404.698C551.665 402.019 553.798 398.542 556.25 395.515L569.54 380.529C584.165 365.41 601.092 352.187 618.605 340.601C628.318 334.174 637.857 327.953 648.175 322.473C666.705 312.633 687.18 306.148 704.986 295.081C715.754 288.389 725.673 280.291 732.375 269.436C734.185 266.503 735.952 263.794 736.743 260.394C739.841 257.541 742.561 254.622 744.874 251.085C746.64 248.384 747.953 245.426 749.804 242.782L750.046 242.443C749.761 257.638 746.312 272.463 738.62 285.701C734.74 292.381 729.954 298.603 725.723 305.067L750.439 302.955C760.396 302.316 770.069 302.428 780 303.303C784.385 303.69 788.833 303.863 793.124 304.901C792.368 306.199 791.805 308.02 790.25 308.451L785.754 308.629C787.235 308.704 788.968 308.628 790.381 309.038C789.552 311.5 786.832 314.123 785.25 316.301C783.39 318.86 781.846 321.751 780.52 324.619C773.126 340.607 770.612 358.759 772.043 376.222L774.009 392.025L776.103 401.572C776.59 403.543 777.414 405.665 777.586 407.677C780.532 415.791 783.542 424.362 788.589 431.468C794.703 440.077 805.034 447.173 814.5 451.533C825.104 456.416 839.401 458.55 851.017 457.278C857.441 456.574 864.684 454.354 870.85 452.397C859.477 461.325 843.579 464.701 829.366 462.927C826.539 462.574 823.975 462.013 821.307 460.997C824.457 467.196 826.471 473.364 829.079 479.748C835.969 496.609 843.233 512.471 854.705 526.817C856.137 528.608 858.643 532.544 860.491 533.645L872.229 546.262C875.016 549.115 878.7 551.388 880.497 554.995C874.222 555.123 867.824 555.133 861.576 555.683C855.197 556.245 848.795 557.58 842.432 558.417L799.721 562.716C743.493 566.145 686.515 560.83 630.794 570.396C625.105 571.372 618.857 571.694 613.75 574.575C607.864 577.897 603.929 583.986 600.548 589.641C593.274 601.806 588.578 614.18 584.742 627.767C582.87 634.399 581.524 641.121 580.205 647.877C579.623 650.863 578.779 653.981 578.448 657C578.079 660.356 578.349 663.943 578.384 667.317L578.956 687.927C581.486 737.59 591.823 786.479 616.371 830.116C622.39 840.817 631.195 849.975 639.995 858.429C657.436 875.184 676.444 888.716 696.896 901.505C713.591 911.945 730.831 921.525 748.941 929.305C767.911 937.454 787.163 943.124 806.978 948.668L807.065 949.25C804.731 950.745 801.94 950.664 799.249 950.836L782.083 951.528C758.327 951.751 734.502 950.498 711.064 946.383C693.452 943.291 676.016 938.435 658.756 933.781C638.169 928.229 617.098 920.068 595.757 918.79C592.3 918.583 586.886 917.604 584.141 920.034C583.64 923.994 585.004 927.379 586.408 931C590.498 941.547 596.842 950.161 603.568 959.107C596.421 957.35 589.809 953.792 583.134 950.81C571.922 945.802 560.518 940.75 551.001 932.815C546.49 929.054 542.92 924.433 539.249 919.893L527.598 904.761L527.561 914.623C528.742 935.349 539.728 959.807 552.406 975.922C558.264 983.369 565.209 989.877 572.257 996.179C567.581 994.716 563.54 991.633 559.5 988.956C553.247 984.812 547.019 980.633 541.458 975.569C534.612 969.335 528.052 958.762 518.57 956.624C504.047 953.35 496.806 964.881 487.031 972.834C482.369 976.626 476.905 979.71 471.822 982.903C473.547 977.011 476.703 971.631 479.401 966.149C486.439 951.853 493.046 937.815 495.183 921.873C495.689 918.096 496.528 913.611 496.148 909.835C495.993 908.294 495.464 907.651 494.264 906.75C489.104 908.904 485.477 915.447 481.913 919.555C478.736 923.216 475.063 927.022 471.339 930.123C460.177 939.416 447.761 946.669 435 953.488C430.61 955.834 426.436 958.154 421.848 960.128L435.393 937.491C438.463 931.836 441.696 926.889 439.75 920.28C437.496 917.974 432.439 915.079 429.131 914.948C424.203 914.752 417.987 916.252 413.199 917.305C393.659 921.604 375.014 928.729 356.049 934.96C344.74 938.676 333.174 942.12 321.528 944.598C293.32 950.601 263.397 951.797 234.631 950.876C228.401 950.677 221.313 950.815 215.25 949.31C216.351 947.476 219.036 947.119 221.018 946.664C242.944 941.627 264.886 933.921 285.5 924.953C292.713 921.815 299.403 918.157 306.37 914.562C325.357 904.765 343.227 893.712 360.105 880.627C374.293 869.627 387.646 857.908 398.601 843.55C405.435 834.592 410.783 824.546 415.667 814.417C435.129 774.046 444.711 727.918 445.662 683.269C445.838 674.988 446.442 665.543 445.219 657.402C443.144 643.586 439.255 629.53 434.69 616.364C429.951 602.693 424.334 589.402 416.126 577.404C411.53 570.687 407.655 565.624 401.036 560.75C392.674 554.593 381.703 550.888 371.977 547.463C355.383 541.618 338.194 537.137 320.75 534.679C284.319 529.546 246.777 532.828 210.077 530.873C200.986 530.389 193.159 527.657 184.337 526.196C174.911 524.634 165.154 524.847 155.642 525.296C148.213 525.647 140.91 526.024 133.555 527.205L133.382 526.47L157.578 501.647L185.039 470.644C170.044 466.889 158.673 457.48 146.899 447.979C154.643 451.058 161.925 455.126 170.075 457.13C177.057 458.846 184.49 458.685 191.591 457.942C210.394 455.974 229.424 441.188 240.611 426.766C243.887 422.543 246.01 417.271 249.368 413.257L249.977 412.547C249.858 410.825 253.621 405.481 254.529 403.294L260.596 386.561C261.587 383.561 262.263 380.482 263.641 377.621C263.413 373.691 264.405 369.578 264.605 365.614C265.368 350.504 261.858 337.44 255.113 324.031C252.383 318.604 249.608 313.432 245.483 308.91L245.2 308.605L246.402 308.235C246.391 308.197 243.56 307.981 242.575 307L243.504 304.934C247.364 303.355 253.308 303.358 257.484 303.24L294.784 303.916C291.917 299.923 288.79 295.848 286.43 291.536C279.069 278.085 274.479 261.454 275.094 246.135C275.886 246.497 276.17 246.44 276.587 247.235C279.239 252.286 283.086 256.431 286.871 260.647C289.09 264.934 291.204 269.334 294.037 273.257C309.159 294.203 333.353 302.478 355.81 312.705C368.399 318.438 380.9 324.849 392.746 331.998C413.16 344.317 431.311 358.966 448.218 375.729C456.92 384.356 465.114 393.003 472.577 402.75L473.387 402.913C475.034 400.203 475.492 397.018 476.361 394C478.925 385.104 481.679 376.255 483.295 367.115C483.626 365.24 484.485 361.698 483.927 359.934C481.536 352.379 477.635 344.515 474.036 337.463C470.717 330.957 466.839 323.206 461.433 318.212L462.041 317.656C469.237 322.952 473.491 331.149 478.161 338.595C481.209 343.454 484.599 348.059 486.372 353.571L486.584 354.254C488.083 349.395 488.902 344.371 489.962 339.405C497.247 305.293 496.049 270.605 494.87 235.979Z"/>
	<path fill="white" transform="scale(1.80081 1.80081)" d="M157.578 501.647L185.039 470.644C170.044 466.889 158.673 457.48 146.899 447.979C154.643 451.058 161.925 455.126 170.075 457.13C177.057 458.846 184.49 458.685 191.591 457.942C210.394 455.974 229.424 441.188 240.611 426.766C243.887 422.543 246.01 417.271 249.368 413.257L249.977 412.547C255.973 415.14 261.285 418.825 265.66 423.705C268.192 426.529 269.455 429.562 271.522 432.626L287.951 456.891C293.183 463.977 298.729 470.98 304.631 477.514C309.517 482.923 314.876 488.071 319.536 493.656L289.835 497.892L265.5 502.515C245.209 505.747 225.107 507.544 204.551 507.534C188.896 507.526 172.564 506.527 157.578 501.647Z"/>
	<path fill="white" transform="scale(1.80081 1.80081)" d="M777.586 407.677C780.532 415.791 783.542 424.362 788.589 431.468C794.703 440.077 805.034 447.173 814.5 451.533C825.104 456.416 839.401 458.55 851.017 457.278C857.441 456.574 864.684 454.354 870.85 452.397C859.477 461.325 843.579 464.701 829.366 462.927C826.539 462.574 823.975 462.013 821.307 460.997C824.457 467.196 826.471 473.364 829.079 479.748C835.969 496.609 843.233 512.471 854.705 526.817C856.137 528.608 858.643 532.544 860.491 533.645C856.398 535.762 852.129 536.665 847.646 537.574C835.897 539.957 824.039 539.769 812.111 539.693C794.64 539.581 776.945 538.905 759.614 536.54C735.63 533.267 712.152 527.589 687.978 525.403C693.385 517.466 699.787 510.116 705.618 502.472L732.741 464.189L747.687 439.17C751.053 432.993 754.127 425.576 758.683 420.194C763.701 414.266 770.942 411.267 777.586 407.677Z"/>
	<path fill="white" transform="scale(1.80081 1.80081)" d="M246.402 308.235C261.949 309.248 276.959 310.1 292.154 313.875C309.033 318.069 325.19 325.341 340.411 333.642C369.571 349.546 396.73 370.151 418.717 395.159C443.714 423.593 463.243 457.382 469.02 495.25C470.659 505.991 470.645 517.041 470.598 527.884L470.212 551.252C470.16 552.03 470.153 551.85 469.924 552.797C449.366 531.328 424.004 518.168 398.531 503.609C375.311 490.338 352.079 476.713 331.429 459.596C319.553 449.751 308.847 438.652 298.81 426.954L284.757 408.981C282.325 405.647 279.621 402.446 277.991 398.624L278.125 397.874C278.908 393.342 278.693 388.81 279.112 384.25C279.913 375.542 282.465 366.572 288.057 359.75C286.826 359.075 285.65 359.416 284.305 359.779C276.088 361.997 267.721 369.919 263.796 377.297L263.641 377.621C263.413 373.691 264.405 369.578 264.605 365.614C265.368 350.504 261.858 337.44 255.113 324.031C252.383 318.604 249.608 313.432 245.483 308.91L245.2 308.605L246.402 308.235Z"/>
	<path fill="white" transform="scale(1.80081 1.80081)" d="M774.009 392.025C768.941 391.906 763.202 392.126 758.257 393.263C758.054 393.31 757.828 393.522 757.65 393.413C757.546 393.35 756.939 391.226 756.808 390.828C755.683 387.415 754.578 384.288 752.881 381.093C749.985 375.643 745.425 369.469 740.359 365.902C737.295 363.744 733.583 362.107 730.283 360.307C730.803 361.952 731.835 363.466 732.553 365.047C733.561 367.266 734.195 369.695 734.836 372.041C736.811 379.27 737.844 386.082 738.637 393.532C738.906 396.056 739.511 399.224 738.905 401.686C738.206 404.524 736.484 407.569 735.223 410.211C726.832 427.8 713.591 442.483 699.772 455.981C689.475 466.039 679.069 475.356 667.483 483.944C665.133 485.687 662.516 487.045 660.075 488.654L640.808 500.592C624.698 509.626 607.036 516.189 590.5 524.484C576.271 531.621 561.108 540.025 552.962 554.271L551.598 511.768C552.994 458.478 584.731 412.352 622.252 376.959C634.245 365.647 647.546 355.712 661.358 346.75C684.614 331.66 709.778 318.717 737 312.596C753.058 308.986 769.363 308.087 785.754 308.629C787.235 308.704 788.968 308.628 790.381 309.038C789.552 311.5 786.832 314.123 785.25 316.301C783.39 318.86 781.846 321.751 780.52 324.619C773.126 340.607 770.612 358.759 772.043 376.222L774.009 392.025Z"/>
</svg>
