<?xml version="1.0" encoding="utf-8" ?>
<svg xmlns="http://www.w3.org/2000/svg" xmlns:xlink="http://www.w3.org/1999/xlink" width="1844" height="1844">
	<path fill="white" transform="scale(1.80081 1.80081)" d="M-0 -0L1024 0L1024 1024L-0 1024L0 -0Z"/>
	<path fill="#274C30" transform="scale(1.80081 1.80081)" d="M604.611 261.691L604.735 262.107C605.169 263.621 605.316 264.974 605.365 266.544L606 267.255C607.162 266.785 606.187 267.259 606.97 266.7C608.187 265.829 610.514 265.81 611.983 265.754C607.181 269.519 604.012 275.291 599.915 279.837C601.488 276.939 603.521 273.765 604.262 270.557C604.871 267.922 604.595 264.398 604.611 261.691Z"/>
	<path fill="#37722F" transform="scale(1.80081 1.80081)" d="M292.868 275.75L294.471 275.587C297.314 275.465 304.96 276.433 306.883 278.508C307.593 279.274 307.316 279.543 307.25 280.52L305.75 281.443L305.188 281.505C302.156 281.815 297.317 282.57 294.566 280.961C292.858 279.961 292.187 278.037 291.666 276.25L292.868 275.75Z"/>
	<path fill="#37722F" transform="scale(1.80081 1.80081)" d="M325.794 555.579C331.461 560.513 335.708 566.103 340.418 571.892C337.895 571.246 335.907 570.689 333.429 571.734L325.468 564.009C326.444 561.665 325.874 558.114 325.794 555.579Z"/>
	<path fill="#508547" transform="scale(1.80081 1.80081)" d="M456.781 203.75C457.45 203.592 458.055 203.435 458.75 203.511C462.319 203.904 465.635 205.95 467.905 208.652C470.356 211.571 472.63 216.36 472.25 220.185C471.065 220.656 469.983 220.157 468.817 219.814L468 219.567C466.738 219.197 465.675 218.794 464.598 218.007C459.699 214.428 457.654 209.518 456.781 203.75Z"/>
	<path fill="#033C01" transform="scale(1.80081 1.80081)" d="M831.063 495.585C837.257 495.441 842.553 496.471 848.845 495.388C844.021 498.322 839.328 501.075 834.14 503.333C830.71 504.493 826.91 505.593 823.25 505.404C821.777 505.328 820.361 505.327 819.333 504.25C822.394 500.308 826.497 497.491 831.063 495.585Z"/>
	<path fill="#033C01" transform="scale(1.80081 1.80081)" d="M398.814 242.25L399.957 242.116C402.46 243.055 404.362 244.336 405.955 246.53C407.547 248.724 408.258 250.552 407.863 253.25C406.286 256.184 404.059 257.841 401.25 259.539C400.395 259.797 400.732 259.767 399.665 259.703C397.639 259.582 395.963 258.449 394.709 256.911C393.246 255.118 392.207 252.865 392.554 250.52C393.048 247.176 396.208 244.074 398.814 242.25Z"/>
	<path fill="#033C01" transform="scale(1.80081 1.80081)" d="M392.632 204.75L393.381 204.844C393.463 206.53 393.45 208.401 394.048 210C395.399 213.619 398.525 217.948 398.625 221.859C398.737 226.24 395.975 229.431 393.196 232.46C391.022 230.582 388.368 228.31 387.589 225.439C385.514 217.793 388.913 211.145 392.632 204.75Z"/>
	<path fill="#529335" transform="scale(1.80081 1.80081)" d="M210.003 364.25L210.958 364.523C210.065 366.219 205.204 368.088 203.277 368.797C198.852 370.422 193.553 370.849 188.891 371.539C182.515 372.483 175.605 374.101 169.178 373.397C165.378 372.98 162.211 371.588 158.798 369.995L154.596 367.614L185.866 367.079C193.868 366.668 202.036 365.187 210.003 364.25Z"/>
	<path fill="#033C01" transform="scale(1.80081 1.80081)" d="M373.019 336.25C374.119 336.111 374.072 335.975 375.158 336.54C378.634 338.349 382.611 342.315 383.75 346.067C383.708 347.982 382.686 349.495 381.596 351.021C379.547 353.891 377.753 355.495 374.25 356.059L372.25 356.046C369.389 355.644 366.569 351.856 364.839 349.648C363.641 348.118 363.241 347.199 363.476 345.25C365.785 341.766 369.73 338.826 373.019 336.25Z"/>
	<path fill="#529335" transform="scale(1.80081 1.80081)" d="M323.031 282.591L323.859 282.551C331.253 282.217 343.048 283.736 348.682 288.908L348.5 289.38L328.377 290.073C325.914 290.329 323.535 290.747 321.239 291.716C318.381 292.922 315.145 294.927 312.019 295.061C310.202 295.139 309.466 294.551 308.25 293.374C307.571 291.702 307.407 291.08 307.784 289.316C310.473 285.2 318.427 283.585 323.031 282.591Z"/>
	<path fill="#033C01" transform="scale(1.80081 1.80081)" d="M546.283 205.25L546.785 205.157C549.694 204.855 553.186 208.487 555.265 210.248C557.06 211.769 559.265 213.23 559.48 215.75C558.411 220.09 554.981 222.905 551.361 225.25L549.5 225.807C545.424 223.488 541.38 219.195 538.479 215.526L540.008 211.5C541.308 208.582 543.255 206.366 546.283 205.25Z"/>
	<path fill="#37722F" transform="scale(1.80081 1.80081)" d="M705.777 223.682C706.741 225.67 707.574 227.889 708.025 230.059C708.46 232.154 709.541 237.204 708.399 238.864C703.514 245.965 696.261 251.061 687.824 252.558L684.25 252.277L684.019 251.5C688.273 247.495 692.014 243.178 695.359 238.384C698.837 233.4 701.764 228.276 705.777 223.682Z"/>
	<path fill="#274C30" transform="scale(1.80081 1.80081)" d="M681.352 502.984L684.25 502.988C686.355 503.366 688.115 505.951 689.513 507.439C691.808 509.886 694.12 511.911 696.11 514.655C692.429 518.006 688.95 520.613 683.882 521.243C681.8 521.082 679.904 520.685 677.957 519.906C672.839 517.861 671.092 514.066 668.985 509.385C672.774 506.529 676.953 504.696 681.352 502.984Z"/>
	<path fill="#033C01" transform="scale(1.80081 1.80081)" d="M184.934 380.163L188 380.038C190.749 380.162 193.076 381.61 194.793 383.703C196.181 385.395 196.916 387.038 196.421 389.25C195.747 392.268 192.591 395.515 190.056 397.123C186.834 399.168 184.034 398.83 180.444 398.079C174.567 395.404 169.734 389.378 166.935 383.661L168.671 383.534C174.421 383.546 179.264 381.091 184.934 380.163Z"/>
	<path fill="#529335" transform="scale(1.80081 1.80081)" d="M285.727 426.328C288.238 435.246 293.903 441.345 293.001 451.25C292.619 455.436 290.001 459.352 286.875 462.014C286.196 462.592 285.802 462.32 284.95 462.25C280.807 458.454 277.878 453.045 277.247 447.44C276.369 439.639 281.172 432.179 285.727 426.328Z"/>
	<path fill="#274C30" transform="scale(1.80081 1.80081)" d="M243.944 344.936L243.64 343.295L242.25 343.286L242.25 342.605C246.44 337.736 250.234 333.243 256.378 330.771C261.659 328.647 271.355 327.623 277 328.581C279.885 329.071 282.885 330.472 285.592 331.57C283.133 333.036 280.511 334.123 278 335.483C275.222 336.987 272.771 338.73 269.75 339.782C265.466 341.272 260.946 341.929 256.554 343.011C252.276 342.873 248.063 345.302 243.944 344.936Z"/>
	<path fill="#274C30" transform="scale(1.80081 1.80081)" d="M256.347 378.25C257.803 379.206 257.645 381.144 257.828 382.819C258.235 386.553 258.543 390.458 257.835 394.176C256.728 399.997 254.31 405.38 253.483 411.331C252.806 416.204 253.116 420.366 254.13 425.19L250.458 421.198C245.901 415.066 242.024 408.473 243.173 400.516C244.332 392.499 250.042 383.159 256.347 378.25Z"/>
	<path fill="#274C30" transform="scale(1.80081 1.80081)" d="M424.745 241.25L425.182 241.272C426.047 243.727 424.73 248.984 424.588 251.75C424.352 256.33 424.316 261.104 424.595 265.683C425.033 272.884 427.443 279.739 428.619 286.812C429.148 289.989 429.145 293.235 429.156 296.448L422.824 291.49C419.489 288.799 417.148 285.641 415.431 281.74C413.24 276.76 412.626 269.961 414.324 264.712C415.611 260.735 418.031 257.085 419.792 253.306L424.745 241.25Z"/>
	<path fill="#529335" transform="scale(1.80081 1.80081)" d="M324.089 564.022C321.025 562.201 317.618 560.069 314.339 558.692C305.764 555.091 294.943 552.619 287.986 546.04C285.844 544.014 285.455 535.807 285.346 532.902C289.567 534.461 293.957 536.786 297.466 539.607C299.378 541.145 301.421 543.298 303.549 544.43C305.592 545.517 308.132 546.025 310.313 546.817C316.202 548.956 321.246 551.099 325.794 555.579C325.874 558.114 326.444 561.665 325.468 564.009L324.582 563.948L324.089 564.022Z"/>
	<defs>
		<linearGradient id="gradient_0" gradientUnits="userSpaceOnUse" x1="286.30524" y1="545.06757" x2="314.34421" y2="574.42438">
			<stop offset="0" stop-color="#4B8531"/>
			<stop offset="1" stop-color="#689C48"/>
		</linearGradient>
	</defs>
	<path fill="url(#gradient_0)" transform="scale(1.80081 1.80081)" d="M304.55 568.664L304.116 568.382C299.469 568.482 294.444 566.989 290.039 565.544C283.876 563.522 279.086 557.644 276.257 551.966C282.855 552.5 289.31 553.332 295.747 554.933L312.93 559.995C315.345 560.62 317.601 561.382 319.852 562.471C320.954 563.004 322.454 564.117 323.661 564.094L324.089 564.022L324.582 563.948C324.13 565.066 323.563 565.814 322.834 566.748C321.688 568.215 321.114 569.172 319.5 570.233C318.774 569.64 318.565 569.265 318.25 568.386C317.286 568.588 317.214 568.506 316.44 569.201C315.593 569.962 315.951 569.675 315.086 570.276C311.586 569.898 307.924 569.702 304.55 568.664Z"/>
	<path fill="#529335" transform="scale(1.80081 1.80081)" d="M545.352 153.75L546.035 154.516C546.233 168.77 537.914 176.845 530.061 187.64C523.574 196.557 527.758 205.371 529.343 215L528.75 215.591L527.582 213.846C523.116 206.947 521.343 201.234 521.275 193C521.23 187.522 521.838 182.379 524.303 177.396C525.785 174.399 528.611 171.728 530.822 169.221L545.352 153.75Z"/>
	<path fill="#529335" transform="scale(1.80081 1.80081)" d="M404.368 488.326C407.999 491.191 411.827 494.327 414.116 498.403C415.875 501.535 416.487 505.269 415.5 508.75C414.327 512.884 411.349 514.548 408.33 517.25C406.803 518.617 405.487 520.329 403.644 521.286L402.75 521.717L402.955 522.75L403.985 525.25L403.5 525.564C399.92 520.656 394.159 514.329 393.861 508C393.456 499.383 398.974 494.148 404.368 488.326Z"/>
	<path fill="#274C30" transform="scale(1.80081 1.80081)" d="M647.037 586.25C652.136 585.314 658.944 587.172 663.464 589.624C669.282 592.78 673.393 599.367 674.705 605.744C675.696 610.56 675.679 615.475 677.002 620.25C679.094 627.804 682.244 633.396 687.565 639.165C689.35 641.1 690.995 642.935 693.326 644.233L699.435 647.91C682.78 644.161 673.925 633.2 668.678 617.648C666.993 612.652 665.879 607.25 663.266 602.627C659.62 596.179 653.132 590.374 647.037 586.25Z"/>
	<path fill="#274C30" transform="scale(1.80081 1.80081)" d="M791.667 335.616C793.092 341.923 797.532 347.353 798.291 353.834C799.402 363.32 791.06 371.214 785.571 378.006C782.842 374.882 780.109 370.36 778.788 366.422C776.673 360.111 777.804 353.59 781.809 348.296C785.295 343.689 788.949 340.951 791.667 335.616Z"/>
	<path fill="#274C30" transform="scale(1.80081 1.80081)" d="M282.172 226.511C287.222 229.63 291.961 233.147 295.718 237.799C302.397 246.067 305.861 256.48 311.714 265.265C314.423 269.33 318.118 272.892 321.474 276.431C317.842 276.268 313.219 276.053 310.038 274.154C306.146 271.832 302.184 267.837 299.296 264.381C289.949 253.193 285.353 240.526 282.172 226.511Z"/>
	<path fill="#274C30" transform="scale(1.80081 1.80081)" d="M567.518 179.06C572.516 178.742 574.752 181.072 578.828 183.498C581.444 185.055 584.238 186.314 586.994 187.599C582.85 191.767 580.228 199.078 575.386 202.296C574.194 203.087 572.353 203.303 570.968 203.585C562.346 202.869 558.041 198.766 551.478 193.836C553.718 190.073 556.507 188.074 559.689 185.25C562.322 182.913 564.331 180.684 567.518 179.06Z"/>
	<path fill="#37722F" transform="scale(1.80081 1.80081)" d="M609.999 201.6C613.947 201.734 618.05 202.644 621.946 203.273C618.648 206.672 616.227 210.857 612.756 214.03C608.653 217.78 602.828 219.998 598.094 222.9C595.915 224.236 593.975 225.911 591.868 227.35C588.907 229.375 585.637 231.102 582.56 232.955L573.107 237.579C575.836 230.351 579.175 224.613 585.405 219.873C591.014 215.606 594.845 208.976 600.553 205.048C603.341 203.129 606.721 202.235 609.999 201.6Z"/>
	<path fill="#033C01" transform="scale(1.80081 1.80081)" d="M397.802 386.15L398.813 386.065C404.052 385.668 412.312 385.182 416.456 389.05C421.302 393.572 422.206 400.829 422.594 407.066L415.296 407.164C411.136 407.764 406.283 409.476 402.125 408.034C395.776 405.834 392.616 393.599 389.739 387.992L397.802 386.15Z"/>
	<path fill="#033C01" transform="scale(1.80081 1.80081)" d="M840.618 457.63C852.164 457.067 857.792 467.449 866.855 472.39L867.443 472.695C862.394 474.387 858.346 476.615 853.855 479.457L851.306 480.595C848.612 481.676 844.237 483.06 841.486 481.714C835.633 478.85 831.842 467.908 829.616 462.267C833.147 459.425 836.212 458.305 840.618 457.63Z"/>
	<path fill="#529335" transform="scale(1.80081 1.80081)" d="M567.864 566.779C571.054 567.606 574.626 568.863 577.192 570.967C580.563 573.73 583.629 578.551 584.023 582.951C584.626 589.698 580.57 595.788 576.458 600.75C575.036 602.467 574.521 603.38 574.122 605.633L574.023 606.25L573.752 606.468C572.086 605.403 570.818 603.186 569.385 601.75C567.422 599.781 565.11 598.121 563.05 596.25C559.962 593.445 557.931 589.261 557.883 585.077C557.794 577.316 562.809 571.991 567.864 566.779Z"/>
	<path fill="#033C01" transform="scale(1.80081 1.80081)" d="M722.862 194.576L727.643 200.376C734.586 209.512 736.394 217.242 736.498 228.501C736.531 232.019 736.656 235.615 736.161 239.106L736.028 240C734.806 248.618 726.928 258.66 721.392 265.104C719.882 266.903 717.686 269.313 715.675 270.507C717.276 267.558 719.111 264.546 720.339 261.423C725.11 249.289 724.159 237.755 721.987 225.17C721.095 220.002 719.911 214.772 720.048 209.5C720.179 204.472 721.624 199.417 722.862 194.576Z"/>
	<path fill="#274C30" transform="scale(1.80081 1.80081)" d="M230.811 512.711C233.263 512.248 236.793 513.142 239.156 513.882C243.693 515.304 247.916 517.754 252.114 519.951C264.825 526.603 275.472 533.121 282.489 546.112C280.764 546.766 278.58 547.857 276.779 548.118C274.755 548.41 271.817 547.11 269.784 546.72C266.237 546.041 262.361 546.052 258.75 545.875L257.25 545.26L266.789 544.221C261.48 538.275 255.199 534.77 248.309 530.993C236.492 524.515 225.045 519.826 212.31 515.437L230.811 512.711Z"/>
	<path fill="#529335" transform="scale(1.80081 1.80081)" d="M352.595 297.065C355.191 296.889 358.129 296.735 360.579 297.694L361.25 297.977L364.103 299.354C373.893 305.255 375.045 317.373 377.448 327.474L368.586 325.907L367.973 325.861C362.229 325.994 353.111 326.416 347.827 324.27C345.216 323.21 343.223 321.52 342.184 318.856C340.62 314.846 339.403 305.806 341.671 301.972C343.273 299.261 349.645 297.768 352.595 297.065Z"/>
	<path fill="#033C01" transform="scale(1.80081 1.80081)" d="M322.576 245.682C331.311 247.24 342.448 247.788 349.507 253.757C357.399 260.429 357.215 273.756 358.051 283.34C349.303 280.049 338.815 280.159 331.297 274.001C323.233 267.396 323.31 255.116 322.576 245.682Z"/>
	<path fill="#274C30" transform="scale(1.80081 1.80081)" d="M200.676 535.167C208.854 533.645 219.209 536.235 226.904 538.855C217.545 544.842 207.535 547.811 197.135 551.211C189.638 553.662 182.358 556.732 174.69 558.665C164.221 561.304 152.564 561.609 141.88 560.356C133.048 559.404 124.307 558.426 115.719 556.019C119.4 555.984 123.103 556.718 126.79 556.899C132.412 557.174 138.003 556.788 143.555 555.877C152 554.491 161.311 551.188 169 547.448C179.602 542.291 188.766 536.885 200.676 535.167Z"/>
	<path fill="#033C01" transform="scale(1.80081 1.80081)" d="M481.365 137.743C482.738 139.258 483.885 141.651 485.022 143.395C487.433 147.094 490.186 150.684 493.556 153.569C498.547 157.842 505.363 159.986 510.117 164.32C512.052 166.084 512.046 167.728 512.042 170.195C512.035 175.26 511.335 180.45 510.906 185.505C510.764 187.168 510.897 190.722 509.75 191.881L508.72 190.956L488.772 179.581C483.916 176.57 477.558 170.619 476.338 164.87C474.414 155.803 476.429 145.535 481.365 137.743Z"/>
	<path fill="#033C01" transform="scale(1.80081 1.80081)" d="M604.611 261.691C603.71 252.497 599.517 239.082 605.696 231.157C608.61 227.42 614.108 224.719 617.923 221.881C620.853 219.701 623.527 216.984 625.989 214.286C629.24 225.922 637.112 239.15 630.027 250.866C626.393 256.877 617.772 261.859 611.983 265.754C610.514 265.81 608.187 265.829 606.97 266.7C606.187 267.259 607.162 266.785 606 267.255L605.365 266.544C605.316 264.974 605.169 263.621 604.735 262.107L604.611 261.691Z"/>
	<path fill="#033C01" transform="scale(1.80081 1.80081)" d="M576.614 242.567L579 242.494L583.594 249.932C586.651 255.451 590.018 263.374 587.972 269.75C586.253 275.106 582.081 279.946 576.829 282.127C571.788 284.22 566.559 284.715 561.591 287.303L560.957 287.639C558.951 289.216 557.386 291.623 555.808 293.625C556.503 291.172 557.45 288.721 557.561 286.153C557.762 281.488 556.375 277.107 555.641 272.553C554.618 266.206 555.531 259.939 559.02 254.431C563.011 248.129 569.517 244.265 576.614 242.567Z"/>
	<path fill="#033C01" transform="scale(1.80081 1.80081)" d="M474.309 229.954C480.6 233.388 487.521 239.188 491.148 245.398C495.556 252.945 495.114 262.055 491.709 269.925C490.478 272.771 488.577 275.539 487.882 278.574L487.75 279.235C487.197 281.938 487.859 284.417 488.268 287.091C489.15 292.846 488.254 299.243 485.351 304.351C484.648 305.587 483.691 307.172 482.25 307.57C481.758 305.968 482.633 304.439 483.163 302.928C487.08 291.767 483.624 284.529 477.103 275.437C474.669 272.296 472.196 269.243 469.111 266.708C458.579 258.053 444.8 253.223 434.199 244.717C445.321 248.705 454.905 254.848 465.415 260.042L465.238 259.208C463.379 250.28 469.399 237.465 474.309 229.954Z"/>
	<path fill="#033C01" transform="scale(1.80081 1.80081)" d="M448.097 275.107L452.76 275.135C458.525 275.591 464.036 278.845 467.568 283.412C473.635 291.26 471.628 301.828 470.309 310.75L468.879 323.621L463.131 321.403C457.496 320.123 451.496 317.854 446.354 315.214C441.976 312.967 438.842 308.972 437.394 304.29C435.313 297.569 437.71 286.164 441.069 280.137C442.751 277.119 444.861 275.973 448.097 275.107Z"/>
	<path fill="#033C01" transform="scale(1.80081 1.80081)" d="M623.784 585.693C629.918 585.332 635.562 586.533 641.534 587.71C641.567 596.421 642.108 610.483 636.885 617.767C632.053 624.506 624.858 627.523 616.937 628.855C610.63 629.733 604.335 629.603 597.989 629.47C597.705 618.86 598.356 601.538 605.622 593.25C610.2 588.028 617.162 586.288 623.784 585.693Z"/>
	<path fill="#033C01" transform="scale(1.80081 1.80081)" d="M307.56 431.374L319.775 433.126C328.613 434.443 337.208 439.011 342.478 446.376C346.55 452.065 347.95 459.482 346.727 466.357L346.602 467L340.517 491.384L340.442 493L339.75 493.575C329.574 492.171 317.664 488.047 310.351 480.547C300.09 470.023 304.18 457.033 306.398 444.466C307.174 440.07 307.524 435.835 307.56 431.374Z"/>
	<path fill="#033C01" transform="scale(1.80081 1.80081)" d="M324.582 563.948L325.468 564.009L333.429 571.734C335.907 570.689 337.895 571.246 340.418 571.892C346.826 578.616 350.819 584.496 352.657 593.75C354.204 601.544 353.975 609.637 353.914 617.545C342.394 617.45 325.734 618.31 315.944 611.592C309.213 606.973 305.925 599.711 304.705 591.845C303.885 586.562 303.648 580.956 303.51 575.62C303.448 573.198 303.079 570.715 304.55 568.664C307.924 569.702 311.586 569.898 315.086 570.276C315.951 569.675 315.593 569.962 316.44 569.201C317.214 568.506 317.286 568.588 318.25 568.386C318.565 569.265 318.774 569.64 319.5 570.233C321.114 569.172 321.688 568.215 322.834 566.748C323.563 565.814 324.13 565.066 324.582 563.948Z"/>
	<path fill="#508547" transform="scale(1.80081 1.80081)" d="M324.582 563.948L325.468 564.009L333.429 571.734C327.536 572.187 320.984 570.782 315.086 570.276C315.951 569.675 315.593 569.962 316.44 569.201C317.214 568.506 317.286 568.588 318.25 568.386C318.565 569.265 318.774 569.64 319.5 570.233C321.114 569.172 321.688 568.215 322.834 566.748C323.563 565.814 324.13 565.066 324.582 563.948Z"/>
	<path fill="#033C01" transform="scale(1.80081 1.80081)" d="M154.776 406.36L155.872 406.459C159.801 406.942 163.762 407.876 167.67 408.558C177.584 410.288 188.81 411.586 195.22 420.362C200.849 428.067 201.167 439.635 201.497 448.817C201.621 452.274 202.062 456.081 201.512 459.5L200.122 460.25C194.089 461.421 188.2 462.092 182.059 461.196L181.25 461.07C174.863 460.124 168.139 457.673 163.489 453.015C151.828 441.334 154.721 421.505 154.776 406.36Z"/>
	<path fill="#033C01" transform="scale(1.80081 1.80081)" d="M398.981 176.489C409.756 176.474 422.625 176.457 432.761 180.234C439.495 182.744 446.179 187.41 449.06 194.26C451.246 199.458 452.301 206.392 451.154 211.951C450.143 216.847 447.65 221.764 445.737 226.378L443.874 231.348C430.694 230.834 419.195 230.455 409.286 220.421C397.975 208.967 398.94 191.322 398.981 176.489Z"/>
	<path fill="#033C01" transform="scale(1.80081 1.80081)" d="M303.968 360.666C307.981 360.241 312.605 360.203 316.535 361.197L317.5 361.447C321.04 362.333 324.67 363.591 327.75 365.598C334.257 369.841 336.983 376.764 338.623 384C340.815 393.673 339.902 405.031 339.18 414.875L325.877 414.364C316.397 413.659 308.166 413.014 299.906 407.856C298.016 406.676 295.978 405.444 294.51 403.75C284.985 392.761 288.868 377.872 289.684 364.644C294.337 362.723 298.994 361.415 303.968 360.666Z"/>
	<path fill="#274C30" transform="scale(1.80081 1.80081)" d="M813.571 413.204C825.603 413.571 837.006 416.011 847.848 421.385C858.97 426.898 869.332 435.509 878.602 443.73C885.135 449.523 891.45 455.624 898.711 460.497C888.903 460.691 880.24 458.639 872.48 452.382C867.764 448.579 863.695 443.944 859.101 439.987C851.648 433.569 843.989 429.311 834.84 425.695C831.258 424.279 827.449 422.725 823.65 422.001C804.775 418.404 784.2 422.759 767.143 431.17C763.898 432.77 760.764 434.171 757.757 436.213C747.53 443.422 740.962 453.038 732.951 462.366C723.934 472.865 712.762 479.802 700.688 486.199C696.396 488.473 692.332 490.907 687.799 492.711C688.464 489.085 689.086 485.42 690.513 482C692.909 476.259 697.25 471.503 701.25 466.822C712.549 453.597 726.721 443.269 742.428 435.857C754.097 430.35 766.216 426.388 778.397 422.247C790.203 418.234 800.995 414.181 813.571 413.204Z"/>
	<path fill="#033C01" transform="scale(1.80081 1.80081)" d="M795.048 434.705C799.386 433.916 804.603 434.742 809 434.993C815.36 435.357 823.041 434.994 829 437.381C825.429 437.431 820.812 437.052 817.371 438.022C808.539 440.512 810.545 455.122 809.44 462.25C808.679 467.156 806.942 472.137 804.446 476.438C800.484 483.267 794.909 486.79 787.373 488.775C781.937 490.197 775.36 489.558 769.794 489.089L753.974 488.027C754.238 473.968 754.116 457.755 763.452 446.306C770.934 437.13 784.149 435.752 795.048 434.705Z"/>
	<path fill="#033C01" transform="scale(1.80081 1.80081)" d="M703.759 141.499C705.122 145.104 705.818 149.22 706.827 152.966C709.651 163.455 713.18 173.789 712.401 184.835C711.51 197.466 704.038 207.501 693.324 213.859C687.838 217.115 681.657 219.433 676.335 222.859C674.318 224.157 672.459 225.959 670.65 227.536L669.186 222.722C663.996 215.19 656.961 205.184 655.493 196.043L655.376 195.25C654.779 191.538 654.774 187.482 655.612 183.798C659.772 165.499 674.691 156.804 690.206 148.727C694.512 146.486 698.945 144.638 703.031 141.978L703.759 141.499Z"/>
	<path fill="#033C01" transform="scale(1.80081 1.80081)" d="M876.653 525.201C878.97 525.017 881.259 525.158 883.557 525.495C908.336 529.131 918.183 552.562 931.204 570.412C929.435 571.942 925.848 572.708 923.581 573.477C912.672 577.179 901.862 580.475 890.412 581.964C886.935 582.041 883.442 582.144 879.992 581.61C868.541 579.836 858.542 572.597 851.551 563.62C845.483 555.829 841.025 546.81 835.204 538.786C846.515 536.691 855.5 530.47 866.214 527.058C869.654 525.963 873.074 525.547 876.653 525.201Z"/>
	<path fill="#033C01" transform="scale(1.80081 1.80081)" d="M872.345 493.039L872.832 492.648C876.669 489.465 879.84 485.387 883.186 481.701C885.925 478.684 888.678 475.542 891.858 472.985C901.79 465.001 912.931 462.989 925.432 464.043C945.542 465.74 956.254 479.368 970.578 491.497L948.282 507.607C937.551 514.641 925.368 522.155 911.923 520.427L910.474 520.193L909.627 520.058C901.346 518.659 893.935 513.913 887.75 508.408C882.958 504.143 878.612 499.298 873.01 496.038L872.345 493.039Z"/>
	<path fill="#033C01" transform="scale(1.80081 1.80081)" d="M794.799 249.71C799.293 248.987 805.004 249.44 809.613 249.333C809.657 258.853 808.461 270.628 806.124 279.82C802.888 292.548 796.665 305.186 784.899 312.012C774.134 318.258 762.384 317.675 750.717 314.663L733.07 308.429C733.478 294.571 737.453 275.298 746.74 264.678C758.172 251.606 778.674 250.738 794.799 249.71Z"/>
	<path fill="#033C01" transform="scale(1.80081 1.80081)" d="M319.159 140.75C319.683 140.609 319.458 140.597 320.011 140.765C325.389 142.397 330.847 144.998 335.877 147.499C346.88 152.97 359.1 159.994 364.769 171.47C366.364 174.699 366.867 178.375 367.289 181.921C368.865 195.129 363.528 207.633 357.798 219.323C355.179 224.666 352.307 229.512 350.305 235.166L348.765 242.651C344.334 237.671 338.78 234.344 333.357 230.573C325.378 225.026 319.098 217.075 314.864 208.383C303.756 185.575 311.507 163.246 319.159 140.75Z"/>
	<path fill="#033C01" transform="scale(1.80081 1.80081)" d="M379.561 71.9716C386.291 72.1099 392.397 73.7296 398.783 75.6909C408.794 78.7653 418.083 82.8075 426.399 89.2724C437.284 97.7345 444.849 110.832 446.644 124.5C447.748 132.903 447.08 142.111 445.981 150.481L444.75 151.06L443.166 151.039C437.693 150.803 432.2 149.879 426.75 149.292C412.406 147.748 397.752 146.908 387.403 135.586C372.327 119.095 378.497 91.9846 379.561 71.9716Z"/>
	<path fill="#033C01" transform="scale(1.80081 1.80081)" d="M182.351 201.256C193.007 202.127 202.865 203.729 213.241 206.296C222.965 208.703 232.728 211.778 240.569 218.301C248.587 224.97 253.3 233.718 254.555 244C255.479 251.569 254.925 259.376 255.073 267C255.13 269.904 255.692 272.943 255.372 275.82C255.287 276.586 255.229 277.242 255.306 278.014L255.39 278.75L254.487 279.456C234.996 279.391 213.292 278.002 198.122 264.276C185.746 253.08 184.461 238.646 183.59 222.94L182.351 201.256Z"/>
	<path fill="#033C01" transform="scale(1.80081 1.80081)" d="M110.255 357.664L119.299 357.976C139.401 360.024 151.38 377.402 163.135 391.633C159.649 394.497 155.666 396.73 152.25 399.66L139.25 411.521C128.656 420.338 118.519 423.559 104.963 423.619C91.9029 422.706 79.3114 415.375 68.1971 409.093C62.5317 405.892 56.8717 402.836 51.5758 399.032C69.3712 382.526 84.0544 360.403 110.255 357.664Z"/>
	<path fill="#033C01" transform="scale(1.80081 1.80081)" d="M215.48 122.465L247.498 128.214C263.909 132.707 278.898 140.248 287.595 155.448C292.099 163.321 293.507 172.176 291.866 181.103C290.482 188.634 287.276 196.197 285.256 203.625L283.728 212.389C279.743 211.828 275.79 210.675 271.845 209.855C258.408 207.063 243.64 203.914 233.528 193.869C215.029 175.491 215.628 146.661 215.48 122.465Z"/>
	<path fill="#033C01" transform="scale(1.80081 1.80081)" d="M136.214 285.706C149.468 285.243 162.714 285.081 175.839 287.252C182.89 288.418 190.252 290.398 195.644 295.348C212.123 310.476 213.016 333.599 213.917 354.372L194.624 357.355C192.779 357.884 190.419 357.953 188.499 358.182C179.645 359.241 170.532 358.808 162.142 355.499C155.738 352.974 148.147 348.367 143.521 343.237C133.957 332.63 128.7 318.018 124.083 304.741C122.271 299.53 120.871 294.131 118.674 289.067L118.397 288.444C119.723 287.591 121.621 287.432 123.173 287.168C127.513 286.429 131.823 285.992 136.214 285.706Z"/>
	<path fill="#033C01" transform="scale(1.80081 1.80081)" d="M881.258 361.666C886.823 361.154 892.266 361.488 897.777 362.281C919.748 365.441 939.789 386.799 952.564 403.601C945.762 406.883 939.623 411.461 933.25 415.475C924.08 421.251 914.298 426.136 903.5 427.669C897.985 428.452 891.87 428.279 886.384 427.395C877 425.709 869.102 421.73 860.982 416.813C855.629 413.571 850.744 409.933 844.962 407.401C834.247 402.709 823.007 401.812 811.485 401.096C820.417 397.481 828.886 394.54 836.892 388.969C841.058 386.071 844.527 382.504 848.25 379.091C858.452 369.739 867.263 363.61 881.258 361.666Z"/>
	<path fill="#033C01" transform="scale(1.80081 1.80081)" d="M883.823 270.75L885.184 270.677L885.559 271.25C885.466 293.795 886.036 318.492 873.862 338.347C866.716 350.003 856.242 356.896 843.063 359.909C834.825 361.792 825.973 362.319 817.541 362.37C815.815 362.38 813.124 362.766 811.69 361.873L811.596 357.753C809.463 346.022 805.303 335.423 805.429 323.319C805.456 320.715 805.34 317.768 806.149 315.271C808.001 309.549 810.391 305.04 813.98 300.207C824.495 286.048 842.977 279.959 859.377 275.816C867.449 273.777 875.583 271.96 883.823 270.75Z"/>
	<path fill="#033C01" transform="scale(1.80081 1.80081)" d="M813.962 161.218L834.316 161.115L832.383 177.29C828.955 198.542 823.082 220.02 804.608 233.105C792.522 241.665 779.678 244.951 765.112 242.495L743.372 236.527C744.375 228.051 743.779 219.434 744.575 210.936C745.66 199.347 749.943 189.716 757.737 181.05C772.495 164.642 793.214 162.248 813.962 161.218Z"/>
	<path fill="#033C01" transform="scale(1.80081 1.80081)" d="M649.289 96.7128L663.616 96.5142L661.398 118.415C658.142 138.495 651.805 160.302 634.45 172.614C620.615 182.43 606.42 183.335 590.099 180.442C584.878 179.231 579.886 176.981 574.578 176.243L573.907 176.157C573.906 170.792 574.616 165.388 575.158 160.055C576.699 144.867 578.923 130.75 589.715 119.069C605.205 102.302 627.384 97.7044 649.289 96.7128Z"/>
	<path fill="#033C01" transform="scale(1.80081 1.80081)" d="M136.789 460.705C142.447 460.19 149.172 461.28 154.656 462.703C174.69 467.904 189.121 484.698 199.195 502.002C193.565 503.301 190.479 505.678 185.821 508.991L174.846 517.539C163.381 525.905 152.47 530.872 138.231 531.92C128.647 531.214 119.601 528.775 111.25 523.916C104.45 519.959 98.5537 514.596 92.5061 509.635L74.6861 495.117C84.117 489.463 91.9944 481.991 100.75 475.43C111.771 467.172 123.047 462.063 136.789 460.705Z"/>
	<path fill="#033C01" transform="scale(1.80081 1.80081)" d="M542.735 30.4947L551.853 44.1721C561.548 59.5843 570.319 79.1881 568.031 97.8177C567.206 104.536 564.759 110.981 561.59 116.931C557.19 125.191 550.805 132.85 544.844 140.062C538.385 147.875 531.641 154.953 529.359 165.126C528.223 164.483 526.766 161.397 526.006 160.191C520.452 149.457 511.911 140.306 505.308 130.202C498.872 120.355 494.194 107.761 494.061 95.9368C493.729 66.6214 524.51 49.1225 542.735 30.4947Z"/>
	<path fill="#033C01" transform="scale(1.80081 1.80081)" d="M229.492 561.213C239.626 560.671 249.977 561.8 259.75 564.524C264.819 565.938 269.471 567.844 274.675 568.871L274.634 593.266C273.242 612.184 268.033 630.796 253 643.568C235.428 658.497 212.55 661.96 190.27 660.064C183.102 659.888 175.806 658.535 168.731 657.395L143.966 653.251L149.188 638.063C155.466 620.189 163.425 602.007 176.125 587.747C179.093 584.414 182.097 580.864 185.51 577.994C197.938 567.541 213.47 562.138 229.492 561.213Z"/>
	<path fill="#033C01" transform="scale(1.80081 1.80081)" d="M761.295 556.689C769.942 556.092 778.766 556.098 787.25 557.995C790.179 558.65 792.74 559.569 795.479 560.784C804.923 564.971 813.899 570.472 821.445 577.571C841.293 596.243 852.863 624.534 862.408 649.49C862.101 649.902 820.977 660.566 815.327 661.957L800.994 664.52C780.554 667.17 758.641 662.259 742.222 649.565C726.581 637.473 718.881 620.695 716.637 601.454C715.523 591.905 715.944 581.694 722.407 573.934C731.654 562.83 747.513 558.316 761.295 556.689Z"/>
	<path transform="scale(1.80081 1.80081)" d="M256.554 343.011C241.817 361.613 232.537 381.1 227.505 404.339C225.671 412.809 224.3 421.762 225.25 430.434C227.489 450.876 240.251 469.216 256.092 481.683C265.527 489.107 277.081 494.746 288.443 498.484C279.713 486.347 267.323 477.609 258.917 465.011C254.971 459.097 252.312 453.323 253.6 446.001C256.004 432.333 271.71 420.251 282.568 412.94C276.41 421.838 267.805 429.221 264.917 440L264.755 440.586C263.282 446.312 266.418 452.597 269.378 457.331C273.685 464.221 278.995 469.725 284.598 475.53C290.02 481.149 295.412 486.769 301.447 491.751C309.813 498.659 319.164 504.321 328.78 509.305C331.437 510.682 334.281 511.584 336.978 512.863C344.635 516.492 352.682 520.3 360.897 522.436L360.733 521.884C355.585 503.993 354.129 480.749 363.425 463.985C364.702 461.681 366.944 458.06 369.405 456.995C367.955 460.813 365.954 464.503 364.852 468.422C359.991 485.707 364.2 503.812 371.436 519.838C377.96 534.289 389.62 544.46 398.24 557.546C402.766 564.416 405.369 573.153 408.577 580.722C417.118 600.875 431.804 614.375 449.53 626.498L449.96 574.742C449.976 565.837 450.307 556.761 449.425 547.894C446.812 521.631 433.57 500.861 415.429 482.481L398.85 466.693C388.763 456.559 379.56 445.423 372.19 433.146C363.333 418.395 357.543 402.148 350.647 386.452C345.298 374.278 339.747 361.557 329.93 352.229C316.994 339.938 300.288 328.348 283.831 321.219C260.763 311.226 234.316 307.488 212.566 294.643C206.844 291.264 201.23 286.461 196.199 282.11C184.922 272.359 177.895 262.269 174.404 247.652C177.166 251.977 179.764 256.535 182.974 260.539C190.818 270.324 201.238 279.069 212.438 284.812C228.535 293.066 248.007 296.978 265.658 300.863L279.114 303.803C276.617 298.773 273.157 293.889 270.916 288.811C263.974 273.074 263.774 256.144 266.812 239.486C267.699 234.623 268.742 229.311 270.386 224.652C271.11 222.6 272.317 220.68 273.428 218.817L273.664 218.86C273.253 224.506 272.07 230.144 271.979 235.792C271.867 242.656 273.015 249.154 274.284 255.864C275.293 261.197 276.194 266.909 277.814 272.074C280.223 279.753 285.249 287.642 290.455 293.726C297.304 301.731 307.134 307.508 315.534 313.789L335.887 329.888C339.911 333.122 344.501 336.255 347.794 340.261C358.414 353.18 365.048 370.168 372.173 385.198C380.851 403.503 390.542 421.092 404.376 436.093C419.892 452.919 439.816 465.737 458.362 478.978L465.794 407.85C450.559 391.738 433.168 377.829 418.263 361.38C402.395 343.869 390.448 323.575 379.857 302.567C376.777 296.456 373.426 290.457 371.092 283.997C365.699 269.064 362.149 250.507 362.61 234.667C363.351 209.236 372.926 180.628 387.949 159.982C392.113 154.26 397.453 149.756 401.761 144.195C399.33 151.901 395.259 158.825 392.477 166.391C388.436 177.383 384.403 188.82 382.067 200.318C380.431 208.37 379.976 216.815 379.978 225.015C379.98 239.434 381.847 254.748 388.575 267.737C395.795 281.674 405.858 294.98 416.808 306.232C422.391 311.969 428.437 317.108 434.36 322.468L483.353 365.462C487.58 349.818 491.924 334.329 497.595 319.133L509.085 290.292C514.27 277.14 519.724 262.417 516.961 248.051C516.033 243.224 513.572 237.699 511.14 233.442C502.942 219.094 489.225 207.123 476 197.504C460.933 186.545 444.903 177.731 431.079 164.967C426.567 160.8 422.455 157.066 419.701 151.481C425.1 155.525 430.594 158.486 436.25 162.038L459.45 177.371C472.519 185.46 485.622 193.372 498 202.5C502.157 205.566 506.494 208.584 510.319 212.066C514.246 215.642 517.726 219.702 521.187 223.72C529.388 233.244 535.675 243.25 537.533 255.909C539.146 266.893 536.258 278.142 533.079 288.574C532.146 291.635 531.54 294.806 530.538 297.838L525.993 309.644C535.648 305.101 545.697 300.285 556 297.459L593 288.954C609.396 285.705 627.476 282.931 642.49 275.329C650.606 271.22 657.944 265.094 664.197 258.547C663.597 257.415 663.075 256.345 662.641 255.139C661.542 252.085 658.931 249.125 657.232 246.303L649.263 232.456C642.404 220.513 634.739 205.99 641.104 192.043L642.435 189.292C642.408 194.29 642.234 199.104 643.375 204C645.812 214.455 653.209 223.539 660.133 231.494C665.721 237.915 671.729 245.137 678.1 250.753C680.419 252.797 683.053 254.411 685.463 256.332C689.252 259.352 692.917 262.883 696.292 266.355C705.795 276.134 714.605 287.628 720.539 299.963C723.605 306.337 725.455 313.12 727.279 319.914C732.347 338.802 733.948 358.424 733.055 377.93C732.704 385.602 730.724 392.974 730.371 400.563L753.553 394.329L806.366 378.366L846.584 362.507C841.465 368.016 835.641 372.569 829.759 377.224C810.538 392.435 789.981 404.091 767.706 414.176L750.027 421.636C740.418 426.096 730.894 431.182 722.153 437.2C708.278 446.753 696.846 457.823 686.855 471.43C680.976 479.438 676.341 488.325 669.6 495.673C666.44 499.117 662.32 502.245 658.68 505.189C653.714 509.204 646.732 512.319 641.024 515.256L613.187 529.84C605.643 533.615 596.966 536.991 590.114 541.924C597.118 546.642 606.069 549.961 613.959 552.865C624.367 556.694 635.071 560.521 646.078 562.192C654.933 563.537 664.644 563.804 673.459 562.089C684.545 559.932 694.949 555.105 704.708 549.577C717.346 542.419 729.33 534.189 737.562 521.965C743.586 513.02 745.208 501.084 745.496 490.5C745.575 487.594 744.904 483.821 746.255 481.25C748.257 483.889 748.947 488.016 749.604 491.193C751.348 499.632 753.115 509.714 751.86 518.307C750.611 526.856 744.927 531.757 740.766 538.762C745.779 537.505 749.992 534.871 754.75 533.062L778.705 525.23C794.996 520.461 811.974 517.639 828.443 513.393C837.495 511.059 846.616 508.502 855.007 504.294C861.406 501.084 866.39 496.778 872.345 493.039L873.01 496.038C866.379 505.809 859.089 513.828 848.479 519.225C837.272 524.926 824.377 527.099 812.25 529.986C798.531 533.252 784.546 536.517 771.262 541.258C758.898 545.671 747.209 550.569 735.355 556.243C721.69 562.785 707.494 571.107 692.652 574.523C682.546 576.849 671.309 577.971 660.969 576.814C639.125 574.37 618.227 562.849 599.801 551.478L587.665 543.364C581.879 545.911 577.059 549.773 572 553.502C555.132 565.934 540.512 579.736 532.37 599.5C527.442 611.462 526.528 623.936 525.943 636.687C525.261 651.573 525.546 666.38 526.466 681.25C527.807 702.917 529.651 724.366 534.212 745.639C537.104 759.126 541.357 772.528 546.708 785.236C552.633 799.307 561.36 812.633 570.822 824.526C576.191 831.273 581.517 837.756 587.894 843.611C622.545 875.429 669.816 891.56 714.991 901.312L762.794 910.09C791.299 915.282 819.982 920.79 847.861 928.763C857.289 931.459 866.736 935.242 875.992 938.547L968.058 975.695L1004.32 991.432L14.9153 991.559L53.515 970.233C75.3401 958.782 98.1241 948.645 121.161 939.943C131.02 936.219 140.775 932.371 150.884 929.33C171.839 923.028 193.492 917.034 215.018 913.006L257 906.622C286.988 901.864 317.267 895.298 344.228 880.82C349.815 877.82 355.18 874.045 360.5 870.585C368.67 865.272 376.248 858.672 383.255 851.929C394.478 841.127 404.797 828.978 412.196 815.184C419.926 800.769 424.838 785.004 428.193 769.054C429.889 760.988 430.785 752.706 431.574 744.506C432.393 735.993 435.927 683.271 433.289 679.483L424.937 666.856C418.222 657.438 409.101 647.136 400.173 639.799C398.611 638.515 396.826 637.097 394.744 636.88C391.897 636.584 388.664 637.085 385.8 637.248L372.901 637.555L344.299 636.429C336.532 636.327 328.494 637.068 320.75 637.777C321.453 636.863 325.195 636.585 326.5 636.385C340.667 634.215 355.097 633.934 369.374 632.877C376.475 632.351 385.842 632.804 392.367 629.823C393.972 629.09 395.135 628.228 395.75 626.602C392.57 620.354 388.326 614.533 384.973 608.302C379.463 598.065 375.094 587.51 368.37 577.909C364.758 572.751 360.008 568.199 355.405 563.932C338.762 548.507 319.675 537.869 298.752 529.351C284.568 523.576 271.511 517.12 258.616 508.853C254.631 506.298 250.436 503.907 246.75 500.922C227.091 485.001 211.889 462.747 209.245 437.049C207.726 422.285 210.73 407.204 215.225 393.217C217.393 386.471 219.955 379.482 223.443 373.299C229.107 363.259 236.725 353.907 243.944 344.936C248.063 345.302 252.276 342.873 256.554 343.011Z"/>
	<path fill="white" transform="scale(1.80081 1.80081)" d="M677.678 269.75L678.774 269.53C681.321 271.147 683.382 273.804 685.424 276.008C691.159 282.201 697.538 289.238 701.683 296.647C704.059 300.892 706.73 305.631 708.284 310.227C712.668 323.191 713.622 337.246 713.604 350.836C713.589 361.574 713.162 371.618 710.125 382C707.441 391.172 702.847 400.756 696.869 408.219C689.979 416.821 680.634 422.819 672.214 429.757C666.913 434.124 661.92 439.139 656.94 443.883C651.882 448.701 647.078 454.006 642.505 459.285C637.121 465.502 632.082 471.774 624.698 475.702C618.812 478.832 612.442 481.056 606.281 483.582C582.211 493.45 557.146 500.555 534.205 512.953L512.475 527.855C511.385 513.767 512.363 499.043 512.441 484.901L513.064 447C513.269 437.276 513.213 427.449 514.4 417.786C516.582 400.028 521.444 380.285 530.449 364.696C533.483 359.444 537.613 354.502 541.654 349.995C555.495 334.557 573.016 322.679 592.399 315.226C608.412 309.068 625.296 305.768 640.591 297.796C654.304 290.648 665.553 279.151 677.678 269.75Z"/>
	<path fill="#033C01" transform="scale(1.80081 1.80081)" d="M668.85 293.596C671.297 293.496 674.105 293.245 676.516 293.631C680.569 294.279 684.954 296.937 688.347 299.127C682.841 306.338 680.116 314.484 670.723 317.421C667.342 318.069 665.248 317.912 662.265 316.158C659.089 314.291 652.446 309.279 651.561 305.75C655.107 300.1 662.649 295.561 668.85 293.596Z"/>
	<path fill="#033C01" transform="scale(1.80081 1.80081)" d="M584.07 426.322C589.309 432.311 594.628 441.921 595.42 449.972C595.769 453.523 594.869 456.588 593.059 459.643C590.466 464.022 586.527 466.734 581.967 468.793C577.165 470.962 572.747 471.978 569.25 476.264L568.825 476.798C568.135 478.07 567.718 479.443 567.251 480.808L566.913 480.844C566.252 477.859 565.658 474.738 564.648 471.85C562.522 465.774 560.228 460.959 560.422 454.345C560.84 440.117 575.12 434.76 584.07 426.322Z"/>
	<path fill="#274C30" transform="scale(1.80081 1.80081)" d="M634.265 342.648L636.077 365.438C637.207 376.341 640.252 388.007 638.19 398.935C634.276 419.669 611.505 431.666 610.057 452.905C609.831 456.219 609.909 459.974 610.471 463.25C610.776 465.025 611.544 466.76 611.701 468.543L611.75 469.176L610.118 466.05C608.964 463.536 608.321 460.67 607.559 458.015C605.571 451.082 603.916 444.058 604.946 436.813C606.541 425.607 613.448 419.224 618.847 409.887C620.528 406.979 621.637 403.642 622.655 400.452C627.366 385.694 626.882 370.404 630.112 355.478C631.049 351.145 632.773 346.824 634.265 342.648Z"/>
	<path fill="#033C01" transform="scale(1.80081 1.80081)" d="M647.529 333.328C663.281 335.773 685.07 338.522 695.578 351.906C701.425 359.353 703.004 368.402 701.747 377.675L699.507 391.736C699.356 392.611 699.205 395.068 698.812 395.75C698.472 396.338 697.771 396.622 697.25 397.057C692.856 399.302 685.638 399.674 680.688 399.332C670.897 398.656 661.205 395.517 654.626 387.871C640.492 371.446 645.881 352.893 647.529 333.328Z"/>
	<path fill="#033C01" transform="scale(1.80081 1.80081)" d="M590.584 338.187C599.332 337.216 609.559 338.516 618.169 340.148L615.763 359.226C614.348 370.024 612.717 381.468 604.853 389.646C595.773 399.089 583.977 401.259 571.436 401.472C561.863 400.89 552.804 399.295 543.418 397.35C547.239 383.474 546.782 369.105 556.023 357.082C565.291 345.025 575.712 340.068 590.584 338.187Z"/>
</svg>
