<?xml version="1.0" encoding="utf-8" ?>
<svg xmlns="http://www.w3.org/2000/svg" xmlns:xlink="http://www.w3.org/1999/xlink" width="1844" height="1844">
	<path fill="white" transform="scale(1.80081 1.80081)" d="M0 95.3581L0 -0L1024 0L1024 520.638L1024 525.64L1024 537.276L1024 1024L886.727 1024L846.918 1024L504.459 1024L470.699 1024L439.671 1024L315.288 1024L310.728 1024L225.638 1024L-0 1024L0 95.3581Z"/>
	<path fill="#E8E7E8" transform="scale(1.80081 1.80081)" d="M556.886 166.23L557.659 161.25C559.379 159.715 559.343 159.378 561.75 159.419C563.083 160.408 563.752 161.595 564.599 162.981L556.886 166.23Z"/>
	<path transform="scale(1.80081 1.80081)" d="M297.033 1021.48L320.028 1021.48L320 1022.25C318.534 1022.99 317.404 1023.26 315.871 1023.74L315.288 1024L310.728 1024C307.473 1022.19 303.367 1024.35 299.999 1022.86L297.033 1021.48Z"/>
	<path fill="#1E3036" transform="scale(1.80081 1.80081)" d="M1022.09 483.732C1022.79 488.014 1022.52 492.579 1022.54 496.92L1022.53 519.686L1024 520.638L1024 525.64L1024 537.276C1023.63 537.771 1022.94 538.463 1022.7 539.006C1021.82 541.018 1022.32 544.822 1022.36 547.05L1022.64 568.842C1022.63 571.798 1023.04 575.462 1022.11 578.286L1022.09 483.732Z"/>
	<path transform="scale(1.80081 1.80081)" d="M1022.53 519.686L1024 520.638L1024 525.64L1022.77 525.276L1022.53 519.686Z"/>
	<path fill="#0D0D0F" transform="scale(1.80081 1.80081)" d="M224.987 1021.49L297.033 1021.48L299.999 1022.86C303.367 1024.35 307.473 1022.19 310.728 1024L225.638 1024C225.193 1023.06 225.111 1022.51 224.987 1021.49Z"/>
	<path transform="scale(1.80081 1.80081)" d="M713.643 139.75C713.949 139.867 714.215 140.072 714.49 140.25C714.185 143.913 714.006 147.594 713.028 151.151C711.522 156.631 709.348 162.992 703.861 165.761C699.897 167.76 694.663 166.432 690.702 165.118C689.861 164.535 689.136 163.828 688.75 162.85C687.681 160.143 689.995 154.909 691.188 152.441C693.7 147.243 697.931 143.183 703.709 141.945C706.679 141.308 709.861 141.148 712.728 140.101L713.643 139.75Z"/>
	<path transform="scale(1.80081 1.80081)" d="M408.616 309.604C411.126 309.259 413.71 309.218 416.196 309.74L417 309.917C422.236 311.028 426.95 313.225 431.561 315.905C429.028 319.193 425.887 323.45 422.382 325.678C419.73 327.365 416.781 328.177 413.802 329.073C406.427 330.736 397.909 330.69 391.402 326.606C396.51 319.566 400.436 313.284 408.616 309.604Z"/>
	<path transform="scale(1.80081 1.80081)" d="M577.043 99.0164C581.476 102.995 585.59 107.662 587.843 113.25C591.836 123.155 585.392 136.393 581.447 145.461C578.584 138.613 572.073 133.384 570.016 126.371C567.551 117.968 572.954 106.22 577.043 99.0164Z"/>
	<path transform="scale(1.80081 1.80081)" d="M785.092 354.127C789.947 358.883 798.942 369.989 798.884 377C798.822 384.466 792.308 391.101 787.25 395.788L786.268 396.586C784.977 394.239 783.134 392.584 781.398 390.586C777.616 386.233 773.154 380.167 773.276 374.125C773.457 365.184 779.01 359.744 785.092 354.127Z"/>
	<path transform="scale(1.80081 1.80081)" d="M598.636 400.63C600.778 400.555 603.436 400.314 605.497 400.964C608.584 401.939 613.09 405.416 614.48 408.386C617.867 415.627 617.041 425.104 614.457 432.466L606.622 431.836C604.494 431.385 602.685 430.711 600.744 429.748C595.343 427.067 590.436 422.423 588.669 416.475C587.821 413.621 588.173 409.193 589.68 406.619C591.703 403.163 594.936 401.685 598.636 400.63Z"/>
	<path transform="scale(1.80081 1.80081)" d="M441.091 100.019C443.593 103.079 445.551 107.375 446.923 111.063C449.19 117.155 450.882 126.429 447.903 132.473C445.118 138.123 440.213 141.494 434.4 143.411L432.75 143.384C428.794 139.213 426.022 131.84 425.963 126.098C425.839 114.117 433.344 107.885 441.091 100.019Z"/>
	<path transform="scale(1.80081 1.80081)" d="M541.875 122.75C544.58 122.09 548.707 122.382 551.345 123.254C556.779 125.052 560.525 128.805 563.12 133.793C565.81 138.963 567.174 146.086 565.256 151.75C564.149 155.016 562.34 157.132 559.236 158.626C557.747 158.827 556.345 159.003 554.876 158.579C549.428 157.005 540.706 150.824 538.032 145.682C535.694 141.186 534.428 133.527 536.167 128.639C537.122 125.955 539.4 124.013 541.875 122.75Z"/>
	<path transform="scale(1.80081 1.80081)" d="M438.665 196.183C448.317 196.802 455.275 199.228 462.922 205.303C456.477 212.287 451.99 220.219 443.732 225.304L440 226.581C436.4 227.559 431.59 226.373 428.449 224.492C425.831 222.923 421.371 219.739 421.114 216.472C420.814 212.652 425.447 205.822 427.569 202.75C430.431 198.606 433.849 196.972 438.665 196.183Z"/>
	<path transform="scale(1.80081 1.80081)" d="M241.459 542.596C244.749 542.313 252.231 542.076 255.174 543.603C257.181 544.645 258.215 546.407 258.762 548.541C260.162 553.998 258.4 559.275 255.459 563.826C251.977 569.213 248.658 572.576 242.16 574.002C237.143 574.05 231.076 574.258 226.155 573.232C224.927 572.976 224.192 572.787 223.491 571.75C224.148 565.396 224.596 556.94 228.094 551.443C231.103 546.714 236.078 543.711 241.459 542.596Z"/>
	<path transform="scale(1.80081 1.80081)" d="M258.838 188.763C265.89 191.388 273.993 191.995 280.75 195.026C287.787 198.182 292.545 204.245 295.131 211.371C297.342 217.463 297.235 221.223 294.507 227.045L294.06 227.6C292.924 228.785 291.845 228.988 290.28 229.073C283.631 229.435 275.12 226.362 270.215 221.921C261.248 213.803 259.542 200.157 258.838 188.763Z"/>
	<path transform="scale(1.80081 1.80081)" d="M426.16 380.75C426.4 381.399 425.617 383.367 425.41 384.118C424.297 388.154 423.448 392.167 422.029 396.123C419.403 403.445 416.315 411.261 408.826 414.75C403.12 417.408 393.657 418.968 387.622 416.75C386.804 416.186 386.55 415.807 386.006 415C385.481 409.54 386.715 402.423 388.869 397.379C393.493 386.556 402.441 383.797 413.328 382.961C417.499 382.64 421.686 382.569 425.61 380.981L426.16 380.75Z"/>
	<path transform="scale(1.80081 1.80081)" d="M771.825 544.212L772.266 544.159C776.994 543.836 782.69 545.167 786.212 548.413C793.677 555.295 793.916 566.644 794.54 576.099L778.375 576.515C772.284 576.241 767.368 573.744 762.956 569.557C756.588 563.513 755.524 554.762 755.278 546.403C760.234 544.933 766.653 544.773 771.825 544.212Z"/>
	<path transform="scale(1.80081 1.80081)" d="M809.165 249.75C809.531 249.763 809.976 249.93 810.333 250.024L809.001 261.328C807.408 269.563 803.863 277.242 796.598 281.936C789.401 286.586 780.997 285.932 773.028 284.162C771.588 282.835 770.888 282.359 770.756 280.25C770.334 273.49 773.642 264.854 777.921 259.699C779.936 257.27 782.173 256.137 784.951 254.858C793.045 251.133 800.382 250.467 809.165 249.75Z"/>
	<path transform="scale(1.80081 1.80081)" d="M156.296 347.229C161.885 348.592 167.174 348.879 172.765 349.865C182.179 351.524 189.305 355.3 194.722 363.365C199.388 370.313 198.945 377.47 197.41 385.275C189.17 386.517 179.281 385.829 172.162 381.079C160.371 373.211 158.906 359.965 156.296 347.229Z"/>
	<path transform="scale(1.80081 1.80081)" d="M576.799 299.211L596.404 298.955C594.141 305.585 591.88 312.845 588.541 319C584.547 326.361 580.202 330.867 572.132 333.341C569.038 334.126 566.018 334.534 562.822 334.471C559.05 334.396 555.345 334.067 552.603 331.25C552.877 322.154 552.35 313.455 558.735 306.171C564.107 300.042 569.11 299.685 576.799 299.211Z"/>
	<path transform="scale(1.80081 1.80081)" d="M841.893 454.75C842.837 454.639 842.297 454.665 843.514 454.75C841.18 464.929 841.065 480.705 832.506 487.953C825.221 494.124 814.176 493.309 805.25 492.471C804.236 492.224 803.974 491.994 803.187 491.353C802.428 484.723 802.769 473.856 806.309 468.1C813.068 457.109 830.053 457.931 841.111 454.964L841.893 454.75Z"/>
	<path transform="scale(1.80081 1.80081)" d="M263.168 338.75L263.208 338.907C262.98 347.467 264.428 355.989 264.051 364.576C263.775 370.864 260.863 376.792 256.234 381.003C250.269 386.428 241.809 386.133 234.25 385.828L233.787 385.406C232.88 384.343 232.955 381.527 232.847 380.178C232.406 374.676 231.612 368.151 232.825 362.722C235.188 352.148 244.329 344.701 254.419 341.587C256.854 340.836 260.435 340.761 262.483 339.279L263.168 338.75Z"/>
	<path transform="scale(1.80081 1.80081)" d="M675.929 611.75C676.948 611.697 677.874 612.506 678.653 613.11C683.126 616.577 686.746 621.369 691.5 624.43C692.297 624.943 694.285 626.316 695.18 626.447C696.86 626.694 701.682 624.734 703.656 624.328C713.821 622.238 723.349 622.853 732.109 628.772C740.285 634.296 741.937 645 743.731 653.941L743.413 656.25C742.665 656.577 742.07 656.849 741.25 656.949C715.575 660.092 705.013 643.027 690.458 625.992C686.062 620.846 680.974 616.244 675.929 611.75Z"/>
	<path transform="scale(1.80081 1.80081)" d="M732.384 326.197C736.865 325.646 741.247 327.059 744.906 329.629C757.8 338.684 753.794 356.002 755.975 369.223L756.094 369.912L745.417 367.476L739.406 365.684C732.062 363.049 724.328 356.339 721.09 349.099L720.861 348.545C720.545 347.793 720.347 347.152 720.225 346.339C719.389 340.721 718.914 334.971 722.666 330.305C725.41 326.891 728.324 326.541 732.384 326.197Z"/>
	<path transform="scale(1.80081 1.80081)" d="M252.766 421.121C256.785 420.811 261.528 420.521 265.288 422.177C269.154 423.88 273.024 427.025 274.422 431.13C275.31 433.734 275.46 437.252 274.23 439.745C270.154 448.01 263.623 453.161 254.999 456.132C247.476 457.695 240.479 456.902 232.951 455.971C233.402 448.61 233.38 440.017 237.032 433.388C240.644 426.829 245.783 423.303 252.766 421.121Z"/>
	<path transform="scale(1.80081 1.80081)" d="M173.151 453.278C184.415 456.385 197.363 453.792 207.74 460.131C212.486 463.031 214.493 467.782 215.65 472.982C216.505 476.824 216.613 480.999 217.041 484.922C217.142 485.853 217.638 487.967 217.459 488.75C217.363 489.168 216.986 489.467 216.75 489.825C211.228 490.577 204.716 491.364 199.183 490.647L198.25 490.519C194.837 490.076 189.328 489.321 186.59 487.196C176.144 479.091 174.861 465.37 173.151 453.278Z"/>
	<path transform="scale(1.80081 1.80081)" d="M650.407 140.187C653.508 140.409 656.689 140.717 659.671 141.632C667.801 144.126 674.205 151.95 678.027 159.186C672.425 163.083 668.063 169.117 661.571 171.79C659.259 172.742 656.569 173.08 654.115 173.508C651.142 173.573 648.118 173.728 645.191 173.104C637.767 171.52 629.774 164.45 625.598 158.25C625.485 155.622 625.96 154.869 627.642 152.808C634.116 144.871 640.176 141.281 650.407 140.187Z"/>
	<path transform="scale(1.80081 1.80081)" d="M744.299 274.324L744.42 282.25C744.15 295.69 742.039 308.253 731.643 317.653C725.651 323.072 715.295 322.647 707.75 322.408C707.024 322.086 707.01 321.885 706.577 321.25C706.489 314.444 706.471 306.889 708.277 300.279C711.241 289.432 721.867 283.338 731.657 279.534C735.711 277.959 739.914 276.926 743.689 274.692L744.299 274.324Z"/>
	<path transform="scale(1.80081 1.80081)" d="M637.604 94.25C637.95 104.203 637.502 117.699 633.617 126.963C631.166 132.807 625.756 138.024 619.879 140.318C614.051 142.594 605.456 142.433 599.75 139.953C598.082 138.109 597.204 136.273 596.928 133.776C596.445 129.408 597.699 125.283 599.248 121.257C603.358 110.577 611.447 105.672 622 102.554C627.979 100.787 633.646 99.414 637.604 94.25Z"/>
	<path transform="scale(1.80081 1.80081)" d="M1022.11 578.286C1023.04 575.462 1022.63 571.798 1022.64 568.842L1022.36 547.05C1022.32 544.822 1021.82 541.018 1022.7 539.006C1022.94 538.463 1023.63 537.771 1024 537.276L1024 1024L886.727 1024C884.787 1023.29 883.072 1022.52 881.305 1021.45L1022.66 1021.22L1022.07 1002.83C1022.09 1001.1 1021.85 998.867 1022.35 997.212L1022.54 996.75C1021.76 994.195 1022.06 990.763 1022.03 988.067L1022.01 970.455L1022.11 914.863L1022 709.361L1022.37 661.5L1022.11 578.286Z"/>
	<path transform="scale(1.80081 1.80081)" d="M360.385 139.708L364 139.981C373.339 141.607 379.596 148.065 385.075 155.203C383.842 158.23 382.443 160.45 380.084 162.732C372.478 170.089 365.682 174.26 354.912 173.988C351.912 173.396 349.058 172.846 346.28 171.501C340.923 168.909 336.414 164.798 330.89 162.577L330.267 162.341C331.257 158.104 336.498 152.252 339.364 148.936C345.206 142.177 351.739 140.3 360.385 139.708Z"/>
	<path transform="scale(1.80081 1.80081)" d="M370.16 93.25C373.217 95.7033 377.183 97.9971 380.934 99.2034C386.774 101.082 392.737 101.449 398.247 104.598C405.148 108.542 410.133 116.434 412.114 124.018C413.349 128.745 413.153 133.583 410.65 137.846C407.925 139.47 405.691 140.388 402.496 140.512C394.696 140.817 387.973 139.282 382.158 133.823C370.109 122.511 370.713 108.552 370.16 93.25Z"/>
	<path transform="scale(1.80081 1.80081)" d="M726.508 220.519C726.066 232.777 728.38 247.218 721.179 258.007C717.596 263.375 712.102 267.451 705.714 268.662C699.547 269.831 694.785 269.893 689.382 266.26L688.13 264.881C685.345 261.34 684.306 257.242 685.048 252.75C685.506 249.972 687.099 246.891 688.437 244.443C692.435 237.124 698.894 232.246 706.516 229.165C713.631 226.289 720.029 224.984 726.508 220.519Z"/>
	<path fill="#0D0D0F" transform="scale(1.80081 1.80081)" d="M439.867 1021.44L455.387 1021.52L505.066 1021.42L850.048 1021.42L871.006 1021.36C874.329 1021.35 878.02 1021.01 881.305 1021.45C883.072 1022.52 884.787 1023.29 886.727 1024L846.918 1024L504.459 1024L470.699 1024L439.671 1024L315.288 1024L315.871 1023.74C317.404 1023.26 318.534 1022.99 320 1022.25L320.028 1021.48L439.867 1021.44Z"/>
	<path transform="scale(1.80081 1.80081)" d="M505.578 107.75L507.005 107.408L507.532 108.25C504.991 120.607 503.738 134.829 494.114 143.983C485.027 152.626 474.115 155.291 461.82 155.036C458.963 146.915 458.113 136.011 461.526 128C466.836 115.536 477.531 112.263 489.993 110.795C495.112 110.192 500.161 109.975 504.99 107.997L505.578 107.75Z"/>
	<path transform="scale(1.80081 1.80081)" d="M765.358 293.164C768.567 292.989 771.915 292.898 775.078 293.57C783.399 295.337 791.187 300.107 795.892 307.321C800.336 314.137 801.499 321.296 803.498 329C803.823 330.254 804.953 332.708 804.701 333.899L786.878 333.834C780.279 333.219 774.138 333.119 768.113 330.033C755.612 323.632 750.068 310.77 745.931 298.039C752.032 295.218 758.767 294.21 765.358 293.164Z"/>
	<path transform="scale(1.80081 1.80081)" d="M722.056 169.75L722.659 169.709C721.144 179.375 718.509 191.037 713.449 199.501C708.851 207.191 701.951 214.647 692.87 216.714C686.236 218.225 679.424 217.541 673.651 213.864L673.468 213.665L673.022 213.191C669.756 209.657 668.695 206.75 668.951 202.01C669.229 196.851 671.362 191.423 674.383 187.265C684.32 173.586 699.109 174.452 714.166 172.218C716.757 171.834 720.06 171.582 722.056 169.75Z"/>
	<path transform="scale(1.80081 1.80081)" d="M882.178 364.679C886.867 364.374 892.184 364.947 896.75 366.046C902.914 367.529 909.563 370.793 915.987 369.631L916.753 369.484L917.032 369.773C915.075 373.976 913.903 378.373 912.037 382.509C907.355 392.884 901.605 399.257 890.947 403.21C884.886 404.667 878.014 404.781 872.144 402.436C864.868 399.529 859.422 392.777 856.513 385.777C857.294 381.852 859.329 378.597 861.803 375.522C867.302 368.686 873.547 365.574 882.178 364.679Z"/>
	<path transform="scale(1.80081 1.80081)" d="M279.889 143.439C283.42 145.78 286.818 148.015 290.795 149.523C299.134 152.684 309.061 153.403 316.501 158.571C322.577 162.792 328.159 172.006 329.161 179.346C329.957 185.173 330.628 191.241 326.848 196.131C325.298 197.351 323.367 198.403 321.413 198.755C312.968 200.274 302.73 197.644 295.935 192.427C280.56 180.622 282.167 160.71 279.889 143.439Z"/>
	<path transform="scale(1.80081 1.80081)" d="M166.39 300.75C179.778 304.399 194.118 301.485 206.366 309.422C212.964 313.698 219.038 321.718 220.53 329.547C221.709 335.731 220.657 340.552 217.134 345.769C215.689 347.079 213.832 348.292 211.957 348.856C205.106 350.915 197 349.722 190.847 346.288C173.49 336.602 171.402 317.94 166.39 300.75Z"/>
	<path transform="scale(1.80081 1.80081)" d="M908.275 406.706C911.945 406.868 915.797 406.894 919.4 407.638C934.156 410.684 941.893 421.144 949.685 433.093C940.287 438.163 932.378 442.803 921.874 445.414C912.712 447.224 904.681 445.228 896.942 440.12C885.929 432.849 883.416 421.588 881.034 409.541C886.693 410.062 891.226 408.872 896.678 407.918C900.527 407.244 904.379 406.952 908.275 406.706Z"/>
	<path transform="scale(1.80081 1.80081)" d="M180.562 239.012C186.655 244.028 193.291 246.099 200.5 248.874C212.387 253.449 221.882 260.44 227.195 272.25C228.892 276.024 229.359 281.6 228.748 285.681L228.613 286.5C228.043 290.424 227.236 293.182 224.665 296.283C223.575 297.323 222.494 298.215 221.131 298.882C215.766 301.507 206.537 299.344 201.25 297.499C197.228 296.095 191.832 292.447 188.9 289.315C175.791 275.313 179.928 256.278 180.562 239.012Z"/>
	<path transform="scale(1.80081 1.80081)" d="M109.53 376.702C111.868 376.316 114.559 376.475 116.95 376.451C125.554 376.364 133.656 377.461 140.872 382.556C146.515 386.541 152.675 393.577 153.534 400.695C154.154 405.838 152.8 410.566 149.659 414.697C145.606 420.027 140.878 422.236 134.35 423.199C128.6 423.051 123.677 422.341 118.496 419.743C101.491 411.216 95.6939 394.219 90.1047 377.339C96.7176 377.543 102.951 377.458 109.53 376.702Z"/>
	<path transform="scale(1.80081 1.80081)" d="M806.272 183.701C807.369 199.984 811.529 217.487 803.725 232.732C799.773 240.451 791.208 246.402 783.072 248.925C776.986 250.813 768.783 251.794 763.026 248.753C758.935 243.601 757.593 236.386 757.949 229.944C758.589 218.367 765.749 206.871 775.951 201.263C783.141 197.31 791.201 194.958 798.188 190.474C801.051 188.637 803.715 185.957 806.272 183.701Z"/>
	<path transform="scale(1.80081 1.80081)" d="M869.853 303.617C870.167 307.913 869.767 312.309 869.675 316.622C869.408 329.193 869.264 341.889 861.651 352.577C856.118 360.344 847.277 365.933 837.84 367.363C831.642 368.302 826.176 367.563 821.132 363.755L820.692 363.297C816.487 358.722 816.169 352.323 816.565 346.422C817.352 334.688 826.012 321.193 837.106 316.666C845.722 313.15 855.706 312.551 864.019 308.215C866.145 307.106 868.068 305.207 869.853 303.617Z"/>
	<path transform="scale(1.80081 1.80081)" d="M462.138 32.3923C465.722 38.074 470.431 41.9236 476.544 44.7372C483.518 47.947 491.562 49.732 497.796 54.4097C505.248 60.0013 510.959 70.9561 512.287 80.1054C513.1 85.7017 513.523 95.0091 509.993 99.75C506.521 101.819 499.753 101.161 495.743 100.852C485.198 100.039 475.54 96.7961 468.536 88.4823C455.91 73.4952 460.512 50.2665 462.138 32.3923Z"/>
	<path transform="scale(1.80081 1.80081)" d="M0 95.3581C1.11883 96.1976 1.52821 96.6338 2.01255 97.9523L2.45281 1021.27L224.987 1021.49C225.111 1022.51 225.193 1023.06 225.638 1024L-0 1024L0 95.3581Z"/>
	<path transform="scale(1.80081 1.80081)" d="M276.284 244.627C281.699 244.051 287.316 243.895 292 247.09C296.446 250.122 298.573 255.085 299.396 260.256C300.928 269.88 297.334 279.653 291.801 287.39C283.43 299.098 271.114 303.683 257.385 306.026C249.679 307.147 240.835 307.893 233.194 306.054C234.178 300.758 235.998 295.568 237.599 290.426C240.327 281.669 243.419 271.317 248.687 263.75C255.661 253.733 264.023 246.777 276.284 244.627Z"/>
	<path fill="#0D0D0F" transform="scale(1.80081 1.80081)" d="M0 95.3581L0 -0L1024 0L1024 520.638L1022.53 519.686L1022.54 496.92C1022.52 492.579 1022.79 488.014 1022.09 483.732C1021.63 481.328 1022.04 477.862 1022.03 475.355L1022.19 446.926L1022.12 323.151L1022.13 130.484L1022.16 58.6166C1022.06 40.0279 1021.26 21.206 1022.33 2.6536L2.0098 2.41859L2.01255 97.9523C1.52821 96.6338 1.11883 96.1976 0 95.3581Z"/>
	<path transform="scale(1.80081 1.80081)" d="M564.599 162.981C574.053 158.602 584.659 154.558 594.852 152.342C585.735 159.095 574.676 163.148 565.147 169.265C554.25 176.261 544.151 184.099 534.925 193.208L516.015 213.261C518.15 220.236 524.37 226.622 528.44 232.671L538.329 248.705C542.611 256.203 546.488 264.231 548.629 272.635C552.048 286.057 551.403 300.064 550.735 313.75C550.288 322.92 550.052 331.587 547.469 340.478C546.629 343.368 545.273 346.081 544.231 348.902C540.565 358.828 536.51 368.573 533.429 378.684C545.88 376.081 557.732 371.019 568.128 363.726C569.907 362.478 572.66 360.812 574.017 359.11C574.83 358.09 574.902 356.15 575.494 354.914C578.189 349.286 583.582 343.18 589.734 341.421C596.924 339.366 602.45 341.113 609.072 343.83C610.367 344.362 612.671 344.973 613.75 345.804C614.222 346.168 614.259 346.304 614.527 346.75C614.146 351.272 611.438 355.371 607.99 358.25C600.544 364.466 590.977 364.729 581.89 363.704C580.837 363.585 578.319 362.978 577.38 363.181C576.605 363.349 574.434 365.238 573.72 365.749C569.202 368.979 564.871 372.638 560.117 375.513C553.553 379.483 546.416 384.124 538.966 386.119C535.765 386.977 532.23 386.917 529.149 387.871C527.187 391.247 525.117 394.484 523.705 398.14C534.343 396.777 546.776 394.25 556.25 389.066L556.483 388.359L556.798 387.441L557.039 386.619C557.871 384.449 560.925 382.11 563.092 381.415C571.88 378.594 582.216 383.39 589.638 387.714C591.339 388.704 592.962 389.761 594.448 391.057C587.036 397.43 578.856 402.008 568.762 401.382C563.266 401.04 558.522 398.601 554.079 395.533C546.368 399.246 539.117 402.741 530.746 404.836C529.163 405.232 519.922 406.027 519.619 406.229C519.279 406.456 518.467 407.956 518.206 408.366C516.546 410.976 515.241 413.81 513.893 416.589C521.056 426.484 526.389 437.064 531.918 447.927C539.653 463.123 547.781 478.786 551.08 495.656C552.744 504.168 552.595 512.998 552.64 521.629C555.383 520.014 558.07 516.758 560.439 514.551C565.283 510.036 570.252 505.619 574.794 500.794C586.643 488.209 597.524 474.003 607.957 460.215C612.116 454.72 616.53 449.482 620.374 443.75C627.729 432.78 633.871 421.293 639.781 409.506C637.398 398.156 633.009 386.063 627.919 375.596C624.236 368.024 619.954 360.738 616.688 352.965C623.035 359.359 628.023 366.83 632.964 374.334C634.865 377.221 636.29 380.384 638.565 383.008C641.943 378.49 644.472 373.665 647.302 368.813C648.979 365.937 651.073 363.213 652.039 360L652.209 359.459C652.944 356.856 652.484 353.241 652.391 350.521C652.002 339.251 650.885 326.7 647.715 315.855C646.433 311.47 644.448 307.174 642.093 303.264C636.991 294.795 626.61 289.112 617.953 284.954C610.604 286.849 602.467 287.601 595.588 283.611C588.954 279.764 584.976 271.522 583.261 264.347L580.182 250.033L580.85 250.312C585.891 252.366 591.188 252.835 596.472 253.949C606.106 255.978 613.114 261.979 617.017 271C617.956 273.171 618.651 275.521 619.314 277.787C619.487 278.379 619.813 280.147 620.132 280.588C621.428 282.382 625.921 284.584 627.88 285.692C637.646 291.217 645.726 297.286 651.207 307.338C653.22 311.03 654.572 315.232 655.901 319.212C657.527 302.106 664.033 274.976 652.144 260.594C646.661 253.962 640.63 247.786 631.75 246.413L630.942 246.279C625.625 245.467 618.97 245.794 613.784 247.366C611.832 247.957 610.033 249.048 608.149 249.825C607.502 246.361 609.785 240.557 611.753 237.702C614.617 233.547 619.781 230.989 624.655 230.208C635.252 228.511 644.732 233.438 653.074 239.413C651.54 230.97 644.152 222.413 637.218 217.676C626.004 210.014 608.221 206 594.704 206.492L593.949 207.042C590.218 209.731 586.196 211.946 582.189 214.19C572.972 219.351 563.62 223.545 552.774 221.563C551.599 221.348 549.905 220.983 549.245 219.872C547.699 217.268 548.649 211.244 549.542 208.5C551.151 203.557 554.938 198.688 559.721 196.491C566.007 193.606 574.853 195.234 581.018 197.669C583.216 198.537 591.33 203.928 592.879 203.51C608.054 199.419 624.584 200.137 638.353 208.148L646.024 212.822C645.438 209.983 644.918 207.032 643.879 204.319C642.563 200.879 640.551 197.596 638.984 194.243C636.585 189.112 634.261 183.896 631.24 179.093C626.556 182.723 622.806 184.884 616.625 183.974C609.351 182.902 602.064 178.043 597.75 172.14C597.259 171.467 596.514 170.512 596.687 169.653C597.224 166.991 600.595 164.404 602.844 163.169C607.249 160.752 614.268 160.35 619.06 161.99C624.505 163.852 628.511 168.483 632.305 172.574C644.656 185.89 655.44 201.823 662.939 218.39C668.064 229.713 671.531 241.311 673.394 253.6C674.803 262.891 674.491 272.385 674.685 281.75C675.184 305.839 674.132 329.728 671.902 353.724L667.522 392.09C684.065 386.125 701.543 374.542 712.46 360.658C714.034 358.656 715.493 356.551 716.744 354.331C717.577 352.852 718.348 350.599 719.776 349.75L720.449 350.5C720.151 353.871 718.144 357.19 716.357 360.007C714.492 362.947 712.571 366.137 710.339 368.805C706.71 373.144 702.392 377.021 698.626 381.273C690.769 390.142 683.697 398.939 674.536 406.631L665.63 414.263C664.197 415.445 663.746 416.854 663.136 418.567L663.25 419.397C666.143 420.257 668.734 419.796 671.631 419.319C681.285 417.727 690.901 413.037 699.477 408.425C712.38 401.486 724.756 392.512 736.389 383.613C741.21 379.925 745.757 375.84 750.751 372.387C746.658 378.283 741.507 382.947 736.455 387.973C720.902 403.446 704.186 418.177 684.252 427.796C679.664 430.009 674.774 432.678 670 434.37C668.056 435.059 662.694 435.768 661.294 436.918C660.744 437.369 660.014 438.777 659.609 439.41C657.265 443.075 655.894 447.098 654.143 451.044C652.153 455.533 649.83 459.636 648.532 464.413C654.482 463.03 659.561 460.625 665.08 458.119L697.363 442.129C713.791 434.285 730.116 428.067 747.308 422.162C769.771 414.446 794.228 406.204 818.25 407.557C829.754 408.205 839.996 411.396 849.763 417.467C867.241 428.33 882.138 444.243 892.524 461.97C881.179 452.479 871.948 435.255 854.75 436.523C850.685 436.823 847.236 440.029 843.75 441.872C835.346 446.316 825.361 447.408 817.453 441.25C814.415 438.885 810.324 435.74 810.082 431.577C809.918 428.762 812.667 425.597 814.564 423.736C815.836 422.487 817.222 421.639 818.75 420.739L821.368 419.172C816.337 419.497 811.248 419.692 806.284 420.619C793.097 423.081 780.125 427.346 767.219 430.999L758.613 433.525C757.827 433.781 756.444 434.056 755.885 434.629L756.492 434.736C765.969 436.483 777.41 440.649 785.312 446.202C791.643 450.651 797.276 456.613 802.256 462.497C796.567 458.94 792.178 453.643 786.502 450.026C781.412 446.782 775.869 445.485 770 444.466C757.518 442.298 744.963 442.551 732.603 445.394C723.902 447.395 715.685 450.69 708.151 455.456L708.702 455.602C714.2 457.195 718.998 460.939 724.272 463.185C726.65 461.288 729.1 458.506 731.635 456.961C736.197 454.18 742.078 453.595 747.25 454.2C752.55 454.82 756.525 457.065 759.808 461.25C765.14 468.048 767.704 479.37 767.297 487.89C755.235 487.981 741.792 489.025 732.445 479.878C728.938 476.446 727.098 472.178 723.996 468.561C719.716 463.57 712.091 460.279 706.713 456.45C702.87 457.646 698.899 460.269 695.407 462.304C686.856 467.287 678.75 472.428 671.347 479.043C653.134 495.319 638.244 515.432 621.758 533.378L568.869 587.875C560.455 597.201 551.576 607.631 545.705 618.779C543.363 623.226 540.82 627.944 539.19 632.693C534.487 646.391 533.619 660.696 532.562 675L533.25 675.843L535 675.48C536.383 673.125 536.511 669.182 537.218 666.495C538.226 662.662 539.63 658.769 540.983 655.037C542.894 649.767 545.778 645.095 548.751 640.39C558.673 624.684 572.395 611.422 590.896 606.688C598.11 604.842 605.743 604.74 612.849 602.719C619.541 600.816 624.787 597.13 629.702 592.263C632.407 589.585 635.62 586.479 637.652 583.252C640.269 579.096 641.949 574.318 640.669 569.497C638.831 562.574 633.76 554.639 630.215 548.444C629.2 546.671 627.16 544.069 626.681 542.149C638.221 547.372 648.438 558.543 656.329 568.286C662.407 560.999 668.214 552.577 672.03 543.859C675.448 536.051 677.297 527.568 678.978 519.245L683.719 489.769C684.077 486.629 683.705 483.493 683.123 480.398C682.863 479.016 682.175 476.998 682.388 475.637C682.557 474.557 683.24 474.102 684.031 473.449C684.656 472.933 684.47 473.101 685.387 472.75C688.904 474.895 691.245 477.259 693.511 480.716L688.908 534.447L733.329 517.151L753.664 510.025C770.163 504.073 788.585 496.301 806.406 496.977C810.045 497.115 813.83 498.084 817.426 498.724C836.86 502.183 857.001 508.928 874.832 517.439L877.388 518.766L850.354 515.095C838.938 513.312 827.629 510.859 816.034 510.439C799.695 509.848 783.557 515.083 768.343 520.457L751.501 526.359L814.958 534.389L815.236 534.068C819.866 528.956 828.898 524.315 835.75 523.993C843.385 523.635 850.145 526.128 855.694 531.412C859.691 535.22 863.462 539.541 866.333 544.269C856.912 550.221 847.209 556.874 835.531 554.301C828.153 552.676 822.91 547.102 818.147 541.592C816.775 540.005 815.176 537.48 813.132 536.794C805.364 534.186 793.945 535.363 785.76 535.374C759.462 535.407 732.665 535.105 707.12 542.296C700.863 544.057 694.317 546.082 688.779 549.579C677.766 556.532 672.537 569.815 666.522 580.78C664.405 584.64 661.354 588.811 660.122 593L660.5 593.501C667.186 593.089 673.679 589.612 680 587.516C688.064 584.841 696.502 582.588 704.914 581.375C711.879 580.371 718.878 579.648 725.923 579.671L750.5 580.496L793.566 579.52L814.927 579.266C819.674 579.086 824.69 579.062 829.387 578.335C833.361 577.72 837.25 576.492 841.224 575.805C844.823 575.183 849.264 575.265 852.911 575.541C860.595 576.121 868.63 579.639 874.369 584.724C881.747 591.263 884.826 600.52 887.311 609.737C888.317 613.47 889.533 617.345 889.758 621.224C874.659 623.757 859.791 622.157 847.123 612.936C840.874 608.387 836.615 601.619 832.038 595.539C829.972 592.794 827.456 590.105 824.161 588.903C819.62 587.247 813.826 587.865 809.062 588.043C799.453 588.403 789.776 588.961 780.25 590.318L768.242 592.185C770.809 594.887 774.449 596.929 777.249 599.543C785.313 607.075 790.933 617.028 793.84 627.666C794.491 630.047 794.74 632.523 795.258 634.933C796.082 638.766 795.573 643.088 795.42 646.995L795.248 647.161C789.079 629.717 776.582 614.266 759.581 606.271C732.325 593.453 700.26 595.677 672.55 605.984C671.913 606.22 671.429 606.562 670.919 607C671.449 607.779 671.962 608.202 672.725 608.75C670.858 609.341 669.636 607.216 667.25 608.14C664.522 609.195 661.868 610.97 659.227 612.276C649.992 616.843 640.79 622.378 632.705 628.804C627.757 632.735 623.317 637.281 618.616 641.484C615.768 644.029 612.272 646.069 609.721 648.898C612.673 647.649 615.62 645.678 618.611 644.71C630.506 640.863 646.369 641.296 657.927 645.96C664.171 648.48 669.397 653.457 671.931 659.715C674.689 666.525 674.439 674.883 671.288 681.56C670.58 683.059 669.596 684.434 668.644 685.786C658.041 681.033 649.545 677.182 645.239 665.592C643.326 660.442 644.648 654.805 646.954 650.027L648.656 646.943C631.811 642.173 616.056 647.627 601.311 655.756C591.234 661.311 582.353 670.587 574.894 679.231C562.637 693.432 550.114 710.186 545.006 728.5C538.002 753.608 539.367 778.762 540.865 804.463C542.284 828.797 544.387 854.431 550.837 878.011C553.944 889.375 558.371 900.139 564.161 910.408C577.986 934.932 603.623 947.146 629.712 954.261C649.055 959.536 669.109 962.78 688.829 966.392L703.118 968.938C706.439 969.484 709.913 969.746 713.019 971.094C700.571 970.237 688.27 971.259 675.801 970.909C659.225 970.443 642.508 968.541 626 966.976L579.674 961.582C566.054 959.609 552.06 956.995 538.355 956.062C540.232 960.558 543.027 966.362 546.144 970.124C550.909 975.874 558.114 980.19 564.934 983.043C570.633 985.427 578.045 987.151 584.148 988.045C588.732 988.716 593.535 988.642 597.925 990.276C594.753 990.394 591.732 989.959 588.582 989.874C570.25 989.379 550.276 986.432 534.118 977.061C526.266 972.507 518.935 966.413 511.94 960.638C511.079 959.927 508.778 957.604 508.398 957.676C507.891 957.771 505.417 960.21 504.884 960.661L491.591 971.548C467.618 989.618 432.084 991.888 403.153 990.237C407.692 989.318 412.297 989.249 416.835 988.45C433.06 985.594 453.537 979.514 463.375 965.175C465.502 962.075 467.583 958.767 469.089 955.316L437.003 959.91C388.581 966.607 338.914 975.008 289.954 969.769L347.216 960.71C364.258 957.218 381.697 953.44 396.985 944.764C404.813 940.321 412.712 933.447 418.334 926.404C425.43 917.517 430.19 908.16 434.527 897.752C447.782 865.944 450.817 831.73 453.216 797.718C454.847 774.59 456.096 750.232 453.325 727.176C451.553 712.423 449.949 697.733 445.678 683.448C443.708 676.858 441.329 670.117 437.388 664.419C431.416 655.784 423.19 648.856 414.994 642.425C405.423 634.915 394.847 628.816 384.359 622.709C374.831 617.16 363.914 610.274 353.093 607.86C347.317 610.25 328.801 619.042 326.596 624.727C325.752 626.902 326.793 629.727 328.065 631.496C329.606 633.638 331.711 635.237 333.382 637.25C335.723 640.069 336.803 645.065 336.33 648.641C335.374 655.878 328.843 663.421 323.096 667.565L320.495 669.322C316.199 664.772 313.209 658.251 313.416 651.888C313.587 646.658 315.803 642.473 318.154 637.986C319.643 635.145 324.472 632.025 323.119 628.75C322.934 628.303 322.799 628.211 322.5 627.906C311.571 627.802 305.676 641.047 294.956 643.311C290.733 644.204 286.381 643.689 282.164 643.052C283.035 635.134 285.826 627.668 292.16 622.519C296.402 619.072 301.01 617.889 306.375 618.569C311.441 619.211 318.434 620.771 322.135 624.371C323.669 623.699 324.663 622.03 325.854 620.848C327.318 619.394 329.052 618.152 330.726 616.955C336.724 612.666 342.797 609.62 349.384 606.402C343.102 603.817 337.042 602.256 330.476 600.573C311.332 595.665 287.654 592.614 268.867 600.416C257.888 604.975 248.431 614.821 241.741 624.476L231.329 640.55C232.492 635.545 232.541 630.694 233.337 625.665C235.597 611.376 242.979 600.451 252.179 589.662C246.469 587.136 240.643 586.889 234.5 586.491L213.25 585.481C208.049 585.325 202.329 584.468 197.25 585.62C194.13 587.802 191.779 591.531 189.443 594.519C180.12 606.441 170.534 616.33 154.75 618.048C148.386 618.741 141.879 618.189 135.493 617.937C135.339 616.263 136.339 613.92 136.685 612.227C138.497 603.34 140.235 593.751 146.169 586.535C151.756 579.743 158.496 575.921 167.085 574.31C178.778 572.116 190.734 576.893 202.468 577.077L232.717 576.95L271.718 577.556L300.614 576.752C318.419 576.778 337.686 579.478 354.569 585.247C360.899 587.409 366.772 590.401 372.959 592.887C363.273 572.638 348.777 554.128 326.988 546.48C313.15 541.623 298.092 538.163 283.5 536.539C267.716 534.782 251.854 534.794 235.996 534.511C222.656 534.272 209.182 533.806 195.856 534.697C188.417 544.28 179.712 552.94 167.04 554.673C155.34 556.274 142.485 548.742 133.653 541.759C132.918 541.177 132.378 540.654 131.791 539.934C144.694 530.919 156.373 517.191 173.822 520.34C178.103 521.113 182.458 522.492 186.107 524.897C189.096 526.866 193.305 531.097 196.708 532.015C197.707 532.285 200.652 531.696 201.83 531.597L220.437 529.764L253.954 527.663C261.195 527.374 268.582 527.571 275.772 526.628C280.574 525.998 284.794 524.596 289.199 522.617C268.872 514.024 247.241 505.505 225.288 502.452C212.848 500.723 199.924 500.715 187.416 501.611C180.003 502.143 172.178 502.83 164.911 504.405C148.867 507.884 133.35 513.868 117.4 517.687C134.115 507.804 154.793 499.633 173.809 495.846C186.266 493.365 198.984 492.572 211.66 492.485C225.9 492.388 239.609 493.501 253.474 497.079C266.443 500.426 279.109 506.793 291.423 511.984L306.936 517.713C306.066 515.706 305.206 513.457 303.925 511.679C300.787 507.325 295.42 503.711 291.092 500.602C287.387 497.94 283.306 495.421 279.979 492.312C276.977 489.507 273.611 485.593 272.077 481.75C268.632 473.12 271.057 462.304 274.325 453.958L276.152 449.703C276.914 452.07 277.64 454.547 278.842 456.733C283.091 464.459 289.179 471.36 294.052 478.708L306.074 497.191C308.343 500.632 310.394 504.27 313.14 507.368C314.884 509.337 316.913 510.733 319.25 511.908C324.242 514.416 330.107 517.435 335.75 516.902C337.791 512.857 338.279 502.218 336.822 498.056C333.745 489.27 328.197 481.382 325.227 472.445C324.481 470.2 323.53 467.808 323.297 465.447C325.465 462.498 327.69 459.986 330.345 457.467C330.891 460.976 331.601 464.643 332.92 467.953C336.637 477.281 343.471 485.41 347.586 494.582C349.749 499.404 350.804 504.629 352.582 509.592C356.266 519.873 360.975 529.863 365.831 539.632C368.335 544.671 370.7 550.405 374.406 554.689L374.933 555.304L375.261 555.662C378.168 552.834 379.878 549.689 381.965 546.259C387.234 537.6 391.3 528.526 393.735 518.658C394.449 526.21 394.634 533.636 393.436 541.164C392.512 546.966 390.808 552.592 389.356 558.276C388.634 561.101 387.374 565.244 387.845 568.146C388.426 571.719 390.898 575.101 393.088 577.883C398.443 584.683 404.719 590.983 411.388 596.499L423.725 606.877C434.171 614.969 445.847 623.14 453.747 633.931C457.338 638.836 459.86 644.32 461.976 650C462.695 651.931 465.517 663.958 466.393 664.25C468.075 661.277 466.915 655.18 466.66 651.829C465.648 638.556 464.168 624.918 461.807 611.824C461.063 607.702 460.003 603.549 458.881 599.513C455.235 586.402 451.116 573.355 442.959 562.283C431.397 546.591 416.108 534.192 401.248 521.789C396.977 518.225 392.066 515.188 388.118 511.288C382.642 505.879 378.406 499.706 373.473 493.854L352.161 468.275C347.45 462.666 342.689 456.77 337.345 451.762C327.308 442.356 315.75 434.913 303.797 428.194C271.088 409.808 231.679 402.059 194.585 407.913C202.378 411.713 208.207 415.242 213.366 422.498C210.961 428.987 207.351 433.015 200.984 435.812C195.057 438.416 188.589 437.879 182.75 435.354C176.803 432.783 173.7 430.556 167.049 433.153C157.789 436.768 154.746 447.202 147.085 452.731C147.515 449.34 148.901 446.459 150.339 443.395C156.006 431.321 165.255 422.598 175.663 414.506C183.762 408.209 192.881 401.71 202.25 397.534C222.61 388.459 247.828 390.099 269.404 392.981C281.141 394.549 293.336 396.54 304.649 400.063L329.665 408.718C324.367 400.666 316.609 396.637 309.669 390.329C296.924 378.746 286.085 365.972 276.25 351.898C274.15 348.893 271.925 346.079 270.069 342.9C268.55 340.297 267.502 337.509 266.144 334.829C265.572 333.7 265.341 332.997 265.321 331.737C267.789 333.834 269.591 338.241 271.407 341.024C273.252 343.852 275.413 346.505 277.449 349.198C290.112 365.944 310.19 379.952 329.654 387.818C327.648 375.377 324.179 363.246 321.734 350.877C317.417 329.033 314.966 306.823 315.304 284.557C315.525 269.962 316.737 255.388 321.882 241.562C325.963 230.595 333.36 219.111 340.196 209.703C346.538 200.975 354.335 193.959 362.07 186.546C363.76 184.926 366.721 181.019 369 180.601L369.456 180.049C371.764 177.303 374.592 175.055 377.181 172.595C383.009 167.056 387.654 160.134 396.5 159.448C402.275 159 407.981 159.974 412.427 163.896C413.999 165.283 415.236 166.942 416.172 168.814C410.418 175.606 402.924 182.538 393.602 183.191C387.132 183.644 382.091 181.081 377.127 177.275L376.687 178.069C373.595 183.522 368.931 188.145 364.822 192.842C360.036 198.313 355.593 203.954 351.804 210.172C358.907 208.188 364.52 204.582 371 201.371C380.592 196.617 390.811 194.865 401.25 197.28C405.061 198.162 410.357 199.582 413.724 201.639C414.871 202.34 416.075 203.714 416.226 205.097C416.585 208.389 411.803 214.724 409.564 216.881C403.448 222.771 396.135 226.502 387.5 226.152C380.081 225.85 374.262 221.277 367.748 218.393C366.145 217.683 363.293 216.408 361.57 216.363C357.698 216.261 350.885 220.583 348.055 223.026C342.848 227.523 340.036 233.774 337.559 240.028C340.162 238.496 342.823 236.748 345.621 235.6C352.233 232.886 360.434 232.901 367.25 234.681C375.188 236.754 380.115 239.482 384.426 246.75C386.189 249.721 387.569 252.919 389.031 256.043C390.161 258.46 391.501 260.628 392.12 263.261C389.062 261.449 387.664 258.529 384.968 256.46C376.362 249.853 363.034 248.481 352.732 250.968C344.926 252.853 339.466 259.223 335.596 265.852C334.458 267.802 333.207 269.835 332.526 272C331.661 274.754 331.542 277.656 331.349 280.515C330.884 287.419 331.035 294.232 332.449 301.031C333.347 305.353 334.696 309.396 335.162 313.816L335.418 313.084C338.591 304.16 343.909 298.784 350.489 292.352L350.031 291.926C347.56 289.56 345.684 286.157 345.527 282.667C345.273 277.036 348.34 270.258 352.22 266.383C355.383 263.225 358.983 262.358 363.331 262.439C366.7 262.502 370.002 263.216 372.491 265.681C373.879 267.055 374.167 268.312 374.087 270.246C373.849 276.021 371.599 284.175 367.156 288.064C363.788 291.012 359.611 291.629 356.072 294.034C354.195 295.309 352.729 297.142 351.25 298.838C349.627 300.698 347.701 302.675 346.531 304.855C342.504 312.368 340.912 322.098 339.825 330.451C339.318 334.347 339.408 338.377 339.456 342.3C339.536 348.819 339.303 355.827 343.532 361.207C346.862 365.443 351.789 368.68 355.811 372.25C358.242 374.408 360.398 377.128 363.217 378.75C361.886 379.134 361.154 378.784 359.933 378.13C357.461 376.806 355.238 374.087 353.228 372.114L344.616 364.116C349.34 372.814 354.003 381.742 360.071 389.604C362.32 385.713 362.565 381.726 364.309 377.823C365.797 374.493 366.211 370.536 366.765 366.949L369.324 343.773C372.356 308.68 387.676 277.045 412.845 252.554C422.914 252.135 433.588 253.469 443.382 250.848C439.973 259.001 435.6 266.365 430.066 273.25C426.65 277.5 422.822 281.579 417.655 283.646C413.623 285.259 408.855 285.723 404.543 285.965C401.839 286.116 395.641 285.411 393.49 286.75C391.908 287.734 390.32 291.793 389.541 293.5C381.851 310.36 379.891 329.986 379.221 348.329C382.288 346.345 383.346 344.265 385.648 341.538C390.459 335.842 398.519 335.708 405.28 337.136C408.716 337.862 413.782 339.843 416.368 342.25C416.509 344.045 416.566 344.783 415.448 346.25C411.638 351.25 405.929 355.006 399.6 355.462C396.239 355.705 392.943 355.206 389.723 354.235C388.512 353.87 384.095 351.689 383.151 351.796C382.941 351.819 380.545 354.191 380.294 354.455C377.127 357.784 376.386 386.41 376.843 392.117C377.844 404.628 379.973 417.042 382.342 429.34C385.504 445.76 389.613 463.614 397.877 478.292C402.819 487.07 409.47 494.798 417.145 501.317C421.129 504.7 425.499 507.378 430.354 509.302C428.781 500.912 425.324 492.834 423.119 484.549C420.673 475.359 419.408 465.101 416.05 456.25C412.96 448.106 406.971 440.934 400.597 435.163C397.928 432.746 395.299 430.082 392.342 428.017C389.153 425.79 385.887 423.975 382.953 421.383C395.306 425.152 405.308 431.816 414.194 441.235C416.634 443.822 419.181 446.404 420.859 449.572C426.205 459.671 429.303 471.115 433.452 481.754C435.295 486.481 437.19 492.599 440.81 496.281C447.745 483.576 450.408 464.441 445.991 450.5C445.771 449.805 445.501 449.218 445.184 448.563L439.664 450.758C435.035 444.493 430.205 439.845 431.56 431.338C432.535 425.22 435.081 419.428 437.341 413.699C442.776 417.787 450.419 424.93 451.751 431.88C452.796 437.338 449.148 444.51 446.231 448.962C447.272 451.096 448.921 452.97 449.716 455.173C452.549 463.022 452.676 472.214 452.967 480.454C453.202 487.123 453.689 493.847 454.608 500.46C455.583 507.474 458.664 514.909 460.931 521.602C461.251 512.323 461.183 502.748 462.34 493.544C463.347 485.537 465.287 477.783 467.187 469.962C471.829 450.858 477.998 431.552 487.072 414.044C487.241 413.718 489.015 410.544 488.987 410.428C488.803 409.637 486.88 407.458 486.333 406.708L478.18 395.194L468.579 381.393C456.3 361.917 444.996 338.585 441.939 315.557C440.582 305.335 441.004 294.386 441.534 284.098L441.876 284.703C444.422 289.117 447.888 292.541 451.102 296.444L462.437 310.202C462.689 301.247 465.552 292.806 468.399 284.36C474.124 267.381 481.347 251.536 489.51 235.61C492.126 230.507 495.224 225.617 498.248 220.747C498.744 219.947 500.817 217.191 500.818 216.544C500.82 214.741 485.867 198.257 483.619 195.885C468.595 180.031 450.874 167.966 431.962 157.277C426.184 154.011 419.115 152.06 413.894 148.039C445.303 155.204 476.878 170.512 499.395 193.925C501.808 188.509 502.613 182.523 503.903 176.758C507.11 162.433 509.928 148.132 511.193 133.491L512.352 110.262C514.011 113.93 514.556 118.028 515.243 121.969C517.262 133.563 517.604 144.478 517.757 156.203C517.926 169.133 518.098 182.043 516.835 194.936L536.261 179.133C542.775 174.268 549.943 170.419 556.886 166.23L564.599 162.981Z"/>
	<path fill="white" transform="scale(1.80081 1.80081)" d="M502.995 440.249C512.404 452.914 521.588 468.657 526.251 483.82C530.773 498.522 528.532 514.631 523.502 528.893C521.731 533.916 519.271 538.688 517.75 543.804C514.847 553.565 513.468 563.637 508.621 572.716L507.262 574.262L506.85 574.193C505.657 573.811 504.14 571.908 503.222 570.992C497.461 565.247 493.737 560.583 490.35 553.136C487.393 546.637 486.482 539.355 485.734 532.33C483.622 512.489 485.979 492.508 491.38 473.365C494.551 462.128 498.905 451.179 502.995 440.249Z"/>
	<path fill="white" transform="scale(1.80081 1.80081)" d="M510.103 235.355C512.662 238.823 515.527 242.002 517.973 245.568C526.23 257.602 532.872 271.151 536.15 285.407C537.312 290.46 537.278 295.575 537.18 300.728C536.728 324.548 527.738 344.931 516.554 365.493L503.747 387.967L500.944 391.009C492.152 379.92 486.516 367.53 482.877 353.861C481.467 348.567 480.105 343.155 479.59 337.69C478.296 323.958 480.777 310.782 484.038 297.522C487.734 282.491 492.747 268.054 499.602 254.156C502.764 247.746 506.519 241.542 510.103 235.355Z"/>
	<path transform="scale(1.80081 1.80081)" d="M501.026 276.881C503.648 279.611 506.922 284.111 509.983 286.103C511.59 287.148 513.576 287.538 515.293 288.365C517.242 289.303 518.865 290.835 520.25 292.477C524.71 297.765 527.744 307.34 526.965 314.25C526.702 316.58 526.569 317.42 524.75 318.913C524.11 318.901 523.474 318.888 522.853 318.709C518.531 317.461 510.708 311.998 508.598 308.042L507.115 305.096C504.024 298.637 505.397 294.053 507.637 287.666C506.959 284.452 502.874 279.777 501.026 276.881Z"/>
</svg>
