<?xml version="1.0" encoding="utf-8" ?>
<svg xmlns="http://www.w3.org/2000/svg" xmlns:xlink="http://www.w3.org/1999/xlink" width="1844" height="1844">
	<path fill="white" transform="scale(1.80081 1.80081)" d="M-0 -0L1024 0L1024 1024L-0 1024L0 -0Z"/>
	<path transform="scale(1.80081 1.80081)" d="M897.364 673.96C898.086 676.669 898.975 678.632 901.178 680.447L901.558 680.75L898.58 681.384C897.418 681.806 896.256 682.382 894.999 682.25L897.364 673.96Z"/>
	<path transform="scale(1.80081 1.80081)" d="M154.36 493.75L155.152 493.611C156.294 494.23 156.693 494.947 157.395 496C156.564 498.525 155.737 500.625 154.25 502.87L153.488 503.314C152.418 502.872 152.218 502.193 151.604 501.25C151.486 498.305 152.663 496.085 154.36 493.75Z"/>
	<path transform="scale(1.80081 1.80081)" d="M803.772 590.25C805.002 589.879 805.215 589.933 806.472 590.25C807.833 591.712 808.146 592.536 808.447 594.5C807.894 596.371 807.714 596.418 806.25 597.556C805.196 597.823 804.564 597.71 803.5 597.583C802.922 597.059 802.327 596.765 802.164 595.956C801.756 593.935 802.659 591.88 803.772 590.25Z"/>
	<path transform="scale(1.80081 1.80081)" d="M238.811 181.595C243.385 181.529 249.386 181.419 253.417 183.851C255.166 184.906 258.71 190.718 259.363 192.75L258.951 192.625C257.281 190.882 255.392 188.569 253.318 187.307C248.83 184.575 243.2 184.397 238.811 181.595Z"/>
	<path transform="scale(1.80081 1.80081)" d="M628.819 321.75C629.917 321.51 631.125 321.565 632.25 321.524C633.228 322.093 633.815 322.345 634.393 323.364C634.985 324.409 634.633 326.428 634.238 327.531C633.872 328.55 633.666 328.397 632.75 328.847C631.429 328.683 629.952 328.44 628.788 327.75C627.317 326.877 626.958 326.359 626.557 324.75C627.166 322.997 627.428 322.858 628.819 321.75Z"/>
	<path fill="#111112" transform="scale(1.80081 1.80081)" d="M777.073 182.061C779.389 181.846 781.532 182.367 783.794 182.804C781.043 184.544 777.953 185.156 775.25 186.705C772.921 188.039 771.065 191.305 769.567 193.505L767.379 197.25L766.75 197.332L766.555 196.682C765.842 193.204 770.509 186.42 772.168 183.438L777.073 182.061Z"/>
	<path transform="scale(1.80081 1.80081)" d="M180.887 617.75C182.468 617.532 184.257 617.29 185.664 618.25C186.743 618.986 187.184 619.652 187.347 620.909C186.006 623.154 184.128 624.62 182.155 626.272C181.57 626.528 180.893 626.874 180.25 626.977C178.553 627.251 177.937 626.89 176.685 625.832C176.499 624.417 176.437 623.463 176.922 622.096C177.747 619.773 178.708 618.822 180.887 617.75Z"/>
	<path fill="#111112" transform="scale(1.80081 1.80081)" d="M122.99 635.261C120.485 635.422 118.783 635.071 116.405 634.328C114.046 633.591 109.683 631.955 107.293 631.975C105.79 631.987 102.737 634.003 101.351 634.725L109.823 627.176L110.211 626.75C110.384 627.2 110.446 627.427 110.75 627.855C113.247 631.369 123.204 631.684 127.448 632.303C125.739 632.503 124.853 632.792 123.407 633.75L122.99 635.261Z"/>
	<path transform="scale(1.80081 1.80081)" d="M120.179 474.081C119.967 478.316 119.236 482.375 119.56 486.659C119.839 490.357 121.48 494.305 121.25 497.925C117.538 497.114 113.376 490.981 110.588 488.323L105.676 484.793C108.015 484.409 113.905 489.531 116.013 491.001C116.968 484.979 117.842 479.758 120.179 474.081Z"/>
	<path transform="scale(1.80081 1.80081)" d="M852.214 615.75C853.21 615.506 852.982 615.496 854.073 615.521C856.736 615.582 858.671 618.336 860.252 620.184C859.851 622.474 859.913 623.941 858.25 625.646C856.424 625.95 854.782 625.237 853.35 624.167C851.135 622.512 850.333 620.962 850.002 618.25C850.572 616.792 850.979 616.646 852.214 615.75Z"/>
	<path transform="scale(1.80081 1.80081)" d="M686.648 127.25C687.264 128.688 686.334 130.77 687.467 131.824C689.863 134.056 696.753 133.119 700.017 133.076C697.588 134.108 694.95 134.431 692.529 135.429C690.304 136.347 688.065 138.452 686.16 139.934C683.223 142.311 680.313 144.981 676.765 146.384C679.052 143.884 682.017 141.154 683.487 138.1C684.993 134.971 685.55 130.637 686.648 127.25Z"/>
	<path transform="scale(1.80081 1.80081)" d="M885.084 455.75C886.029 455.46 887.018 455.444 888 455.36C888.712 455.702 889.216 456.005 889.672 456.673C891.164 458.858 891.619 461.155 891.005 463.75C890.617 465.389 890.171 465.741 888.75 466.55C887.559 466.514 886.413 465.998 885.49 465.25C883.284 463.463 882.309 461.503 882.04 458.75C882.885 457.216 883.593 456.645 885.084 455.75Z"/>
	<path transform="scale(1.80081 1.80081)" d="M384.416 384.75C385.244 384.534 386.396 384.307 387.25 384.471C388.731 384.755 389.388 385.748 390.25 386.854C390.468 387.934 390.595 388.62 390.374 389.727C389.969 391.755 388.327 393.311 386.75 394.477L384.925 394.579C383.672 394.552 382.536 393.986 381.8 392.935C380.736 391.415 380.539 389.659 380.811 387.889C381.84 386.309 382.792 385.678 384.416 384.75Z"/>
	<path transform="scale(1.80081 1.80081)" d="M668.647 148.25L669.362 148.221C671.5 150.388 672.536 152.217 673.108 155.231L673.25 156.033C673.994 160.08 672.972 164.805 671.949 168.75L671.25 170.245L670.573 170.25C669.822 167.614 668.811 164.756 668.518 162.034C668.043 157.615 668.54 152.71 668.647 148.25Z"/>
	<path transform="scale(1.80081 1.80081)" d="M772.144 242.25L773.272 242.168C769.369 246.382 765.767 251.815 765.992 257.75C766.029 258.725 765.895 260.077 766.715 260.711C769.821 263.112 775.378 261.699 778.96 261.25L776.23 263.183L764.75 265.276C762.886 261.866 762.829 255.797 763.877 252.13C764.87 248.653 769.026 244.004 772.144 242.25Z"/>
	<path transform="scale(1.80081 1.80081)" d="M507.854 93.25C508.974 93.0321 509.903 92.9474 511.016 93.308C512.184 93.6869 513.343 94.811 513.779 95.9641C514.362 97.5091 514.207 100.226 513.534 101.75C512.818 103.372 512.352 103.754 510.75 104.443C508.95 104.123 507.274 103.677 506.063 102.187C504.703 100.514 504.526 97.7836 504.871 95.75C505.767 94.2936 506.301 93.9655 507.854 93.25Z"/>
	<path transform="scale(1.80081 1.80081)" d="M898.611 470.746C902.066 474.798 905.143 479.976 906.316 485.25C907.183 489.153 905.396 491.627 903.415 494.742C902.588 495.436 902.038 495.774 901 496.076C900.742 495.855 900.37 495.721 900.226 495.414C900.191 495.339 900.432 493.752 900.457 493.537C900.809 490.6 901.284 487.573 901.253 484.613C901.204 479.74 899.954 475.384 898.611 470.746Z"/>
	<path transform="scale(1.80081 1.80081)" d="M171.017 374.925C173.468 376.343 176.618 377.28 178.75 379.154C180.412 380.615 181.347 382.78 181.387 384.968L180.144 385.866C178.088 387.661 177.955 387.818 175.25 387.99C174.429 387.657 173.645 387.37 173.016 386.72C170.233 383.843 170.967 378.638 171.017 374.925Z"/>
	<path transform="scale(1.80081 1.80081)" d="M839.739 514.25L841.75 514.387C843.22 515.154 843.647 515.858 844.403 517.25C844.365 518.21 844.241 519.21 844.56 520.132C844.856 520.983 844.718 520.112 844.799 521.25C842.564 521.377 841.043 523.684 839.487 525.25C838.275 525.948 837.364 525.873 836.022 525.831C834.667 524.776 834.3 524.225 833.964 522.5C833.618 520.72 833.969 518.741 835.015 517.25C836.27 515.462 837.655 514.709 839.739 514.25Z"/>
	<path transform="scale(1.80081 1.80081)" d="M837.704 376.75L838.364 376.602C839.733 376.525 841.244 377.159 842.25 378.062C844.247 379.854 844.842 382.439 844.94 385C844.227 386.95 843.018 387.688 841.378 388.88C840.408 389.147 839.501 389.281 838.5 389.382C836.773 388.305 835.69 387.106 834.429 385.521C835.376 382.544 836.29 379.544 837.704 376.75Z"/>
	<path transform="scale(1.80081 1.80081)" d="M141.481 439.75C142.313 439.578 142.87 439.565 143.729 439.696C144.9 439.874 146.148 440.481 146.812 441.481C147.946 443.19 147.79 446.244 147.21 448.184C146.663 450.013 145.866 450.753 144.25 451.679C143.476 451.653 142.737 451.624 141.997 451.363C140.51 450.839 139.131 449.712 138.463 448.266C137.618 446.435 137.517 443.819 138.444 442C139.136 440.641 140.166 440.275 141.481 439.75Z"/>
	<path transform="scale(1.80081 1.80081)" d="M754.866 275.25C756.617 275.432 756.928 275.416 758.381 276.538C759.05 278.453 759.01 279.975 758.338 281.909C757.69 283.776 756.301 285.423 754.487 286.238L750.25 288.217L749 288.868L748.619 288.571C747.271 287.255 746.903 285.553 746.904 283.75C749.334 281.09 751.871 277.138 754.866 275.25Z"/>
	<path transform="scale(1.80081 1.80081)" d="M131.857 454.407C134.813 456.06 136.486 457.659 138.25 460.582C137.935 461.586 137.937 461.425 137.163 462C136.266 464.458 134.903 466.635 133.575 468.875C132.945 469.427 132.565 469.625 131.75 469.821C129.961 468.453 128.559 467.536 128.099 465.197C127.309 461.18 129.716 457.57 131.857 454.407Z"/>
	<path transform="scale(1.80081 1.80081)" d="M333.89 113.25L334.315 113.341C335.707 114.082 337.153 115.772 338.248 116.915C342.429 121.281 344.164 125.286 344.751 131.294C344.956 133.394 345.288 136.677 346.309 138.546C346.991 139.795 349.45 141.583 350.526 142.677C352.442 144.624 353.654 146.732 354.877 149.153C352.405 146.45 349.922 144.137 347.037 141.88C341.291 137.865 335.64 135.361 329.093 132.931C332.802 132.665 336.726 133.616 340.5 133.6C341.467 133.096 341.948 132.98 342.333 131.87C345.159 123.714 336.363 119.464 333.89 113.25Z"/>
	<path transform="scale(1.80081 1.80081)" d="M303.138 202.75L304.461 202.895C306.287 203.243 307.24 204.279 308.25 205.743C308.531 207.637 308.545 209.204 307.877 211.031C307.079 213.214 305.327 214.725 303.25 215.618C302.262 215.846 301.652 216.016 300.641 215.752C299.783 215.527 299.445 215.075 299.082 214.25C297.974 211.729 297.924 207.946 298.833 205.369C300.22 203.85 301.137 203.25 303.138 202.75Z"/>
	<path transform="scale(1.80081 1.80081)" d="M254.359 325.75L255.476 325.52L256.25 326.082C257.238 329.656 257.63 332.305 257.404 336C256.782 336.888 256.555 337.54 255.538 337.998C253.491 338.92 251.185 338.075 249.236 337.31C247.438 335.826 245.86 334.013 244.245 332.333C245.482 330.28 252.125 326.931 254.359 325.75Z"/>
	<path transform="scale(1.80081 1.80081)" d="M208.323 257.245C211.106 258.916 214.851 261.828 216.22 264.843C214.732 267.28 213.491 269.093 211.244 270.916C209.302 271.604 207.388 272.356 205.333 271.75C204.964 271.222 204.568 270.694 204.325 270.09C202.66 265.959 206.613 260.955 208.323 257.245Z"/>
	<path transform="scale(1.80081 1.80081)" d="M127.448 632.303C139.339 635.272 149.248 642.314 161.712 643.322C162.31 643.37 162.716 643.497 163.25 643.764C158.254 643.775 153.043 643.816 148.104 642.974C145.457 642.522 142.995 641.274 140.421 640.519C134.606 638.813 128.674 637.378 122.99 635.261L123.407 633.75C124.853 632.792 125.739 632.503 127.448 632.303Z"/>
	<path transform="scale(1.80081 1.80081)" d="M870.739 284.75L871.343 284.844C870.518 287.557 868.932 289.803 867.724 292.343C866.513 294.89 865.517 297.965 863.869 300.25C862.957 301.515 861.636 302.418 860.727 303.672C860.004 304.669 859.507 305.278 858.5 306.021C857.09 306.27 856.41 306.71 855.136 305.941L855.445 300.38L853.046 289.99C854.832 292.615 856.683 296.407 859.75 297.472C863.682 295.692 864.076 291.613 866.553 288.477C867.691 287.036 869.299 285.875 870.739 284.75Z"/>
	<path transform="scale(1.80081 1.80081)" d="M815.951 256.75C816.872 256.845 816.569 256.666 817.248 257.366C818.804 258.969 819.577 265.998 819.25 268.186C819.018 269.742 818.481 270.276 817.25 271.137C815.409 271.217 814.117 270.972 812.361 270.43C809.865 268.433 808.496 265.885 806.961 263.154L815.951 256.75Z"/>
	<path transform="scale(1.80081 1.80081)" d="M262.375 275.25C263.14 274.966 263.816 274.772 264.643 274.779C266.848 274.796 268.901 275.555 270.433 277.183C271.852 278.689 272.076 280.239 271.921 282.231C271.765 284.227 269.712 285.723 268.294 286.89L265.25 287.341C263.52 286.765 262.063 286.041 260.861 284.62C259.587 283.113 259.18 281.177 259.535 279.25C259.892 277.317 260.845 276.356 262.375 275.25Z"/>
	<path transform="scale(1.80081 1.80081)" d="M716.598 201.75L719.25 201.505C720.564 201.655 721.984 202.658 722.853 203.638C724.866 205.906 725.135 208.877 724.846 211.75C724.041 213.331 723.194 213.981 721.75 214.983C720.622 215.559 718.988 215.629 717.75 215.419C716.405 215.19 714.598 213.936 713.912 212.75C712.972 211.123 713.271 207.966 713.648 206.156C714.097 204.002 714.767 202.95 716.598 201.75Z"/>
	<path transform="scale(1.80081 1.80081)" d="M170.67 291.036C172.158 290.744 173.465 290.676 174.83 291.385C175.786 291.882 175.885 291.952 176.125 293C176.589 295.022 176.878 302.808 175.959 304.372C174.301 304.671 172.76 304.171 171.15 303.802C169.446 303.058 167.788 302.068 166.493 300.714C164.345 298.468 163.89 296.539 164.002 293.5C165.35 292.106 168.788 291.585 170.67 291.036Z"/>
	<path transform="scale(1.80081 1.80081)" d="M194.135 192.421C197.382 195.481 203.722 200.054 204.064 204.75C203.373 206.398 202.203 207.111 200.816 208.127C199.087 208.757 197.123 209.444 195.25 209.113C193.962 208.885 193.059 208.375 192.362 207.25C189.961 203.376 192.896 196.411 194.135 192.421Z"/>
	<path transform="scale(1.80081 1.80081)" d="M647.488 103.25L647.894 103.322C648.669 104.014 648.39 103.82 649.098 104.294C650.699 105.367 652.295 106.468 653.668 107.832C655.288 109.441 656.666 111.837 656.615 114.17C656.558 116.804 654.684 118.373 652.976 120.162C651.574 120.748 650.956 121.108 649.5 120.47C647.594 119.635 646.265 118.068 645.558 116.14C643.946 111.745 645.508 107.202 647.488 103.25Z"/>
	<path transform="scale(1.80081 1.80081)" d="M913.245 622.25C913.473 623.301 913.485 625.764 913.923 626.595C915.295 629.203 920.386 632.334 922.745 634.25L922.25 634.646L918.218 632.207C910.935 628.4 904.213 634.326 897.627 636.494C893.326 637.91 888.739 638.472 884.383 639.868C880.559 641.3 876.928 642.563 872.895 643.316C875.585 642.103 878.264 640.892 880.777 639.333C882.78 638.09 884.573 636.564 886.75 635.61C892.796 632.961 899.355 631.793 905.557 629.621C909.692 628.173 911.386 626.158 913.245 622.25Z"/>
	<path transform="scale(1.80081 1.80081)" d="M919.057 350.25C919.851 349.908 920.603 349.854 921.461 349.99C923.381 350.296 925.573 352.043 926.59 353.655C927.787 355.55 927.778 358.497 927.098 360.568C926.328 362.913 924.359 363.939 922.25 364.886C921.281 365 920.22 365.134 919.25 364.993C917.463 364.735 915.846 363.433 914.75 362.069C913.639 360.686 913.193 359.014 913.517 357.25C914.042 354.394 916.784 351.815 919.057 350.25Z"/>
	<path transform="scale(1.80081 1.80081)" d="M345.396 86.75C346.687 86.6846 348.203 86.8271 349.383 87.3789C351.068 88.1668 352.7 89.8793 353.309 91.6606C354.048 93.8223 353.717 96.7222 352.581 98.6802C351.284 100.915 349.777 101.408 347.351 101.972L344.357 101.325C342.159 100.524 341.064 98.6531 340.343 96.5406C339.61 94.3941 339.304 92.5737 340.43 90.5045C341.532 88.4785 343.255 87.4083 345.396 86.75Z"/>
	<path transform="scale(1.80081 1.80081)" d="M760.219 135.481C761.002 135.478 761.686 135.545 762.46 135.701C764.676 136.149 766.613 137.689 767.684 139.666C768.654 141.457 768.869 144.181 768.121 146.078C767.106 148.652 765.04 149.657 762.612 150.616C761.418 150.585 760.218 150.526 759.067 150.174C757.304 149.636 755.703 148.157 754.869 146.529C754.1 145.026 753.627 141.773 754.175 140.192C755.088 137.555 757.864 136.436 760.219 135.481Z"/>
	<path transform="scale(1.80081 1.80081)" d="M837.879 192.75C838.741 192.604 839.024 192.601 839.841 192.75C840.216 195.652 839.893 199.104 839.032 201.909C838.31 204.263 837.086 206.65 834.699 207.69C832.586 208.611 830.325 208.22 828.25 207.456C827.136 206.584 825.988 205.498 825.509 204.14C824.863 202.312 824.697 199.953 825.73 198.243C827.715 194.958 834.495 193.732 837.879 192.75Z"/>
	<path transform="scale(1.80081 1.80081)" d="M201.429 554.25C202.474 554.066 203.87 553.737 204.896 554.097C206.354 554.609 207.982 556.502 208.66 557.854C209.753 560.032 210.132 562.29 209.186 564.591C208.033 567.398 206.179 568.372 203.463 569.43C202.108 569.434 200.613 569.487 199.321 569.026C197.62 568.419 196.166 566.735 195.456 565.113C194.708 563.403 194.637 561.202 195.379 559.474C196.483 556.904 198.959 555.294 201.429 554.25Z"/>
	<path transform="scale(1.80081 1.80081)" d="M358.422 118.75C363.751 117.413 369.114 121.654 374.644 121.385C376.618 121.289 378.806 120.246 380.643 119.544C378.02 121.781 374.906 123.548 371.992 125.388C368.462 127.906 364.468 133.059 360.25 134.13C357.487 131.499 356.418 126.517 356.432 122.797C356.44 120.729 357.058 120.134 358.422 118.75Z"/>
	<path transform="scale(1.80081 1.80081)" d="M829.537 540.25C830.846 540.066 832.237 540.155 833.501 540.551C835.067 541.042 836.594 542.124 837.291 543.653C838.377 546.038 838.774 548.808 837.758 551.268C836.656 553.933 834.27 554.781 831.819 555.833C830.929 555.836 830.06 555.844 829.185 555.654C827.105 555.203 825.335 553.881 824.237 552.063C823.168 550.292 822.511 546.754 823.415 544.83C824.304 542.939 827.69 541.001 829.537 540.25Z"/>
	<path transform="scale(1.80081 1.80081)" d="M665.029 118.75L666.037 118.509C668.367 119.498 669.884 121.621 670.93 123.868C672.407 127.043 673.185 131.12 671.859 134.483C670.967 136.749 669.239 138.228 667.096 139.25C666.103 139.487 665.255 139.514 664.283 139.127C662.421 138.384 660.851 136.26 660.163 134.437C658.395 129.755 663.196 123.093 665.029 118.75Z"/>
	<path transform="scale(1.80081 1.80081)" d="M737.127 247.75C740.626 248.124 745.476 248.196 748.574 250.05C750.528 251.219 751.925 253.058 752.5 255.25C753.456 258.897 752.089 261.28 750.312 264.352C749.403 265.383 748.452 266.02 747.309 266.75C746.38 266.589 745.889 266.467 745.155 265.794C742.047 262.942 737.925 255.002 737.57 250.672C737.486 249.646 737.331 248.758 737.127 247.75Z"/>
	<path transform="scale(1.80081 1.80081)" d="M260.795 135.75C262.505 135.281 264.682 135.138 266.386 135.675C268.364 136.3 270.651 138.357 271.501 140.25C272.252 141.922 272.35 144.191 271.723 145.919C270.754 148.587 268.781 150.174 266.25 151.24C265.145 151.487 263.873 151.555 262.75 151.382C260.423 151.023 258.161 149.494 256.958 147.478C255.934 145.762 255.234 143.08 255.793 141.113C256.529 138.524 258.514 136.95 260.795 135.75Z"/>
	<path transform="scale(1.80081 1.80081)" d="M270.401 165.75C272.03 165.46 273.178 165.401 274.75 165.998C277.022 166.86 279.064 168.634 280.042 170.884C280.952 172.981 280.394 175.377 279.566 177.411C278.527 179.966 277.007 180.929 274.554 181.994C273.188 182.036 271.492 182.232 270.168 181.853C267.943 181.215 266.471 180.017 265.427 177.948C264.37 175.854 264.131 173.23 264.892 171C265.774 168.419 268.054 166.855 270.401 165.75Z"/>
	<path transform="scale(1.80081 1.80081)" d="M644.957 348.062C646.517 348.014 648.266 348.007 649.75 348.552C651.617 349.239 653.087 350.605 653.93 352.389C654.904 354.452 654.918 358.152 653.977 360.25C652.942 362.554 650.509 364.04 648.25 364.915C647.28 364.984 646.202 365.062 645.25 364.83C642.847 364.243 640.596 361.992 639.557 359.822C638.588 357.799 638.299 355.371 639.118 353.25C640.201 350.447 642.371 349.257 644.957 348.062Z"/>
	<path transform="scale(1.80081 1.80081)" d="M173.057 195.282C174.988 197.095 177.153 198.329 178.881 200.428C181.081 203.099 183.281 208.042 182.514 211.58C181.958 214.148 179.452 215.43 177.427 216.781C176.308 216.944 174.951 217.229 173.848 216.893C171.576 216.201 169.592 213.969 168.671 211.857C166.105 205.976 171.038 200.55 173.057 195.282Z"/>
	<path transform="scale(1.80081 1.80081)" d="M49.9776 504.474C55.1421 505.98 60.3243 507.531 63.862 511.87C66.6793 515.325 68.1446 519.326 67.8121 523.75C67.1803 523.887 67.4181 523.861 66.6942 523.897C61.1861 524.175 55.9476 523.642 51.7152 519.842C49.9038 518.216 50.1221 507.231 49.9776 504.474Z"/>
	<path transform="scale(1.80081 1.80081)" d="M291.011 247.25L292.367 247.118C292.286 248.617 291.512 250.072 291.036 251.5C290.012 254.573 289.078 257.531 287.726 260.49C286.412 263.364 284.577 266.299 281.334 267.25C279.317 267.842 278.122 266.656 276.438 265.692C274.959 264.342 273.592 263.011 273.228 260.953C272.855 258.841 273.422 256.26 274.683 254.519C278.322 249.497 285.331 248.333 291.011 247.25Z"/>
	<path transform="scale(1.80081 1.80081)" d="M293.778 154.494C297.245 154.374 299.809 155.826 303 156.866C306.046 157.859 309.125 158.559 312.148 159.664C308.584 161.929 305.977 165.531 302.328 167.806C299.58 168.373 296.883 168.636 294.122 167.95C290.832 167.132 286.342 164.653 284.461 161.75L284.75 160.439C287.359 157.547 290.276 156.01 293.778 154.494Z"/>
	<path transform="scale(1.80081 1.80081)" d="M753.152 167.585C755.313 167.473 757.46 167.254 759.413 168.359C761.419 169.494 762.716 172.64 763.262 174.729C763.773 176.682 763.566 178.748 762.536 180.495C761.101 182.932 758.979 184.506 756.25 185.141C754.477 185.239 753.091 185.08 751.437 184.393C749.32 183.515 747.171 181.73 746.349 179.542C745.551 177.416 745.493 174.312 746.509 172.25C747.88 169.469 750.343 168.429 753.152 167.585Z"/>
	<path transform="scale(1.80081 1.80081)" d="M133.93 315.556C135.387 315.473 136.975 315.315 138.428 315.474C140.788 315.732 143.455 317.358 144.787 319.305C146.041 321.139 146.737 323.694 146.169 325.879C145.415 328.785 143.25 331.4 140.75 332.967C139.535 333.345 138.199 333.607 136.92 333.454C134.222 333.131 131.291 331.117 129.828 328.868C128.289 326.502 128.434 323.318 129.141 320.692C129.904 317.857 131.448 316.926 133.93 315.556Z"/>
	<path transform="scale(1.80081 1.80081)" d="M970.548 505.25C971.532 504.939 971.825 504.81 972.869 505.003C972.744 509.398 973.674 517.019 970.4 520.314C966.472 524.268 961.911 524.046 956.737 524.008C955.538 523.677 954.609 523.411 953.538 522.75C953.885 520.566 954.422 518.28 955.4 516.281C958.543 509.858 964.122 507.347 970.548 505.25Z"/>
	<path transform="scale(1.80081 1.80081)" d="M729.45 154.518C734.56 154.257 738.482 157.791 742.493 160.537C737.671 166.002 733.825 167.782 726.616 168.836C725.498 168.912 724.386 168.975 723.275 168.779C719.724 168.155 715.361 162.949 713.529 160.012C719.038 158.779 724.216 156.593 729.45 154.518Z"/>
	<path transform="scale(1.80081 1.80081)" d="M876.366 343.462C879.97 343.235 884.257 345.771 887 347.933C891.001 351.086 895.795 352.718 900.593 354.34L901.173 354.531C896.442 354.59 892.987 352.783 888.041 354.09L887.393 354.271C885.706 354.889 883.969 355.492 882.383 356.34C880.563 357.313 878.578 358.915 876.5 359.164C874.216 359.437 870.352 358.48 868.639 356.856C866.946 355.251 867.246 352.121 867.054 349.928C869.875 346.578 872.417 345.092 876.366 343.462Z"/>
	<path transform="scale(1.80081 1.80081)" d="M131.72 349.75L132.117 349.764L132.25 350.108C132.862 351.156 137.738 351.813 139.244 352.151L131.625 352.674C124.471 353.96 120.758 357.982 116.684 363.473C114.66 366.2 112.646 367.966 109.25 368.496C108.581 368.386 107.886 368.297 107.25 368.044C105.198 367.226 103.36 364.474 102.71 362.453C102.058 360.426 102.396 358.452 103.512 356.667C104.621 354.893 106.478 352.802 108.538 352.155C111.344 351.272 114.621 352.56 117.538 352.402C122.35 352.141 127.08 350.982 131.72 349.75Z"/>
	<path transform="scale(1.80081 1.80081)" d="M406.548 130.25L407.022 130.5C406.984 131.315 406.951 131.349 407.073 132.25C407.527 135.587 411.867 139.013 414.355 140.941C416.335 138.31 418.33 135.486 420.86 133.345C423.763 130.888 428.03 129.934 431.75 130.482C433.16 130.69 433.548 131.14 434.348 132.25C434.181 134.751 433.824 137.005 433.273 139.444C432.712 141.841 431.46 144.411 429.748 146.196C427.822 148.204 425.091 148.91 422.388 148.998C416.27 149.197 415.021 145.522 411.884 141.064C410.068 138.484 408.166 136.142 405.821 134.024C405.11 133.383 405.208 133.363 404.967 132.5L406.548 130.25Z"/>
	<path transform="scale(1.80081 1.80081)" d="M245.872 240.448L256.442 246.066C259.889 248.167 263.977 251.946 264.842 256C265.543 259.294 264.977 261.202 263.202 263.953C262.039 264.882 260.747 265.591 259.285 265.913C257.651 266.273 255.427 265.588 254.067 264.683C246.501 259.648 247.526 248.434 245.872 240.448Z"/>
	<path transform="scale(1.80081 1.80081)" d="M787.554 145.75L788.078 145.79C788.751 150.238 789.068 158.664 786.75 162.587C785.169 165.263 781.379 168.732 778.25 169.429C776.258 169.873 774.768 168.941 773.149 167.913L773.054 167.789L772.219 166.774C770.202 164.158 769.559 161.274 770.078 158.016C771.428 149.542 781.572 150.364 786.906 146.27L787.554 145.75Z"/>
	<path transform="scale(1.80081 1.80081)" d="M596.374 346.573C598.389 346.475 600.549 346.712 602.378 347.606C604.846 348.813 606.489 350.532 607.367 353.145C608.418 356.273 607.964 359.941 606.416 362.832C605.138 365.22 603.316 366.62 600.75 367.363C598.943 367.411 597.411 367.235 595.75 366.454C592.975 365.149 589.963 361.699 589.071 358.778C588.156 355.784 588.785 353.105 590.343 350.442C591.951 347.692 593.332 347.303 596.374 346.573Z"/>
	<path transform="scale(1.80081 1.80081)" d="M305.682 176.661C306.991 176.517 308.308 176.311 309.613 176.578C310.632 176.787 310.749 177.098 311.287 177.946C312.987 180.624 313.077 188.197 312.345 191.287C311.965 192.891 310.892 194.637 309.422 195.405C307.123 196.607 302.883 196.163 300.49 195.475L300.046 195.207C296.275 192.859 292.913 187.66 292.082 183.25C291.794 181.717 291.659 179.907 292.5 178.605L305.682 176.661Z"/>
	<path transform="scale(1.80081 1.80081)" d="M713.776 176.064C717.992 175.919 724.142 175.781 727.959 177.583C729.729 178.418 730.689 179.784 731.286 181.58C730.928 186.109 728.577 189.479 725.765 192.865C724.861 193.548 724.003 194.064 722.952 194.502C720.485 195.53 718.472 195.775 715.989 194.638C713.425 193.464 712.003 191.913 711.103 189.251C710.132 186.377 709.165 179.855 710.82 177.107C711.217 176.447 713.013 176.259 713.776 176.064Z"/>
	<path transform="scale(1.80081 1.80081)" d="M255.499 292.25L257.004 292.114C261.117 294.503 266.305 298.452 268.652 302.668C269.816 304.76 269.525 307.483 268.835 309.687C267.949 312.523 265.915 313.946 263.427 315.318L260.986 315.698C258.281 315.988 255.501 315.561 253.406 313.733C251.383 311.967 250.278 309.763 250.116 307.076C249.839 302.459 252.347 295.592 255.499 292.25Z"/>
	<path transform="scale(1.80081 1.80081)" d="M778.663 194.25C780.224 194.334 781.914 196.142 783.004 197.189C786.41 200.463 790.007 203.66 789.938 208.781C789.875 213.55 785.849 216.963 782.672 220.017C781.147 221.178 779.686 222.227 778 223.142C776.617 222.901 774.706 222.868 773.683 221.837C772.935 216.636 772.951 211.426 773.517 206.213C774.003 201.73 774.998 197.186 778.663 194.25Z"/>
	<path transform="scale(1.80081 1.80081)" d="M201.253 380.069C202.997 380.174 204.739 380.28 206.35 381.021C209.286 382.37 212.307 385.355 213.268 388.504C214.096 391.216 213.64 395.157 212.151 397.61C210.347 400.581 207.727 401.679 204.491 402.543C202.693 402.554 200.671 402.422 199.028 401.646C196.391 400.399 193.766 398.136 192.851 395.296C191.867 392.244 191.522 388.61 193.248 385.763C195.112 382.688 197.885 380.975 201.253 380.069Z"/>
	<path transform="scale(1.80081 1.80081)" d="M271.145 521.25L271.985 521.75C274.738 526.271 278.08 532.111 278.361 537.5C278.539 540.918 272.446 553.668 270.25 556.132L269.05 554.75C265.512 550.913 260.598 545.487 260.19 540C259.626 532.409 266.514 526.383 271.145 521.25Z"/>
	<path transform="scale(1.80081 1.80081)" d="M879.179 314.556C881.171 314.451 883.217 314.423 885 315.476C886.295 316.242 887.008 317.273 887.243 318.75C888.055 323.849 885.958 329.71 882.926 333.75C880.289 337.264 878.111 337.304 874.12 337.875C872.461 337.995 870.285 338.287 868.75 337.469C867.283 336.687 866.428 335.63 866.069 334C865.103 329.608 865.375 324.557 867.761 320.666C870.222 316.652 874.938 315.684 879.179 314.556Z"/>
	<path transform="scale(1.80081 1.80081)" d="M653.389 373.582L654.375 373.723C657.409 374.224 660.229 375.936 661.865 378.584C663.198 380.743 662.963 383.127 662.246 385.466C661.248 388.72 658.254 391.975 655.25 393.497C651.216 395.54 646.604 394.084 642.619 392.763C639.539 391.478 634.683 390.623 631.387 390.298L630.831 390.251L633.454 388.396C640.871 383.107 643.639 375.693 653.389 373.582Z"/>
	<path transform="scale(1.80081 1.80081)" d="M437.236 148.705C437.675 153.762 437.195 158.882 438.854 163.782C441.339 171.123 445.957 175.329 451.622 180.262C458.562 186.307 466.129 191.366 473.445 196.898C475.122 198.166 478.217 199.904 478.958 201.75L476.75 202.156C476.078 202.171 475.426 202.154 474.762 202.03C472.276 201.568 469.752 200.379 467.396 199.439C456.561 195.114 444.128 186.802 437.716 176.844C432.004 167.974 435.194 158.172 437.236 148.705Z"/>
	<path transform="scale(1.80081 1.80081)" d="M245.617 190.374L247.721 192.483C253.493 198.498 252.164 206.222 251.709 213.841L251.397 224.072C248.514 223.197 245.957 222.415 243.238 221.085C240.919 219.66 238.403 217.817 236.651 215.726C234.159 212.754 233.18 208.559 233.705 204.75C234.489 199.073 241.265 193.64 245.617 190.374Z"/>
	<path transform="scale(1.80081 1.80081)" d="M68.7768 576.25C69.5733 576.151 70.2324 576.193 71.0288 576.25C71.2562 583.331 72.1767 590.042 67.1644 595.72C61.8775 601.709 55.171 600.997 47.75 601.501C47.0323 601.447 46.445 601.323 45.75 601.154C46.326 595.507 47.9716 588.406 51.33 583.719C55.5153 577.878 62.2699 577.257 68.7768 576.25Z"/>
	<path transform="scale(1.80081 1.80081)" d="M699.145 142.25L700.052 142.343C702.538 143.822 703.448 145.833 704.328 148.514C705.835 153.107 706.332 157.68 703.981 162.094C701.244 167.232 696.224 171.067 690.75 172.873C689.788 172.971 688.901 172.99 688 172.563C686.375 171.792 685.701 169.568 685.147 167.99C683.508 163.312 683.384 159.172 685.661 154.64C688.188 149.609 693.761 144.082 699.145 142.25Z"/>
	<path transform="scale(1.80081 1.80081)" d="M397.345 146.01C398.397 145.94 399.651 145.899 400.659 146.25C402.223 146.794 403.557 148.252 404.303 149.686C405.876 152.709 405.8 156.304 404.81 159.491C402.565 166.718 394.153 170.653 387.985 174.072L385 176.642C384.286 176.108 383.909 175.567 383.569 174.754C381.607 170.058 381.385 161.902 383.492 157.246C386.276 151.091 391.371 148.388 397.345 146.01Z"/>
	<path transform="scale(1.80081 1.80081)" d="M201.705 672.25C202.819 671.856 202.262 671.917 203.371 672.024C202.999 675.088 201.719 678.865 200.648 681.787C199.021 686.224 195.131 690.959 190.744 692.765C185.718 694.835 180.063 692.842 175.353 690.89C173.416 689.785 171.828 688.493 170.154 687.026L171.595 684.25C174.713 679.253 180.009 673.418 186.25 673.129C191.284 672.895 196.178 673.712 201.143 672.407L201.705 672.25Z"/>
	<path transform="scale(1.80081 1.80081)" d="M647.755 262.819C652.639 265.835 660.133 268.358 663.918 272.545C666.82 275.755 668.69 281.642 668.541 285.938C668.435 288.963 667.663 290.691 665.474 292.75C663.837 293.758 662.363 293.729 660.5 293.48C655.752 292.845 651.414 290.61 648.612 286.645C643.388 279.254 646.516 270.918 647.755 262.819Z"/>
	<path transform="scale(1.80081 1.80081)" d="M613.83 147.371C614.626 149.156 615.767 152.08 617.17 153.398C619.837 155.905 626.503 156.305 630 158C633.45 159.673 635.831 163.831 637.031 167.325C638.578 171.829 638.624 177.398 636.573 181.75C636.054 182.469 635.453 182.857 634.75 183.385C629.953 182.78 624.75 178.795 621.013 175.896C612.132 169.007 615.304 158.061 613.97 148.358L613.83 147.371Z"/>
	<path transform="scale(1.80081 1.80081)" d="M230.13 143.627C234.988 145.589 241.692 148.04 245.799 151.199C248.719 153.446 252.086 157.973 252.468 161.734C252.831 165.317 251.22 168.153 249.024 170.805C246.42 172.285 244.69 172.845 241.653 172.563C237.695 172.196 233.953 169.789 231.485 166.75C226.019 160.02 229.209 151.316 230.13 143.627Z"/>
	<path transform="scale(1.80081 1.80081)" d="M683.251 294.005L684.566 293.911C687.326 293.908 690.943 294.548 692.932 296.645C694.978 298.803 696.015 302.366 695.938 305.302C695.85 308.6 693.28 312.28 690.835 314.331C686.717 317.786 682.475 317.643 677.466 317.221C671.753 315.486 668.313 312.347 663.851 308.587L665.5 307.465C671.833 303.34 676.414 297.42 683.251 294.005Z"/>
	<path transform="scale(1.80081 1.80081)" d="M476.865 227.736C479.19 233.462 480.968 241.154 478.564 247.081C477.276 250.254 474.997 252.941 471.703 254.126C467.623 255.593 463.26 253.793 459.517 252.183C458.022 251.169 456.759 250.212 455.725 248.704C453.957 246.125 453.371 242.801 454.098 239.75C455.842 232.431 464.151 233.103 469.73 231.36C472.133 230.609 474.641 228.937 476.865 227.736Z"/>
	<path transform="scale(1.80081 1.80081)" d="M858.341 313.75L859.282 313.75C859.212 315.438 858.49 317.119 858.167 318.793C857.307 323.247 857.01 328.075 855.309 332.305C853.846 335.945 850.943 339.987 847.163 341.473C843.263 343.005 839.668 341.571 836.158 339.932C835.097 338.974 834.21 338.091 833.618 336.768C832.273 333.761 832.798 328.944 834.074 326C835.945 321.684 842.435 317.363 846.899 316.315C850.555 315.457 854.379 315.352 857.891 313.942L858.341 313.75Z"/>
	<path transform="scale(1.80081 1.80081)" d="M950.357 575.517C956.794 575.53 962.094 575.301 967.59 579.282C974.127 584.018 976.135 593.757 977.373 601.214L964.711 600.833C960.486 600.53 956.869 598.933 954.099 595.691C949.06 589.792 949.638 582.751 950.357 575.517Z"/>
	<path transform="scale(1.80081 1.80081)" d="M818.2 670.75C824.978 672.294 831.859 671.342 838.556 672.577C844.568 673.686 849.772 682.114 852.757 686.962C852.367 687.854 850.349 688.876 849.475 689.455C846.307 691.227 843.137 692.683 839.514 693.298C836.275 693.847 831.249 693.68 828.618 691.544C822.09 686.245 818.807 678.94 818.2 670.75Z"/>
	<path transform="scale(1.80081 1.80081)" d="M698.031 183.25L699.639 183.286L700.437 184.25C700.681 190.942 701.541 199.851 698.319 206.025C696.801 208.935 691.679 212.534 688.494 213.346C685.829 214.026 683.716 213.378 681.439 212.007C680.042 209.808 678.604 207.586 677.825 205.078C676.831 201.874 676.35 196.798 677.977 193.75C681.055 187.984 692.177 184.947 698.031 183.25Z"/>
	<path transform="scale(1.80081 1.80081)" d="M604.623 222.75C608.516 224.754 612.716 226.286 616.76 227.964C619.093 228.933 621.67 229.772 623.358 231.75C624.793 233.432 624.778 236.145 624.463 238.25C623.683 243.462 620.583 246.574 616.621 249.643C615.584 250.161 614.459 250.552 613.333 250.829C610.143 251.615 607.405 250.763 604.719 249.007C601.068 246.619 598.832 243.03 598.118 238.75C597.011 232.115 600.925 227.717 604.623 222.75Z"/>
	<path transform="scale(1.80081 1.80081)" d="M881.132 712.25C881.473 712.298 881.24 712.239 881.727 712.655C882.267 718.844 883.996 728.698 881.783 734.563L881.502 735.25L879.899 738.75C877.409 743.089 872.12 746.856 867.254 748.074C863.759 748.948 860.148 749.101 856.661 750.107L856.183 750.25L854.883 750.726L854.362 750.25L855.589 743.248C857.058 736.503 859.046 732.231 865 728.505C870.716 724.928 878.688 718.644 881.132 712.25Z"/>
	<path transform="scale(1.80081 1.80081)" d="M834.082 475.361C838.648 480.22 844.628 483.563 849.525 488.175C851.054 489.615 852.938 491.137 853.854 493.067C855.094 495.679 854.817 499.466 853.859 502.138C852.879 504.871 851.36 506.149 848.8 507.382C845.005 508.107 841.7 507.762 838.25 505.929C834.09 503.719 830.372 500.43 829.25 495.683C827.459 488.106 830.306 481.726 834.082 475.361Z"/>
	<path transform="scale(1.80081 1.80081)" d="M331.243 292.63C332.285 292.585 333.204 292.576 334.224 292.834C340.703 294.471 345.159 298.87 348.503 304.4L348.3 305C345.33 310.476 339.444 314.569 333.693 316.4C330.239 316.421 327.473 316.987 324.326 315.223C321.304 313.53 317.089 310.418 316.25 306.913C315.703 304.627 316.192 302.693 317.543 300.8C321.1 295.816 325.37 293.637 331.243 292.63Z"/>
	<path transform="scale(1.80081 1.80081)" d="M439.721 337.75L441.25 337.329L441.674 338.25C442.166 339.703 441.926 342.102 441.835 343.646C441.586 347.851 441.278 352.61 439.514 356.5C437.9 360.061 434.307 363.561 430.56 364.782C426.899 365.976 423.004 366.48 419.49 364.735C417.402 363.023 416.357 361.24 415.759 358.62C414.912 354.909 415.434 351.267 417.519 348.074C422.607 340.283 431.416 339.418 439.721 337.75Z"/>
	<path transform="scale(1.80081 1.80081)" d="M616.711 185.25C617.389 185.627 617.5 185.733 617.986 186.288C620.243 188.864 621.777 189.76 625 190.901C626.233 191.337 627.525 191.705 628.621 192.443C632.106 194.788 634.407 199.977 634.974 204.026C635.879 210.48 633.782 215.151 630.053 220.246C628.423 221.015 627.29 221.451 625.456 221.342C621.732 221.121 617.992 217.543 615.74 214.744C614.754 213.518 613.649 212.051 613.242 210.503C612.406 207.323 613.403 203.517 614.046 200.379C615.028 195.592 616.211 190.711 616.662 185.843L616.711 185.25Z"/>
	<path transform="scale(1.80081 1.80081)" d="M869.74 578.042C871.464 577.943 873.368 577.753 875.055 578.175C880.522 579.544 885.633 585.23 890.247 588.446C885.631 592.903 882.062 598.686 876.314 601.756C873.521 602.674 870.094 602.924 867.234 602.114C863.99 601.196 858.006 598.229 856.75 594.943C856.198 593.499 856.348 592.358 856.985 591C859.867 584.85 863.158 580.362 869.74 578.042Z"/>
	<path transform="scale(1.80081 1.80081)" d="M848.831 699.063L853.784 698.969C861.703 699.032 867.693 703.377 873.034 708.787L871.624 711.789C869.295 716.213 864.916 720.044 860.176 721.476C856.855 721.644 853.247 721.819 849.969 721.2C844.367 720.142 839.135 714.83 836.07 710.303C839.944 706.472 844.067 701.736 848.831 699.063Z"/>
	<path transform="scale(1.80081 1.80081)" d="M105.436 321.571C109.671 320.943 114.109 322.061 117.69 324.425C122.018 327.283 123.374 332.131 124.331 336.898C123.519 338.549 122.702 340.107 121.474 341.495C118.24 345.151 114.571 345.405 110.005 345.705C107.343 345.554 104.931 345.153 102.551 343.867C97.0175 340.878 92.8828 332.571 91.0117 326.742C95.2944 324.185 100.654 322.912 105.436 321.571Z"/>
	<path transform="scale(1.80081 1.80081)" d="M190.006 524.08C190.858 524.023 191.633 524.031 192.484 524.143C200.247 525.163 205.457 532.01 209.906 537.766C209.148 538.997 206.944 540.146 205.75 541.037C201.654 544.094 198.54 546.891 193.517 548.265C191.158 548.483 188.39 548.448 186.096 547.743C181.987 546.479 176.832 541.667 173.199 539.075L176.083 533.168C179.253 527.978 184.324 525.442 190.006 524.08Z"/>
	<path transform="scale(1.80081 1.80081)" d="M280.114 392.75L280.433 392.875C282.682 395.958 283.998 402.513 283.937 406.25C283.831 412.702 281.687 417.324 276.781 421.622C272.693 425.204 267.718 425.23 262.64 424.778C261.273 424.029 259.419 422.766 258.918 421.217C255.809 411.611 259.329 402.818 268.587 398.621C271.342 397.372 277.184 396.863 279.102 394.606C279.494 394.145 279.815 393.299 280.114 392.75Z"/>
	<path transform="scale(1.80081 1.80081)" d="M326.568 186.629C329.714 186.173 333.183 186.251 336.336 186.594C339.364 186.924 341.514 187.866 343.422 190.25C343.824 194.23 344.284 199.047 343.213 202.953C341.862 207.88 338.569 211.636 334.183 214.118C332.155 214.525 329.511 215.293 327.5 214.58C323.917 213.31 320.819 207.868 319.264 204.59C317.803 201.51 316.563 198.264 317.904 194.872C319.504 190.826 322.797 188.441 326.568 186.629Z"/>
	<path transform="scale(1.80081 1.80081)" d="M198.398 480.75L199.912 480.75C200.251 481.269 200.505 481.647 200.679 482.25C202.553 488.72 202.587 498.074 199.343 504.075C197.53 507.43 193.927 511.382 190.07 512.271C185.994 513.21 182.373 512.508 178.821 510.417C176.152 507.988 174.266 505.252 172.84 501.956C175.028 492.722 182.112 488.368 190.304 485.089C193.101 483.969 195.754 483.222 198.012 481.121L198.398 480.75Z"/>
	<path transform="scale(1.80081 1.80081)" d="M191.124 346.1C197.651 345.36 201.523 349.432 206.232 353.17C208.841 355.24 211.641 357.108 214.467 358.869C207.066 361.232 202.151 366.106 195.392 369.648C192.022 371.19 188.654 370.454 185.255 369.323C179.387 367.369 174.655 362.425 171.938 357.018C173.5 355.579 175.776 354.45 177.064 352.868C180.674 348.433 185.749 347.219 191.124 346.1Z"/>
	<path transform="scale(1.80081 1.80081)" d="M750.05 401.25C753.805 400.436 756.93 401.542 760.202 403.278C764.842 405.74 768.656 409.728 770.069 414.893C772.312 423.086 768.885 429.344 764.782 436.104C758.477 430.927 748.685 426.171 745.009 418.67C743.425 415.44 742.924 411.69 744.198 408.25C745.306 405.255 747.151 402.638 750.05 401.25Z"/>
	<path transform="scale(1.80081 1.80081)" d="M83.4894 579.642L97.1642 579.484C99.8552 579.451 102.815 579.189 105.391 580.105L106.017 580.353L106.585 580.568C109.831 581.909 115.262 587.083 116.481 590.331C117.268 592.428 118.628 595.515 118.465 597.75C118.337 599.515 116.872 600.51 115.631 601.586C113.591 602.733 111.333 604.055 109 604.428C103.827 605.254 97.4081 602.996 93.25 600.028C87.7659 596.113 84.5366 586.078 83.4894 579.642Z"/>
	<path transform="scale(1.80081 1.80081)" d="M865.215 254.632L883.825 254.744L884.622 254.686C880.958 264.441 878.521 272.694 869.336 278.666L868.835 278.898C864.875 280.561 858.648 281.71 854.581 279.847C852.639 278.958 851.587 277.233 850.961 275.257C849.828 271.678 850.378 267.347 852.142 264.058C854.9 258.912 859.881 256.283 865.215 254.632Z"/>
	<path transform="scale(1.80081 1.80081)" d="M302.55 82.75C305.006 82.3921 307.239 83.9766 309.565 84.8104C313.135 86.0901 317.246 86.5269 320.492 88.5403C325.132 91.4182 329.076 94.9182 330.287 100.457C331.163 104.462 330.567 108.164 328.25 111.529L327.994 111.832C325.963 113.778 322.458 113.741 319.848 113.611C315.772 113.409 308.67 110.233 306.03 107.02C300.589 100.399 301.938 90.6839 302.55 82.75Z"/>
	<path transform="scale(1.80081 1.80081)" d="M662.676 76.75L663.56 76.5215C669.263 78.2521 675.897 83.1167 679.405 87.9683C682.662 92.4726 683.652 98.3146 682.698 103.706C682.111 107.025 681.217 109.347 678.365 111.321C675.59 112.176 672.005 112.493 669.25 111.404C665.118 109.771 660.782 105.391 659.144 101.25C656.853 95.4596 658.826 90.5909 660.349 85C661.117 82.1845 661.566 79.4765 662.676 76.75Z"/>
	<path transform="scale(1.80081 1.80081)" d="M328.849 142.75C329.297 142.711 329.754 142.539 330.194 142.634C331.93 143.005 340.399 149.385 342.238 150.907C346.238 154.216 351.068 160.569 351.386 165.945C351.646 170.346 349.825 174.579 346.844 177.75C346.328 178.053 345.84 178.359 345.25 178.498C341.845 179.305 337.793 177.48 335.001 175.69C329.803 172.359 326.224 166.826 325.205 160.75C324.403 155.965 325.879 146.632 328.849 142.75Z"/>
	<path transform="scale(1.80081 1.80081)" d="M919.476 579.153L937.578 580.104C936.448 584.812 935.395 589.712 933.33 594.121C930.473 600.218 926.633 602.571 920.467 604.759C913.603 605.335 907.989 603.613 902.57 599.351C902.553 596.391 904.053 592.865 905.538 590.376C908.639 585.178 913.507 580.613 919.476 579.153Z"/>
	<path transform="scale(1.80081 1.80081)" d="M158.648 308.955C164.898 311.27 172.517 312.429 178.102 316.087C184.103 320.018 186.131 326.605 187.599 333.256C186.609 334.963 185.078 336.206 183.649 337.542C180.332 339.698 176.599 341.345 172.556 341.259C169.268 341.189 165.77 339.374 163.67 336.857C157.693 329.691 158.124 317.609 158.648 308.955Z"/>
	<path transform="scale(1.80081 1.80081)" d="M150.686 579.101C153.139 578.901 155.514 578.821 157.863 579.687C164.321 582.068 169.967 590.609 172.657 596.709L169.25 600.488C165.602 603.735 160.528 604.87 155.771 604.773C145.548 602.752 139.757 596.294 133.134 588.854C138.98 585.644 144.449 581.475 150.686 579.101Z"/>
	<path transform="scale(1.80081 1.80081)" d="M74.4753 452.334C78.5919 453.065 83.2497 453.258 87.1572 454.699C94.4615 457.39 100.561 461.564 103.612 468.967C105.352 473.19 105.249 477.547 103.548 481.75C102.976 482.631 102.613 482.844 101.75 483.4C96.0768 483.679 88.5625 483.579 84.0488 479.75C75.7074 472.674 75.3066 462.405 74.4753 452.334Z"/>
	<path transform="scale(1.80081 1.80081)" d="M214.952 404.184C223.312 404.883 232.33 404.221 239.204 410.032C242.614 412.916 245.046 417.553 245.42 422C245.75 425.933 244.683 428.101 242.144 431.004C239.911 432.591 237.645 433.934 234.871 434.216C230.999 434.61 227.084 432.745 224.26 430.24C217.063 423.851 215.601 413.232 214.952 404.184Z"/>
	<path transform="scale(1.80081 1.80081)" d="M624.125 65.4684C629.228 70.3064 635.309 79.0257 636.429 86.1585C637.173 90.9015 635.863 94.841 633.069 98.6541C630.169 102.612 628.051 103.027 623.439 103.781C621.335 103.98 619.169 103.84 617.343 102.682C614.249 100.719 612.67 96.9342 611.842 93.5C609.026 81.8238 618.336 75.241 623.661 66.2579L624.125 65.4684Z"/>
	<path transform="scale(1.80081 1.80081)" d="M809.547 367.25C812.194 367.319 814.299 367.603 816.695 368.781C822.078 371.429 829.735 379.586 831.445 385.471C831.956 387.227 831.695 389.012 830.811 390.599C828.829 394.161 825.671 395.865 821.921 397C816.266 397.191 811.538 395.775 807.179 392.127C801.492 387.368 800.556 378.375 799.793 371.519C802.892 370.12 806.25 367.956 809.547 367.25Z"/>
	<path transform="scale(1.80081 1.80081)" d="M476.372 87.737C481.142 89.4676 488.292 92.0938 492.164 95.3269C495.744 98.3151 497.608 102.621 497.789 107.25C498.043 113.744 495.444 118.088 491.222 122.686C489.779 124.039 488.082 124.872 486.356 125.799C481.741 123.816 477.845 120.62 475.183 116.329C474.218 114.773 472.858 112.439 472.644 110.635C472.373 108.345 473.009 105.428 473.368 103.132L476.372 87.737Z"/>
	<path transform="scale(1.80081 1.80081)" d="M954.318 347.75C955.406 347.408 955.59 347.329 956.75 347.589C957.11 349.497 956.621 351.788 956.558 353.75C956.408 358.402 956.288 363.397 956.99 368C957.638 368.933 957.871 369.32 959.024 369.677C961.224 370.36 965.999 370.372 967.947 369.159C968.783 368.639 968.252 368.75 969.145 368.75C966.259 374.187 964.033 377.656 958.503 380.624C954.421 382.814 950.922 382.146 946.598 381.266C944.096 380.432 941.644 379.571 939.234 378.491C938.628 378.22 936.745 377.093 936.167 377.086C934.86 377.072 931.877 378.575 930.506 379.051C931.393 377.65 932.253 376.225 933.353 374.979C934.255 373.956 936.117 372.304 936.701 371.13C937.071 370.387 937.049 368.18 937.157 367.287C937.562 363.944 937.791 360.393 939.081 357.25C941.354 351.716 949.188 349.679 954.318 347.75Z"/>
	<path transform="scale(1.80081 1.80081)" d="M360.142 353.156C364.705 353.148 368.242 354.231 371.873 357.027C375.839 360.081 378.998 365.655 379.483 370.68C379.739 373.331 379.428 375.542 377.57 377.542C374.198 381.172 370.987 381.724 366.284 381.813L365.769 381.693C355.66 379.434 351.029 368.957 344.787 361.637C348.959 356.669 353.756 354.115 360.142 353.156Z"/>
	<path transform="scale(1.80081 1.80081)" d="M549.211 87.75L550.215 87.5365L550.468 88.5C550.812 90.7017 550.534 93.4333 550.523 95.6804C550.49 102.32 550.614 111.125 546.319 116.5C543.161 120.454 539.025 122.954 533.93 123.406C531.247 123.644 530.387 122.987 528.405 121.338L526.497 118.25C524.071 113.748 523.832 107.041 525.578 102.25C529.085 92.626 540.494 92.1373 548.584 88.0707L549.211 87.75Z"/>
	<path transform="scale(1.80081 1.80081)" d="M905.694 320.588C910.954 319.968 915.137 321.78 920.013 323.414C923.509 324.586 926.981 325.486 930.373 326.967C925.492 333.442 922.508 340.706 915.026 344.525C910.092 346.447 905.185 347.07 900.043 345.285C897.273 344.323 894.705 342.601 893.504 339.853C892.189 336.846 892.186 334.213 893.392 331.173C895.576 325.673 900.525 322.737 905.694 320.588Z"/>
	<path transform="scale(1.80081 1.80081)" d="M581.04 51.9129C584.889 57.422 590.201 61.8826 593.584 67.6943C596.611 72.894 598.309 78.3729 596.308 84.3164C594.908 88.4724 592.617 92.1278 591.503 96.4473C591.298 97.2454 591.537 96.8871 590.75 97.4088L589.75 96.3893C584.847 92.086 577.029 88.907 574.012 82.9603C568.386 71.8716 577.641 62.5945 580.818 52.6243L581.04 51.9129Z"/>
	<path transform="scale(1.80081 1.80081)" d="M944.727 451.214L951.027 451.03C950.829 459.657 947.672 469.966 941.472 476.145C937.029 480.574 930.988 480.472 925.175 480.515C923.957 480.504 922.822 480.625 921.75 479.957C920.678 477.438 918.697 474.048 918.422 471.338C918.015 467.336 919.828 463.161 922.456 460.239C925.488 456.866 929.943 453.125 934.411 452.001C937.573 451.205 941.457 451.358 944.727 451.214Z"/>
	<path transform="scale(1.80081 1.80081)" d="M383.705 72.75C384.324 72.8653 383.957 72.7538 384.75 73.2324C387.062 79.8098 389.004 89.1975 388.399 96.1738C388.01 100.653 384.919 104.575 381.469 107.25C377.716 110.159 372.779 110.489 368.272 109.75C367.292 109.316 366.618 108.916 365.991 108.028C362.963 103.739 362.314 96.9965 363.318 91.9111C364.237 87.2547 366.851 82.4262 370.816 79.7015C374.657 77.0628 379.314 75.8264 383.193 73.119L383.705 72.75Z"/>
	<path transform="scale(1.80081 1.80081)" d="M461.921 66.75L463.451 66.5385C466.071 72.5854 469.486 83.6309 467.532 90.2218C465.811 96.0297 459.85 101.124 454.575 103.705C452.174 104.88 450.156 105.591 447.555 104.75C445.699 103.648 444.187 102.284 443.175 100.351C440.592 95.419 440.779 90.0243 442.41 84.8281C444.164 79.2391 448.782 76.2638 453.183 72.8546C456 70.6717 458.773 68.4462 461.921 66.75Z"/>
	<path transform="scale(1.80081 1.80081)" d="M151.643 254.703C157.473 254.201 163.349 253.644 168.5 256.984C175.136 261.288 176.937 266.449 178.412 273.694C175.585 277.91 171.941 279.708 167.174 280.932C163.828 281.002 160.361 280.867 157.214 279.61C147.535 275.744 143.899 264.334 140.044 255.735C143.179 254.662 148.243 254.959 151.643 254.703Z"/>
	<path transform="scale(1.80081 1.80081)" d="M756.941 314.112C759.438 313.957 761.931 314.062 764.359 314.726C769.863 316.23 774.55 320.633 777.25 325.506C779.736 329.993 779.602 333.624 780.332 338.42C780.61 340.247 781.244 342.158 780.75 343.977C778.777 345.191 776.498 345.225 774.242 345.486C770.802 345.539 767.409 345.596 764.078 344.571C759.045 343.02 755.038 339.171 752.743 334.474C751.618 332.174 749.071 327.327 749.143 324.806C749.176 323.652 750.085 321.365 750.527 320.25C751.832 316.961 753.841 315.581 756.941 314.112Z"/>
	<path transform="scale(1.80081 1.80081)" d="M941.101 607.616C943.483 607.443 946.286 607.199 948.625 607.748C957.857 609.915 965.712 622.725 970.204 630.229L953.121 633.425L949.769 633.445C946.75 633.272 943.542 632.955 940.731 631.792C934.556 629.236 929.419 622.762 925.04 617.885C930.188 614.175 935.303 610.254 941.101 607.616Z"/>
	<path transform="scale(1.80081 1.80081)" d="M723.434 82.25L724.36 82.3438C725.081 87.3878 725.5 93.4037 724.671 98.457L724.528 99.25L724.099 101.468C722.688 106.33 719.083 110.807 714.595 113.113C712.02 114.436 704.577 117.794 701.835 116.749L697.645 114.911C696.831 114.128 696.343 113.325 695.851 112.318C693.772 108.065 693.442 104.004 695.023 99.5C699.308 87.2894 713.312 87.4781 723.014 82.4739L723.434 82.25Z"/>
	<path transform="scale(1.80081 1.80081)" d="M78.1594 608.046C85.6107 607.664 89.2587 609.835 95.0248 614.231C97.3938 616.038 99.1687 617.544 102.195 618.118L102.75 618.213L102.234 618.556L101.5 619.073C99.5392 620.427 98.485 622.182 97.0273 624C92.3387 629.849 87.9332 632.628 80.4681 633.847C72.0484 634.882 63.7892 632.39 55.7762 630.122C61.8856 622.067 68.4231 611.746 78.1594 608.046Z"/>
	<path transform="scale(1.80081 1.80081)" d="M64.9383 347.079C69.5934 349.944 75.5805 350.653 79.7887 354.084C84.728 358.111 84.551 366.121 85.0718 371.986C87.3494 375.661 90.7474 378.578 94.1145 381.226C91.1841 380.355 87.3059 378.765 84.2786 378.598C82.565 378.504 77.4094 381.834 75.7238 382.723L71.75 384.004C67.0849 385.261 62.585 384.704 58.4367 382.207C53.7468 379.383 51.3367 375.509 50.0752 370.25C50.9787 370.25 51.244 371.008 52.0163 371.343C52.8345 371.697 54.9101 371.7 55.8906 371.741C58.4325 371.85 62.0424 372.02 64.0046 370.25C64.9649 362.383 65.4129 354.982 64.9383 347.079Z"/>
	<path transform="scale(1.80081 1.80081)" d="M919.22 527.151C922.182 527.011 925.638 526.595 928.319 528.133C930.666 529.481 934.394 532.853 935.877 535.056C936.843 536.49 937.339 538.589 937.895 540.217C939.067 543.649 940.429 547.21 941.19 550.75C941.513 552.252 941.764 552.921 940.939 554.25C937.239 556.421 931.655 556.029 927.49 556.129C925.369 555.844 923.107 555.635 921.118 554.811C912.282 551.152 907.311 540.671 904.04 532.376C909.002 529.612 913.605 528.054 919.22 527.151Z"/>
	<path transform="scale(1.80081 1.80081)" d="M891.086 280.611C900.286 279.607 908.84 283.636 917.729 285.327C917.516 287.021 915.871 289.066 914.937 290.5C911.228 296.197 907.856 301.019 902.595 305.416C898.455 307.471 894.413 308.493 889.775 307.951C886.64 307.585 881.904 305.128 880.096 302.587C878.498 300.344 877.815 296.518 878.339 293.821L878.463 293.25C878.642 292.382 878.813 291.566 879.177 290.75C881.28 286.035 886.485 282.529 891.086 280.611Z"/>
	<path transform="scale(1.80081 1.80081)" d="M102.17 527.614C109.244 527.275 115.828 528.989 121.827 532.752C121.09 535.092 119.519 537.55 118.593 539.925C115.736 547.254 109.546 553.703 102.38 556.871C95.7364 557.662 88.5856 556.535 82.1388 554.933L87.7525 539.642C90.6901 533.147 95.7738 529.954 102.17 527.614Z"/>
	<path transform="scale(1.80081 1.80081)" d="M194.308 168.334C204.304 168.988 216.278 166.432 224.818 172.866C228.227 175.435 231.398 178.37 231.905 182.819C232.354 186.753 230.928 189.645 228.534 192.603C226.331 194.277 223.892 195.58 221.182 196.227C216.475 197.349 211.549 196.029 207.5 193.544C198.36 187.933 196.519 178.052 194.308 168.334Z"/>
	<path transform="scale(1.80081 1.80081)" d="M805.156 168.109L826.426 168.075L826.5 168.638C826.291 170.393 825.353 172.468 824.871 174.199C822.232 183.687 819.093 189.447 810.532 194.716L807.441 195.816C803.465 196.853 798.063 196.259 794.567 194.118C792.049 192.576 790.416 190.283 789.755 187.406C788.804 183.264 789.67 179.015 792.03 175.5C795.155 170.846 799.955 169.193 805.156 168.109Z"/>
	<path transform="scale(1.80081 1.80081)" d="M890.737 551.641C892.825 551.548 895.156 551.291 897.22 551.648C905.651 553.104 911.783 559.928 917.858 565.4C909.528 572.303 903.682 577.524 892.428 578.063C885.662 577.056 881.899 573.891 877.031 569.446C876.077 568.575 874.76 567.004 873.656 566.406C872.706 565.891 867.018 568.368 865.718 568.846C868.162 566.851 871.384 564.692 873.267 562.194C877.761 556.232 883.351 552.8 890.737 551.641Z"/>
	<path transform="scale(1.80081 1.80081)" d="M129.819 280.152C134.219 279.513 139.664 279.562 143.413 282.249C148.789 286.104 151.577 291.422 152.447 297.857C151.429 299.774 149.803 301.676 148.153 303.09C143.933 306.708 138.009 307.217 132.739 306.826L132.296 306.684C121.576 303.135 114.505 295.344 108.376 286.037C109.209 285.261 111.481 284.827 112.624 284.468C118.387 282.655 123.855 281.191 129.819 280.152Z"/>
	<path transform="scale(1.80081 1.80081)" d="M127.753 552.611C130.717 552.29 134.281 552.069 137.204 552.713C142.474 553.876 147.983 558.193 150.619 562.783L151.043 563.53C154.66 565.033 156.927 566.757 159.695 569.462C158.349 569.171 152.846 566.89 152.09 567.124C151.534 567.297 151.281 567.962 150.876 568.38C149.028 570.288 147.183 572.343 145.179 574.081C143.423 575.602 141.448 576.64 139.393 577.688C137.33 578.309 135.16 579.04 133 579.202C123.914 579.887 113.498 572.352 106.907 566.801C108.098 565.121 110.304 563.628 111.892 562.29C117.003 557.984 121.281 554.616 127.753 552.611Z"/>
	<path transform="scale(1.80081 1.80081)" d="M937.562 390.25L937.955 390.324C938.65 390.692 938.952 391.11 939.781 391.442C945.074 393.564 952.464 397.007 956.033 401.484C963.228 410.509 959.536 421.942 958.387 432.335L956.75 431.942C953.277 430.59 949.166 430.353 945.539 429.163C941.029 427.683 936.563 424.676 934.503 420.271C929.988 410.615 934.447 399.544 937.562 390.25Z"/>
	<path transform="scale(1.80081 1.80081)" d="M82.2078 390.25L83.1593 390.324C85.7029 394.326 88.2139 398.346 89.9205 402.791C92.3837 409.208 92.8952 416.685 89.8485 422.995C86.9319 429.035 78.6664 430.742 72.8857 432.883L68.8126 435.374C68.5375 432.749 68.4415 429.811 67.7184 427.276C67.0287 424.857 65.7727 422.607 65.0721 420.185C64.3384 417.65 64.4268 414.378 64.5648 411.75C65.1686 400.247 74.7812 396.851 82.2078 390.25Z"/>
	<path transform="scale(1.80081 1.80081)" d="M571.483 367.162C576.604 366.947 581.186 366.843 585.75 369.576C590.724 372.554 595.189 377.941 596.377 383.656C597.043 386.857 597.488 390.923 595.414 393.742C592.619 397.541 588.098 398.001 583.795 398.52L577.25 397.536C568.156 395.264 566.12 388.276 562.569 380.709C561.028 377.426 559.117 374.299 557.281 371.174C561.157 368.797 567.018 367.878 571.483 367.162Z"/>
	<path transform="scale(1.80081 1.80081)" d="M451.267 366.589C457.619 365.736 464.513 367.011 470.785 368.026C470.459 372.43 468.869 375.899 468.197 380.059C467.721 383.007 466.719 385.551 465.224 388.127C462.306 393.152 458.028 396.908 452.397 398.404L446.823 398.817C442.229 398.771 436.2 396.557 432.942 393.195C433.043 387.659 433.542 383.198 436.03 378.198C439.234 371.758 444.719 368.792 451.267 366.589Z"/>
	<path transform="scale(1.80081 1.80081)" d="M891.67 371.584C895.386 371.315 900.203 371.36 903.75 372.632C905.499 373.259 907.095 374.33 908.827 375.027C911.499 376.103 912.002 376.63 913.401 379.174L913.708 379.74L923.237 381.662C920.053 382.302 916.727 382.099 913.49 382.093C911.375 386.145 910.415 390.701 908.354 394.629C907.164 396.896 905.522 398.794 903.849 400.71L903.393 401.117C899.404 404.435 895.166 406.26 889.922 405.836C884.233 405.377 880.814 403.129 877.289 398.812C877.534 394.782 878.302 390.259 879.45 386.377C881.448 379.612 885.505 374.95 891.67 371.584Z"/>
	<path transform="scale(1.80081 1.80081)" d="M871.18 216.15C872.308 215.97 873.177 215.687 874.25 216.198C874.438 224.363 874.832 234.197 871.28 241.72C868.179 248.285 858.693 250.811 852.502 253.295C851.041 253.881 849.946 254.932 848.5 255.47L847.25 254.642C843.572 251.906 843.061 247.818 842.33 243.545C841.321 237.654 841.974 230.36 845.635 225.458C851.455 217.664 862.329 217.643 871.18 216.15Z"/>
	<path transform="scale(1.80081 1.80081)" d="M334.339 498.734C342.001 499.601 349.37 500.664 355.94 505.061C360.97 508.426 365.012 514.393 366.163 520.325C367.856 529.054 366.183 537.96 361.174 545.365C355.607 553.596 348.577 558.097 338.931 559.991C333.324 560.142 328.916 560.077 323.646 558.002C335.342 552.485 344.383 545.675 349.831 533.478C352.576 527.333 353.341 520.106 350.787 513.808C347.525 505.763 342.057 502.071 334.339 498.734Z"/>
	<path transform="scale(1.80081 1.80081)" d="M414.239 61.632C416.863 63.457 419.232 65.6805 421.627 67.7923C425.937 71.5928 431.032 75.8496 432.889 81.512L433.116 82.25L433.619 83.8594C436.386 94.4523 429.356 103.735 424.091 112.163C417.107 106.158 407.666 102.049 404.974 92.4073C402.162 82.3402 409.685 70.1393 414.239 61.632Z"/>
	<path transform="scale(1.80081 1.80081)" d="M164.064 457.581C166.159 457.398 168.755 457.221 170.812 457.638C174.646 458.414 180.161 461.874 183.482 464.009C181.323 469.31 179.355 475.856 175.717 480.282C171.296 485.661 165.455 487.806 158.739 488.475C151.55 488.577 144.59 488.786 137.987 485.557C138.676 480.834 140.479 476.666 143.015 472.648C148.098 464.592 154.732 459.631 164.064 457.581Z"/>
	<path transform="scale(1.80081 1.80081)" d="M279.052 192.75C279.534 192.692 279.958 192.877 280.421 193.004C283.444 197.699 285.545 203.297 287.644 208.476C290.169 214.707 289.352 222.812 286.43 228.859C283.823 234.255 276.693 239.022 271.25 240.92C270.458 240.968 270.053 240.861 269.333 240.479C266.402 238.926 262.608 233.583 261.558 230.49L261.325 229.75C259.808 225.06 260.161 218.544 261.202 213.737C263.382 203.671 270.813 198.126 279.052 192.75Z"/>
	<path transform="scale(1.80081 1.80081)" d="M797.957 402.637C800.487 402.496 803.026 402.487 805.5 403.124C816.24 405.892 819.798 415.829 824.741 424.504C820.058 429.546 815.254 432.964 808.658 435.049C804.321 435.835 799.717 435.099 795.831 433.006C790.552 430.161 783.481 424.09 782.115 418C781.522 415.356 782.174 412.72 783.579 410.455C786.492 405.758 792.809 403.715 797.957 402.637Z"/>
	<path transform="scale(1.80081 1.80081)" d="M166.704 699.591C173.301 698.446 182.782 700.228 188.308 703.942C195.766 708.955 198.93 716.938 200.499 725.48C195.571 728.469 190.8 729.163 185.157 729.601C180.632 729.624 176.156 729.189 172.19 726.791C168.57 724.602 165.409 720.612 162.037 717.907C158.094 714.744 153.8 712.085 149.949 708.797C154.378 702.685 159.723 701.198 166.704 699.591Z"/>
	<path transform="scale(1.80081 1.80081)" d="M124.082 365.25C125.631 364.946 126.866 364.89 128.406 365.324C135.485 367.317 141.137 373.636 144.332 379.955C147.002 385.234 148.68 392.116 146.687 397.853C144.807 403.264 142.636 404.449 137.737 406.782C135.081 407.768 132.466 407.593 129.75 406.908C125.071 405.729 121.078 402.906 118.666 398.707C115.36 392.954 114.446 384.243 116.239 377.838C117.47 373.439 119.978 367.585 124.082 365.25Z"/>
	<path transform="scale(1.80081 1.80081)" d="M738.019 191.577C744.466 195.52 751.123 199.623 756.438 205.06C761.004 209.731 762.672 216.408 762.516 222.779C762.362 229.077 759.656 235.335 755.131 239.69C753.43 240.399 752.115 241.014 750.25 240.509C744.617 238.983 737.056 232.369 734.169 227.356C729.255 218.822 732.075 211.36 734.868 202.75L738.019 191.577Z"/>
	<path transform="scale(1.80081 1.80081)" d="M148.544 215.08L163 217.967C166.367 218.371 169.382 219.495 172.518 220.747C177.252 222.638 181.132 227.992 182.98 232.664C185.628 239.361 185.184 249.466 182.424 255.968L180.951 257.25C177.412 256.996 173.244 254.112 169.965 252.75C166.189 251.183 162.124 250.068 158.502 248.172C156.649 247.202 154.595 245.885 153.258 244.247C147.783 237.538 147.529 223.096 148.544 215.08Z"/>
	<path transform="scale(1.80081 1.80081)" d="M854.769 456.598C860.753 455.918 864.652 457.227 869.724 460.367C876.685 464.677 884.758 474.91 886.271 483.198C886.527 484.601 886.755 485.844 886 487.062C881.229 488.604 875.372 488.489 870.378 488.591C866.196 488.461 861.912 487.904 857.919 486.622C847.524 483.285 842.128 473.685 837.453 464.504C841.173 459.375 848.987 457.801 854.769 456.598Z"/>
	<path transform="scale(1.80081 1.80081)" d="M924.598 493.11C936.348 491.639 947.341 497.507 958.653 499.668L959.354 499.799C951.141 506.744 946.537 517.043 937.176 522.687L935.711 523.108C931.907 523.988 927.89 523.133 924.156 522.285C916.9 520.639 909.322 518.517 902.986 514.554L903.728 512.738C907.392 504.16 915.986 496.563 924.598 493.11Z"/>
	<path transform="scale(1.80081 1.80081)" d="M482.732 38.2294L483.182 38.4246C490.626 41.5376 502.988 50.522 506.28 58.1563C509.241 65.0224 508.564 75.1274 506.084 82C505.608 83.3207 505.267 84.7378 504.246 85.7558C503.558 86.442 501.92 85.999 500.984 85.9282L487.771 81.0699C482.341 78.8461 478.067 75.7174 475.8 70.1641C471.41 59.4131 478.665 47.8957 482.732 38.2294Z"/>
	<path transform="scale(1.80081 1.80081)" d="M129.938 703.508C130.832 703.377 131.602 703.416 132.5 703.495L132.788 704.25C133.14 705.945 132.89 708.188 133.041 709.955C133.75 718.246 135.249 725.368 130.247 732.788C123.025 743.502 114.877 747.293 102.493 749.788L98.0599 750.904C97.8256 748.045 98.2322 744.937 98.4194 742.064C98.877 735.039 99.546 727.571 102.633 721.13C107.645 710.671 119.952 707.279 129.938 703.508Z"/>
	<path transform="scale(1.80081 1.80081)" d="M392.453 402.25C393.714 401.911 394.329 401.829 395.465 402.609C398.832 404.92 402.374 415.208 402.804 419.032C403.379 424.141 400.543 431.209 397.25 434.985C391.684 441.368 384.973 443.313 376.755 443.765L366.074 443.06C365.81 435.715 366.062 424.584 369.081 417.872C373.665 407.682 383.004 406.043 392.453 402.25Z"/>
	<path transform="scale(1.80081 1.80081)" d="M963.916 528.188C976.473 527.621 983.043 537.192 991.393 544.792C993.556 546.759 996.153 548.415 998.566 550.056C991.971 554.409 986.293 557.586 978.601 559.644C971.716 560.99 963.862 560.948 957.525 557.495C951.999 554.485 946.136 546.522 944.534 540.5C944.818 538.707 945.184 537.327 946.286 535.85C950.282 530.491 957.697 529.027 963.916 528.188Z"/>
	<path transform="scale(1.80081 1.80081)" d="M93.7972 493.178L96.75 493.453C107.816 494.929 115.165 506.178 121.227 514.301C111.729 519.333 102.428 523.823 91.6054 525.256C88.4782 524.974 85.5908 524.364 82.8528 522.75C79.9865 521.061 77.6692 518.106 75.566 515.572C71.301 510.434 67.505 504.951 63.0407 500.002L93.7972 493.178Z"/>
	<path transform="scale(1.80081 1.80081)" d="M911.201 406.203C916.665 416.105 925.784 429.815 924.633 441.645C923.664 451.6 914.942 458.994 907.679 464.854L907.027 464.398C900.41 459.551 894.055 448.766 892.887 440.595C890.904 426.712 903.899 416.217 911.201 406.203Z"/>
	<path transform="scale(1.80081 1.80081)" d="M891.647 700.974C901.407 702.296 913.782 704.211 919.99 712.98C927.432 723.491 926.551 738.677 924.373 750.75L923.97 750.742C919.442 747.548 914.354 745.965 909.5 743.504C903.927 740.679 896.968 735.761 893.587 730.42C888.764 722.8 889.954 709.464 891.647 700.974Z"/>
	<path transform="scale(1.80081 1.80081)" d="M55.2586 528.125L57.3332 528.077C65.4757 528.153 72.8605 529.728 78.5945 535.78C79.6337 536.877 79.776 537.729 79.7243 539.178C79.4945 545.632 75.1878 550.364 70.75 554.551C64.913 560.058 59.2688 561.621 51.3791 561.347C41.6647 559.939 32.9481 556.03 25.139 550.143C27.3554 549.005 29.6274 547.862 31.5755 546.295C39.2935 540.086 44.8963 530.409 55.2586 528.125Z"/>
	<path transform="scale(1.80081 1.80081)" d="M750.92 110.75C752.042 110.566 751.988 110.359 753.013 111C753.623 117.29 751.679 127.078 749.373 133.027C747.247 138.514 742.745 144.363 737.207 146.645C730.096 149.573 721.39 149.601 714.302 146.718C712.654 145.121 711.523 143.472 710.706 141.318C708.83 136.372 709.101 131.871 711.408 127.162C719.017 111.629 736.657 116.025 750.275 110.994L750.92 110.75Z"/>
	<path transform="scale(1.80081 1.80081)" d="M109.56 407.451L118.392 416.232C124.646 422.333 128.987 428.366 129.04 437.38C129.101 447.717 123.011 457.137 115.983 464.25L114.75 465.07L113.6 464.658C107.852 461.956 99.7686 452.349 97.9764 446.277C93.8713 432.369 103.286 419.183 109.56 407.451Z"/>
	<path transform="scale(1.80081 1.80081)" d="M275.399 110.127C286.252 113.437 298.789 112.194 308.934 117.699C314.121 120.514 317.805 125.378 319.438 131.03L319.683 131.916L320.251 134.242C320.781 137.89 318.683 142.221 316.645 145.111C313.526 147.549 309.964 148.929 305.981 149.074C298.889 149.331 292.133 147.106 286.907 142.208C278.075 133.929 275.718 121.702 275.399 110.127Z"/>
	<path transform="scale(1.80081 1.80081)" d="M919.191 644.703C922.882 644.277 927.308 644.3 931.011 644.638C935.799 645.075 941.067 646.209 945.25 648.615C951.823 652.396 956.507 659.632 961.05 665.487L972.894 679.75L972.807 680.75C969.264 681.848 964.268 680.904 960.605 680.56C956.617 680.39 952.406 679.595 948.501 678.765C945.04 678.031 941.3 677.276 938.051 675.837C924.614 669.886 916.3 655.091 905.537 645.484L919.191 644.703Z"/>
	<path transform="scale(1.80081 1.80081)" d="M206.861 216.203L207.319 216.132C213.117 215.662 221.979 215.297 226.75 219.074C232.98 224.005 235.544 230.117 236.672 237.75C236.975 239.8 236.988 241.596 236.844 243.66C236.589 247.299 236.398 250.834 233.326 253.297C230.387 255.654 226.479 254.761 223.033 254.359C214.169 252.709 208.092 249.386 202.755 241.995C200.414 238.754 198.189 234.926 196.8 231.164C195.75 228.324 195.184 225.299 194.014 222.5C193.6 221.51 191.985 219.079 192.125 218.177L206.861 216.203Z"/>
	<path transform="scale(1.80081 1.80081)" d="M94.2998 645.177L107.351 644.965C109.769 644.974 112.504 644.732 114.879 645.16C116.235 645.404 117.581 645.358 118.909 645.75C113.985 649.801 109.051 654.442 104.855 659.241C100.002 664.789 95.1542 671.855 89.2097 676.207C85.2052 679.139 80.8659 680.606 76.137 681.847C68.1283 682.932 58.6005 682.849 50.6824 681.141L65.718 662.744C73.6062 652.804 81.4924 646.712 94.2998 645.177Z"/>
	<path transform="scale(1.80081 1.80081)" d="M235.598 264.25L236.473 264.096L237.226 264.75C238.385 266.148 239.285 269.16 239.975 270.845C243.251 278.843 246.97 287.27 245.296 296.102C242.993 308.248 234.501 315.072 224.75 321.638L223.25 320.931C221.236 318.822 219.629 316.29 218.08 313.832C213.877 307.161 210.551 298.737 212.589 290.75C214.752 282.273 220.79 276.081 227.263 270.647C229.947 268.393 232.583 266.055 235.598 264.25Z"/>
	<path transform="scale(1.80081 1.80081)" d="M536.39 32.1898C540.185 35.9224 543.488 41.6086 545.661 46.4418C548.746 53.3045 550.251 60.9717 547.321 68.2016C543.732 77.0601 534.47 82.7711 526.025 86.3586C523.359 84.985 521.058 83.3544 518.988 81.1746C513.709 75.6142 511.702 69.7512 511.964 62.101C512.476 47.1827 527.057 40.9967 536.39 32.1898Z"/>
	<path transform="scale(1.80081 1.80081)" d="M803.34 215.065C812.808 214.89 821.807 216.23 831.187 217.235L828.818 227.188C826.754 233.255 822.805 241.536 817.987 245.907C815.306 248.339 812.217 250.058 808.993 251.652L807.773 252.123C802.165 254.181 794.166 256.497 788.5 253.454C786.827 252.555 785.688 251.316 785.186 249.456C783.07 241.618 784.843 232.744 789.053 225.918C792.334 220.599 797.192 216.484 803.34 215.065Z"/>
	<path transform="scale(1.80081 1.80081)" d="M448.834 117.634L449.177 117.819L459.356 124.814C468.492 130.911 478.725 137.521 480.868 149.204C482.389 157.498 479.668 165.66 474.918 172.344L471.213 175.296C463.923 174.645 456.568 169.905 451.862 164.472C440.478 151.33 447.672 133.014 448.834 117.634Z"/>
	<path transform="scale(1.80081 1.80081)" d="M621.218 401.237C628.912 401.858 635.764 402.482 643.057 405.254C645.519 406.19 648.298 407.255 650.323 408.974C659.35 416.637 660.726 429.939 661.571 441C660.335 442.48 658.46 442.52 656.616 442.953C649.17 444.408 641.776 444.965 634.516 442.299C627.313 439.654 622.343 435.082 619.246 428.074C615.422 419.419 618.142 409.678 621.218 401.237Z"/>
	<path transform="scale(1.80081 1.80081)" d="M778.067 269.75L778.624 269.575C781.926 268.985 785.344 270.869 788.228 272.252C792.746 274.417 797.286 276.691 801.564 279.305C807.695 283.052 811.277 286.924 812.945 294.105C815.343 304.434 810.007 312.536 804.741 320.863L800.222 326.55C797.565 324.644 795.365 322.008 792.991 319.761C787.527 314.589 779.581 308.441 776.924 301.195C774.36 294.209 775.081 285.76 776.083 278.554C776.511 275.474 776.798 272.633 778.067 269.75Z"/>
	<path transform="scale(1.80081 1.80081)" d="M420.543 170.75L421.849 170.75C422.786 179.067 424.482 187.291 424.722 195.664C424.808 198.663 424.906 202.213 424.188 205.147C422.162 213.432 413.694 220 405.975 222.897C402.615 224.157 398.58 224.957 395.568 226.91C394.829 227.39 394.388 227.71 393.5 227.893L391.718 225.992C389.413 222.258 387.238 217.864 385.886 213.689C383.758 207.118 383.623 199.427 386.808 193.238C393.092 181.029 408.193 174.707 420.543 170.75Z"/>
	<path transform="scale(1.80081 1.80081)" d="M550.747 146.646C553.34 146.348 556.153 146.379 558.75 146.591C567.089 147.27 572.118 150.856 577.316 157.04C572.534 153.964 567.855 150.969 562.097 150.299C554.9 149.462 546.706 150.276 541 155.051C536.461 158.849 534.448 164.753 534.022 170.495C533.491 177.639 534.635 183.94 539.68 189.429C542.594 192.599 547.46 195.441 551.804 195.468C556 195.495 559.403 194.457 562.398 191.404C564.945 188.808 567.001 184.212 566.884 180.545C566.736 175.88 565.408 171.752 561.827 168.533C557.687 164.812 552.684 165.11 547.5 165.431L547.452 164.75C550.503 161.649 553.34 161.215 557.439 160.352C560.902 160.367 563.857 160.6 566.925 162.443C573.357 166.307 577.413 173.073 579.244 180.232C581.068 187.362 580.05 194.035 576.071 200.243C572.331 206.079 565.402 209.821 558.741 211.143C550.224 212.835 540.757 210.081 533.755 205.164C526.523 200.084 521.234 191.796 519.812 183.11C518.695 176.289 520.119 167.834 524.259 162.19C530.611 153.531 540.234 148.267 550.747 146.646Z"/>
	<path transform="scale(1.80081 1.80081)" d="M303.219 289.445C311.809 278.489 321.799 270.294 334.403 264.287C341.006 261.14 350.909 258.325 358.087 260.987C360.495 261.879 362.27 263.495 363.288 265.857C364.692 269.114 364.199 272.557 362.85 275.7C360.136 282.025 355.335 286.694 348.804 288.983C346.781 289.692 345.282 290.059 343.371 289.121C341.95 286.616 341.706 280.889 341.554 277.914C341.261 272.158 342.934 269.577 346.588 265.485C345.059 265.97 343.5 266.514 342.078 267.26C325.235 276.103 307.918 294.595 302.052 312.749C295.929 331.7 299.846 350 305.83 368.445C308.193 375.726 310.594 382.875 314.071 389.709L314.803 385.016C315.721 379.599 317.558 374.366 319.339 369.183C327.398 345.739 341.959 324.31 360.804 308.196C368.124 301.936 376.367 297.167 384.178 291.593L398.139 300.513C397.363 301.336 395.847 301.678 394.799 302.096C391.734 303.317 388.534 304.423 385.607 305.949C377.723 310.061 369.483 316.327 363.077 322.479C344.668 340.159 332.452 366.737 331.933 392.384C331.601 408.793 336.328 422.665 345.869 435.911C349.697 441.225 354.14 446.102 358.195 451.25L367.138 462.039C368.1 463.139 369.321 464.904 370.59 465.614C373.072 467.001 376.726 467.537 379.469 468.414L397.702 474.453C426.525 483.277 455.752 494.725 476.989 516.819C477.253 498.899 472.642 479.991 462.852 464.891C455.452 453.477 444.215 442.924 434.082 433.905C426.98 427.585 419.093 421.649 412.694 414.621C398.263 398.773 391.212 373.936 392.079 352.873C392.715 337.425 395.576 320.875 407.572 309.861L406.195 343.726C405.167 360.337 409.155 378.678 419.485 392C431.529 407.534 448.812 418.375 463.701 430.91C474.928 440.361 484.686 451.295 494.386 462.25C495.65 453.711 495.967 444.636 496.682 436C498.115 418.698 498.566 400.906 493.958 384C485.719 353.765 460.171 330.878 435.484 313.374C423.452 304.843 411.224 296.71 400.529 286.459C392.481 278.746 385.843 270.312 379.753 261.015C360.98 232.355 351.957 191.942 362.263 158.696C363.749 153.904 364.866 149.049 367.621 144.779C372.552 137.135 380.272 128.99 387.305 123.209C388.064 122.585 393.247 119.213 393.35 118.854C393.457 118.477 392.834 116.534 392.725 116.159C392.191 114.314 391.855 112.968 392.291 111.039L395.518 98.4746C399.039 102.671 406.482 109.645 407.626 114.797C408.058 116.744 408.191 118.593 407.073 120.326C406.358 121.432 404.826 122.47 403.807 123.342C400.902 125.828 397.76 128.158 394.982 130.768C388.649 136.717 383.549 143.184 378.808 150.432C368.73 165.837 369.875 188.229 373.681 205.507C380.32 235.644 398.963 262.942 425.028 279.509C424.069 272.581 423.326 265.199 424.125 258.218C425.395 247.128 430.273 235.874 436.032 226.405C439.442 220.799 443.39 214.922 445.086 208.528L445.23 207.96L448.75 208.26C451.955 208.521 452.187 209.326 454.75 210.69C456.577 211.662 458.663 212.36 460.596 213.108C459.093 214.878 457.113 216.19 455.538 217.912C451.651 222.161 447.168 228.414 444.852 233.679C440.09 244.507 439.668 254.793 442.351 266.179C445.81 280.856 452.992 292.92 463.005 304.048C470.923 312.848 480.251 320.912 487.648 330.127C498.675 343.863 506.528 358.881 512.73 375.291L518.317 351.439C519.903 344.39 521.747 337.323 521.964 330.065C522.67 306.463 515.65 281.496 506.965 259.75C500.929 244.636 493.341 229.769 488.933 214.07C483.378 194.292 484.274 172.834 489.996 153.25C491.695 147.438 495.739 143.505 499.083 138.635C502.074 134.279 504.569 129.596 507.748 125.352C510.461 121.731 513.743 118.423 516.553 114.824C516.088 116.672 515.267 118.401 514.799 120.25C513.628 124.874 513.028 129.305 511.23 133.783C508.5 140.582 504.858 147.027 502.28 153.903C500.88 157.636 500.205 162.007 499.521 165.934C496.549 183 500.461 200.956 507.921 216.423C513.952 228.926 522.113 240.606 528.676 252.862C530.957 257.121 532.744 261.646 534.719 266.053L535.047 265.903C542.223 252.241 552.362 241.621 563.122 230.75C574.243 219.514 585.915 209.115 591.705 193.895C592.932 190.669 593.459 187.118 594.17 183.75C595.456 177.663 595.33 170.776 594.392 164.641C590.978 142.326 575.089 127.747 557.769 115.083C557.767 112.527 558.982 109.395 559.785 106.992C561.145 102.923 562.605 98.8835 563.493 94.6777C565.084 87.1405 564.321 79.1919 565.507 71.5L568.6 86.0116C569.544 91.4008 569.766 96.8399 570.044 102.292L584.583 113.253C599.002 125.98 605.487 145.218 606.619 164.003C607.863 184.618 602.838 204.195 590.373 220.874C583.765 229.718 575.902 237.352 568.621 245.612C559.847 255.564 549.339 270.097 547.91 283.576C546.913 292.98 548.398 303.525 548.962 312.968C556.594 303.705 565.168 295.182 574.631 287.768L602.309 267.667C616.576 257.68 631.873 246.956 640.095 231.051C650.193 211.518 652.473 185.981 645.757 165.058C642.089 153.635 635.326 143.729 627.539 134.715C624.468 131.159 621.296 127.517 617.605 124.588C614.078 121.788 609.528 119.348 605.524 117.286C607.679 113.968 609.89 110.017 612.973 107.495C620.102 110.103 625.154 113.678 630.773 118.689C650.069 135.898 662.152 158.092 663.47 184.198C664.313 200.89 662.176 219.185 655.723 234.695C651.129 245.737 643.441 255.724 635.495 264.521C631.746 268.671 627.888 272.921 623.638 276.567C604.697 292.812 583.901 306.722 567.291 325.597C548.355 347.115 536.282 375.884 534.562 404.503C533.658 419.555 535.108 434.885 536.191 449.886C542.35 445.078 547.893 439.448 554.144 434.781C564.769 426.849 576.071 420.393 587.307 413.446C593.584 409.565 598.377 405.396 603.395 400.07C605.108 398.252 607.002 396.592 608.206 394.37C610.209 390.672 611.156 386.243 612.087 382.177C615.018 369.378 616.044 353.928 608.787 342.4C605.778 337.619 601.925 333.389 598.991 328.607C598.532 327.859 597.749 326.767 597.58 325.926C596.987 322.973 599.017 317.193 599.699 314.279C603.952 316.732 608.079 320.438 611.19 324.226C616.381 330.544 617.507 338.479 618.723 346.284C620.387 356.973 621.324 367.224 620.337 378.043C626.377 366.416 631.553 355.133 632.943 342.014C633.18 342.995 633.376 343.99 633.437 345C633.914 352.931 632.497 359.486 630.688 367.154C629.447 372.414 628.668 377.814 626.707 382.875C623.336 391.573 615.552 398.999 609.966 406.27C603.787 414.314 597.981 422.092 590.358 428.886C581.842 436.475 571.764 442.388 564.171 451.005C557.876 458.149 552.362 468.043 550.348 477.407C548.195 487.419 548.803 498.606 549.162 508.795L549.937 531.258C565.474 516.764 584.893 503.784 603.934 494.354L640 478.037C652.707 472.106 661.168 462.465 669.252 451.28C674.725 443.706 679.45 436.154 682.638 427.308C690.074 406.668 687.536 382.64 678.212 363.024C672.694 351.416 664.066 340.417 654.185 332.19C649.133 327.984 643.368 324.462 637.821 320.945C628.073 314.764 617.808 309.327 606.909 305.451C610.512 302.313 614.552 299.747 618.516 297.095C622.999 297.429 626.659 299.058 630.735 300.806C638.471 304.126 645.477 308.116 652.558 312.695C673.96 326.535 691.158 349.406 700.653 372.93C704.874 383.387 707.551 394.306 709.932 405.303C714.963 389.909 720.166 375.071 723.113 359.085C725.163 347.962 726.577 334.904 723.973 323.75C722.519 317.521 719.691 311.932 716.562 306.397C711.227 296.959 705.046 290.076 696.094 283.885C693.399 282.022 690.391 279.932 687.333 278.733C685.466 278.001 681.123 277.445 679.69 276.242C678.035 274.853 676.466 269.594 675.345 267.543C673.839 264.787 671.932 262.169 670.157 259.578C672.54 259.416 675.135 259.143 677.5 259.491C683.09 260.311 689.069 263.35 693.906 266.172C700.685 270.125 707.266 274.441 712.898 279.972C717.847 284.834 722.068 290.355 726.284 295.842C725.593 270.409 708.714 248.159 694.723 228.266L707.272 226.316L707.765 226.188C714.64 236.068 722.556 245.659 728.75 255.952L733.515 264.84C743.896 283.768 743.837 303.682 743.355 324.587C743.171 332.584 743.365 340.68 742.575 348.641C741.59 358.575 739.249 367.903 736.481 377.455C755.326 373.566 771.011 363.356 786.211 352.171C790.343 349.131 794.795 346.212 798.505 342.669C807.76 333.832 815.6 323.497 822.744 312.925C829.805 302.475 832.48 292.266 830.976 279.75C830.681 277.29 829.872 274.866 829.427 272.418C827.917 264.115 826.979 250.862 830.595 242.989C831.363 241.316 832.561 239.735 833.6 238.218C833.378 246.564 833.735 254.915 835.423 263.119C836.334 267.548 837.97 271.855 839.192 276.209C843.648 292.099 840.377 304.34 832.35 318.477C826.07 329.536 819.411 340.347 810.689 349.7C796.199 365.239 776.353 375.979 756.32 382.419C752.206 383.741 748.119 384.451 743.83 384.978C741.538 385.26 738.375 385.196 736.25 386.011C735.951 386.126 735.651 386.247 735.374 386.407C733.908 387.251 726.891 404.978 725.63 407.78L713.929 432.999L700.543 458.662L729.956 455.177L774.59 451.992C786.807 450.854 799.356 449.673 811.055 445.756C816.86 443.812 822.664 440.852 827.998 437.889C841.543 430.366 850.887 418.977 854.975 403.954C857.331 395.295 857.573 385.13 852.878 377.25C846.901 367.216 835.671 359.932 824.38 357.236C820.214 356.241 815.919 355.895 811.75 354.872L811.506 354L812.062 353.31C814.406 350.569 818.936 349.459 822.392 349.353C833.696 349.006 844.609 353.341 852.816 361.097C862.524 370.273 869.143 382.274 869.458 395.825C869.623 402.901 869.056 410.936 866.668 417.621C865.579 420.671 863.694 423.537 862.02 426.295C851.616 443.429 833.304 455.398 814.119 460.61C808.867 462.036 803.395 463.409 798.03 464.293C796.7 464.512 791.363 464.62 790.655 465.356L796.3 471.956C808.354 487.392 813.749 505.554 811.279 525.018C809.144 541.843 802.24 557.748 793.546 572.171C790.663 576.952 787.649 582.027 784.114 586.348C777.775 594.097 770.638 600.047 762.797 606.149L767.856 606.903L788.594 608.291C802.788 609.16 818.425 610.971 830.181 601.199C835.685 596.624 838.88 592.186 842.762 586.278C853.987 569.196 859.688 547.593 860.556 527.202C861.057 515.453 859.732 503.631 860.873 491.898C863.074 496.214 864.668 500.29 865.87 504.985C868.724 516.14 868.649 526.625 868.008 538C867.487 547.252 866.473 556.58 863.759 565.49C862.243 570.469 859.424 576.157 856.949 580.75C855.141 584.105 852.918 587.573 850.65 590.63C849.225 592.55 846.191 594.917 845.268 596.98C843.928 599.973 845.469 604.561 843.841 607.327C835.264 613.794 824.585 617.293 814.05 618.87C816.865 620.021 820.225 620.549 823.18 621.344L837.229 625.707C843.869 627.93 849.33 631.781 855.536 634.864C860.907 637.533 866.633 639.517 871.79 642.618C867.861 641.73 864.099 641.221 860.082 640.935C868.403 646.658 877.807 648.26 886.925 652.121C894.035 655.132 899.313 659.124 905.75 663.178C919.966 672.13 929.182 690.442 935.57 705.426C929.731 698.345 925.38 689.753 919.47 682.75C914.987 677.437 909.859 674.378 904.132 670.65C897.558 666.37 891.078 662.137 883.989 658.721C879.886 656.743 875.404 655.316 871.127 653.749C877.319 663.446 882.648 671.727 884.905 683.244C885.603 686.803 886.698 690.894 886.72 694.494C886.755 700.375 882.866 707.282 879.677 712.034C876.955 705.323 875.033 698.82 873.077 691.867C868.938 677.162 856.955 663.307 843.66 655.967C825.053 645.695 801.566 641.704 780.637 639.483C746.329 635.844 711.751 635.851 678.287 645.433C637.486 657.115 600.108 682.967 579.541 720.625C563.457 750.074 563.571 787.855 572.962 819.391C576.209 830.295 581.141 840.664 588.707 849.258C593.444 854.64 599.83 859.472 605.788 863.406C624.02 875.443 646.951 883.508 668.706 885.657C684.548 887.223 700.504 885.466 716.304 886.626C739.852 888.353 762.896 893.793 785.406 900.769C791.334 902.606 797.678 904.209 803.136 907.162L765.945 901.339C753.028 899.29 740.161 896.987 727.048 896.59C716.069 896.257 705.259 897.589 694.508 899.683C684.215 901.687 673.538 904.444 663 904.373C655.045 904.32 647.797 902.835 640.334 900.107L642.324 902.161C646.966 906.787 653.931 910.203 659.754 913.178C695.121 931.25 735.027 935.06 774.119 934.996L771.393 935.982C764.553 938.207 756.319 938.324 749.172 938.958C715.738 941.922 681.797 937.472 650.747 924.378C645.447 922.143 640.443 919.262 635.327 916.641L641.12 924.281C655.572 939.904 679.552 949.449 700.414 951.601C712.892 952.888 725.548 952.244 738.071 952.692L696.978 958.441C674.141 959.515 652.155 957.562 631.78 946.415C629.676 945.264 627.417 944.287 625.436 942.928C622.563 940.956 619.906 938.259 617.323 935.913C628.797 957.047 651.663 967.731 673.158 975.644C677.655 977.299 682.123 979.428 686.752 980.617C690.666 981.623 694.629 982.824 698.6 983.55C703.506 984.447 709.222 984.808 713.925 986.436L694.028 986.572L675.003 985.286C651.946 983.783 629.42 980.395 608.638 969.598C581.39 955.441 560.026 931.58 539.057 909.732C537.36 918.518 536.957 927.771 536.221 936.696C535.912 940.439 534.999 945.239 535.463 948.933C535.607 950.073 536.115 951.152 536.658 952.154C543.92 965.568 556.704 980.365 570.589 987.123C573.715 988.644 577.355 989.477 580.695 990.438C567.535 990.07 554.791 988.302 542.344 983.816C536.132 981.577 529.976 978.845 524 976.02L514.354 971.265C513.879 971.034 512.197 970.035 511.767 970.013C510.952 969.973 505.665 973.513 504.579 974.075C498.549 977.193 492.236 979.64 485.866 981.953C469.24 987.99 450.478 990.688 432.816 990.249C437.522 988.859 442.527 987.74 447.097 985.981C462.656 979.993 477.437 968.724 488.008 955.943C489.483 954.159 492.956 950.373 493.451 948.161C493.902 946.144 493.311 942.72 493.184 940.551L490.472 910.224C476.903 917.889 465.03 927.804 453.133 937.75C444.262 945.167 436.035 953.638 426.949 960.705C419.052 966.847 409.886 972.709 400.636 976.556C377.801 986.055 350.659 986.658 326.25 987.634C338.481 983.292 350.563 979.878 362.047 973.634C379.999 963.873 394.563 952.052 406.573 935.5C412.662 927.108 417.074 919.755 420.047 909.742L400.144 928.424C393.105 934.102 386.012 939.537 377.967 943.75C344.153 961.455 303.179 957.4 266.657 953.499C268.733 952.679 271.759 953.095 274 952.966L282.25 952.118L302.307 948.929C323.64 944.547 357.122 933.006 369.464 914.169L364.807 916.373C354.601 921.107 344.215 924.15 333.414 927.105C299.897 936.276 263.146 940.752 228.457 937.702C218.407 936.819 208.157 935.499 198.638 932.02C203.705 932.037 208.641 932.988 213.75 932.918C225.88 932.751 238.111 931.643 250.167 930.338C266.073 928.618 281.954 926.328 297.5 922.481C305.023 920.619 312.548 917.823 319.925 915.413C329.93 912.144 339.969 908.705 349.571 904.375C333.685 906.858 318.469 905.435 302.75 902.478C291.057 900.278 279.833 897.585 267.85 897.111C246.381 896.261 225.553 899.493 204.25 901.332C196.363 902.012 188.208 903.068 180.293 902.674L222.197 892.54C231.713 890.39 241.254 888.258 250.995 887.411C277.109 885.142 303.491 887.791 329.675 886.916C339.506 886.587 349.13 884.912 358.755 883.008C387.322 877.358 417.403 866.65 439.424 846.905C458.704 829.619 466.788 803.966 467.936 778.704C469.24 749.987 462.914 722.573 446.873 698.586C444.062 694.383 441.351 690.114 437.936 686.366C430.491 678.197 422.646 670.922 413.418 664.787C387.293 647.418 352.422 639.049 321.305 637.681C297.851 636.65 274.34 637.883 251.123 641.228C235.962 643.412 220.873 646.355 206.321 651.215C199.009 653.658 191.674 656.096 184.778 659.601C181.127 661.456 177.936 663.88 174.569 666.183C169.212 669.845 164.29 673.345 159.505 677.806C151.958 684.842 149.582 693.043 146.455 702.5C145.207 706.273 143.543 709.855 143.568 713.906C143.629 723.888 159.254 728.097 164.869 734.198C168.153 737.765 169.74 746.135 169.316 750.9C169.206 752.127 169.193 752.345 168.25 753.169C163.514 752.323 155.662 750.42 151.701 747.638C138.872 738.627 142.306 719.847 140.857 706.25C140.449 702.42 138.229 699.333 137.778 695.75C137.496 693.509 138.13 690.957 138.513 688.75C140.856 675.27 146.529 664.371 155.557 654.186C149.407 655.104 144.133 656.83 138.345 659.022C135.97 659.921 133.204 660.748 131.024 662.016C128.956 663.219 126.758 665.745 124.508 666.328C121.98 666.983 119.511 669.273 117.557 670.958C113.701 674.284 109.757 678.105 106.646 682.132C103.021 686.825 100.02 692.328 96.7088 697.287C94.8252 700.107 93.4709 703.234 91.0886 705.683C91.5545 703.811 92.664 702.053 93.3707 700.25C97.4086 689.949 101.807 678.754 108.875 670.065C110.383 668.212 112.612 666.678 114.451 665.16C116.422 663.533 118.162 661.617 120.304 660.201C129.197 654.322 139.711 650.93 149.985 648.501C152.707 647.857 155.899 646.807 158.667 646.688C163.426 646.483 165.853 644.814 170.013 642.732C174.428 640.522 178.105 637.228 182.429 634.926C196.494 627.436 211.123 623.288 226.579 619.834L221.75 619.497C210.902 618.292 198.902 614.63 188.991 610.075C187.212 609.257 184.382 608.276 183.255 606.57C181.221 603.493 182.967 597.906 181.998 594.456C181.745 593.556 180.415 592.298 179.822 591.635C177.524 589.065 175.07 586.556 172.952 583.838C167.803 577.227 162.648 567.692 160.615 559.516C157.29 546.148 158.969 531.504 160.398 518.023L162.131 499.214C163.218 500.602 164.354 502.046 165.2 503.596C167.198 507.258 168.474 511.904 170.025 515.821C170.349 516.639 171.552 518.922 171.553 519.699C171.553 520.197 170.549 522.035 170.314 522.59C168.596 526.647 165.659 532.114 166.004 536.559C166.341 540.901 167.702 545.293 168.869 549.471C170.699 556.02 172.931 563.079 175.798 569.248C177.305 572.49 179.287 575.601 181 578.75C184.632 585.427 187.961 591.296 193.779 596.371C197.771 599.852 202.57 602.932 207.557 604.758C218.461 608.749 231.883 609.131 243.401 609.524C250.444 609.765 257.468 610.077 264.504 609.533C261.031 606.546 257.133 604.143 253.75 601.014C237.341 585.838 224.517 565.655 220.755 543.366C217.055 521.447 223.006 499.239 235.744 481.25L249.839 485.416C243.246 493.45 237.799 504.649 235.983 514.961L235.854 515.75C234.098 526.115 235.092 536.828 238.535 546.757C245.368 566.461 260.31 582.215 276.986 594.172C282.126 597.857 287.08 601.395 292.778 604.183C292.178 601.662 291.746 598.957 290.926 596.5C289.93 593.517 288.558 590.735 287.678 587.692C284.682 577.338 282.398 566.417 282.621 555.573C282.702 551.646 283.619 547.878 284.25 544.022C284.877 540.191 285.176 536.305 285.974 532.5C288.096 522.371 298.339 511.106 306.751 505.528C312.548 501.684 318.311 500.291 325.133 501.897C326.753 502.278 328.216 503.102 329.072 504.569C329.621 505.511 330.147 507.152 329.935 508.25C329.366 511.191 322.899 516.453 320.708 518.672C315.105 524.347 309.764 530.177 305.02 536.596C302.173 540.449 299.44 544.144 298.461 548.945L298.308 549.75L297.894 552.692C297.1 570.104 307.442 583.292 319.29 594.624C322.384 597.584 327.394 602.253 331.344 603.802C334.228 604.932 337.813 605.044 340.865 605.399L362.5 607.457C392.789 611.165 423.836 618.482 449.829 635.011C453.442 637.309 457.349 639.547 460.666 642.256C464.907 645.719 468.505 649.913 472.133 653.994L471.605 612.439C470.899 597.37 469.443 582.75 463.298 568.75C457.318 555.125 447.73 543.972 436.476 534.428C409.014 511.139 373.447 497.998 338.963 489.167L328.623 486.111C320.227 484.029 311.589 482.641 303.025 481.461C297.121 480.647 291.063 480.491 285.117 480.027L246.451 476.348C233.628 474.757 220.955 472.698 208.88 467.935C193.435 461.842 180.749 453.732 169.921 441.078C166.272 436.814 162.699 432.157 160.475 426.978C157.969 421.144 155.346 415 153.93 408.799C149.844 390.901 152.954 372.289 156.033 354.466C156.917 349.346 156.297 343.794 158.228 338.98C161.813 344.732 164.686 351.338 164.931 358.244C165.168 364.901 163.866 371.45 163.567 378.058C162.705 397.173 170.384 414.632 183.334 428.508C199.239 445.551 223.962 452.75 246.569 454.625C258.971 455.653 271.574 455.056 284 455.058L327.964 456.039C327.301 454.458 325.744 452.937 324.671 451.589C322.456 448.809 320.152 446.046 318.196 443.075C313.097 435.327 308.317 426.461 304.135 418.165L291.137 389.992C290.536 388.528 289.739 384.111 288.755 383.068C287.56 381.803 282.156 380.882 280.374 380.339L260.619 373.802C246.93 368.709 233.43 361.847 221.689 353.12C218.753 350.938 216.486 348.084 213.527 345.903C210.146 343.41 208.07 340.49 205.453 337.289C203.774 335.235 201.755 333.428 200.178 331.297C198.08 328.459 196.299 325.192 194.692 322.058C190.487 313.851 186.525 304.505 186.613 295.097C186.668 289.223 188.363 283.102 190.317 277.594C192.423 271.656 194.386 266.357 194.552 259.958C194.63 256.999 194.776 253.889 194.195 250.98C193.72 248.6 192.358 245.121 192.75 242.817C193.495 246.336 195.328 249.62 195.687 253.25C197.411 270.67 192.563 289.42 200.362 305.798C216.226 339.112 253.489 357.761 286.708 369.514C281.541 356.331 279.349 341.966 278.832 327.87C278.576 320.867 279.513 314.137 280.595 307.233C284.752 280.716 295.749 254.938 314.36 235.267C318.42 230.976 329.128 220.439 335.138 220.634C338.05 220.729 340.903 222.385 343.203 224.038C350.162 229.039 355.636 235.899 361.549 242.042L352.635 236.76C350.805 235.559 348.684 233.836 346.653 233.072C343.842 232.015 340.644 232.892 338.062 234.19C330.573 237.956 324.873 243.74 319.453 249.971C310.794 259.925 304.012 270.228 299.717 282.767C301.193 285.03 301.118 287.709 303.219 289.445Z"/>
	<path fill="#ECECEF" transform="scale(1.80081 1.80081)" d="M303.219 289.445L297.347 298.208C297.286 293.215 298.729 287.671 299.717 282.767C301.193 285.03 301.118 287.709 303.219 289.445Z"/>
	<path fill="white" transform="scale(1.80081 1.80081)" d="M772.177 472.25C775.262 472.143 777.119 471.448 779.588 473.527C789.728 482.063 796.811 494.468 797.824 507.75C799.732 532.752 783.308 556.828 767.778 574.827C761.547 582.048 754.45 587.387 746.63 592.737C738.147 598.54 728.728 604.613 718.243 605.353C720.417 602.506 722.869 599.603 724.538 596.427C732.077 582.076 733.395 564.131 732.17 548.204C731.062 533.804 725.946 517.723 714.463 508.195C708.244 503.035 699.029 498.734 690.769 499.704C686.412 500.216 682.736 500.901 679.935 504.528C677.651 507.486 676.501 510.272 677.201 514.082C677.762 517.132 679.521 520.178 681.972 522.086C685.161 524.568 689.831 525.678 693.58 527.118C698.616 529.052 703.862 531.398 708.372 534.373C715.202 538.878 721.037 545.689 722.72 553.75C723.392 556.97 723.443 560.097 722.784 563.326C720.032 576.815 705.251 588.219 694.454 595.425L693.996 595.741L693.225 596.255C688.166 599.679 682.054 603.279 676.33 605.463C672.955 606.75 669.276 607.337 665.779 608.198L649.202 612.849C626.433 619.786 602.89 629.705 583.621 643.925C577.263 648.617 571.384 654.081 565.541 659.389C564.327 632.488 562.448 602.378 572.9 576.906C579.046 561.93 589.64 548.903 601.892 538.468C610.519 531.121 619.041 524.829 629.097 519.51C633.808 517.018 638.695 514.856 643.742 513.138C647.943 511.708 652.444 511.206 656.605 509.7C657.292 509.451 659.031 508.92 659.483 508.471C661.931 506.037 663.644 501.969 666.107 499.235C669.921 495.004 674.35 492.103 679.309 489.389C697.144 479.627 720.129 477.746 740.032 475.46C750.726 474.232 761.42 472.773 772.177 472.25Z"/>
	<path transform="scale(1.80081 1.80081)" d="M770.209 486.25C774.263 489.538 780.831 497.113 782.239 502.05C784.476 509.893 779.54 515.273 775.835 521.581L775.382 520.958C772.312 516.526 766.624 513.006 764.25 508.482C759.674 499.763 767.942 494.164 770.051 486.835L770.209 486.25Z"/>
	<path transform="scale(1.80081 1.80081)" d="M739.801 510.51C742.829 510.782 745.774 511.126 748.601 512.348C752.697 514.12 757.893 517.719 759.45 522.101C761.095 526.727 761.176 535.941 758.972 540.378L758.25 539.73C755.996 537.328 750.606 536.275 747.583 534.579C741.417 531.121 737.609 526.351 735.692 519.62C736.637 516.281 738.105 513.521 739.801 510.51Z"/>
	<path transform="scale(1.80081 1.80081)" d="M663.577 510.25C664.602 509.997 664.067 510.016 665.184 510.25C666.265 512.672 666.274 515.47 666.845 518.053C668.044 523.484 670.461 529.101 673.289 533.885C679.766 544.843 690.969 553.872 703.41 556.869L704.198 557.056C703.704 557.786 699.773 558.789 698.729 559.156C695.414 559.994 692.315 560.199 688.915 560.06C681.136 559.74 673.694 556.631 668.467 550.675C661.699 542.963 658.35 532.973 658.969 522.75C659.217 518.643 660.471 513.076 663.577 510.25Z"/>
</svg>
