<?xml version="1.0" encoding="utf-8" ?>
<svg xmlns="http://www.w3.org/2000/svg" xmlns:xlink="http://www.w3.org/1999/xlink" width="1844" height="1844">
	<path fill="white" transform="scale(1.80081 1.80081)" d="M-0 -0L1024 0L1024 1024L-0 1024L0 -0Z"/>
	<path fill="#34B600" transform="scale(1.80081 1.80081)" d="M911.816 534.687L920.667 539.336C919.094 541.194 914.419 547.537 912.333 548.096L911.953 547.281L916.375 542.875C915.886 542.209 915.739 541.281 915.576 540.468C915.445 539.818 915.208 537.69 914.755 537.25C914.715 537.211 913.121 536.488 913.035 536.427C912.66 536.164 912.108 535.104 911.816 534.687Z"/>
	<defs>
		<linearGradient id="gradient_0" gradientUnits="userSpaceOnUse" x1="670.64935" y1="201.98228" x2="674.67047" y2="175.72441">
			<stop offset="0" stop-color="#065400"/>
			<stop offset="1" stop-color="#167200"/>
		</linearGradient>
	</defs>
	<path fill="url(#gradient_0)" transform="scale(1.80081 1.80081)" d="M660.569 193.374C663.684 187.455 668.313 178.902 675.124 176.806L677 176.393L677.647 176.268C680.916 175.697 684.383 176.272 687.7 176.172C686.189 178.283 684.773 180.371 683.602 182.697C680.719 188.421 676.068 201.62 668.916 202.546C667.732 202.699 667.084 202.577 666.096 201.887C664.393 200.699 663.836 198.056 663.264 196.203C663.214 196.038 662.777 194.354 662.692 194.284C662.386 194.032 661.913 194.14 661.523 194.068L660.569 193.374Z"/>
	<path fill="#146801" transform="scale(1.80081 1.80081)" d="M449.037 102.779L452.321 103.908C454.374 104.786 456.052 106.073 457.918 107.25C464.511 111.408 470.191 115.029 473.353 122.588C471.667 124.951 470.208 126.754 467.704 128.339C462.254 131.79 459.084 132.688 452.728 131.263C446.206 128.951 441.024 124.272 435.709 120.005C443.24 115.712 450.582 112.163 458.663 109.012L449.037 102.779Z"/>
	<defs>
		<linearGradient id="gradient_1" gradientUnits="userSpaceOnUse" x1="645.56396" y1="241.01151" x2="623.95996" y2="220.05678">
			<stop offset="0" stop-color="#004800"/>
			<stop offset="1" stop-color="#2BA703"/>
		</linearGradient>
	</defs>
	<path fill="url(#gradient_1)" transform="scale(1.80081 1.80081)" d="M619.778 224.536C621.268 221.126 625.452 217.467 627.749 214.292C634.655 214.11 642.293 219.809 647.062 224.416C649.252 226.532 650.418 228.55 650.46 231.598C650.504 234.703 650.275 238.303 647.931 240.605C645.158 243.328 640.774 244.349 637 244.176C632.655 243.976 627.904 242.325 624.933 239.034C621.453 235.179 620.991 229.365 619.778 224.536Z"/>
	<path fill="#146801" transform="scale(1.80081 1.80081)" d="M728.807 468.683L734.404 468.281C740.966 471.718 746.728 477.368 752.191 482.334L751.321 483.54C747.092 489.149 740.025 492.98 733.162 493.868C730.682 493.712 728.194 493.608 725.822 492.795C717.97 490.102 712.909 479.282 709.549 472.373L728.807 468.683Z"/>
	<path fill="#146801" transform="scale(1.80081 1.80081)" d="M239.21 354.621C241.556 354.481 244.534 354.149 246.819 354.651C256.571 356.795 263.906 365.177 268.794 373.363C263.638 376.785 260.285 382.243 255.247 385.725C252.926 387.329 250.265 388.204 247.606 389.053C246.584 389.28 245.553 389.48 244.5 389.389C242.4 389.207 240.17 388.048 238.339 387.039C230.589 382.766 224.6 374.925 218.733 368.433C224.196 363.157 231.923 356.897 239.21 354.621Z"/>
	<path fill="#146801" transform="scale(1.80081 1.80081)" d="M764.603 361.655C769.618 360.954 774.443 361.876 779 364.007C786.082 367.319 792.377 372.497 796.323 379.303C798 382.196 799.061 385.579 800.23 388.703C796.916 390.947 795.045 394.254 792.007 396.448C790.681 397.406 788.985 398.059 787.493 398.721C781.215 400.14 773.63 399.925 768.002 396.429C757.632 389.987 754.618 374.498 751.792 363.631L764.603 361.655Z"/>
	<defs>
		<linearGradient id="gradient_2" gradientUnits="userSpaceOnUse" x1="621.7395" y1="308.28033" x2="629.83081" y2="257.651">
			<stop offset="0" stop-color="#125801"/>
			<stop offset="1" stop-color="#2AAA00"/>
		</linearGradient>
	</defs>
	<path fill="url(#gradient_2)" transform="scale(1.80081 1.80081)" d="M618.957 254.613C628.782 259.878 640.304 269.111 643.58 280.29C646.901 291.624 638.935 302.413 633.954 311.893L628.336 309.151C620.282 304.742 609.897 297.402 607.471 288.033C604.872 277.997 614.006 263.187 618.957 254.613Z"/>
	<defs>
		<linearGradient id="gradient_3" gradientUnits="userSpaceOnUse" x1="322.81744" y1="469.55975" x2="322.21552" y2="432.47217">
			<stop offset="0" stop-color="#0F5200"/>
			<stop offset="1" stop-color="#1E8C01"/>
		</linearGradient>
	</defs>
	<path fill="url(#gradient_3)" transform="scale(1.80081 1.80081)" d="M321.225 431.64C330.354 431.174 338.95 434.281 347.548 437.012C344.193 445.471 344.786 455.146 339.386 462.748C335.735 467.888 330.729 469.974 324.746 470.908C319.724 470.75 315.404 470.091 310.677 468.381C306.805 466.98 303.187 464.97 299.21 463.869L298.672 463.727C298.554 461.296 298.333 458.814 298.795 456.408L298.933 455.75C299.476 453.031 300.619 450.67 302.023 448.3C306.13 441.37 313.24 433.631 321.225 431.64Z"/>
	<defs>
		<linearGradient id="gradient_4" gradientUnits="userSpaceOnUse" x1="280.18503" y1="461.54456" x2="264.04465" y2="424.63266">
			<stop offset="0" stop-color="#135E00"/>
			<stop offset="1" stop-color="#22A800"/>
		</linearGradient>
	</defs>
	<path fill="url(#gradient_4)" transform="scale(1.80081 1.80081)" d="M272.97 465.553L272.519 465.348C269.963 464.318 267.042 464.03 264.404 463.166C260.458 461.873 253.809 457.506 251.826 453.631C250.389 450.822 251.022 447.17 252.088 444.365C257.708 429.578 271.229 420.707 285.09 414.656C287.551 422.192 291.058 429.609 292.124 437.5L292.248 438.357C293.111 444.93 290.11 453.128 286.054 458.25C283.106 461.973 279.052 463.231 275.088 465.462L272.97 465.553Z"/>
	<defs>
		<linearGradient id="gradient_5" gradientUnits="userSpaceOnUse" x1="682.92102" y1="347.26413" x2="703.47638" y2="296.8056">
			<stop offset="0" stop-color="#084500"/>
			<stop offset="1" stop-color="#29AA00"/>
		</linearGradient>
	</defs>
	<path fill="url(#gradient_5)" transform="scale(1.80081 1.80081)" d="M697.944 303.067C703.644 302.476 710.146 303.261 715.559 301.546L715.165 315.679C714.702 322.674 713.233 328.139 709.588 334.207C704.141 343.273 693.107 345.397 683.644 347.782C679.783 340.648 673.372 335.859 671.946 327.386C671.059 322.119 673.41 317.553 676.439 313.38C679.814 308.73 685.059 304.525 690.867 303.641L697.944 303.067Z"/>
	<path fill="#146801" transform="scale(1.80081 1.80081)" d="M533.078 154.493L533.725 154.439C536.586 154.118 540.008 151.337 543 150.456L543.812 150.208C551.032 148.136 558.148 150.189 564.446 153.843C569.925 157.023 577.107 164.326 578.837 170.576L579.005 171.25L579.176 171.882C579.712 174.044 579.54 176.406 579.497 178.62C571.865 184.618 559.271 191.575 549.179 190.27C542.617 189.421 535.764 185.527 531.962 180C529.48 176.392 528.749 171.513 528.643 167.241C529.819 165.59 531.678 163.596 531.828 161.535L531.215 160.561L531.083 160.253C530.783 158.345 532.143 156.08 533.078 154.493Z"/>
	<defs>
		<linearGradient id="gradient_6" gradientUnits="userSpaceOnUse" x1="584.94592" y1="416.4794" x2="549.31726" y2="378.79898">
			<stop offset="0" stop-color="#064401"/>
			<stop offset="1" stop-color="#1E8400"/>
		</linearGradient>
	</defs>
	<path fill="url(#gradient_6)" transform="scale(1.80081 1.80081)" d="M564.68 381.171C571.601 380.587 578.602 380.826 584.348 385.3C589.658 389.435 595.948 397.685 596.672 404.55L596.919 407.218L595.095 408.25C591.325 410.179 588.436 412.96 584.984 415.353C580.059 418.765 575.411 419.636 569.517 419.651C564.59 419.509 559.969 417.947 555.75 415.405C548.216 410.866 542.909 402.636 538.849 395.087C537.93 393.379 536.585 391.558 536.109 389.688C540.149 387.852 544.399 386.718 548.626 385.399C554.082 383.696 558.982 381.959 564.68 381.171Z"/>
	<path fill="#146801" transform="scale(1.80081 1.80081)" d="M681.127 586.75L682.181 586.746C683.121 589.067 683.424 591.841 683.803 594.31C685.203 603.422 684.267 612.446 678.587 620.012C669.391 632.258 655.72 634.315 641.547 636.249L638.25 636.824C639.092 633.531 639.187 630.085 639.551 626.712C640.618 616.81 641.533 605.054 647.484 596.75C655.797 585.151 668.227 589.022 680.407 586.88L681.127 586.75Z"/>
	<defs>
		<linearGradient id="gradient_7" gradientUnits="userSpaceOnUse" x1="800.75391" y1="192.07423" x2="737.38013" y2="201.75912">
			<stop offset="0" stop-color="#1A9300"/>
			<stop offset="1" stop-color="#083102"/>
		</linearGradient>
	</defs>
	<path fill="url(#gradient_7)" transform="scale(1.80081 1.80081)" d="M736.418 195.608C736.86 195.489 737.374 195.522 737.744 195.252C739.041 194.304 740.41 191.178 741.472 189.75C743.96 186.405 747.69 182.812 751.225 180.612C757.017 177.008 763.969 175.938 770.573 177.694L771.5 177.953C774.814 178.86 777.386 180.002 780.065 182.174C788.793 187.738 794.921 197.604 802.996 204.265C796.824 209.632 788.589 213.173 780.842 215.682L775.903 217.459C767.626 219.676 756.209 219.058 748.75 214.456C745.139 212.228 740.632 207.75 739.735 203.5C740.278 200.993 741.977 199.006 743.432 196.941C741.44 196.249 738.397 196.473 736.248 196.348L736.418 195.608Z"/>
	<path fill="#146801" transform="scale(1.80081 1.80081)" d="M772.993 659.047C778.385 664.566 783.909 670.623 786.431 678.088L786.686 678.882C787.898 682.569 787.884 687.473 787.279 691.286L787.155 692C786.851 693.843 786.509 695.537 785.768 697.266C780.717 709.04 766.651 714.386 755.622 718.694L749.886 720.928C749.57 719.796 749.658 720.271 749.519 719.206C748.286 709.748 744.307 700.663 743.776 691.148C743.371 683.886 746.448 675.699 751.425 670.38C754.343 667.262 758.199 665.699 761.892 663.744C763.617 662.831 765.407 661.635 767.398 661.559C769.198 661.49 770.653 660.45 772.163 659.548L772.993 659.047Z"/>
	<defs>
		<linearGradient id="gradient_8" gradientUnits="userSpaceOnUse" x1="103.85801" y1="351.23477" x2="170.21278" y2="355.02643">
			<stop offset="0" stop-color="#2BA400"/>
			<stop offset="1" stop-color="#083806"/>
		</linearGradient>
	</defs>
	<path fill="url(#gradient_8)" transform="scale(1.80081 1.80081)" d="M157.672 371.977C156.493 373.221 153.545 374.22 151.894 374.601C135.789 378.318 116.521 365.998 103.516 358.058C105.434 355.692 108.194 353.566 110.422 351.46C116.68 345.545 123.495 337.897 131.769 334.916C138.439 332.512 145.301 331.484 151.948 334.617C158.388 336.176 167.259 344.125 171.11 349.429C168.33 356.898 165.106 367.911 157.672 371.977Z"/>
	<defs>
		<linearGradient id="gradient_9" gradientUnits="userSpaceOnUse" x1="286.55099" y1="726.22369" x2="255.94095" y2="664.7785">
			<stop offset="0" stop-color="#218500"/>
			<stop offset="1" stop-color="#044302"/>
		</linearGradient>
	</defs>
	<path fill="url(#gradient_9)" transform="scale(1.80081 1.80081)" d="M256.572 663.25C258.386 663.456 260.305 664.688 262.034 665.329C270.285 668.389 277.462 670.623 283.842 677.006C289.466 682.632 292.375 690.471 292.298 698.398C292.265 701.873 288.901 726.332 287.25 727.941L285.787 727.181L265.759 716.441C258.192 711.895 251.223 705.165 249.112 696.25C246.165 683.799 249.88 673.702 256.572 663.25Z"/>
	<defs>
		<linearGradient id="gradient_10" gradientUnits="userSpaceOnUse" x1="441.53137" y1="100.30598" x2="407.31931" y2="43.713764">
			<stop offset="0" stop-color="#033500"/>
			<stop offset="1" stop-color="#28A101"/>
		</linearGradient>
	</defs>
	<path fill="url(#gradient_10)" transform="scale(1.80081 1.80081)" d="M406.186 57.8909C405.962 56.6743 406.433 54.4387 406.591 53.1762C407.035 49.6272 407.533 46.1115 408.335 42.6243L414.91 45.8094C427.086 50.7732 443.716 56.3835 449.136 69.497C451.633 75.539 451.269 82.196 450.342 88.5477C450.038 90.6338 449.819 92.9408 449.014 94.9057C448.624 95.8576 447.927 96.6384 447.25 97.3971C444.736 97.9532 442.654 96.138 440.393 96.8903C439.536 99.0306 441.736 100.536 439.079 101.654C433.299 104.086 424.909 103.192 419.376 100.506C413.176 97.4974 408.9 91.2991 406.793 84.8906C404.046 76.5379 405.117 66.4894 406.186 57.8909Z"/>
	<defs>
		<linearGradient id="gradient_11" gradientUnits="userSpaceOnUse" x1="691.97034" y1="446.6055" x2="747.1228" y2="409.50613">
			<stop offset="0" stop-color="#0E6500"/>
			<stop offset="1" stop-color="#31AF01"/>
		</linearGradient>
	</defs>
	<path fill="url(#gradient_11)" transform="scale(1.80081 1.80081)" d="M706.132 452.082C704.104 449.198 697.896 447.616 694.776 445.673C692.122 444.021 689.458 441.949 687.165 439.832C683.525 436.471 680.985 431.913 678.403 427.741L711.826 415.081C716.878 413.34 721.433 411.015 726.879 411.016C733.061 411.018 737.955 412.67 743.787 414.231L754.285 416.866C753.95 418.782 752.752 420.89 751.941 422.686C749.078 429.027 745.432 435.117 741.007 440.5C737.811 444.388 733.61 447.033 729.476 449.823C721.728 451.635 714.037 451.657 706.132 452.082Z"/>
	<defs>
		<linearGradient id="gradient_12" gradientUnits="userSpaceOnUse" x1="124.97623" y1="670.76904" x2="184.64339" y2="638.40393">
			<stop offset="0" stop-color="#26A000"/>
			<stop offset="1" stop-color="#073E02"/>
		</linearGradient>
	</defs>
	<path fill="url(#gradient_12)" transform="scale(1.80081 1.80081)" d="M138.664 646.959C141.991 639.581 148.308 632.082 155.968 629.162C161.043 627.228 165.906 626.911 171.265 626.864C173.158 626.847 175.6 626.604 177.341 627.481L178.5 628.187L179.25 628.285L178.616 629.5C182.031 636.79 187.511 646.53 184.811 654.861C182.504 661.98 175.824 669.38 169.131 672.631C164.999 674.637 157.265 676.204 152.707 675.981C144.731 677.687 134.748 676.259 126.827 674.776L133.841 657.388C135.345 653.849 136.608 650.229 138.664 646.959Z"/>
	<defs>
		<linearGradient id="gradient_13" gradientUnits="userSpaceOnUse" x1="270.56302" y1="216.59464" x2="232.69307" y2="164.58295">
			<stop offset="0" stop-color="#013B00"/>
			<stop offset="1" stop-color="#32A006"/>
		</linearGradient>
	</defs>
	<path fill="url(#gradient_13)" transform="scale(1.80081 1.80081)" d="M234.284 205.573L234.16 205.48C228.348 197.797 228.223 177.532 227.892 167.919C236.938 169.095 245.881 169.732 254.812 171.766C259.731 172.886 264.263 174.114 268.465 177.037C272.392 179.302 275.077 182.871 277.365 186.698C278.683 188.903 278.792 191.422 279.193 193.896C280.1 199.502 279.134 204.659 278.25 210.163L277.618 210.5C276.507 212.234 276.336 213.34 274.25 213.799C273.205 214.028 272.448 213.856 271.64 214.659C269.603 216.684 264.041 219.38 263.515 221.893L262.08 222.018L261.694 221.756C258.122 221.586 254.765 220.89 251.359 219.811C244.065 217.498 237.855 212.392 234.284 205.573Z"/>
	<path fill="#146801" transform="scale(1.80081 1.80081)" d="M903.693 362.812C896.712 366.568 887.047 368.306 879.22 368.036C872.543 367.806 865.226 364.642 860.75 359.555C858.718 357.247 857.823 353.753 856.505 351C855.556 349.017 853.973 346.923 853.456 344.79C853.163 343.578 853.32 342.229 853.426 341C856.742 335.649 861.965 331.373 867.25 327.997C873.115 324.251 880.871 321.995 887.835 323.718L888.5 323.898C895.095 325.628 899.221 328.457 904.104 333.174C910.969 339.019 916.417 346.801 923.875 351.928C920.605 354.152 906.811 363.273 903.693 362.812Z"/>
	<defs>
		<linearGradient id="gradient_14" gradientUnits="userSpaceOnUse" x1="785.0343" y1="244.24486" x2="850.18958" y2="210.13795">
			<stop offset="0" stop-color="#023301"/>
			<stop offset="1" stop-color="#2CA200"/>
		</linearGradient>
	</defs>
	<path fill="url(#gradient_14)" transform="scale(1.80081 1.80081)" d="M842.797 226.12C841.635 230.608 839.724 235.731 837.246 239.676C833.714 245.299 827.325 249.957 820.866 251.463L820 251.655C809.555 254.049 796.808 251.594 786.77 248.196C787.877 244.879 789.093 241.549 789.965 238.163C792.034 230.127 794.304 216.409 800.95 210.892C810.268 203.156 820.236 203.35 831.76 204.541C836.674 204.715 841.676 205.108 846.576 204.654C847.44 204.573 847.058 204.561 847.938 204.758C846.556 211.7 845.58 219.596 842.797 226.12Z"/>
	<path fill="#146801" transform="scale(1.80081 1.80081)" d="M118.29 442.523L118.362 442.227C120.625 437.623 126.479 432.749 131.071 430.648C138.83 427.097 148.694 427.907 156.536 430.852C159.382 431.92 163.899 433.937 165.817 436.245C167.208 437.918 168.03 440.351 168.923 442.318L168.589 443.207L168.96 443.84C167.971 449.455 167.169 457.4 164.63 462.473C163.012 465.706 159.188 469.77 156.281 471.906C148.204 477.842 135.779 478.819 126.26 477.151L124.805 476.811C123.24 477.072 120.596 476.297 119 475.987C112.863 474.793 106.932 473.336 101.134 470.979L118.29 442.523Z"/>
	<path fill="#146801" transform="scale(1.80081 1.80081)" d="M598.448 138.345C605.342 130.888 615.968 127.309 623.337 120.302C626.848 126.453 630.297 133.318 632.135 140.185C632.857 141.235 633.265 143.481 633.635 144.75C635.338 150.601 636.063 155.873 635.089 161.949C633.797 170.007 628.815 179.036 622.084 183.819C619.842 185.412 617.314 186.883 614.822 188.034C611.878 189.394 608.744 190.275 605.75 191.507L587.564 198.972C585.264 199.869 581.869 201.671 579.485 201.25C581.003 199.882 583.824 199.346 585.757 198.552L595.378 194.316C598.367 193.145 601.424 192.307 604.396 191.046C601.502 188.65 597.983 186.779 595.63 183.819C590.431 177.278 586.212 169.924 587.304 161.218C588.352 152.857 590.752 145.276 597.149 139.425L598.448 138.345Z"/>
	<path fill="#146801" transform="scale(1.80081 1.80081)" d="M846.56 606.583L847.5 606.5C848.422 604.697 849.573 603.006 849.25 600.905C851.066 600.241 853.565 600.507 855.506 600.504C862.393 600.494 868.826 600.516 875.187 603.499C885.066 608.132 891.615 617.102 895.21 627.206L905.45 656.469C886.721 656.978 863.887 657.579 849.26 643.855C844.597 639.48 841.556 632.976 841.471 626.536C841.42 622.64 842.47 618.619 843.641 614.932C844.057 613.621 846.55 608.643 846.383 607.799C846.326 607.514 846.074 607.308 845.919 607.063L846.56 606.583Z"/>
	<defs>
		<linearGradient id="gradient_15" gradientUnits="userSpaceOnUse" x1="679.8894" y1="84.96302" x2="655.27057" y2="158.59503">
			<stop offset="0" stop-color="#23A400"/>
			<stop offset="1" stop-color="#073502"/>
		</linearGradient>
	</defs>
	<path fill="url(#gradient_15)" transform="scale(1.80081 1.80081)" d="M640.581 126.134C642.352 113.748 648.746 105.822 658.531 98.5493L680.529 85.0129C685.773 98.5314 690.681 112.05 690.715 126.735C690.726 131.238 690.476 135.575 688.652 139.748L686.938 143.167C682.749 149.759 677.346 153.687 669.684 155.337C668.036 155.691 666.562 155.946 664.869 155.768C662.486 155.516 652.998 152.171 651.893 153L652.336 157.187C650.914 157.667 650.932 157.796 649.579 157.2L650.49 156.411C651.142 155.528 650.686 153.831 650.281 152.885C647.816 147.132 643.593 142.503 641.609 136.407C640.45 132.847 640.429 129.819 640.581 126.134Z"/>
	<path fill="#146801" transform="scale(1.80081 1.80081)" d="M241.213 108.491C254.587 111.443 268.96 110.603 282.015 115.063C285.372 116.21 288.892 117.551 291.75 119.698C296.433 123.216 299.598 128.406 300.51 134.189L300.63 135C302.059 144.162 300.11 152.309 294.972 159.971C296.169 161.869 297.488 163.545 298.945 165.25C299.585 165.853 299.249 165.481 299.89 166.422C298.665 166.261 296.797 164.149 295.806 163.265C293.716 164.694 291.58 166.292 289.099 166.931C280.668 169.102 269.567 166.613 262.413 161.957C245.823 151.159 244.494 126.183 241.213 108.491Z"/>
	<defs>
		<linearGradient id="gradient_16" gradientUnits="userSpaceOnUse" x1="854.34723" y1="440.73874" x2="920.31927" y2="478.58569">
			<stop offset="0" stop-color="#053901"/>
			<stop offset="1" stop-color="#299601"/>
		</linearGradient>
	</defs>
	<path fill="url(#gradient_16)" transform="scale(1.80081 1.80081)" d="M856.049 440.576C857.473 440.509 857.781 440.96 858.002 439.383C858.253 437.597 858 434.952 857.491 433.25C858.745 432.115 860.738 432.076 862.362 431.901C867.177 431.38 872.037 431.114 876.875 431.366C879.884 431.523 882.792 431.763 885.75 432.363L886.643 432.536C895.116 434.232 902.499 439.582 907.275 446.749C909.65 450.312 910.959 454.526 912.262 458.568C914.985 467.019 916.853 476.274 921.344 484.003C905.991 488.274 887.57 488.636 873.341 480.508C866.773 476.756 860.191 470.028 858.268 462.596C856.597 456.14 856.641 449.321 857.569 442.75C856.912 441.738 856.493 441.612 855.407 441.044L856.049 440.576Z"/>
	<path fill="#146801" transform="scale(1.80081 1.80081)" d="M782.188 265.71C793.154 266.126 802.868 269.494 813.59 271.133C817.33 271.705 821.29 271.658 825.073 271.768C821.302 279.346 817.904 287.16 813.714 294.516C811.57 298.278 809.427 302.055 806.368 305.162C802.556 309.034 797.432 312.008 792.495 314.181L790 314.893C779.659 317.365 772.764 314.341 763.449 310.202C761.007 309.117 758.437 308.379 756.155 306.965C755.432 306.516 755.001 306.201 754.155 305.975L753.619 305.881L753.7 305.328C753.774 303.202 752.259 301.588 750.949 300.095L750.486 299.577C750.165 290.693 752.96 281.892 758.762 275.126C764.679 268.226 773.566 266.384 782.188 265.71Z"/>
	<defs>
		<linearGradient id="gradient_17" gradientUnits="userSpaceOnUse" x1="468.07465" y1="217.20737" x2="433.29605" y2="148.11615">
			<stop offset="0" stop-color="#073D01"/>
			<stop offset="1" stop-color="#239901"/>
		</linearGradient>
	</defs>
	<path fill="url(#gradient_17)" transform="scale(1.80081 1.80081)" d="M436.885 144.518C444.132 147.522 451.172 150.766 457.623 155.304C467.263 162.086 476.958 171.997 478.952 184.066L479.097 185C481.022 196.931 475.335 208.596 468.692 218.151L466.75 219.653C462.958 220.018 459.304 219.656 455.556 219.067C447.242 217.758 439.357 213.497 434.364 206.608C421.16 188.39 433.731 163.955 436.885 144.518Z"/>
	<defs>
		<linearGradient id="gradient_18" gradientUnits="userSpaceOnUse" x1="228.89604" y1="665.43237" x2="192.26793" y2="739.91895">
			<stop offset="0" stop-color="#064201"/>
			<stop offset="1" stop-color="#238F00"/>
		</linearGradient>
	</defs>
	<path fill="url(#gradient_18)" transform="scale(1.80081 1.80081)" d="M227.756 662.967L228.335 663.737C236.572 674.868 241.161 688.07 238.98 702C235.652 723.252 213.679 731.915 198.309 743.08L196.5 743.851L196.082 743.376C194.647 741.249 194.493 736.463 193.895 733.869L189.473 715.248C188.743 712.238 187.759 709.235 187.323 706.164C186.822 702.63 186.759 698.565 187.386 695.052C188.426 689.232 190.193 684.61 193.92 679.926C195.281 678.216 196.69 676.412 198.461 675.105C204.451 670.69 211.317 670.126 218.125 667.936C221.758 666.768 224.647 665.138 227.756 662.967Z"/>
	<defs>
		<linearGradient id="gradient_19" gradientUnits="userSpaceOnUse" x1="109.77647" y1="572.42969" x2="191.48314" y2="577.28369">
			<stop offset="0" stop-color="#2EAA00"/>
			<stop offset="1" stop-color="#063D02"/>
		</linearGradient>
	</defs>
	<path fill="url(#gradient_19)" transform="scale(1.80081 1.80081)" d="M133.444 562.648C138.982 556.745 144.544 552.02 152.5 549.925L153.368 549.685C162.558 547.292 172.902 549.347 180.913 554.324C184.751 556.708 190.292 560.855 191.879 565.184L191.986 566.519C192.338 570.006 192.44 574.167 191.762 577.61C190.836 582.317 186.818 588.545 183.807 592.241C178.584 598.653 170.815 601.608 162.75 602.406C151.895 603.481 136.977 600.906 127.229 595.765L127.142 595.685C120.903 593.509 114.037 589.856 108.625 586.043C112.213 582.551 116.574 579.838 120.248 576.365C124.866 572.001 128.679 566.873 133.444 562.648Z"/>
	<defs>
		<linearGradient id="gradient_20" gradientUnits="userSpaceOnUse" x1="548.78094" y1="141.42542" x2="599.3634" y2="68.366913">
			<stop offset="0" stop-color="#063B01"/>
			<stop offset="1" stop-color="#2CA600"/>
		</linearGradient>
	</defs>
	<path fill="url(#gradient_20)" transform="scale(1.80081 1.80081)" d="M554.281 90.0829C562.456 82.4077 573.567 80.9259 583.648 77.3302C589.573 75.2168 595.404 72.5897 601.029 69.7845L601.581 69.8845C602.233 76.9102 601.343 84.0172 600.615 91.006C599.458 102.097 598.554 113.371 593.353 123.443L593.195 123.554C591.107 128.356 587.232 133.048 583.137 136.269C575.12 142.575 566.899 143.456 557.122 142.274C553.849 141.879 547.289 141.863 545.25 138.765C543.94 136.775 543.764 134.078 543.228 131.797C541.784 125.657 540.278 119.917 541.401 113.545C542.896 105.056 547.09 95.1855 554.281 90.0829Z"/>
	<path fill="#146801" transform="scale(1.80081 1.80081)" d="M806.728 663.75L807.37 663.551C812.537 662.52 832.866 669.878 837.524 673.08C845.313 678.434 850.443 686.974 851.847 696.27C852.238 698.856 852.516 701.708 852.404 704.328C852.126 710.859 847.742 741.484 844.86 745.32L843.75 744.581C827.348 731.846 803.553 724.379 797.595 702.25C793.839 688.301 799.846 675.472 806.728 663.75Z"/>
	<defs>
		<linearGradient id="gradient_21" gradientUnits="userSpaceOnUse" x1="702.23822" y1="243.98283" x2="751.86163" y2="267.16248">
			<stop offset="0" stop-color="#167300"/>
			<stop offset="1" stop-color="#269700"/>
		</linearGradient>
	</defs>
	<path fill="url(#gradient_21)" transform="scale(1.80081 1.80081)" d="M725.666 211.75L726.345 211.824C730.382 212.481 741.498 225.544 745.387 229.12C748.614 232.087 752.43 234.442 755.166 237.894C755.368 241.288 755 244.847 754.781 248.238C753.881 262.139 750.791 275.679 742.938 287.402C739.812 292.07 735.526 295.739 732.452 300.503L731.976 301.25L731.116 301.75C727.48 297.292 723.264 293.339 719.544 288.946C709.528 277.119 702.676 262.983 702.613 247.25C702.552 231.846 715.976 221.719 725.666 211.75Z"/>
	<defs>
		<linearGradient id="gradient_22" gradientUnits="userSpaceOnUse" x1="894.79034" y1="264.82129" x2="826.08441" y2="321.49619">
			<stop offset="0" stop-color="#32AF00"/>
			<stop offset="1" stop-color="#013202"/>
		</linearGradient>
	</defs>
	<path fill="url(#gradient_22)" transform="scale(1.80081 1.80081)" d="M835.284 279.038C845.625 269.629 861.86 270.829 874.854 270.046C880.656 269.696 886.021 268.885 891.75 268.105C893.779 267.829 895.837 267.951 897.854 267.612C894.684 281.688 889.736 296.025 881.839 308.178C878.857 312.767 875.182 317.598 870.554 320.648L869.591 321.236C863.061 326.613 853.323 329.05 845 328.205C838.366 327.532 832.402 325.889 826.608 322.573L826.294 320.475C826.982 319.87 827.517 319.217 828.086 318.5C824.948 312.496 823.682 303.55 824.68 296.906C825.811 289.383 829.266 283.638 835.284 279.038Z"/>
	<defs>
		<linearGradient id="gradient_23" gradientUnits="userSpaceOnUse" x1="123.40429" y1="278.4147" x2="197.91483" y2="328.38141">
			<stop offset="0" stop-color="#33B600"/>
			<stop offset="1" stop-color="#043903"/>
		</linearGradient>
	</defs>
	<path fill="url(#gradient_23)" transform="scale(1.80081 1.80081)" d="M127.209 295.003C124.295 291.352 122.394 286.28 121.113 281.848C125.264 281.337 130.485 282.028 134.665 282.427L158.961 281.948C171.022 281.877 182.098 282.433 191.068 291.576C198.367 299.015 200.473 307.567 203.113 317.316L203.082 318.519C200.021 325.375 196.803 333.453 189.47 336.83C182.354 340.108 170.631 339.999 163.351 337.275C149.707 332.171 140.989 318.403 133.75 306.501C131.496 302.795 128.93 298.98 127.209 295.003Z"/>
	<defs>
		<linearGradient id="gradient_24" gradientUnits="userSpaceOnUse" x1="222.29523" y1="404.47202" x2="143.17561" y2="381.87912">
			<stop offset="0" stop-color="#043E02"/>
			<stop offset="1" stop-color="#2FAD00"/>
		</linearGradient>
	</defs>
	<path fill="url(#gradient_24)" transform="scale(1.80081 1.80081)" d="M187.593 368.187C191.231 367.606 196.126 367.858 199.764 368.603C208.65 370.422 216.155 375.979 221.041 383.536C222.244 385.396 226.822 393.857 226.158 395.75C225.842 396.65 223.906 397.428 223.46 398.25C222.978 399.14 223.062 402.218 222.775 403.418C221.128 410.31 214.374 414.872 208.543 418.212C200.26 422.958 188.453 424.483 179.296 422.052C174.808 420.832 170.198 418.917 166.07 416.794C157.468 412.368 147.39 404.55 141.381 396.972C140.394 395.726 138.992 394.278 138.506 392.75C141.226 391.223 144.08 389.719 146.604 387.879C149.264 385.941 151.615 383.591 154.25 381.62C164.413 374.017 175.075 369.743 187.593 368.187Z"/>
	<defs>
		<linearGradient id="gradient_25" gradientUnits="userSpaceOnUse" x1="744.2981" y1="626.68701" x2="805.60547" y2="623.47327">
			<stop offset="0" stop-color="#0C5D01"/>
			<stop offset="1" stop-color="#2AA600"/>
		</linearGradient>
	</defs>
	<path fill="url(#gradient_25)" transform="scale(1.80081 1.80081)" d="M752.065 595.973L753.003 596.105C753.911 595.267 754.473 594.871 754.75 593.616L755.75 594.092C758.07 592.914 759.134 590.473 761.17 589.225C762.935 588.143 776.081 591.474 778.812 592.366C789.455 595.844 798.119 603.552 803.17 613.547C809.902 626.868 806.942 645.786 804.872 660.075C789.062 662.152 772.934 657.887 760.148 648.146C751.75 641.748 744.621 631.516 743.358 620.822C742.629 614.648 743.948 608.791 746.915 603.352C748.121 601.141 749.738 599.138 750.917 596.963L752.065 595.973Z"/>
	<defs>
		<linearGradient id="gradient_26" gradientUnits="userSpaceOnUse" x1="573.12891" y1="191.24173" x2="520.88684" y2="261.69144">
			<stop offset="0" stop-color="#37B900"/>
			<stop offset="1" stop-color="#0A4A02"/>
		</linearGradient>
	</defs>
	<path fill="url(#gradient_26)" transform="scale(1.80081 1.80081)" d="M576.634 192.25L577.228 192.63L578.364 198.793C578.954 202.448 578.29 205.958 578.042 209.614C577.238 221.438 576.855 235.454 569.523 245.381C558.484 260.327 540.219 263.157 523.018 265.684L521.698 261.378C518.926 254.088 515.596 246.525 514.864 238.713C513.896 228.396 517.402 217.376 524.084 209.446C529.339 203.21 536.721 198.63 544.638 196.659C549.745 195.388 555.504 195.229 560.75 194.561C566.081 193.883 571.254 192.694 576.634 192.25Z"/>
	<defs>
		<linearGradient id="gradient_27" gradientUnits="userSpaceOnUse" x1="282.4631" y1="631.91919" x2="226.28383" y2="617.33258">
			<stop offset="0" stop-color="#0D5B01"/>
			<stop offset="1" stop-color="#30A600"/>
		</linearGradient>
	</defs>
	<path fill="url(#gradient_27)" transform="scale(1.80081 1.80081)" d="M280.855 597.156C280.501 598.476 281.296 599.555 281.82 600.784C283.284 604.212 284.973 607.651 285.974 611.25C286.537 613.279 286.623 615.335 286.582 617.428C286.354 628.962 279.832 639.419 271.638 647.119C263.666 654.61 249.296 662.159 238.166 662.409C234.492 662.492 230.446 661.562 226.681 661.437C225.72 648.807 223.026 635.89 224.528 623.25C226.595 605.847 239.061 592.377 256.579 589.971C260.265 589.465 264.041 589.544 267.752 589.23C268.543 589.163 270.295 589.239 270.987 588.944C272.344 588.366 274.184 586.47 275.414 585.519C275.891 587.699 276.225 589.739 277.423 591.662L278.246 593.274C278.985 594.731 279.807 595.908 280.855 597.156Z"/>
	<defs>
		<linearGradient id="gradient_28" gradientUnits="userSpaceOnUse" x1="827.51019" y1="539.56311" x2="915.99432" y2="539.40125">
			<stop offset="0" stop-color="#023902"/>
			<stop offset="1" stop-color="#31AE01"/>
		</linearGradient>
	</defs>
	<path fill="url(#gradient_28)" transform="scale(1.80081 1.80081)" d="M825.433 534.032L826.123 533.759C828.407 532.758 831.845 527.371 833.608 525.32C843.527 513.785 858.421 507.386 873.425 512.323C887.63 516.996 898.562 528.113 911.823 534.617L911.816 534.687C912.108 535.104 912.66 536.164 913.035 536.427C913.121 536.488 914.715 537.211 914.755 537.25C915.208 537.69 915.445 539.818 915.576 540.468C915.739 541.281 915.886 542.209 916.375 542.875L911.953 547.281L912.333 548.096L906.462 553.401C893.766 563.347 874.944 570.336 858.734 568.142C845.429 566.342 836.146 557.634 831.25 545.482C829.807 541.9 829.154 537.922 826.75 534.816L825.431 534.903L825.433 534.032Z"/>
	<defs>
		<linearGradient id="gradient_29" gradientUnits="userSpaceOnUse" x1="802.97034" y1="400.87274" x2="893.23889" y2="386.71191">
			<stop offset="0" stop-color="#084401"/>
			<stop offset="1" stop-color="#30B501"/>
		</linearGradient>
	</defs>
	<path fill="url(#gradient_29)" transform="scale(1.80081 1.80081)" d="M882.052 414.549C878.394 416.833 872.583 418.31 868.437 419.716C856.24 423.854 837.897 426.213 826.02 420.204C816.502 415.389 811.735 410.202 806.395 401.123C804.603 398.076 802.738 395.098 801.61 391.727C802.688 388.85 804.621 385.533 806.658 383.25C809.001 380.623 812.088 378.386 814.87 376.25C820.671 371.795 826.841 366.623 834.5 366.33C850.224 365.729 860.845 370.23 872.486 380.69L897.511 408.369L882.052 414.549Z"/>
	<defs>
		<linearGradient id="gradient_30" gradientUnits="userSpaceOnUse" x1="705.29779" y1="176.31439" x2="774.83289" y2="100.55926">
			<stop offset="0" stop-color="#053D02"/>
			<stop offset="1" stop-color="#3AC200"/>
		</linearGradient>
	</defs>
	<path fill="url(#gradient_30)" transform="scale(1.80081 1.80081)" d="M743.222 110.553C748.432 108.979 753.895 107.493 758.817 105.137C763.41 102.939 767.577 100.032 771.976 97.4998C771.796 110.727 770.64 123.653 768.328 136.691C768.031 138.37 767.625 142.586 766.714 143.901C765.771 150.609 762.027 159.063 757.558 164.192C743.463 180.368 724.053 175.483 705.241 176.976C703.419 167.054 701.427 155.784 702.832 145.722L702.972 144.75C703.768 138.888 706.473 132.455 710.025 127.699C717.601 117.556 731.092 112.524 743.222 110.553Z"/>
	<defs>
		<linearGradient id="gradient_31" gradientUnits="userSpaceOnUse" x1="611.7973" y1="372.56473" x2="568.86603" y2="285.17911">
			<stop offset="0" stop-color="#054201"/>
			<stop offset="1" stop-color="#32B801"/>
		</linearGradient>
	</defs>
	<path fill="url(#gradient_31)" transform="scale(1.80081 1.80081)" d="M554.161 293.632L555.917 291.849L581.75 295.491C586.023 296.063 590.771 296.338 594.878 297.686C603.244 300.43 611.238 307.809 616.104 314.973C617.538 317.084 620.139 321.33 620.341 323.814C623.667 331.122 624.721 338.785 623.62 346.75C622.487 354.937 620.231 364.197 616.099 371.419C607.203 368.258 597.831 368.412 588.834 365.953C580.745 363.741 573.444 357.837 568.883 350.906C560.626 338.657 561.913 325.094 559.055 311.25C557.821 305.276 555.039 299.667 554.161 293.632Z"/>
	<defs>
		<linearGradient id="gradient_32" gradientUnits="userSpaceOnUse" x1="314.8248" y1="614.18988" x2="332.40549" y2="712.48431">
			<stop offset="0" stop-color="#043F02"/>
			<stop offset="1" stop-color="#239400"/>
		</linearGradient>
	</defs>
	<path fill="url(#gradient_32)" transform="scale(1.80081 1.80081)" d="M322.541 699.691C310.936 692.896 298.053 682.159 293.648 669.047C292.293 665.013 291.934 660.984 291.89 656.75C291.859 653.696 291.737 650.409 292.351 647.405C294.694 635.935 302.606 625.383 307.845 615.03C312.002 616.69 315.98 618.758 320.191 620.288C326.141 622.449 332.763 623.555 338.224 626.877C346.205 631.731 351.5 644.51 353.464 653.281L353.674 654.25C356.065 664.975 353.065 677.028 349.413 687.189L344.113 711.248C336.92 708.193 328.683 704.545 322.541 699.691Z"/>
	<defs>
		<linearGradient id="gradient_33" gradientUnits="userSpaceOnUse" x1="360.18588" y1="573.35919" x2="421.95956" y2="655.65503">
			<stop offset="0" stop-color="#023C02"/>
			<stop offset="1" stop-color="#2FAA00"/>
		</linearGradient>
	</defs>
	<path fill="url(#gradient_33)" transform="scale(1.80081 1.80081)" d="M406.81 651.742C388.057 645.259 367.57 638.597 357.324 619.936C351.411 609.166 352.048 600.132 354.414 588.549C355.347 583.98 356.203 579.595 357.58 575.127C360.731 575.744 364.201 575.318 367.378 575.085C379.353 574.203 390.687 571.677 401 579.635C413.212 589.058 417.994 601.277 419.84 616.161L421.069 633.346L422.5 656.686L406.81 651.742Z"/>
	<defs>
		<linearGradient id="gradient_34" gradientUnits="userSpaceOnUse" x1="761.36969" y1="489.71844" x2="859.17877" y2="478.75381">
			<stop offset="0" stop-color="#064701"/>
			<stop offset="1" stop-color="#34BB00"/>
		</linearGradient>
	</defs>
	<path fill="url(#gradient_34)" transform="scale(1.80081 1.80081)" d="M791.567 455.218C799.605 455.459 807.021 456.247 814.601 459.117C827.345 463.944 836.748 473.039 846.765 481.857L863.228 495.285C851.725 503.866 838.65 508.639 825.373 513.589C815.203 515.96 804.273 517.579 793.949 515.26L786.339 513.129C776.234 509.336 769.772 501.102 765.75 491.36C764.476 488.276 763.603 484.998 762.119 482C761.157 480.057 760.07 478.443 757.94 477.707C757.112 477.421 756.721 477.274 756.049 476.75C758.069 475.147 759.813 475.931 761.796 474.25C768.855 468.269 774.64 458.983 784.011 456.005C786.282 455.283 789.185 455.356 791.567 455.218Z"/>
	<defs>
		<linearGradient id="gradient_35" gradientUnits="userSpaceOnUse" x1="706.91766" y1="607.1308" x2="704.45294" y2="704.47986">
			<stop offset="0" stop-color="#054001"/>
			<stop offset="1" stop-color="#249800"/>
		</linearGradient>
	</defs>
	<path fill="url(#gradient_35)" transform="scale(1.80081 1.80081)" d="M680.445 682.807C678.602 675.468 676.04 667.944 675.197 660.419C674.056 650.236 676.693 639.402 681.858 630.645C686.963 621.988 694.767 614.567 704.656 611.961C710.598 610.396 715.87 609.294 721.634 606.979C731.404 624.447 741.168 641.625 735.539 662.46C731.938 675.788 720.596 685.52 709.123 692.301L708.071 692.808C706.639 694.256 704.462 695.23 702.698 696.231C697.081 699.421 691.283 701.872 685.396 704.502C684.225 701.973 684.077 698.11 683.524 695.332L680.445 682.807Z"/>
	<defs>
		<linearGradient id="gradient_36" gradientUnits="userSpaceOnUse" x1="407.76108" y1="161.08878" x2="346.9017" y2="67.715851">
			<stop offset="0" stop-color="#003901"/>
			<stop offset="1" stop-color="#38BB01"/>
		</linearGradient>
	</defs>
	<path fill="url(#gradient_36)" transform="scale(1.80081 1.80081)" d="M351.754 126.345C350.23 123.355 349.528 119.296 348.877 115.992C345.717 99.962 346.407 82.6445 347.95 66.4522C357.793 73.4739 367.889 79.2541 378.5 85.0184C383.914 87.9592 390.119 90.6041 395.07 94.2747C404.531 100.087 411.966 109.15 414.545 120.047C416.623 128.829 416.281 137.006 414.537 145.855C413.724 149.981 412.598 154.217 412.908 158.445C410.441 157.883 407.783 157.118 405.25 157.115C398.911 157.109 392.436 158.652 386.132 157.978C383.764 157.724 381.87 156.463 379.75 155.519C376.765 154.189 373.697 153.274 370.775 151.74C365.833 149.147 360.703 144.443 357.698 139.75C355.02 135.568 353.145 131.097 351.754 126.345Z"/>
	<defs>
		<linearGradient id="gradient_37" gradientUnits="userSpaceOnUse" x1="369.88071" y1="198.97299" x2="296.64133" y2="178.72215">
			<stop offset="0" stop-color="#0D5002"/>
			<stop offset="1" stop-color="#32B001"/>
		</linearGradient>
	</defs>
	<path fill="url(#gradient_37)" transform="scale(1.80081 1.80081)" d="M319.732 154.114L336.75 152.831C340.69 152.454 344.523 151.669 348.5 151.515C349.272 151.485 350.956 151.297 351.605 151.566C354.587 152.803 358.171 155.752 360.734 157.753C367.41 162.968 371.873 169.537 372.919 178.122C373.28 181.089 374.001 188.139 372.397 190.51L372.048 190.924C370.571 191.574 368.437 192.122 367.634 193.5L368.014 194.224C366.193 202.669 355.152 211.416 348.25 215.85C342.746 219.385 336.84 221.008 330.641 222.82C327.536 223.727 323.952 223.523 320.75 223.438C313.911 223.256 307.171 222.558 300.429 221.4C296.801 220.776 293.213 219.705 289.551 219.363C288.683 219.171 287.836 218.635 287.038 218.239C291.479 208.478 297.572 199.47 302.915 190.176C303.461 189.225 307.02 183.52 306.926 182.742C306.747 181.255 299.194 177.039 298.527 172.25C299.736 170.775 301.952 170.176 303.681 169.467L303.319 167.668L301.5 167.286L302 167.018C303.945 165.421 305.084 161.904 305.703 159.522C306.076 158.083 306.468 156.962 307.151 155.643C309.664 153.514 316.42 154.173 319.732 154.114Z"/>
	<defs>
		<linearGradient id="gradient_38" gradientUnits="userSpaceOnUse" x1="497.13046" y1="128.6571" x2="516.00116" y2="30.832811">
			<stop offset="0" stop-color="#044101"/>
			<stop offset="1" stop-color="#38BD00"/>
		</linearGradient>
	</defs>
	<path fill="url(#gradient_38)" transform="scale(1.80081 1.80081)" d="M503.417 132.02C501.946 130.13 498.932 129.776 496.75 128.97C494.116 127.997 491.244 126.678 488.982 124.998C481.706 119.592 474.613 110.718 473.281 101.546C469.618 76.3116 485.455 56.3535 499.345 37.3588L506.314 27.2043C509.499 29.8054 512.88 35.6752 515.48 39.0193C527.279 54.1922 539.034 72.4956 536.271 92.6799L535.305 98.5273C532.432 111.334 524.331 120.616 513.151 127.168C510.59 128.669 507.406 129.516 505.024 131.127L504.464 131.52L503.417 132.02Z"/>
	<defs>
		<linearGradient id="gradient_39" gradientUnits="userSpaceOnUse" x1="257.67786" y1="498.45889" x2="164.31642" y2="469.39307">
			<stop offset="0" stop-color="#064902"/>
			<stop offset="1" stop-color="#37BC00"/>
		</linearGradient>
	</defs>
	<path fill="url(#gradient_39)" transform="scale(1.80081 1.80081)" d="M220.753 456.194C227.097 455.911 233.625 456.164 239.547 458.7C247.62 462.156 255.838 468.714 258.733 477.284C259.94 480.856 260.193 484.552 261.606 488.117C261.995 489.1 261.387 490.493 261.094 491.5C258.782 499.468 252.013 509.479 244.637 513.504C230.602 521.162 214.82 519.216 200.132 515.003C184.097 510.446 169.248 502.413 154.234 495.316C157.302 491.956 162.997 489.326 166.696 486.431C183.209 473.509 198.619 457.979 220.753 456.194Z"/>
	<defs>
		<linearGradient id="gradient_40" gradientUnits="userSpaceOnUse" x1="246.71289" y1="286.36258" x2="173.05089" y2="199.18948">
			<stop offset="0" stop-color="#023D01"/>
			<stop offset="1" stop-color="#39BD01"/>
		</linearGradient>
	</defs>
	<path fill="url(#gradient_40)" transform="scale(1.80081 1.80081)" d="M177.363 229.29L171.148 200.303L201.749 209.246C220.768 215.089 241.032 221.846 251.007 240.617C252.595 243.606 253.629 246.757 254.563 250L254.807 250.805C257.457 260.074 254.886 273.499 250.183 281.751C249.113 283.628 247.638 285.223 246.136 286.76C244.974 287.7 243.76 288.546 242.949 289.824C240.936 289.358 238.532 289.713 236.451 289.777C231.526 289.929 226.182 290.408 221.309 289.687C214.05 288.613 206.804 286.296 200.781 281.976C183.342 269.468 180.533 249.004 177.363 229.29Z"/>
	<path transform="scale(1.80081 1.80081)" d="M503.417 132.02L504.464 131.52L504.764 132.25C506.192 135.776 506.572 139.27 506.934 143.022C508.031 154.42 506.447 167.192 504.322 178.422C513.09 169.023 518.855 153.251 532 148.662L533.5 149.517C536.853 147.13 540.395 142.647 542.25 138.974L542.858 139.066C542.719 140.587 541.261 142.116 540.38 143.365C537.857 146.941 534.663 150.396 533.078 154.493C532.143 156.08 530.783 158.345 531.083 160.253L531.215 160.561C528.171 163.774 526.083 167.78 523.874 171.588L515.609 186.46C499.424 218.919 491.291 256.342 495.421 292.584C497.829 313.713 504.097 335.201 510.847 355.35C515.604 336.509 521.671 318.727 531.341 301.773C534.51 296.217 538.341 291.187 542.099 286.035C554.598 268.902 569.322 253.503 584.307 238.53C596.94 225.908 609.685 213.382 620.957 199.494C626.146 193.1 630.945 186.385 635.447 179.497L644.685 164.256C645.893 162.246 647.198 159.205 648.984 157.682L649.579 157.2C650.932 157.796 650.914 157.667 652.336 157.187L652.765 164.502C655.84 162.736 659.324 160.332 662.815 159.569C660.034 161.373 657.203 163.261 655.27 166.029C651.664 171.193 650.564 179.256 647.969 185.018C643.129 195.765 635.032 205.137 627.749 214.292C625.452 217.467 621.268 221.126 619.778 224.536L572.038 272.771C566.533 278.86 560.625 285.13 555.917 291.849L554.161 293.632C550.623 297.597 547.921 302.409 545.176 306.942C538.669 317.687 533.218 330.4 530.253 342.579C524.465 366.351 524.543 391.427 525.78 415.698C527.169 442.967 530.352 469.792 536.861 496.347C545.217 485.936 555.93 477.146 565.081 467.405C578.887 452.708 590.875 437.158 602.419 420.642C608.839 411.456 615.207 402.445 620.668 392.637C638.445 360.71 650.446 326.307 654.755 289.964C656.129 278.379 656.638 267.169 656.557 255.509C656.44 238.832 653.273 220.852 656.813 204.415C657.625 200.648 658.313 197.339 660.235 193.952L660.569 193.374L661.523 194.068C656.337 211.128 660.709 231.167 662.538 248.585C664.361 242.178 666.508 235.89 669.544 229.945C672.954 223.268 677.34 217.047 680.99 210.5C684.661 203.916 687.644 197.052 691.965 190.827C694.742 186.826 698.274 183.361 701.394 179.625C699.985 183.403 697.452 186.398 695.24 189.717C691.23 195.732 686.989 204.35 686.148 211.557C690.309 209.941 694.013 207.476 697.882 205.289C706.808 200.246 715.387 197.166 725.516 195.735C728.511 195.312 733.456 194.961 736.418 195.608L736.248 196.348C719.016 198.689 703.779 205.565 691.119 217.626C688.589 220.036 685.719 222.642 683.681 225.477C677.383 234.233 673.249 244.485 671.442 255.101C669.657 265.586 669.849 277.104 669.239 287.75L666.021 324.225C664.317 336.894 660.827 349.269 657.036 361.45C655.054 367.817 653.308 374.122 650.757 380.297C655.783 377.267 660.822 374.148 666.062 371.496C672.864 368.054 679.864 365.263 686.522 361.489L715.679 344.499C719.196 342.564 722.819 340.165 726.5 338.604C732.104 336.229 737.078 327.472 740.499 322.5L748.298 311.877C749.925 309.778 751.548 307.296 753.833 305.88L734.293 335.857C738.173 335.168 741.707 333.928 745.5 333.049C749.435 332.137 754.254 331.976 758.285 331.888C766.715 331.704 774.89 333.224 783.25 333.592C792.08 333.981 801.548 332.887 809.914 330.159C812.916 329.181 816.07 328.38 818.756 326.665C821.438 324.952 823.879 322.552 826.294 320.475L826.608 322.573L826.087 323.174C819.835 330.309 813.332 332.686 804.74 335.913C802.06 336.92 799.392 338.228 796.609 338.906C806.773 345.469 815.162 354.498 825.25 360.973C828.451 363.027 832.018 364.547 835.496 366.059C823.237 365.123 811.278 356.591 800.503 351.198C796.376 349.132 791.919 346.801 787.428 345.673C773.653 342.213 758.51 343.435 744.763 346.311C738.73 347.574 732.348 349.125 726.84 351.954C718.43 356.273 711.086 363.127 703.833 369.118C719.543 374.036 733.746 380.242 747.62 389.156C762.309 398.595 775.568 409.503 791.5 417.022C799.077 420.599 806.562 422.585 814.53 424.946C828.89 429.201 842.959 433.072 856.049 440.576L855.407 441.044L854.66 440.871C847.39 439.152 840.402 435.917 833.178 433.874L814.271 428.623C802.262 425.639 790.983 423.268 779.567 418.177C765.631 411.963 753.025 403.017 739.95 395.25C729.883 389.27 718.622 382.94 706.75 381.72C699.638 380.988 692.392 382.245 685.582 384.267C679.151 386.177 672.771 388.844 667.038 392.347C660.671 396.238 653.815 401.294 648.75 406.81C634.214 422.641 624.321 442.329 610.53 458.83C594.562 477.936 574.595 493.28 559.998 513.536C554.029 521.82 549.551 530.486 547.207 540.485L543.747 560.29C551.731 550.868 560.987 543.612 570.423 535.75L589.974 519.401C600.342 511.511 611.731 504.918 623.59 499.557C629.904 496.702 636.473 494.866 642.87 492.32C652.127 488.637 661.516 484.111 670.186 479.201C679.381 473.993 687.186 468.131 695.242 461.317C698.867 458.25 702.111 454.623 706.132 452.082C714.037 451.657 721.728 451.635 729.476 449.823C723.809 454.863 717.535 459.039 711.695 463.854C695.878 476.899 680.393 493.26 660.943 500.729C674.471 501.939 688.508 503.8 701.747 506.871C715.483 510.057 728.954 514.665 742.104 519.73C757.702 525.737 772.877 535.318 789.741 537.261C798.518 538.272 807.886 536.968 816.539 535.542C819.441 535.064 822.521 534.116 825.433 534.032L825.431 534.903L824.662 535.274C812.783 540.923 798.656 542.277 785.801 544.226C796.753 552.071 806.61 562.467 815.103 572.88C824.759 584.72 833.553 598.123 846.56 606.583L845.919 607.063C842.321 606.51 838.358 602.255 835.5 600.016C831.317 596.74 827.055 593.472 822.539 590.668C826.525 604.562 829.707 618.327 831.119 632.755C831.794 639.658 831.811 646.916 831.938 653.872C828.261 648.366 827.22 641.448 825.618 635.181C823.047 625.121 820.788 614.879 816.683 605.291C812.508 595.54 807.513 585.733 801.006 577.326C781.932 552.683 753.56 539.316 725.33 528.129C728.304 530.877 730.877 534.158 733.27 537.417C742.726 550.293 749.165 565.211 751.656 581C752.183 584.343 752.972 588.645 752.393 591.968C752.161 593.299 752.129 594.624 752.065 595.973L750.917 596.963C748.902 593.014 747.97 588.686 746.497 584.528C742.468 573.155 737.547 561.791 729.57 552.604C716.551 537.608 698.584 529.23 678.865 527.824C648.803 525.68 617.937 541.616 595.908 560.974C590.498 565.728 585.915 571.039 581.33 576.568C570.346 589.812 558.969 606.678 558.018 624.388C557.612 631.939 558.074 639.606 558.342 647.163L564.234 720.781L567.409 770.013C568.072 780.912 568.479 791.93 569.983 802.75C571.712 815.181 574.004 827.759 577.555 839.806C587.844 874.721 605.785 906.682 626.596 936.346C638.644 953.518 651.492 970.03 665.506 985.64C658.75 985.357 652.68 983.847 646.926 980.18C643.274 977.852 640.233 974.31 637.294 971.148C628.129 961.289 620.508 949.835 610.942 940.396C604.93 934.464 596.308 931.846 588.073 932.011L598.752 956.194C595.209 954.732 591.091 952.526 587.25 952.461C586.611 952.802 586.088 952.883 585.794 953.6C585.142 955.186 585.414 957.519 585.447 959.216C585.642 969.015 587.869 977.993 591.754 986.908C587.188 983.505 584.301 978.883 579.006 976.37C575.366 974.644 571.247 976.115 567.372 975.883C560.761 975.486 554.456 973.257 548.703 970.057C537.593 963.876 531.03 950.327 519.206 945.955C501.915 939.56 497.671 958.755 485.015 964.648C477.68 968.063 471.882 966.191 464.811 963.509C455.047 959.806 446.083 960.098 437.784 966.75C433.796 969.946 430.572 973.083 425.829 975.175C421.665 977.011 414.164 978.14 409.75 976.43C409.625 976.12 409.403 975.833 409.375 975.5C409.363 975.356 413.558 969.909 413.973 969.301C421.3 958.557 427.835 945.582 429.33 932.505C427.039 932.794 424.56 933.016 422.447 934.004C418.21 935.986 415.516 939.31 412.396 942.641C408.946 946.323 404.69 950.573 400.37 953.194C387.509 960.999 371.696 964.94 357.024 967.403C362.356 964.146 367.827 961.019 372.939 957.425C410.782 930.822 439.723 894.07 456.078 850.803C461.01 837.752 464.73 824.24 468.139 810.729C472.215 794.575 475.792 778.309 478.25 761.822C481.117 742.593 482.569 723.234 483.749 703.843C485.921 668.136 487.672 628.508 472.354 595.242C461.979 572.709 446.067 548.576 425.168 534.56C419.429 530.71 412.365 527.623 405.893 525.256C391.923 520.147 376.69 520.6 362.201 522.678C351.464 524.218 340.534 526.799 330.67 531.418C313.614 539.405 299.385 553.616 291.12 570.504C286.992 578.939 284.006 588.297 280.855 597.156C279.807 595.908 278.985 594.731 278.246 593.274L277.423 591.662C278.096 570.338 289.522 544.822 303.632 529.044L303.5 528.542C299.354 528.297 295.777 529.178 291.769 530.118C280.728 532.707 270.654 537.674 261.244 543.939C225.393 567.812 207.962 608.482 199.823 649.357L199.113 649C198.052 645.428 198.368 641.452 198.366 637.75C198.363 630.286 198.451 622.928 199.162 615.493C193.146 619.852 187.306 624.413 180.603 627.68L194.752 613.804C196.628 611.806 198.865 609.736 200.385 607.458C202.848 603.768 203.471 598.437 205.019 594.25L211.871 577.966C215.593 569.737 220.96 562.917 225.635 555.284C219.889 558.229 214.144 560.356 208.252 562.843C205.401 564.048 202.608 565.76 199.544 566.336C197.172 566.783 194.403 566.547 191.986 566.519L191.879 565.184C195.161 564.494 198.627 564.318 201.832 563.31C203.989 562.632 205.968 561.436 208.03 560.525C220.877 554.848 231.681 545.638 243.142 537.66C255.766 528.873 268.993 520.787 283.175 514.756C297.597 508.623 314.447 504.178 329.941 501.92C336.236 501.003 342.684 500.804 349.029 500.296C343.591 497.843 338.381 496.675 332.75 494.92C317.789 490.257 303.562 482.976 289.51 476.154C285.589 474.251 274.856 470.21 273.12 466.124L272.97 465.553L275.088 465.462C278.711 464.999 283.223 464.476 286.832 464.858C297.753 466.014 308.775 472.242 318.872 476.387C323.852 478.432 329.328 480.152 334.5 481.635C343.669 484.264 353.097 485.957 362.477 487.655C377.318 490.342 392.649 492.653 407.76 492.479L406.496 490.5L373.418 448.035C361.627 433.811 349.668 418.432 334.051 408.167C323.329 401.12 311.616 396.905 299.013 394.804C291.283 393.515 282.614 393.734 275.017 395.703C264.945 398.312 255.265 402.467 245.945 407.075C240.783 409.628 235.811 412.567 230.528 414.874C218.216 420.251 205.394 424.6 193.283 430.391C189.605 432.149 186.326 434.558 182.75 436.485C178.087 438.998 173.324 440.712 168.96 443.84L168.589 443.207L168.923 442.318L252.686 394.677C270.885 385.065 290.54 379.098 311.195 383.929C315.893 385.028 320.479 387.141 325.12 388.563C320.2 375.512 315.325 360.223 304.665 350.729C295.204 342.302 283.808 336.161 272.361 330.869C259.72 325.025 246.405 319.945 232.475 318.345C222.584 317.209 212.97 317.971 203.082 318.519L203.113 317.316C222.835 311.917 245.336 311.725 265.03 317.063C269.419 318.252 273.683 319.283 277.77 321.339L278.569 321.746L277.457 319.75L277.159 318.938C275.999 316.116 273.374 313.677 271.318 311.455C263.418 302.921 253.928 294.072 242.949 289.824C243.76 288.546 244.974 287.7 246.136 286.76C260.886 292.679 273.388 300.548 285.601 310.751C284.815 301.798 281.635 292.508 279.86 283.627C278.043 274.54 277.693 265.304 275.98 256.25C273.573 243.528 267.772 233.441 262.08 222.018L263.515 221.893C266.251 224.22 268.049 227.52 269.97 230.5C272.461 234.364 275.107 238.392 278.167 241.823C280.008 232.27 278.68 221.508 278.541 211.789C281.695 218.209 281.614 225.28 281.744 232.247C283.523 227.85 284.53 222.812 286.779 218.693L287.038 218.239C287.836 218.635 288.683 219.171 289.551 219.363C293.213 219.705 296.801 220.776 300.429 221.4C307.171 222.558 313.911 223.256 320.75 223.438C323.952 223.523 327.536 223.727 330.641 222.82C336.84 221.008 342.746 219.385 348.25 215.85C355.152 211.416 366.193 202.669 368.014 194.224L367.634 193.5C368.437 192.122 370.571 191.574 372.048 190.924C377.32 195.212 381.732 201.317 386.478 206.25C395.45 215.575 405.293 224.345 415.691 232.048C412.581 224.227 410.096 215.543 407.822 207.432C406.351 202.183 405.159 196.865 403.116 191.798C400.726 185.874 397.956 180.082 394.868 174.49C391.907 169.128 388.513 163.726 386.424 157.961C389.249 160.875 391.433 164.986 393.652 168.409C399.04 176.722 403.948 185.19 407.94 194.278C414.12 208.35 417.759 222.659 427.592 234.951C438.471 248.553 453.152 260.448 467.759 269.86C469.483 270.971 472.511 273.357 474.56 273.582L475.782 254.994C476.104 250.484 476.618 245.404 475.777 240.928C474.597 234.643 471.544 228.02 469.181 222.079L470.591 223.884C473.469 227.626 474.944 231.017 476.765 235.297C477.763 237.642 479.009 239.399 478.674 241.957L479.326 241.862C481.017 233.581 482.832 225.347 485.41 217.288C494.265 189.614 507.672 161.909 503.417 132.02Z"/>
	<path fill="white" transform="scale(1.80081 1.80081)" d="M368.014 194.224C372.441 198.403 375.652 203.116 379.443 207.843C386.042 216.07 392.809 224.597 400.135 232.179C407.073 239.358 415.101 244.975 422.558 251.53L445.952 273.202C452.38 278.91 459.677 284.642 464.909 291.513C469.423 297.441 472.953 304.923 474.108 312.309C465.185 307.262 457.317 300.134 448.87 294.304C436.151 285.524 421.898 281.098 407.429 276.168C404.069 275.023 400.468 273.176 397.055 272.381C395.596 272.676 395.003 272.908 393.835 273.92C398.224 275.125 402.025 277.67 406.25 279.288C417.797 283.709 429.955 288.206 440.162 295.327C445.586 299.11 449.978 303.9 454.582 308.586C458.824 312.904 463.244 317.145 467.18 321.745C476.775 332.962 482.298 345.876 485.837 360.116C489.492 374.822 490.428 389.452 491.196 404.5L492.736 447.372C493.273 480.339 493.532 513.221 491.128 546.124C486.373 540.955 482.369 534.909 477.72 529.565L428.75 473.847L393.509 434.653C386.415 426.915 378.836 419.459 372.246 411.281C363.911 400.936 356.143 390.211 349.136 378.919C344.648 371.686 340.769 363.508 335.657 356.764C331.331 351.056 327.142 345.38 322.022 340.333C317.144 335.524 311.343 331.134 306.988 325.882C294.676 311.037 287.344 290.839 286.589 271.619C286.116 259.591 287.528 247.489 288.624 235.538L289.551 219.363C293.213 219.705 296.801 220.776 300.429 221.4C307.171 222.558 313.911 223.256 320.75 223.438C323.952 223.523 327.536 223.727 330.641 222.82C336.84 221.008 342.746 219.385 348.25 215.85C355.152 211.416 366.193 202.669 368.014 194.224Z"/>
	<defs>
		<linearGradient id="gradient_41" gradientUnits="userSpaceOnUse" x1="350.97809" y1="351.0798" x2="346.51132" y2="293.88199">
			<stop offset="0" stop-color="#064900"/>
			<stop offset="1" stop-color="#2EB102"/>
		</linearGradient>
	</defs>
	<path fill="url(#gradient_41)" transform="scale(1.80081 1.80081)" d="M331.646 332.893C329.413 318.224 338.535 306.114 345.161 293.808C354.089 298.119 360.56 304.66 364.75 313.694C367.25 319.084 368.538 325.576 366.463 331.287C365.429 337.702 357.799 347.718 352.481 351.269L351.657 351.702C343.666 348.326 336.187 344.089 332.589 335.75L331.646 332.893Z"/>
	<defs>
		<linearGradient id="gradient_42" gradientUnits="userSpaceOnUse" x1="429.69836" y1="390.284" x2="461.26099" y2="478.04214">
			<stop offset="0" stop-color="#2FB900"/>
			<stop offset="1" stop-color="#073D02"/>
		</linearGradient>
	</defs>
	<path fill="url(#gradient_42)" transform="scale(1.80081 1.80081)" d="M420.536 428.198C423.857 412.727 434.912 398.84 443.101 385.5C450.405 393.72 459.694 400.324 464.68 410.521C475.582 426.389 478.463 442.106 474.99 461.052L472.722 474.25L472.249 474.112C468.676 473.144 464.801 473.177 461.123 472.843C445.991 471.467 431.859 469.577 423.535 455.266C418.831 447.18 418.565 437.34 420.489 428.359L420.536 428.198Z"/>
	<defs>
		<linearGradient id="gradient_43" gradientUnits="userSpaceOnUse" x1="395.9906" y1="269.02017" x2="310.1951" y2="229.00529">
			<stop offset="0" stop-color="#064802"/>
			<stop offset="1" stop-color="#38B701"/>
		</linearGradient>
	</defs>
	<path fill="url(#gradient_43)" transform="scale(1.80081 1.80081)" d="M393.835 273.92C390.625 275.529 387.686 277.942 384.606 279.82C377.538 284.132 369.793 286.474 361.5 285.997C342.702 284.917 330.469 268.78 319.409 255.622L303.786 237.704L335.099 225.805C346.896 221.816 364.715 218.625 376.278 224.592L377 224.98C384.717 229.026 391.201 234.974 394.815 243.039C398.302 250.823 399.852 262.716 396.673 270.782L396.484 271.24L397.055 272.381C395.596 272.676 395.003 272.908 393.835 273.92Z"/>
	<defs>
		<linearGradient id="gradient_44" gradientUnits="userSpaceOnUse" x1="377.14746" y1="390.59821" x2="432.06964" y2="299.61816">
			<stop offset="0" stop-color="#043B02"/>
			<stop offset="1" stop-color="#33B800"/>
		</linearGradient>
	</defs>
	<path fill="url(#gradient_44)" transform="scale(1.80081 1.80081)" d="M423.442 308.699C428.86 307.305 434.151 306.053 439.156 303.496L438.499 324.061C438.308 327.521 438.318 331.316 437.531 334.683C437.746 337.106 437.045 340.287 436.649 342.7C435.341 350.677 433.313 359.225 429.54 366.428C422.432 379.999 410.728 384.526 396.338 386.225C388.564 387.143 381.825 387.187 374.241 389.6L374.012 386.75C373.605 382.162 371.631 377.88 370.415 373.46C366.963 360.909 366.36 347.561 373.002 336C378.293 326.79 388.797 318.862 398.703 315.308C406.715 312.433 415.238 310.941 423.442 308.699Z"/>
</svg>
